M48
; DRILL file {KiCad 8.0.8} date 2025-02-14T22:47:40+0800
; FORMAT={-:-/ absolute / inch / decimal}
; #@! TF.CreationDate,2025-02-14T22:47:40+08:00
; #@! TF.GenerationSoftware,Kicad,Pcbnew,8.0.8
; #@! TF.FileFunction,Plated,1,2,PTH
FMAT,2
INCH
; #@! TA.AperFunction,Plated,PTH,ViaDrill
T1C0.0118
; #@! TA.AperFunction,Plated,PTH,ComponentDrill
T2C0.0197
; #@! TA.AperFunction,Plated,PTH,ComponentDrill
T3C0.0315
; #@! TA.AperFunction,Plated,PTH,ComponentDrill
T4C0.0394
%
G90
G05
T1
X5.4406Y-3.1927
X5.4406Y-3.4093
X5.596Y-3.258
X5.596Y-3.353
X5.7185Y-3.494
X5.979Y-3.404
X6.604Y-3.29
X6.74Y-3.427
T3
X6.113Y-3.394
X6.213Y-3.394
X6.313Y-3.394
T4
X6.739Y-3.19
X6.739Y-3.29
T2
G00X5.2977Y-3.1309
M15
G01X5.2701Y-3.1309
M16
G05
G00X5.2977Y-3.4711
M15
G01X5.2701Y-3.4711
M16
G05
G00X5.4473Y-3.1309
M15
G01X5.4197Y-3.1309
M16
G05
G00X5.4473Y-3.4711
M15
G01X5.4197Y-3.4711
M16
G05
M30
