%TF.GenerationSoftware,KiCad,Pcbnew,8.0.8*%
%TF.CreationDate,2025-02-14T22:47:40+08:00*%
%TF.ProjectId,5V24VBoostUp(USBC),35563234-5642-46f6-9f73-745570285553,rev?*%
%TF.SameCoordinates,Original*%
%TF.FileFunction,Drillmap*%
%TF.FilePolarity,Positive*%
%FSLAX45Y45*%
G04 Gerber Fmt 4.5, Leading zero omitted, Abs format (unit mm)*
G04 Created by KiCad (PCBNEW 8.0.8) date 2025-02-14 22:47:40*
%MOMM*%
%LPD*%
G01*
G04 APERTURE LIST*
%ADD10C,0.050000*%
%ADD11C,0.200000*%
%ADD12C,0.100000*%
G04 APERTURE END LIST*
D10*
X13187680Y-7574280D02*
X17503140Y-7574280D01*
X17503140Y-9121140D01*
X13187680Y-9121140D01*
X13187680Y-7574280D01*
D11*
D12*
X13804160Y-8094540D02*
X13834160Y-8124540D01*
X13834160Y-8094540D02*
X13804160Y-8124540D01*
X13804160Y-8644540D02*
X13834160Y-8674540D01*
X13834160Y-8644540D02*
X13804160Y-8674540D01*
X14198840Y-8260320D02*
X14228840Y-8290320D01*
X14228840Y-8260320D02*
X14198840Y-8290320D01*
X14198840Y-8501620D02*
X14228840Y-8531620D01*
X14228840Y-8501620D02*
X14198840Y-8531620D01*
X14510030Y-8859760D02*
X14540030Y-8889760D01*
X14540030Y-8859760D02*
X14510030Y-8889760D01*
X15171660Y-8631160D02*
X15201660Y-8661160D01*
X15201660Y-8631160D02*
X15171660Y-8661160D01*
X16759160Y-8341600D02*
X16789160Y-8371600D01*
X16789160Y-8341600D02*
X16759160Y-8371600D01*
X17104660Y-8689580D02*
X17134660Y-8719580D01*
X17134660Y-8689580D02*
X17104660Y-8719580D01*
X13446160Y-7952540D02*
G75*
G02*
X13396160Y-7952540I-25000J0D01*
G01*
X13396160Y-7952540D02*
G75*
G02*
X13446160Y-7952540I25000J0D01*
G01*
X13456160Y-7927540D02*
X13386160Y-7927540D01*
X13386160Y-7977540D02*
G75*
G02*
X13386160Y-7927540I0J25000D01*
G01*
X13386160Y-7977540D02*
X13456160Y-7977540D01*
X13456160Y-7977540D02*
G75*
G03*
X13456160Y-7927540I0J25000D01*
G01*
X13446160Y-8816540D02*
G75*
G02*
X13396160Y-8816540I-25000J0D01*
G01*
X13396160Y-8816540D02*
G75*
G02*
X13446160Y-8816540I25000J0D01*
G01*
X13456160Y-8791540D02*
X13386160Y-8791540D01*
X13386160Y-8841540D02*
G75*
G02*
X13386160Y-8791540I0J25000D01*
G01*
X13386160Y-8841540D02*
X13456160Y-8841540D01*
X13456160Y-8841540D02*
G75*
G03*
X13456160Y-8791540I0J25000D01*
G01*
X13826160Y-7952540D02*
G75*
G02*
X13776160Y-7952540I-25000J0D01*
G01*
X13776160Y-7952540D02*
G75*
G02*
X13826160Y-7952540I25000J0D01*
G01*
X13836160Y-7927540D02*
X13766160Y-7927540D01*
X13766160Y-7977540D02*
G75*
G02*
X13766160Y-7927540I0J25000D01*
G01*
X13766160Y-7977540D02*
X13836160Y-7977540D01*
X13836160Y-7977540D02*
G75*
G03*
X13836160Y-7927540I0J25000D01*
G01*
X13826160Y-8816540D02*
G75*
G02*
X13776160Y-8816540I-25000J0D01*
G01*
X13776160Y-8816540D02*
G75*
G02*
X13826160Y-8816540I25000J0D01*
G01*
X13836160Y-8791540D02*
X13766160Y-8791540D01*
X13766160Y-8841540D02*
G75*
G02*
X13766160Y-8791540I0J25000D01*
G01*
X13766160Y-8841540D02*
X13836160Y-8841540D01*
X13836160Y-8841540D02*
G75*
G03*
X13836160Y-8791540I0J25000D01*
G01*
X15527020Y-8580760D02*
X15527020Y-8660760D01*
X15487020Y-8620760D02*
X15567020Y-8620760D01*
X15781020Y-8580760D02*
X15781020Y-8660760D01*
X15741020Y-8620760D02*
X15821020Y-8620760D01*
X16035020Y-8580760D02*
X16035020Y-8660760D01*
X15995020Y-8620760D02*
X16075020Y-8620760D01*
X17152416Y-8137956D02*
X17152416Y-8067244D01*
X17081704Y-8067244D01*
X17081704Y-8137956D01*
X17152416Y-8137956D01*
X17152416Y-8391956D02*
X17152416Y-8321244D01*
X17081704Y-8321244D01*
X17081704Y-8391956D01*
X17152416Y-8391956D01*
D11*
X13445957Y-9435124D02*
X13445957Y-9235124D01*
X13445957Y-9235124D02*
X13493576Y-9235124D01*
X13493576Y-9235124D02*
X13522147Y-9244648D01*
X13522147Y-9244648D02*
X13541195Y-9263695D01*
X13541195Y-9263695D02*
X13550719Y-9282743D01*
X13550719Y-9282743D02*
X13560242Y-9320838D01*
X13560242Y-9320838D02*
X13560242Y-9349410D01*
X13560242Y-9349410D02*
X13550719Y-9387505D01*
X13550719Y-9387505D02*
X13541195Y-9406552D01*
X13541195Y-9406552D02*
X13522147Y-9425600D01*
X13522147Y-9425600D02*
X13493576Y-9435124D01*
X13493576Y-9435124D02*
X13445957Y-9435124D01*
X13645957Y-9435124D02*
X13645957Y-9301790D01*
X13645957Y-9339886D02*
X13655481Y-9320838D01*
X13655481Y-9320838D02*
X13665004Y-9311314D01*
X13665004Y-9311314D02*
X13684052Y-9301790D01*
X13684052Y-9301790D02*
X13703100Y-9301790D01*
X13769766Y-9435124D02*
X13769766Y-9301790D01*
X13769766Y-9235124D02*
X13760242Y-9244648D01*
X13760242Y-9244648D02*
X13769766Y-9254171D01*
X13769766Y-9254171D02*
X13779290Y-9244648D01*
X13779290Y-9244648D02*
X13769766Y-9235124D01*
X13769766Y-9235124D02*
X13769766Y-9254171D01*
X13893576Y-9435124D02*
X13874528Y-9425600D01*
X13874528Y-9425600D02*
X13865004Y-9406552D01*
X13865004Y-9406552D02*
X13865004Y-9235124D01*
X13998338Y-9435124D02*
X13979290Y-9425600D01*
X13979290Y-9425600D02*
X13969766Y-9406552D01*
X13969766Y-9406552D02*
X13969766Y-9235124D01*
X14226909Y-9435124D02*
X14226909Y-9235124D01*
X14226909Y-9235124D02*
X14293576Y-9377981D01*
X14293576Y-9377981D02*
X14360242Y-9235124D01*
X14360242Y-9235124D02*
X14360242Y-9435124D01*
X14541195Y-9435124D02*
X14541195Y-9330362D01*
X14541195Y-9330362D02*
X14531671Y-9311314D01*
X14531671Y-9311314D02*
X14512623Y-9301790D01*
X14512623Y-9301790D02*
X14474528Y-9301790D01*
X14474528Y-9301790D02*
X14455481Y-9311314D01*
X14541195Y-9425600D02*
X14522147Y-9435124D01*
X14522147Y-9435124D02*
X14474528Y-9435124D01*
X14474528Y-9435124D02*
X14455481Y-9425600D01*
X14455481Y-9425600D02*
X14445957Y-9406552D01*
X14445957Y-9406552D02*
X14445957Y-9387505D01*
X14445957Y-9387505D02*
X14455481Y-9368457D01*
X14455481Y-9368457D02*
X14474528Y-9358933D01*
X14474528Y-9358933D02*
X14522147Y-9358933D01*
X14522147Y-9358933D02*
X14541195Y-9349410D01*
X14636433Y-9301790D02*
X14636433Y-9501790D01*
X14636433Y-9311314D02*
X14655481Y-9301790D01*
X14655481Y-9301790D02*
X14693576Y-9301790D01*
X14693576Y-9301790D02*
X14712623Y-9311314D01*
X14712623Y-9311314D02*
X14722147Y-9320838D01*
X14722147Y-9320838D02*
X14731671Y-9339886D01*
X14731671Y-9339886D02*
X14731671Y-9397029D01*
X14731671Y-9397029D02*
X14722147Y-9416076D01*
X14722147Y-9416076D02*
X14712623Y-9425600D01*
X14712623Y-9425600D02*
X14693576Y-9435124D01*
X14693576Y-9435124D02*
X14655481Y-9435124D01*
X14655481Y-9435124D02*
X14636433Y-9425600D01*
X14817385Y-9416076D02*
X14826909Y-9425600D01*
X14826909Y-9425600D02*
X14817385Y-9435124D01*
X14817385Y-9435124D02*
X14807862Y-9425600D01*
X14807862Y-9425600D02*
X14817385Y-9416076D01*
X14817385Y-9416076D02*
X14817385Y-9435124D01*
X14817385Y-9311314D02*
X14826909Y-9320838D01*
X14826909Y-9320838D02*
X14817385Y-9330362D01*
X14817385Y-9330362D02*
X14807862Y-9320838D01*
X14807862Y-9320838D02*
X14817385Y-9311314D01*
X14817385Y-9311314D02*
X14817385Y-9330362D01*
D12*
X13155180Y-9748640D02*
X13185180Y-9778640D01*
X13185180Y-9748640D02*
X13155180Y-9778640D01*
D11*
X13484052Y-9655124D02*
X13503100Y-9655124D01*
X13503100Y-9655124D02*
X13522147Y-9664648D01*
X13522147Y-9664648D02*
X13531671Y-9674171D01*
X13531671Y-9674171D02*
X13541195Y-9693219D01*
X13541195Y-9693219D02*
X13550719Y-9731314D01*
X13550719Y-9731314D02*
X13550719Y-9778933D01*
X13550719Y-9778933D02*
X13541195Y-9817029D01*
X13541195Y-9817029D02*
X13531671Y-9836076D01*
X13531671Y-9836076D02*
X13522147Y-9845600D01*
X13522147Y-9845600D02*
X13503100Y-9855124D01*
X13503100Y-9855124D02*
X13484052Y-9855124D01*
X13484052Y-9855124D02*
X13465004Y-9845600D01*
X13465004Y-9845600D02*
X13455481Y-9836076D01*
X13455481Y-9836076D02*
X13445957Y-9817029D01*
X13445957Y-9817029D02*
X13436433Y-9778933D01*
X13436433Y-9778933D02*
X13436433Y-9731314D01*
X13436433Y-9731314D02*
X13445957Y-9693219D01*
X13445957Y-9693219D02*
X13455481Y-9674171D01*
X13455481Y-9674171D02*
X13465004Y-9664648D01*
X13465004Y-9664648D02*
X13484052Y-9655124D01*
X13636433Y-9836076D02*
X13645957Y-9845600D01*
X13645957Y-9845600D02*
X13636433Y-9855124D01*
X13636433Y-9855124D02*
X13626909Y-9845600D01*
X13626909Y-9845600D02*
X13636433Y-9836076D01*
X13636433Y-9836076D02*
X13636433Y-9855124D01*
X13712623Y-9655124D02*
X13836433Y-9655124D01*
X13836433Y-9655124D02*
X13769766Y-9731314D01*
X13769766Y-9731314D02*
X13798338Y-9731314D01*
X13798338Y-9731314D02*
X13817385Y-9740838D01*
X13817385Y-9740838D02*
X13826909Y-9750362D01*
X13826909Y-9750362D02*
X13836433Y-9769410D01*
X13836433Y-9769410D02*
X13836433Y-9817029D01*
X13836433Y-9817029D02*
X13826909Y-9836076D01*
X13826909Y-9836076D02*
X13817385Y-9845600D01*
X13817385Y-9845600D02*
X13798338Y-9855124D01*
X13798338Y-9855124D02*
X13741195Y-9855124D01*
X13741195Y-9855124D02*
X13722147Y-9845600D01*
X13722147Y-9845600D02*
X13712623Y-9836076D01*
X13960242Y-9655124D02*
X13979290Y-9655124D01*
X13979290Y-9655124D02*
X13998338Y-9664648D01*
X13998338Y-9664648D02*
X14007862Y-9674171D01*
X14007862Y-9674171D02*
X14017385Y-9693219D01*
X14017385Y-9693219D02*
X14026909Y-9731314D01*
X14026909Y-9731314D02*
X14026909Y-9778933D01*
X14026909Y-9778933D02*
X14017385Y-9817029D01*
X14017385Y-9817029D02*
X14007862Y-9836076D01*
X14007862Y-9836076D02*
X13998338Y-9845600D01*
X13998338Y-9845600D02*
X13979290Y-9855124D01*
X13979290Y-9855124D02*
X13960242Y-9855124D01*
X13960242Y-9855124D02*
X13941195Y-9845600D01*
X13941195Y-9845600D02*
X13931671Y-9836076D01*
X13931671Y-9836076D02*
X13922147Y-9817029D01*
X13922147Y-9817029D02*
X13912623Y-9778933D01*
X13912623Y-9778933D02*
X13912623Y-9731314D01*
X13912623Y-9731314D02*
X13922147Y-9693219D01*
X13922147Y-9693219D02*
X13931671Y-9674171D01*
X13931671Y-9674171D02*
X13941195Y-9664648D01*
X13941195Y-9664648D02*
X13960242Y-9655124D01*
X14150719Y-9655124D02*
X14169766Y-9655124D01*
X14169766Y-9655124D02*
X14188814Y-9664648D01*
X14188814Y-9664648D02*
X14198338Y-9674171D01*
X14198338Y-9674171D02*
X14207862Y-9693219D01*
X14207862Y-9693219D02*
X14217385Y-9731314D01*
X14217385Y-9731314D02*
X14217385Y-9778933D01*
X14217385Y-9778933D02*
X14207862Y-9817029D01*
X14207862Y-9817029D02*
X14198338Y-9836076D01*
X14198338Y-9836076D02*
X14188814Y-9845600D01*
X14188814Y-9845600D02*
X14169766Y-9855124D01*
X14169766Y-9855124D02*
X14150719Y-9855124D01*
X14150719Y-9855124D02*
X14131671Y-9845600D01*
X14131671Y-9845600D02*
X14122147Y-9836076D01*
X14122147Y-9836076D02*
X14112623Y-9817029D01*
X14112623Y-9817029D02*
X14103100Y-9778933D01*
X14103100Y-9778933D02*
X14103100Y-9731314D01*
X14103100Y-9731314D02*
X14112623Y-9693219D01*
X14112623Y-9693219D02*
X14122147Y-9674171D01*
X14122147Y-9674171D02*
X14131671Y-9664648D01*
X14131671Y-9664648D02*
X14150719Y-9655124D01*
X14303100Y-9855124D02*
X14303100Y-9721790D01*
X14303100Y-9740838D02*
X14312623Y-9731314D01*
X14312623Y-9731314D02*
X14331671Y-9721790D01*
X14331671Y-9721790D02*
X14360243Y-9721790D01*
X14360243Y-9721790D02*
X14379290Y-9731314D01*
X14379290Y-9731314D02*
X14388814Y-9750362D01*
X14388814Y-9750362D02*
X14388814Y-9855124D01*
X14388814Y-9750362D02*
X14398338Y-9731314D01*
X14398338Y-9731314D02*
X14417385Y-9721790D01*
X14417385Y-9721790D02*
X14445957Y-9721790D01*
X14445957Y-9721790D02*
X14465004Y-9731314D01*
X14465004Y-9731314D02*
X14474528Y-9750362D01*
X14474528Y-9750362D02*
X14474528Y-9855124D01*
X14569766Y-9855124D02*
X14569766Y-9721790D01*
X14569766Y-9740838D02*
X14579290Y-9731314D01*
X14579290Y-9731314D02*
X14598338Y-9721790D01*
X14598338Y-9721790D02*
X14626909Y-9721790D01*
X14626909Y-9721790D02*
X14645957Y-9731314D01*
X14645957Y-9731314D02*
X14655481Y-9750362D01*
X14655481Y-9750362D02*
X14655481Y-9855124D01*
X14655481Y-9750362D02*
X14665004Y-9731314D01*
X14665004Y-9731314D02*
X14684052Y-9721790D01*
X14684052Y-9721790D02*
X14712623Y-9721790D01*
X14712623Y-9721790D02*
X14731671Y-9731314D01*
X14731671Y-9731314D02*
X14741195Y-9750362D01*
X14741195Y-9750362D02*
X14741195Y-9855124D01*
X15131671Y-9645600D02*
X14960243Y-9902743D01*
X15388814Y-9655124D02*
X15407862Y-9655124D01*
X15407862Y-9655124D02*
X15426909Y-9664648D01*
X15426909Y-9664648D02*
X15436433Y-9674171D01*
X15436433Y-9674171D02*
X15445957Y-9693219D01*
X15445957Y-9693219D02*
X15455481Y-9731314D01*
X15455481Y-9731314D02*
X15455481Y-9778933D01*
X15455481Y-9778933D02*
X15445957Y-9817029D01*
X15445957Y-9817029D02*
X15436433Y-9836076D01*
X15436433Y-9836076D02*
X15426909Y-9845600D01*
X15426909Y-9845600D02*
X15407862Y-9855124D01*
X15407862Y-9855124D02*
X15388814Y-9855124D01*
X15388814Y-9855124D02*
X15369766Y-9845600D01*
X15369766Y-9845600D02*
X15360243Y-9836076D01*
X15360243Y-9836076D02*
X15350719Y-9817029D01*
X15350719Y-9817029D02*
X15341195Y-9778933D01*
X15341195Y-9778933D02*
X15341195Y-9731314D01*
X15341195Y-9731314D02*
X15350719Y-9693219D01*
X15350719Y-9693219D02*
X15360243Y-9674171D01*
X15360243Y-9674171D02*
X15369766Y-9664648D01*
X15369766Y-9664648D02*
X15388814Y-9655124D01*
X15541195Y-9836076D02*
X15550719Y-9845600D01*
X15550719Y-9845600D02*
X15541195Y-9855124D01*
X15541195Y-9855124D02*
X15531671Y-9845600D01*
X15531671Y-9845600D02*
X15541195Y-9836076D01*
X15541195Y-9836076D02*
X15541195Y-9855124D01*
X15674528Y-9655124D02*
X15693576Y-9655124D01*
X15693576Y-9655124D02*
X15712624Y-9664648D01*
X15712624Y-9664648D02*
X15722147Y-9674171D01*
X15722147Y-9674171D02*
X15731671Y-9693219D01*
X15731671Y-9693219D02*
X15741195Y-9731314D01*
X15741195Y-9731314D02*
X15741195Y-9778933D01*
X15741195Y-9778933D02*
X15731671Y-9817029D01*
X15731671Y-9817029D02*
X15722147Y-9836076D01*
X15722147Y-9836076D02*
X15712624Y-9845600D01*
X15712624Y-9845600D02*
X15693576Y-9855124D01*
X15693576Y-9855124D02*
X15674528Y-9855124D01*
X15674528Y-9855124D02*
X15655481Y-9845600D01*
X15655481Y-9845600D02*
X15645957Y-9836076D01*
X15645957Y-9836076D02*
X15636433Y-9817029D01*
X15636433Y-9817029D02*
X15626909Y-9778933D01*
X15626909Y-9778933D02*
X15626909Y-9731314D01*
X15626909Y-9731314D02*
X15636433Y-9693219D01*
X15636433Y-9693219D02*
X15645957Y-9674171D01*
X15645957Y-9674171D02*
X15655481Y-9664648D01*
X15655481Y-9664648D02*
X15674528Y-9655124D01*
X15931671Y-9855124D02*
X15817386Y-9855124D01*
X15874528Y-9855124D02*
X15874528Y-9655124D01*
X15874528Y-9655124D02*
X15855481Y-9683695D01*
X15855481Y-9683695D02*
X15836433Y-9702743D01*
X15836433Y-9702743D02*
X15817386Y-9712267D01*
X16122147Y-9855124D02*
X16007862Y-9855124D01*
X16065005Y-9855124D02*
X16065005Y-9655124D01*
X16065005Y-9655124D02*
X16045957Y-9683695D01*
X16045957Y-9683695D02*
X16026909Y-9702743D01*
X16026909Y-9702743D02*
X16007862Y-9712267D01*
X16236433Y-9740838D02*
X16217386Y-9731314D01*
X16217386Y-9731314D02*
X16207862Y-9721790D01*
X16207862Y-9721790D02*
X16198338Y-9702743D01*
X16198338Y-9702743D02*
X16198338Y-9693219D01*
X16198338Y-9693219D02*
X16207862Y-9674171D01*
X16207862Y-9674171D02*
X16217386Y-9664648D01*
X16217386Y-9664648D02*
X16236433Y-9655124D01*
X16236433Y-9655124D02*
X16274528Y-9655124D01*
X16274528Y-9655124D02*
X16293576Y-9664648D01*
X16293576Y-9664648D02*
X16303100Y-9674171D01*
X16303100Y-9674171D02*
X16312624Y-9693219D01*
X16312624Y-9693219D02*
X16312624Y-9702743D01*
X16312624Y-9702743D02*
X16303100Y-9721790D01*
X16303100Y-9721790D02*
X16293576Y-9731314D01*
X16293576Y-9731314D02*
X16274528Y-9740838D01*
X16274528Y-9740838D02*
X16236433Y-9740838D01*
X16236433Y-9740838D02*
X16217386Y-9750362D01*
X16217386Y-9750362D02*
X16207862Y-9759886D01*
X16207862Y-9759886D02*
X16198338Y-9778933D01*
X16198338Y-9778933D02*
X16198338Y-9817029D01*
X16198338Y-9817029D02*
X16207862Y-9836076D01*
X16207862Y-9836076D02*
X16217386Y-9845600D01*
X16217386Y-9845600D02*
X16236433Y-9855124D01*
X16236433Y-9855124D02*
X16274528Y-9855124D01*
X16274528Y-9855124D02*
X16293576Y-9845600D01*
X16293576Y-9845600D02*
X16303100Y-9836076D01*
X16303100Y-9836076D02*
X16312624Y-9817029D01*
X16312624Y-9817029D02*
X16312624Y-9778933D01*
X16312624Y-9778933D02*
X16303100Y-9759886D01*
X16303100Y-9759886D02*
X16293576Y-9750362D01*
X16293576Y-9750362D02*
X16274528Y-9740838D01*
X16388814Y-9655124D02*
X16388814Y-9693219D01*
X16465005Y-9655124D02*
X16465005Y-9693219D01*
X16760243Y-9931314D02*
X16750719Y-9921790D01*
X16750719Y-9921790D02*
X16731671Y-9893219D01*
X16731671Y-9893219D02*
X16722148Y-9874171D01*
X16722148Y-9874171D02*
X16712624Y-9845600D01*
X16712624Y-9845600D02*
X16703100Y-9797981D01*
X16703100Y-9797981D02*
X16703100Y-9759886D01*
X16703100Y-9759886D02*
X16712624Y-9712267D01*
X16712624Y-9712267D02*
X16722148Y-9683695D01*
X16722148Y-9683695D02*
X16731671Y-9664648D01*
X16731671Y-9664648D02*
X16750719Y-9636076D01*
X16750719Y-9636076D02*
X16760243Y-9626552D01*
X16865005Y-9740838D02*
X16845957Y-9731314D01*
X16845957Y-9731314D02*
X16836433Y-9721790D01*
X16836433Y-9721790D02*
X16826910Y-9702743D01*
X16826910Y-9702743D02*
X16826910Y-9693219D01*
X16826910Y-9693219D02*
X16836433Y-9674171D01*
X16836433Y-9674171D02*
X16845957Y-9664648D01*
X16845957Y-9664648D02*
X16865005Y-9655124D01*
X16865005Y-9655124D02*
X16903100Y-9655124D01*
X16903100Y-9655124D02*
X16922148Y-9664648D01*
X16922148Y-9664648D02*
X16931671Y-9674171D01*
X16931671Y-9674171D02*
X16941195Y-9693219D01*
X16941195Y-9693219D02*
X16941195Y-9702743D01*
X16941195Y-9702743D02*
X16931671Y-9721790D01*
X16931671Y-9721790D02*
X16922148Y-9731314D01*
X16922148Y-9731314D02*
X16903100Y-9740838D01*
X16903100Y-9740838D02*
X16865005Y-9740838D01*
X16865005Y-9740838D02*
X16845957Y-9750362D01*
X16845957Y-9750362D02*
X16836433Y-9759886D01*
X16836433Y-9759886D02*
X16826910Y-9778933D01*
X16826910Y-9778933D02*
X16826910Y-9817029D01*
X16826910Y-9817029D02*
X16836433Y-9836076D01*
X16836433Y-9836076D02*
X16845957Y-9845600D01*
X16845957Y-9845600D02*
X16865005Y-9855124D01*
X16865005Y-9855124D02*
X16903100Y-9855124D01*
X16903100Y-9855124D02*
X16922148Y-9845600D01*
X16922148Y-9845600D02*
X16931671Y-9836076D01*
X16931671Y-9836076D02*
X16941195Y-9817029D01*
X16941195Y-9817029D02*
X16941195Y-9778933D01*
X16941195Y-9778933D02*
X16931671Y-9759886D01*
X16931671Y-9759886D02*
X16922148Y-9750362D01*
X16922148Y-9750362D02*
X16903100Y-9740838D01*
X17179291Y-9855124D02*
X17179291Y-9655124D01*
X17265005Y-9855124D02*
X17265005Y-9750362D01*
X17265005Y-9750362D02*
X17255481Y-9731314D01*
X17255481Y-9731314D02*
X17236433Y-9721790D01*
X17236433Y-9721790D02*
X17207862Y-9721790D01*
X17207862Y-9721790D02*
X17188814Y-9731314D01*
X17188814Y-9731314D02*
X17179291Y-9740838D01*
X17388814Y-9855124D02*
X17369767Y-9845600D01*
X17369767Y-9845600D02*
X17360243Y-9836076D01*
X17360243Y-9836076D02*
X17350719Y-9817029D01*
X17350719Y-9817029D02*
X17350719Y-9759886D01*
X17350719Y-9759886D02*
X17360243Y-9740838D01*
X17360243Y-9740838D02*
X17369767Y-9731314D01*
X17369767Y-9731314D02*
X17388814Y-9721790D01*
X17388814Y-9721790D02*
X17417386Y-9721790D01*
X17417386Y-9721790D02*
X17436433Y-9731314D01*
X17436433Y-9731314D02*
X17445957Y-9740838D01*
X17445957Y-9740838D02*
X17455481Y-9759886D01*
X17455481Y-9759886D02*
X17455481Y-9817029D01*
X17455481Y-9817029D02*
X17445957Y-9836076D01*
X17445957Y-9836076D02*
X17436433Y-9845600D01*
X17436433Y-9845600D02*
X17417386Y-9855124D01*
X17417386Y-9855124D02*
X17388814Y-9855124D01*
X17569767Y-9855124D02*
X17550719Y-9845600D01*
X17550719Y-9845600D02*
X17541195Y-9826552D01*
X17541195Y-9826552D02*
X17541195Y-9655124D01*
X17722148Y-9845600D02*
X17703100Y-9855124D01*
X17703100Y-9855124D02*
X17665005Y-9855124D01*
X17665005Y-9855124D02*
X17645957Y-9845600D01*
X17645957Y-9845600D02*
X17636433Y-9826552D01*
X17636433Y-9826552D02*
X17636433Y-9750362D01*
X17636433Y-9750362D02*
X17645957Y-9731314D01*
X17645957Y-9731314D02*
X17665005Y-9721790D01*
X17665005Y-9721790D02*
X17703100Y-9721790D01*
X17703100Y-9721790D02*
X17722148Y-9731314D01*
X17722148Y-9731314D02*
X17731672Y-9750362D01*
X17731672Y-9750362D02*
X17731672Y-9769410D01*
X17731672Y-9769410D02*
X17636433Y-9788457D01*
X17807862Y-9845600D02*
X17826910Y-9855124D01*
X17826910Y-9855124D02*
X17865005Y-9855124D01*
X17865005Y-9855124D02*
X17884053Y-9845600D01*
X17884053Y-9845600D02*
X17893576Y-9826552D01*
X17893576Y-9826552D02*
X17893576Y-9817029D01*
X17893576Y-9817029D02*
X17884053Y-9797981D01*
X17884053Y-9797981D02*
X17865005Y-9788457D01*
X17865005Y-9788457D02*
X17836433Y-9788457D01*
X17836433Y-9788457D02*
X17817386Y-9778933D01*
X17817386Y-9778933D02*
X17807862Y-9759886D01*
X17807862Y-9759886D02*
X17807862Y-9750362D01*
X17807862Y-9750362D02*
X17817386Y-9731314D01*
X17817386Y-9731314D02*
X17836433Y-9721790D01*
X17836433Y-9721790D02*
X17865005Y-9721790D01*
X17865005Y-9721790D02*
X17884053Y-9731314D01*
X17960243Y-9931314D02*
X17969767Y-9921790D01*
X17969767Y-9921790D02*
X17988814Y-9893219D01*
X17988814Y-9893219D02*
X17998338Y-9874171D01*
X17998338Y-9874171D02*
X18007862Y-9845600D01*
X18007862Y-9845600D02*
X18017386Y-9797981D01*
X18017386Y-9797981D02*
X18017386Y-9759886D01*
X18017386Y-9759886D02*
X18007862Y-9712267D01*
X18007862Y-9712267D02*
X17998338Y-9683695D01*
X17998338Y-9683695D02*
X17988814Y-9664648D01*
X17988814Y-9664648D02*
X17969767Y-9636076D01*
X17969767Y-9636076D02*
X17960243Y-9626552D01*
D12*
X13185180Y-10027640D02*
G75*
G02*
X13135180Y-10027640I-25000J0D01*
G01*
X13135180Y-10027640D02*
G75*
G02*
X13185180Y-10027640I25000J0D01*
G01*
D11*
X13484052Y-9919124D02*
X13503100Y-9919124D01*
X13503100Y-9919124D02*
X13522147Y-9928648D01*
X13522147Y-9928648D02*
X13531671Y-9938171D01*
X13531671Y-9938171D02*
X13541195Y-9957219D01*
X13541195Y-9957219D02*
X13550719Y-9995314D01*
X13550719Y-9995314D02*
X13550719Y-10042933D01*
X13550719Y-10042933D02*
X13541195Y-10081029D01*
X13541195Y-10081029D02*
X13531671Y-10100076D01*
X13531671Y-10100076D02*
X13522147Y-10109600D01*
X13522147Y-10109600D02*
X13503100Y-10119124D01*
X13503100Y-10119124D02*
X13484052Y-10119124D01*
X13484052Y-10119124D02*
X13465004Y-10109600D01*
X13465004Y-10109600D02*
X13455481Y-10100076D01*
X13455481Y-10100076D02*
X13445957Y-10081029D01*
X13445957Y-10081029D02*
X13436433Y-10042933D01*
X13436433Y-10042933D02*
X13436433Y-9995314D01*
X13436433Y-9995314D02*
X13445957Y-9957219D01*
X13445957Y-9957219D02*
X13455481Y-9938171D01*
X13455481Y-9938171D02*
X13465004Y-9928648D01*
X13465004Y-9928648D02*
X13484052Y-9919124D01*
X13636433Y-10100076D02*
X13645957Y-10109600D01*
X13645957Y-10109600D02*
X13636433Y-10119124D01*
X13636433Y-10119124D02*
X13626909Y-10109600D01*
X13626909Y-10109600D02*
X13636433Y-10100076D01*
X13636433Y-10100076D02*
X13636433Y-10119124D01*
X13826909Y-9919124D02*
X13731671Y-9919124D01*
X13731671Y-9919124D02*
X13722147Y-10014362D01*
X13722147Y-10014362D02*
X13731671Y-10004838D01*
X13731671Y-10004838D02*
X13750719Y-9995314D01*
X13750719Y-9995314D02*
X13798338Y-9995314D01*
X13798338Y-9995314D02*
X13817385Y-10004838D01*
X13817385Y-10004838D02*
X13826909Y-10014362D01*
X13826909Y-10014362D02*
X13836433Y-10033410D01*
X13836433Y-10033410D02*
X13836433Y-10081029D01*
X13836433Y-10081029D02*
X13826909Y-10100076D01*
X13826909Y-10100076D02*
X13817385Y-10109600D01*
X13817385Y-10109600D02*
X13798338Y-10119124D01*
X13798338Y-10119124D02*
X13750719Y-10119124D01*
X13750719Y-10119124D02*
X13731671Y-10109600D01*
X13731671Y-10109600D02*
X13722147Y-10100076D01*
X13960242Y-9919124D02*
X13979290Y-9919124D01*
X13979290Y-9919124D02*
X13998338Y-9928648D01*
X13998338Y-9928648D02*
X14007862Y-9938171D01*
X14007862Y-9938171D02*
X14017385Y-9957219D01*
X14017385Y-9957219D02*
X14026909Y-9995314D01*
X14026909Y-9995314D02*
X14026909Y-10042933D01*
X14026909Y-10042933D02*
X14017385Y-10081029D01*
X14017385Y-10081029D02*
X14007862Y-10100076D01*
X14007862Y-10100076D02*
X13998338Y-10109600D01*
X13998338Y-10109600D02*
X13979290Y-10119124D01*
X13979290Y-10119124D02*
X13960242Y-10119124D01*
X13960242Y-10119124D02*
X13941195Y-10109600D01*
X13941195Y-10109600D02*
X13931671Y-10100076D01*
X13931671Y-10100076D02*
X13922147Y-10081029D01*
X13922147Y-10081029D02*
X13912623Y-10042933D01*
X13912623Y-10042933D02*
X13912623Y-9995314D01*
X13912623Y-9995314D02*
X13922147Y-9957219D01*
X13922147Y-9957219D02*
X13931671Y-9938171D01*
X13931671Y-9938171D02*
X13941195Y-9928648D01*
X13941195Y-9928648D02*
X13960242Y-9919124D01*
X14150719Y-9919124D02*
X14169766Y-9919124D01*
X14169766Y-9919124D02*
X14188814Y-9928648D01*
X14188814Y-9928648D02*
X14198338Y-9938171D01*
X14198338Y-9938171D02*
X14207862Y-9957219D01*
X14207862Y-9957219D02*
X14217385Y-9995314D01*
X14217385Y-9995314D02*
X14217385Y-10042933D01*
X14217385Y-10042933D02*
X14207862Y-10081029D01*
X14207862Y-10081029D02*
X14198338Y-10100076D01*
X14198338Y-10100076D02*
X14188814Y-10109600D01*
X14188814Y-10109600D02*
X14169766Y-10119124D01*
X14169766Y-10119124D02*
X14150719Y-10119124D01*
X14150719Y-10119124D02*
X14131671Y-10109600D01*
X14131671Y-10109600D02*
X14122147Y-10100076D01*
X14122147Y-10100076D02*
X14112623Y-10081029D01*
X14112623Y-10081029D02*
X14103100Y-10042933D01*
X14103100Y-10042933D02*
X14103100Y-9995314D01*
X14103100Y-9995314D02*
X14112623Y-9957219D01*
X14112623Y-9957219D02*
X14122147Y-9938171D01*
X14122147Y-9938171D02*
X14131671Y-9928648D01*
X14131671Y-9928648D02*
X14150719Y-9919124D01*
X14303100Y-10119124D02*
X14303100Y-9985790D01*
X14303100Y-10004838D02*
X14312623Y-9995314D01*
X14312623Y-9995314D02*
X14331671Y-9985790D01*
X14331671Y-9985790D02*
X14360243Y-9985790D01*
X14360243Y-9985790D02*
X14379290Y-9995314D01*
X14379290Y-9995314D02*
X14388814Y-10014362D01*
X14388814Y-10014362D02*
X14388814Y-10119124D01*
X14388814Y-10014362D02*
X14398338Y-9995314D01*
X14398338Y-9995314D02*
X14417385Y-9985790D01*
X14417385Y-9985790D02*
X14445957Y-9985790D01*
X14445957Y-9985790D02*
X14465004Y-9995314D01*
X14465004Y-9995314D02*
X14474528Y-10014362D01*
X14474528Y-10014362D02*
X14474528Y-10119124D01*
X14569766Y-10119124D02*
X14569766Y-9985790D01*
X14569766Y-10004838D02*
X14579290Y-9995314D01*
X14579290Y-9995314D02*
X14598338Y-9985790D01*
X14598338Y-9985790D02*
X14626909Y-9985790D01*
X14626909Y-9985790D02*
X14645957Y-9995314D01*
X14645957Y-9995314D02*
X14655481Y-10014362D01*
X14655481Y-10014362D02*
X14655481Y-10119124D01*
X14655481Y-10014362D02*
X14665004Y-9995314D01*
X14665004Y-9995314D02*
X14684052Y-9985790D01*
X14684052Y-9985790D02*
X14712623Y-9985790D01*
X14712623Y-9985790D02*
X14731671Y-9995314D01*
X14731671Y-9995314D02*
X14741195Y-10014362D01*
X14741195Y-10014362D02*
X14741195Y-10119124D01*
X15131671Y-9909600D02*
X14960243Y-10166743D01*
X15388814Y-9919124D02*
X15407862Y-9919124D01*
X15407862Y-9919124D02*
X15426909Y-9928648D01*
X15426909Y-9928648D02*
X15436433Y-9938171D01*
X15436433Y-9938171D02*
X15445957Y-9957219D01*
X15445957Y-9957219D02*
X15455481Y-9995314D01*
X15455481Y-9995314D02*
X15455481Y-10042933D01*
X15455481Y-10042933D02*
X15445957Y-10081029D01*
X15445957Y-10081029D02*
X15436433Y-10100076D01*
X15436433Y-10100076D02*
X15426909Y-10109600D01*
X15426909Y-10109600D02*
X15407862Y-10119124D01*
X15407862Y-10119124D02*
X15388814Y-10119124D01*
X15388814Y-10119124D02*
X15369766Y-10109600D01*
X15369766Y-10109600D02*
X15360243Y-10100076D01*
X15360243Y-10100076D02*
X15350719Y-10081029D01*
X15350719Y-10081029D02*
X15341195Y-10042933D01*
X15341195Y-10042933D02*
X15341195Y-9995314D01*
X15341195Y-9995314D02*
X15350719Y-9957219D01*
X15350719Y-9957219D02*
X15360243Y-9938171D01*
X15360243Y-9938171D02*
X15369766Y-9928648D01*
X15369766Y-9928648D02*
X15388814Y-9919124D01*
X15541195Y-10100076D02*
X15550719Y-10109600D01*
X15550719Y-10109600D02*
X15541195Y-10119124D01*
X15541195Y-10119124D02*
X15531671Y-10109600D01*
X15531671Y-10109600D02*
X15541195Y-10100076D01*
X15541195Y-10100076D02*
X15541195Y-10119124D01*
X15674528Y-9919124D02*
X15693576Y-9919124D01*
X15693576Y-9919124D02*
X15712624Y-9928648D01*
X15712624Y-9928648D02*
X15722147Y-9938171D01*
X15722147Y-9938171D02*
X15731671Y-9957219D01*
X15731671Y-9957219D02*
X15741195Y-9995314D01*
X15741195Y-9995314D02*
X15741195Y-10042933D01*
X15741195Y-10042933D02*
X15731671Y-10081029D01*
X15731671Y-10081029D02*
X15722147Y-10100076D01*
X15722147Y-10100076D02*
X15712624Y-10109600D01*
X15712624Y-10109600D02*
X15693576Y-10119124D01*
X15693576Y-10119124D02*
X15674528Y-10119124D01*
X15674528Y-10119124D02*
X15655481Y-10109600D01*
X15655481Y-10109600D02*
X15645957Y-10100076D01*
X15645957Y-10100076D02*
X15636433Y-10081029D01*
X15636433Y-10081029D02*
X15626909Y-10042933D01*
X15626909Y-10042933D02*
X15626909Y-9995314D01*
X15626909Y-9995314D02*
X15636433Y-9957219D01*
X15636433Y-9957219D02*
X15645957Y-9938171D01*
X15645957Y-9938171D02*
X15655481Y-9928648D01*
X15655481Y-9928648D02*
X15674528Y-9919124D01*
X15931671Y-10119124D02*
X15817386Y-10119124D01*
X15874528Y-10119124D02*
X15874528Y-9919124D01*
X15874528Y-9919124D02*
X15855481Y-9947695D01*
X15855481Y-9947695D02*
X15836433Y-9966743D01*
X15836433Y-9966743D02*
X15817386Y-9976267D01*
X16026909Y-10119124D02*
X16065005Y-10119124D01*
X16065005Y-10119124D02*
X16084052Y-10109600D01*
X16084052Y-10109600D02*
X16093576Y-10100076D01*
X16093576Y-10100076D02*
X16112624Y-10071505D01*
X16112624Y-10071505D02*
X16122147Y-10033410D01*
X16122147Y-10033410D02*
X16122147Y-9957219D01*
X16122147Y-9957219D02*
X16112624Y-9938171D01*
X16112624Y-9938171D02*
X16103100Y-9928648D01*
X16103100Y-9928648D02*
X16084052Y-9919124D01*
X16084052Y-9919124D02*
X16045957Y-9919124D01*
X16045957Y-9919124D02*
X16026909Y-9928648D01*
X16026909Y-9928648D02*
X16017386Y-9938171D01*
X16017386Y-9938171D02*
X16007862Y-9957219D01*
X16007862Y-9957219D02*
X16007862Y-10004838D01*
X16007862Y-10004838D02*
X16017386Y-10023886D01*
X16017386Y-10023886D02*
X16026909Y-10033410D01*
X16026909Y-10033410D02*
X16045957Y-10042933D01*
X16045957Y-10042933D02*
X16084052Y-10042933D01*
X16084052Y-10042933D02*
X16103100Y-10033410D01*
X16103100Y-10033410D02*
X16112624Y-10023886D01*
X16112624Y-10023886D02*
X16122147Y-10004838D01*
X16188814Y-9919124D02*
X16322147Y-9919124D01*
X16322147Y-9919124D02*
X16236433Y-10119124D01*
X16388814Y-9919124D02*
X16388814Y-9957219D01*
X16465005Y-9919124D02*
X16465005Y-9957219D01*
X16760243Y-10195314D02*
X16750719Y-10185790D01*
X16750719Y-10185790D02*
X16731671Y-10157219D01*
X16731671Y-10157219D02*
X16722148Y-10138171D01*
X16722148Y-10138171D02*
X16712624Y-10109600D01*
X16712624Y-10109600D02*
X16703100Y-10061981D01*
X16703100Y-10061981D02*
X16703100Y-10023886D01*
X16703100Y-10023886D02*
X16712624Y-9976267D01*
X16712624Y-9976267D02*
X16722148Y-9947695D01*
X16722148Y-9947695D02*
X16731671Y-9928648D01*
X16731671Y-9928648D02*
X16750719Y-9900076D01*
X16750719Y-9900076D02*
X16760243Y-9890552D01*
X16874529Y-9919124D02*
X16893576Y-9919124D01*
X16893576Y-9919124D02*
X16912624Y-9928648D01*
X16912624Y-9928648D02*
X16922148Y-9938171D01*
X16922148Y-9938171D02*
X16931671Y-9957219D01*
X16931671Y-9957219D02*
X16941195Y-9995314D01*
X16941195Y-9995314D02*
X16941195Y-10042933D01*
X16941195Y-10042933D02*
X16931671Y-10081029D01*
X16931671Y-10081029D02*
X16922148Y-10100076D01*
X16922148Y-10100076D02*
X16912624Y-10109600D01*
X16912624Y-10109600D02*
X16893576Y-10119124D01*
X16893576Y-10119124D02*
X16874529Y-10119124D01*
X16874529Y-10119124D02*
X16855481Y-10109600D01*
X16855481Y-10109600D02*
X16845957Y-10100076D01*
X16845957Y-10100076D02*
X16836433Y-10081029D01*
X16836433Y-10081029D02*
X16826910Y-10042933D01*
X16826910Y-10042933D02*
X16826910Y-9995314D01*
X16826910Y-9995314D02*
X16836433Y-9957219D01*
X16836433Y-9957219D02*
X16845957Y-9938171D01*
X16845957Y-9938171D02*
X16855481Y-9928648D01*
X16855481Y-9928648D02*
X16874529Y-9919124D01*
X17179291Y-10119124D02*
X17179291Y-9919124D01*
X17265005Y-10119124D02*
X17265005Y-10014362D01*
X17265005Y-10014362D02*
X17255481Y-9995314D01*
X17255481Y-9995314D02*
X17236433Y-9985790D01*
X17236433Y-9985790D02*
X17207862Y-9985790D01*
X17207862Y-9985790D02*
X17188814Y-9995314D01*
X17188814Y-9995314D02*
X17179291Y-10004838D01*
X17388814Y-10119124D02*
X17369767Y-10109600D01*
X17369767Y-10109600D02*
X17360243Y-10100076D01*
X17360243Y-10100076D02*
X17350719Y-10081029D01*
X17350719Y-10081029D02*
X17350719Y-10023886D01*
X17350719Y-10023886D02*
X17360243Y-10004838D01*
X17360243Y-10004838D02*
X17369767Y-9995314D01*
X17369767Y-9995314D02*
X17388814Y-9985790D01*
X17388814Y-9985790D02*
X17417386Y-9985790D01*
X17417386Y-9985790D02*
X17436433Y-9995314D01*
X17436433Y-9995314D02*
X17445957Y-10004838D01*
X17445957Y-10004838D02*
X17455481Y-10023886D01*
X17455481Y-10023886D02*
X17455481Y-10081029D01*
X17455481Y-10081029D02*
X17445957Y-10100076D01*
X17445957Y-10100076D02*
X17436433Y-10109600D01*
X17436433Y-10109600D02*
X17417386Y-10119124D01*
X17417386Y-10119124D02*
X17388814Y-10119124D01*
X17569767Y-10119124D02*
X17550719Y-10109600D01*
X17550719Y-10109600D02*
X17541195Y-10090552D01*
X17541195Y-10090552D02*
X17541195Y-9919124D01*
X17722148Y-10109600D02*
X17703100Y-10119124D01*
X17703100Y-10119124D02*
X17665005Y-10119124D01*
X17665005Y-10119124D02*
X17645957Y-10109600D01*
X17645957Y-10109600D02*
X17636433Y-10090552D01*
X17636433Y-10090552D02*
X17636433Y-10014362D01*
X17636433Y-10014362D02*
X17645957Y-9995314D01*
X17645957Y-9995314D02*
X17665005Y-9985790D01*
X17665005Y-9985790D02*
X17703100Y-9985790D01*
X17703100Y-9985790D02*
X17722148Y-9995314D01*
X17722148Y-9995314D02*
X17731672Y-10014362D01*
X17731672Y-10014362D02*
X17731672Y-10033410D01*
X17731672Y-10033410D02*
X17636433Y-10052457D01*
X17807862Y-10109600D02*
X17826910Y-10119124D01*
X17826910Y-10119124D02*
X17865005Y-10119124D01*
X17865005Y-10119124D02*
X17884053Y-10109600D01*
X17884053Y-10109600D02*
X17893576Y-10090552D01*
X17893576Y-10090552D02*
X17893576Y-10081029D01*
X17893576Y-10081029D02*
X17884053Y-10061981D01*
X17884053Y-10061981D02*
X17865005Y-10052457D01*
X17865005Y-10052457D02*
X17836433Y-10052457D01*
X17836433Y-10052457D02*
X17817386Y-10042933D01*
X17817386Y-10042933D02*
X17807862Y-10023886D01*
X17807862Y-10023886D02*
X17807862Y-10014362D01*
X17807862Y-10014362D02*
X17817386Y-9995314D01*
X17817386Y-9995314D02*
X17836433Y-9985790D01*
X17836433Y-9985790D02*
X17865005Y-9985790D01*
X17865005Y-9985790D02*
X17884053Y-9995314D01*
X18131672Y-10042933D02*
X18284053Y-10042933D01*
X18207862Y-10119124D02*
X18207862Y-9966743D01*
X18617386Y-9985790D02*
X18617386Y-10119124D01*
X18569767Y-9909600D02*
X18522148Y-10052457D01*
X18522148Y-10052457D02*
X18645957Y-10052457D01*
X18865005Y-10109600D02*
X18884053Y-10119124D01*
X18884053Y-10119124D02*
X18922148Y-10119124D01*
X18922148Y-10119124D02*
X18941196Y-10109600D01*
X18941196Y-10109600D02*
X18950719Y-10090552D01*
X18950719Y-10090552D02*
X18950719Y-10081029D01*
X18950719Y-10081029D02*
X18941196Y-10061981D01*
X18941196Y-10061981D02*
X18922148Y-10052457D01*
X18922148Y-10052457D02*
X18893576Y-10052457D01*
X18893576Y-10052457D02*
X18874529Y-10042933D01*
X18874529Y-10042933D02*
X18865005Y-10023886D01*
X18865005Y-10023886D02*
X18865005Y-10014362D01*
X18865005Y-10014362D02*
X18874529Y-9995314D01*
X18874529Y-9995314D02*
X18893576Y-9985790D01*
X18893576Y-9985790D02*
X18922148Y-9985790D01*
X18922148Y-9985790D02*
X18941196Y-9995314D01*
X19065005Y-10119124D02*
X19045957Y-10109600D01*
X19045957Y-10109600D02*
X19036434Y-10090552D01*
X19036434Y-10090552D02*
X19036434Y-9919124D01*
X19169767Y-10119124D02*
X19150719Y-10109600D01*
X19150719Y-10109600D02*
X19141196Y-10100076D01*
X19141196Y-10100076D02*
X19131672Y-10081029D01*
X19131672Y-10081029D02*
X19131672Y-10023886D01*
X19131672Y-10023886D02*
X19141196Y-10004838D01*
X19141196Y-10004838D02*
X19150719Y-9995314D01*
X19150719Y-9995314D02*
X19169767Y-9985790D01*
X19169767Y-9985790D02*
X19198338Y-9985790D01*
X19198338Y-9985790D02*
X19217386Y-9995314D01*
X19217386Y-9995314D02*
X19226910Y-10004838D01*
X19226910Y-10004838D02*
X19236434Y-10023886D01*
X19236434Y-10023886D02*
X19236434Y-10081029D01*
X19236434Y-10081029D02*
X19226910Y-10100076D01*
X19226910Y-10100076D02*
X19217386Y-10109600D01*
X19217386Y-10109600D02*
X19198338Y-10119124D01*
X19198338Y-10119124D02*
X19169767Y-10119124D01*
X19293577Y-9985790D02*
X19369767Y-9985790D01*
X19322148Y-9919124D02*
X19322148Y-10090552D01*
X19322148Y-10090552D02*
X19331672Y-10109600D01*
X19331672Y-10109600D02*
X19350719Y-10119124D01*
X19350719Y-10119124D02*
X19369767Y-10119124D01*
X19426910Y-10109600D02*
X19445957Y-10119124D01*
X19445957Y-10119124D02*
X19484053Y-10119124D01*
X19484053Y-10119124D02*
X19503100Y-10109600D01*
X19503100Y-10109600D02*
X19512624Y-10090552D01*
X19512624Y-10090552D02*
X19512624Y-10081029D01*
X19512624Y-10081029D02*
X19503100Y-10061981D01*
X19503100Y-10061981D02*
X19484053Y-10052457D01*
X19484053Y-10052457D02*
X19455481Y-10052457D01*
X19455481Y-10052457D02*
X19436434Y-10042933D01*
X19436434Y-10042933D02*
X19426910Y-10023886D01*
X19426910Y-10023886D02*
X19426910Y-10014362D01*
X19426910Y-10014362D02*
X19436434Y-9995314D01*
X19436434Y-9995314D02*
X19455481Y-9985790D01*
X19455481Y-9985790D02*
X19484053Y-9985790D01*
X19484053Y-9985790D02*
X19503100Y-9995314D01*
X19579291Y-10195314D02*
X19588815Y-10185790D01*
X19588815Y-10185790D02*
X19607862Y-10157219D01*
X19607862Y-10157219D02*
X19617386Y-10138171D01*
X19617386Y-10138171D02*
X19626910Y-10109600D01*
X19626910Y-10109600D02*
X19636434Y-10061981D01*
X19636434Y-10061981D02*
X19636434Y-10023886D01*
X19636434Y-10023886D02*
X19626910Y-9976267D01*
X19626910Y-9976267D02*
X19617386Y-9947695D01*
X19617386Y-9947695D02*
X19607862Y-9928648D01*
X19607862Y-9928648D02*
X19588815Y-9900076D01*
X19588815Y-9900076D02*
X19579291Y-9890552D01*
D12*
X13145180Y-10251640D02*
X13145180Y-10331640D01*
X13105180Y-10291640D02*
X13185180Y-10291640D01*
D11*
X13484052Y-10183124D02*
X13503100Y-10183124D01*
X13503100Y-10183124D02*
X13522147Y-10192648D01*
X13522147Y-10192648D02*
X13531671Y-10202171D01*
X13531671Y-10202171D02*
X13541195Y-10221219D01*
X13541195Y-10221219D02*
X13550719Y-10259314D01*
X13550719Y-10259314D02*
X13550719Y-10306933D01*
X13550719Y-10306933D02*
X13541195Y-10345029D01*
X13541195Y-10345029D02*
X13531671Y-10364076D01*
X13531671Y-10364076D02*
X13522147Y-10373600D01*
X13522147Y-10373600D02*
X13503100Y-10383124D01*
X13503100Y-10383124D02*
X13484052Y-10383124D01*
X13484052Y-10383124D02*
X13465004Y-10373600D01*
X13465004Y-10373600D02*
X13455481Y-10364076D01*
X13455481Y-10364076D02*
X13445957Y-10345029D01*
X13445957Y-10345029D02*
X13436433Y-10306933D01*
X13436433Y-10306933D02*
X13436433Y-10259314D01*
X13436433Y-10259314D02*
X13445957Y-10221219D01*
X13445957Y-10221219D02*
X13455481Y-10202171D01*
X13455481Y-10202171D02*
X13465004Y-10192648D01*
X13465004Y-10192648D02*
X13484052Y-10183124D01*
X13636433Y-10364076D02*
X13645957Y-10373600D01*
X13645957Y-10373600D02*
X13636433Y-10383124D01*
X13636433Y-10383124D02*
X13626909Y-10373600D01*
X13626909Y-10373600D02*
X13636433Y-10364076D01*
X13636433Y-10364076D02*
X13636433Y-10383124D01*
X13760242Y-10268838D02*
X13741195Y-10259314D01*
X13741195Y-10259314D02*
X13731671Y-10249790D01*
X13731671Y-10249790D02*
X13722147Y-10230743D01*
X13722147Y-10230743D02*
X13722147Y-10221219D01*
X13722147Y-10221219D02*
X13731671Y-10202171D01*
X13731671Y-10202171D02*
X13741195Y-10192648D01*
X13741195Y-10192648D02*
X13760242Y-10183124D01*
X13760242Y-10183124D02*
X13798338Y-10183124D01*
X13798338Y-10183124D02*
X13817385Y-10192648D01*
X13817385Y-10192648D02*
X13826909Y-10202171D01*
X13826909Y-10202171D02*
X13836433Y-10221219D01*
X13836433Y-10221219D02*
X13836433Y-10230743D01*
X13836433Y-10230743D02*
X13826909Y-10249790D01*
X13826909Y-10249790D02*
X13817385Y-10259314D01*
X13817385Y-10259314D02*
X13798338Y-10268838D01*
X13798338Y-10268838D02*
X13760242Y-10268838D01*
X13760242Y-10268838D02*
X13741195Y-10278362D01*
X13741195Y-10278362D02*
X13731671Y-10287886D01*
X13731671Y-10287886D02*
X13722147Y-10306933D01*
X13722147Y-10306933D02*
X13722147Y-10345029D01*
X13722147Y-10345029D02*
X13731671Y-10364076D01*
X13731671Y-10364076D02*
X13741195Y-10373600D01*
X13741195Y-10373600D02*
X13760242Y-10383124D01*
X13760242Y-10383124D02*
X13798338Y-10383124D01*
X13798338Y-10383124D02*
X13817385Y-10373600D01*
X13817385Y-10373600D02*
X13826909Y-10364076D01*
X13826909Y-10364076D02*
X13836433Y-10345029D01*
X13836433Y-10345029D02*
X13836433Y-10306933D01*
X13836433Y-10306933D02*
X13826909Y-10287886D01*
X13826909Y-10287886D02*
X13817385Y-10278362D01*
X13817385Y-10278362D02*
X13798338Y-10268838D01*
X13960242Y-10183124D02*
X13979290Y-10183124D01*
X13979290Y-10183124D02*
X13998338Y-10192648D01*
X13998338Y-10192648D02*
X14007862Y-10202171D01*
X14007862Y-10202171D02*
X14017385Y-10221219D01*
X14017385Y-10221219D02*
X14026909Y-10259314D01*
X14026909Y-10259314D02*
X14026909Y-10306933D01*
X14026909Y-10306933D02*
X14017385Y-10345029D01*
X14017385Y-10345029D02*
X14007862Y-10364076D01*
X14007862Y-10364076D02*
X13998338Y-10373600D01*
X13998338Y-10373600D02*
X13979290Y-10383124D01*
X13979290Y-10383124D02*
X13960242Y-10383124D01*
X13960242Y-10383124D02*
X13941195Y-10373600D01*
X13941195Y-10373600D02*
X13931671Y-10364076D01*
X13931671Y-10364076D02*
X13922147Y-10345029D01*
X13922147Y-10345029D02*
X13912623Y-10306933D01*
X13912623Y-10306933D02*
X13912623Y-10259314D01*
X13912623Y-10259314D02*
X13922147Y-10221219D01*
X13922147Y-10221219D02*
X13931671Y-10202171D01*
X13931671Y-10202171D02*
X13941195Y-10192648D01*
X13941195Y-10192648D02*
X13960242Y-10183124D01*
X14150719Y-10183124D02*
X14169766Y-10183124D01*
X14169766Y-10183124D02*
X14188814Y-10192648D01*
X14188814Y-10192648D02*
X14198338Y-10202171D01*
X14198338Y-10202171D02*
X14207862Y-10221219D01*
X14207862Y-10221219D02*
X14217385Y-10259314D01*
X14217385Y-10259314D02*
X14217385Y-10306933D01*
X14217385Y-10306933D02*
X14207862Y-10345029D01*
X14207862Y-10345029D02*
X14198338Y-10364076D01*
X14198338Y-10364076D02*
X14188814Y-10373600D01*
X14188814Y-10373600D02*
X14169766Y-10383124D01*
X14169766Y-10383124D02*
X14150719Y-10383124D01*
X14150719Y-10383124D02*
X14131671Y-10373600D01*
X14131671Y-10373600D02*
X14122147Y-10364076D01*
X14122147Y-10364076D02*
X14112623Y-10345029D01*
X14112623Y-10345029D02*
X14103100Y-10306933D01*
X14103100Y-10306933D02*
X14103100Y-10259314D01*
X14103100Y-10259314D02*
X14112623Y-10221219D01*
X14112623Y-10221219D02*
X14122147Y-10202171D01*
X14122147Y-10202171D02*
X14131671Y-10192648D01*
X14131671Y-10192648D02*
X14150719Y-10183124D01*
X14303100Y-10383124D02*
X14303100Y-10249790D01*
X14303100Y-10268838D02*
X14312623Y-10259314D01*
X14312623Y-10259314D02*
X14331671Y-10249790D01*
X14331671Y-10249790D02*
X14360243Y-10249790D01*
X14360243Y-10249790D02*
X14379290Y-10259314D01*
X14379290Y-10259314D02*
X14388814Y-10278362D01*
X14388814Y-10278362D02*
X14388814Y-10383124D01*
X14388814Y-10278362D02*
X14398338Y-10259314D01*
X14398338Y-10259314D02*
X14417385Y-10249790D01*
X14417385Y-10249790D02*
X14445957Y-10249790D01*
X14445957Y-10249790D02*
X14465004Y-10259314D01*
X14465004Y-10259314D02*
X14474528Y-10278362D01*
X14474528Y-10278362D02*
X14474528Y-10383124D01*
X14569766Y-10383124D02*
X14569766Y-10249790D01*
X14569766Y-10268838D02*
X14579290Y-10259314D01*
X14579290Y-10259314D02*
X14598338Y-10249790D01*
X14598338Y-10249790D02*
X14626909Y-10249790D01*
X14626909Y-10249790D02*
X14645957Y-10259314D01*
X14645957Y-10259314D02*
X14655481Y-10278362D01*
X14655481Y-10278362D02*
X14655481Y-10383124D01*
X14655481Y-10278362D02*
X14665004Y-10259314D01*
X14665004Y-10259314D02*
X14684052Y-10249790D01*
X14684052Y-10249790D02*
X14712623Y-10249790D01*
X14712623Y-10249790D02*
X14731671Y-10259314D01*
X14731671Y-10259314D02*
X14741195Y-10278362D01*
X14741195Y-10278362D02*
X14741195Y-10383124D01*
X15131671Y-10173600D02*
X14960243Y-10430743D01*
X15388814Y-10183124D02*
X15407862Y-10183124D01*
X15407862Y-10183124D02*
X15426909Y-10192648D01*
X15426909Y-10192648D02*
X15436433Y-10202171D01*
X15436433Y-10202171D02*
X15445957Y-10221219D01*
X15445957Y-10221219D02*
X15455481Y-10259314D01*
X15455481Y-10259314D02*
X15455481Y-10306933D01*
X15455481Y-10306933D02*
X15445957Y-10345029D01*
X15445957Y-10345029D02*
X15436433Y-10364076D01*
X15436433Y-10364076D02*
X15426909Y-10373600D01*
X15426909Y-10373600D02*
X15407862Y-10383124D01*
X15407862Y-10383124D02*
X15388814Y-10383124D01*
X15388814Y-10383124D02*
X15369766Y-10373600D01*
X15369766Y-10373600D02*
X15360243Y-10364076D01*
X15360243Y-10364076D02*
X15350719Y-10345029D01*
X15350719Y-10345029D02*
X15341195Y-10306933D01*
X15341195Y-10306933D02*
X15341195Y-10259314D01*
X15341195Y-10259314D02*
X15350719Y-10221219D01*
X15350719Y-10221219D02*
X15360243Y-10202171D01*
X15360243Y-10202171D02*
X15369766Y-10192648D01*
X15369766Y-10192648D02*
X15388814Y-10183124D01*
X15541195Y-10364076D02*
X15550719Y-10373600D01*
X15550719Y-10373600D02*
X15541195Y-10383124D01*
X15541195Y-10383124D02*
X15531671Y-10373600D01*
X15531671Y-10373600D02*
X15541195Y-10364076D01*
X15541195Y-10364076D02*
X15541195Y-10383124D01*
X15674528Y-10183124D02*
X15693576Y-10183124D01*
X15693576Y-10183124D02*
X15712624Y-10192648D01*
X15712624Y-10192648D02*
X15722147Y-10202171D01*
X15722147Y-10202171D02*
X15731671Y-10221219D01*
X15731671Y-10221219D02*
X15741195Y-10259314D01*
X15741195Y-10259314D02*
X15741195Y-10306933D01*
X15741195Y-10306933D02*
X15731671Y-10345029D01*
X15731671Y-10345029D02*
X15722147Y-10364076D01*
X15722147Y-10364076D02*
X15712624Y-10373600D01*
X15712624Y-10373600D02*
X15693576Y-10383124D01*
X15693576Y-10383124D02*
X15674528Y-10383124D01*
X15674528Y-10383124D02*
X15655481Y-10373600D01*
X15655481Y-10373600D02*
X15645957Y-10364076D01*
X15645957Y-10364076D02*
X15636433Y-10345029D01*
X15636433Y-10345029D02*
X15626909Y-10306933D01*
X15626909Y-10306933D02*
X15626909Y-10259314D01*
X15626909Y-10259314D02*
X15636433Y-10221219D01*
X15636433Y-10221219D02*
X15645957Y-10202171D01*
X15645957Y-10202171D02*
X15655481Y-10192648D01*
X15655481Y-10192648D02*
X15674528Y-10183124D01*
X15807862Y-10183124D02*
X15931671Y-10183124D01*
X15931671Y-10183124D02*
X15865005Y-10259314D01*
X15865005Y-10259314D02*
X15893576Y-10259314D01*
X15893576Y-10259314D02*
X15912624Y-10268838D01*
X15912624Y-10268838D02*
X15922147Y-10278362D01*
X15922147Y-10278362D02*
X15931671Y-10297410D01*
X15931671Y-10297410D02*
X15931671Y-10345029D01*
X15931671Y-10345029D02*
X15922147Y-10364076D01*
X15922147Y-10364076D02*
X15912624Y-10373600D01*
X15912624Y-10373600D02*
X15893576Y-10383124D01*
X15893576Y-10383124D02*
X15836433Y-10383124D01*
X15836433Y-10383124D02*
X15817386Y-10373600D01*
X15817386Y-10373600D02*
X15807862Y-10364076D01*
X16122147Y-10383124D02*
X16007862Y-10383124D01*
X16065005Y-10383124D02*
X16065005Y-10183124D01*
X16065005Y-10183124D02*
X16045957Y-10211695D01*
X16045957Y-10211695D02*
X16026909Y-10230743D01*
X16026909Y-10230743D02*
X16007862Y-10240267D01*
X16303100Y-10183124D02*
X16207862Y-10183124D01*
X16207862Y-10183124D02*
X16198338Y-10278362D01*
X16198338Y-10278362D02*
X16207862Y-10268838D01*
X16207862Y-10268838D02*
X16226909Y-10259314D01*
X16226909Y-10259314D02*
X16274528Y-10259314D01*
X16274528Y-10259314D02*
X16293576Y-10268838D01*
X16293576Y-10268838D02*
X16303100Y-10278362D01*
X16303100Y-10278362D02*
X16312624Y-10297410D01*
X16312624Y-10297410D02*
X16312624Y-10345029D01*
X16312624Y-10345029D02*
X16303100Y-10364076D01*
X16303100Y-10364076D02*
X16293576Y-10373600D01*
X16293576Y-10373600D02*
X16274528Y-10383124D01*
X16274528Y-10383124D02*
X16226909Y-10383124D01*
X16226909Y-10383124D02*
X16207862Y-10373600D01*
X16207862Y-10373600D02*
X16198338Y-10364076D01*
X16388814Y-10183124D02*
X16388814Y-10221219D01*
X16465005Y-10183124D02*
X16465005Y-10221219D01*
X16760243Y-10459314D02*
X16750719Y-10449790D01*
X16750719Y-10449790D02*
X16731671Y-10421219D01*
X16731671Y-10421219D02*
X16722148Y-10402171D01*
X16722148Y-10402171D02*
X16712624Y-10373600D01*
X16712624Y-10373600D02*
X16703100Y-10325981D01*
X16703100Y-10325981D02*
X16703100Y-10287886D01*
X16703100Y-10287886D02*
X16712624Y-10240267D01*
X16712624Y-10240267D02*
X16722148Y-10211695D01*
X16722148Y-10211695D02*
X16731671Y-10192648D01*
X16731671Y-10192648D02*
X16750719Y-10164076D01*
X16750719Y-10164076D02*
X16760243Y-10154552D01*
X16817386Y-10183124D02*
X16941195Y-10183124D01*
X16941195Y-10183124D02*
X16874529Y-10259314D01*
X16874529Y-10259314D02*
X16903100Y-10259314D01*
X16903100Y-10259314D02*
X16922148Y-10268838D01*
X16922148Y-10268838D02*
X16931671Y-10278362D01*
X16931671Y-10278362D02*
X16941195Y-10297410D01*
X16941195Y-10297410D02*
X16941195Y-10345029D01*
X16941195Y-10345029D02*
X16931671Y-10364076D01*
X16931671Y-10364076D02*
X16922148Y-10373600D01*
X16922148Y-10373600D02*
X16903100Y-10383124D01*
X16903100Y-10383124D02*
X16845957Y-10383124D01*
X16845957Y-10383124D02*
X16826910Y-10373600D01*
X16826910Y-10373600D02*
X16817386Y-10364076D01*
X17179291Y-10383124D02*
X17179291Y-10183124D01*
X17265005Y-10383124D02*
X17265005Y-10278362D01*
X17265005Y-10278362D02*
X17255481Y-10259314D01*
X17255481Y-10259314D02*
X17236433Y-10249790D01*
X17236433Y-10249790D02*
X17207862Y-10249790D01*
X17207862Y-10249790D02*
X17188814Y-10259314D01*
X17188814Y-10259314D02*
X17179291Y-10268838D01*
X17388814Y-10383124D02*
X17369767Y-10373600D01*
X17369767Y-10373600D02*
X17360243Y-10364076D01*
X17360243Y-10364076D02*
X17350719Y-10345029D01*
X17350719Y-10345029D02*
X17350719Y-10287886D01*
X17350719Y-10287886D02*
X17360243Y-10268838D01*
X17360243Y-10268838D02*
X17369767Y-10259314D01*
X17369767Y-10259314D02*
X17388814Y-10249790D01*
X17388814Y-10249790D02*
X17417386Y-10249790D01*
X17417386Y-10249790D02*
X17436433Y-10259314D01*
X17436433Y-10259314D02*
X17445957Y-10268838D01*
X17445957Y-10268838D02*
X17455481Y-10287886D01*
X17455481Y-10287886D02*
X17455481Y-10345029D01*
X17455481Y-10345029D02*
X17445957Y-10364076D01*
X17445957Y-10364076D02*
X17436433Y-10373600D01*
X17436433Y-10373600D02*
X17417386Y-10383124D01*
X17417386Y-10383124D02*
X17388814Y-10383124D01*
X17569767Y-10383124D02*
X17550719Y-10373600D01*
X17550719Y-10373600D02*
X17541195Y-10354552D01*
X17541195Y-10354552D02*
X17541195Y-10183124D01*
X17722148Y-10373600D02*
X17703100Y-10383124D01*
X17703100Y-10383124D02*
X17665005Y-10383124D01*
X17665005Y-10383124D02*
X17645957Y-10373600D01*
X17645957Y-10373600D02*
X17636433Y-10354552D01*
X17636433Y-10354552D02*
X17636433Y-10278362D01*
X17636433Y-10278362D02*
X17645957Y-10259314D01*
X17645957Y-10259314D02*
X17665005Y-10249790D01*
X17665005Y-10249790D02*
X17703100Y-10249790D01*
X17703100Y-10249790D02*
X17722148Y-10259314D01*
X17722148Y-10259314D02*
X17731672Y-10278362D01*
X17731672Y-10278362D02*
X17731672Y-10297410D01*
X17731672Y-10297410D02*
X17636433Y-10316457D01*
X17807862Y-10373600D02*
X17826910Y-10383124D01*
X17826910Y-10383124D02*
X17865005Y-10383124D01*
X17865005Y-10383124D02*
X17884053Y-10373600D01*
X17884053Y-10373600D02*
X17893576Y-10354552D01*
X17893576Y-10354552D02*
X17893576Y-10345029D01*
X17893576Y-10345029D02*
X17884053Y-10325981D01*
X17884053Y-10325981D02*
X17865005Y-10316457D01*
X17865005Y-10316457D02*
X17836433Y-10316457D01*
X17836433Y-10316457D02*
X17817386Y-10306933D01*
X17817386Y-10306933D02*
X17807862Y-10287886D01*
X17807862Y-10287886D02*
X17807862Y-10278362D01*
X17807862Y-10278362D02*
X17817386Y-10259314D01*
X17817386Y-10259314D02*
X17836433Y-10249790D01*
X17836433Y-10249790D02*
X17865005Y-10249790D01*
X17865005Y-10249790D02*
X17884053Y-10259314D01*
X17960243Y-10459314D02*
X17969767Y-10449790D01*
X17969767Y-10449790D02*
X17988814Y-10421219D01*
X17988814Y-10421219D02*
X17998338Y-10402171D01*
X17998338Y-10402171D02*
X18007862Y-10373600D01*
X18007862Y-10373600D02*
X18017386Y-10325981D01*
X18017386Y-10325981D02*
X18017386Y-10287886D01*
X18017386Y-10287886D02*
X18007862Y-10240267D01*
X18007862Y-10240267D02*
X17998338Y-10211695D01*
X17998338Y-10211695D02*
X17988814Y-10192648D01*
X17988814Y-10192648D02*
X17969767Y-10164076D01*
X17969767Y-10164076D02*
X17960243Y-10154552D01*
D12*
X13170536Y-10590996D02*
X13170536Y-10520284D01*
X13099824Y-10520284D01*
X13099824Y-10590996D01*
X13170536Y-10590996D01*
D11*
X13550719Y-10647124D02*
X13436433Y-10647124D01*
X13493576Y-10647124D02*
X13493576Y-10447124D01*
X13493576Y-10447124D02*
X13474528Y-10475695D01*
X13474528Y-10475695D02*
X13455481Y-10494743D01*
X13455481Y-10494743D02*
X13436433Y-10504267D01*
X13636433Y-10628076D02*
X13645957Y-10637600D01*
X13645957Y-10637600D02*
X13636433Y-10647124D01*
X13636433Y-10647124D02*
X13626909Y-10637600D01*
X13626909Y-10637600D02*
X13636433Y-10628076D01*
X13636433Y-10628076D02*
X13636433Y-10647124D01*
X13769766Y-10447124D02*
X13788814Y-10447124D01*
X13788814Y-10447124D02*
X13807862Y-10456648D01*
X13807862Y-10456648D02*
X13817385Y-10466171D01*
X13817385Y-10466171D02*
X13826909Y-10485219D01*
X13826909Y-10485219D02*
X13836433Y-10523314D01*
X13836433Y-10523314D02*
X13836433Y-10570933D01*
X13836433Y-10570933D02*
X13826909Y-10609029D01*
X13826909Y-10609029D02*
X13817385Y-10628076D01*
X13817385Y-10628076D02*
X13807862Y-10637600D01*
X13807862Y-10637600D02*
X13788814Y-10647124D01*
X13788814Y-10647124D02*
X13769766Y-10647124D01*
X13769766Y-10647124D02*
X13750719Y-10637600D01*
X13750719Y-10637600D02*
X13741195Y-10628076D01*
X13741195Y-10628076D02*
X13731671Y-10609029D01*
X13731671Y-10609029D02*
X13722147Y-10570933D01*
X13722147Y-10570933D02*
X13722147Y-10523314D01*
X13722147Y-10523314D02*
X13731671Y-10485219D01*
X13731671Y-10485219D02*
X13741195Y-10466171D01*
X13741195Y-10466171D02*
X13750719Y-10456648D01*
X13750719Y-10456648D02*
X13769766Y-10447124D01*
X13960242Y-10447124D02*
X13979290Y-10447124D01*
X13979290Y-10447124D02*
X13998338Y-10456648D01*
X13998338Y-10456648D02*
X14007862Y-10466171D01*
X14007862Y-10466171D02*
X14017385Y-10485219D01*
X14017385Y-10485219D02*
X14026909Y-10523314D01*
X14026909Y-10523314D02*
X14026909Y-10570933D01*
X14026909Y-10570933D02*
X14017385Y-10609029D01*
X14017385Y-10609029D02*
X14007862Y-10628076D01*
X14007862Y-10628076D02*
X13998338Y-10637600D01*
X13998338Y-10637600D02*
X13979290Y-10647124D01*
X13979290Y-10647124D02*
X13960242Y-10647124D01*
X13960242Y-10647124D02*
X13941195Y-10637600D01*
X13941195Y-10637600D02*
X13931671Y-10628076D01*
X13931671Y-10628076D02*
X13922147Y-10609029D01*
X13922147Y-10609029D02*
X13912623Y-10570933D01*
X13912623Y-10570933D02*
X13912623Y-10523314D01*
X13912623Y-10523314D02*
X13922147Y-10485219D01*
X13922147Y-10485219D02*
X13931671Y-10466171D01*
X13931671Y-10466171D02*
X13941195Y-10456648D01*
X13941195Y-10456648D02*
X13960242Y-10447124D01*
X14150719Y-10447124D02*
X14169766Y-10447124D01*
X14169766Y-10447124D02*
X14188814Y-10456648D01*
X14188814Y-10456648D02*
X14198338Y-10466171D01*
X14198338Y-10466171D02*
X14207862Y-10485219D01*
X14207862Y-10485219D02*
X14217385Y-10523314D01*
X14217385Y-10523314D02*
X14217385Y-10570933D01*
X14217385Y-10570933D02*
X14207862Y-10609029D01*
X14207862Y-10609029D02*
X14198338Y-10628076D01*
X14198338Y-10628076D02*
X14188814Y-10637600D01*
X14188814Y-10637600D02*
X14169766Y-10647124D01*
X14169766Y-10647124D02*
X14150719Y-10647124D01*
X14150719Y-10647124D02*
X14131671Y-10637600D01*
X14131671Y-10637600D02*
X14122147Y-10628076D01*
X14122147Y-10628076D02*
X14112623Y-10609029D01*
X14112623Y-10609029D02*
X14103100Y-10570933D01*
X14103100Y-10570933D02*
X14103100Y-10523314D01*
X14103100Y-10523314D02*
X14112623Y-10485219D01*
X14112623Y-10485219D02*
X14122147Y-10466171D01*
X14122147Y-10466171D02*
X14131671Y-10456648D01*
X14131671Y-10456648D02*
X14150719Y-10447124D01*
X14303100Y-10647124D02*
X14303100Y-10513790D01*
X14303100Y-10532838D02*
X14312623Y-10523314D01*
X14312623Y-10523314D02*
X14331671Y-10513790D01*
X14331671Y-10513790D02*
X14360243Y-10513790D01*
X14360243Y-10513790D02*
X14379290Y-10523314D01*
X14379290Y-10523314D02*
X14388814Y-10542362D01*
X14388814Y-10542362D02*
X14388814Y-10647124D01*
X14388814Y-10542362D02*
X14398338Y-10523314D01*
X14398338Y-10523314D02*
X14417385Y-10513790D01*
X14417385Y-10513790D02*
X14445957Y-10513790D01*
X14445957Y-10513790D02*
X14465004Y-10523314D01*
X14465004Y-10523314D02*
X14474528Y-10542362D01*
X14474528Y-10542362D02*
X14474528Y-10647124D01*
X14569766Y-10647124D02*
X14569766Y-10513790D01*
X14569766Y-10532838D02*
X14579290Y-10523314D01*
X14579290Y-10523314D02*
X14598338Y-10513790D01*
X14598338Y-10513790D02*
X14626909Y-10513790D01*
X14626909Y-10513790D02*
X14645957Y-10523314D01*
X14645957Y-10523314D02*
X14655481Y-10542362D01*
X14655481Y-10542362D02*
X14655481Y-10647124D01*
X14655481Y-10542362D02*
X14665004Y-10523314D01*
X14665004Y-10523314D02*
X14684052Y-10513790D01*
X14684052Y-10513790D02*
X14712623Y-10513790D01*
X14712623Y-10513790D02*
X14731671Y-10523314D01*
X14731671Y-10523314D02*
X14741195Y-10542362D01*
X14741195Y-10542362D02*
X14741195Y-10647124D01*
X15131671Y-10437600D02*
X14960243Y-10694743D01*
X15388814Y-10447124D02*
X15407862Y-10447124D01*
X15407862Y-10447124D02*
X15426909Y-10456648D01*
X15426909Y-10456648D02*
X15436433Y-10466171D01*
X15436433Y-10466171D02*
X15445957Y-10485219D01*
X15445957Y-10485219D02*
X15455481Y-10523314D01*
X15455481Y-10523314D02*
X15455481Y-10570933D01*
X15455481Y-10570933D02*
X15445957Y-10609029D01*
X15445957Y-10609029D02*
X15436433Y-10628076D01*
X15436433Y-10628076D02*
X15426909Y-10637600D01*
X15426909Y-10637600D02*
X15407862Y-10647124D01*
X15407862Y-10647124D02*
X15388814Y-10647124D01*
X15388814Y-10647124D02*
X15369766Y-10637600D01*
X15369766Y-10637600D02*
X15360243Y-10628076D01*
X15360243Y-10628076D02*
X15350719Y-10609029D01*
X15350719Y-10609029D02*
X15341195Y-10570933D01*
X15341195Y-10570933D02*
X15341195Y-10523314D01*
X15341195Y-10523314D02*
X15350719Y-10485219D01*
X15350719Y-10485219D02*
X15360243Y-10466171D01*
X15360243Y-10466171D02*
X15369766Y-10456648D01*
X15369766Y-10456648D02*
X15388814Y-10447124D01*
X15541195Y-10628076D02*
X15550719Y-10637600D01*
X15550719Y-10637600D02*
X15541195Y-10647124D01*
X15541195Y-10647124D02*
X15531671Y-10637600D01*
X15531671Y-10637600D02*
X15541195Y-10628076D01*
X15541195Y-10628076D02*
X15541195Y-10647124D01*
X15674528Y-10447124D02*
X15693576Y-10447124D01*
X15693576Y-10447124D02*
X15712624Y-10456648D01*
X15712624Y-10456648D02*
X15722147Y-10466171D01*
X15722147Y-10466171D02*
X15731671Y-10485219D01*
X15731671Y-10485219D02*
X15741195Y-10523314D01*
X15741195Y-10523314D02*
X15741195Y-10570933D01*
X15741195Y-10570933D02*
X15731671Y-10609029D01*
X15731671Y-10609029D02*
X15722147Y-10628076D01*
X15722147Y-10628076D02*
X15712624Y-10637600D01*
X15712624Y-10637600D02*
X15693576Y-10647124D01*
X15693576Y-10647124D02*
X15674528Y-10647124D01*
X15674528Y-10647124D02*
X15655481Y-10637600D01*
X15655481Y-10637600D02*
X15645957Y-10628076D01*
X15645957Y-10628076D02*
X15636433Y-10609029D01*
X15636433Y-10609029D02*
X15626909Y-10570933D01*
X15626909Y-10570933D02*
X15626909Y-10523314D01*
X15626909Y-10523314D02*
X15636433Y-10485219D01*
X15636433Y-10485219D02*
X15645957Y-10466171D01*
X15645957Y-10466171D02*
X15655481Y-10456648D01*
X15655481Y-10456648D02*
X15674528Y-10447124D01*
X15807862Y-10447124D02*
X15931671Y-10447124D01*
X15931671Y-10447124D02*
X15865005Y-10523314D01*
X15865005Y-10523314D02*
X15893576Y-10523314D01*
X15893576Y-10523314D02*
X15912624Y-10532838D01*
X15912624Y-10532838D02*
X15922147Y-10542362D01*
X15922147Y-10542362D02*
X15931671Y-10561410D01*
X15931671Y-10561410D02*
X15931671Y-10609029D01*
X15931671Y-10609029D02*
X15922147Y-10628076D01*
X15922147Y-10628076D02*
X15912624Y-10637600D01*
X15912624Y-10637600D02*
X15893576Y-10647124D01*
X15893576Y-10647124D02*
X15836433Y-10647124D01*
X15836433Y-10647124D02*
X15817386Y-10637600D01*
X15817386Y-10637600D02*
X15807862Y-10628076D01*
X16026909Y-10647124D02*
X16065005Y-10647124D01*
X16065005Y-10647124D02*
X16084052Y-10637600D01*
X16084052Y-10637600D02*
X16093576Y-10628076D01*
X16093576Y-10628076D02*
X16112624Y-10599505D01*
X16112624Y-10599505D02*
X16122147Y-10561410D01*
X16122147Y-10561410D02*
X16122147Y-10485219D01*
X16122147Y-10485219D02*
X16112624Y-10466171D01*
X16112624Y-10466171D02*
X16103100Y-10456648D01*
X16103100Y-10456648D02*
X16084052Y-10447124D01*
X16084052Y-10447124D02*
X16045957Y-10447124D01*
X16045957Y-10447124D02*
X16026909Y-10456648D01*
X16026909Y-10456648D02*
X16017386Y-10466171D01*
X16017386Y-10466171D02*
X16007862Y-10485219D01*
X16007862Y-10485219D02*
X16007862Y-10532838D01*
X16007862Y-10532838D02*
X16017386Y-10551886D01*
X16017386Y-10551886D02*
X16026909Y-10561410D01*
X16026909Y-10561410D02*
X16045957Y-10570933D01*
X16045957Y-10570933D02*
X16084052Y-10570933D01*
X16084052Y-10570933D02*
X16103100Y-10561410D01*
X16103100Y-10561410D02*
X16112624Y-10551886D01*
X16112624Y-10551886D02*
X16122147Y-10532838D01*
X16293576Y-10513790D02*
X16293576Y-10647124D01*
X16245957Y-10437600D02*
X16198338Y-10580457D01*
X16198338Y-10580457D02*
X16322147Y-10580457D01*
X16388814Y-10447124D02*
X16388814Y-10485219D01*
X16465005Y-10447124D02*
X16465005Y-10485219D01*
X16760243Y-10723314D02*
X16750719Y-10713790D01*
X16750719Y-10713790D02*
X16731671Y-10685219D01*
X16731671Y-10685219D02*
X16722148Y-10666171D01*
X16722148Y-10666171D02*
X16712624Y-10637600D01*
X16712624Y-10637600D02*
X16703100Y-10589981D01*
X16703100Y-10589981D02*
X16703100Y-10551886D01*
X16703100Y-10551886D02*
X16712624Y-10504267D01*
X16712624Y-10504267D02*
X16722148Y-10475695D01*
X16722148Y-10475695D02*
X16731671Y-10456648D01*
X16731671Y-10456648D02*
X16750719Y-10428076D01*
X16750719Y-10428076D02*
X16760243Y-10418552D01*
X16826910Y-10466171D02*
X16836433Y-10456648D01*
X16836433Y-10456648D02*
X16855481Y-10447124D01*
X16855481Y-10447124D02*
X16903100Y-10447124D01*
X16903100Y-10447124D02*
X16922148Y-10456648D01*
X16922148Y-10456648D02*
X16931671Y-10466171D01*
X16931671Y-10466171D02*
X16941195Y-10485219D01*
X16941195Y-10485219D02*
X16941195Y-10504267D01*
X16941195Y-10504267D02*
X16931671Y-10532838D01*
X16931671Y-10532838D02*
X16817386Y-10647124D01*
X16817386Y-10647124D02*
X16941195Y-10647124D01*
X17179291Y-10647124D02*
X17179291Y-10447124D01*
X17265005Y-10647124D02*
X17265005Y-10542362D01*
X17265005Y-10542362D02*
X17255481Y-10523314D01*
X17255481Y-10523314D02*
X17236433Y-10513790D01*
X17236433Y-10513790D02*
X17207862Y-10513790D01*
X17207862Y-10513790D02*
X17188814Y-10523314D01*
X17188814Y-10523314D02*
X17179291Y-10532838D01*
X17388814Y-10647124D02*
X17369767Y-10637600D01*
X17369767Y-10637600D02*
X17360243Y-10628076D01*
X17360243Y-10628076D02*
X17350719Y-10609029D01*
X17350719Y-10609029D02*
X17350719Y-10551886D01*
X17350719Y-10551886D02*
X17360243Y-10532838D01*
X17360243Y-10532838D02*
X17369767Y-10523314D01*
X17369767Y-10523314D02*
X17388814Y-10513790D01*
X17388814Y-10513790D02*
X17417386Y-10513790D01*
X17417386Y-10513790D02*
X17436433Y-10523314D01*
X17436433Y-10523314D02*
X17445957Y-10532838D01*
X17445957Y-10532838D02*
X17455481Y-10551886D01*
X17455481Y-10551886D02*
X17455481Y-10609029D01*
X17455481Y-10609029D02*
X17445957Y-10628076D01*
X17445957Y-10628076D02*
X17436433Y-10637600D01*
X17436433Y-10637600D02*
X17417386Y-10647124D01*
X17417386Y-10647124D02*
X17388814Y-10647124D01*
X17569767Y-10647124D02*
X17550719Y-10637600D01*
X17550719Y-10637600D02*
X17541195Y-10618552D01*
X17541195Y-10618552D02*
X17541195Y-10447124D01*
X17722148Y-10637600D02*
X17703100Y-10647124D01*
X17703100Y-10647124D02*
X17665005Y-10647124D01*
X17665005Y-10647124D02*
X17645957Y-10637600D01*
X17645957Y-10637600D02*
X17636433Y-10618552D01*
X17636433Y-10618552D02*
X17636433Y-10542362D01*
X17636433Y-10542362D02*
X17645957Y-10523314D01*
X17645957Y-10523314D02*
X17665005Y-10513790D01*
X17665005Y-10513790D02*
X17703100Y-10513790D01*
X17703100Y-10513790D02*
X17722148Y-10523314D01*
X17722148Y-10523314D02*
X17731672Y-10542362D01*
X17731672Y-10542362D02*
X17731672Y-10561410D01*
X17731672Y-10561410D02*
X17636433Y-10580457D01*
X17807862Y-10637600D02*
X17826910Y-10647124D01*
X17826910Y-10647124D02*
X17865005Y-10647124D01*
X17865005Y-10647124D02*
X17884053Y-10637600D01*
X17884053Y-10637600D02*
X17893576Y-10618552D01*
X17893576Y-10618552D02*
X17893576Y-10609029D01*
X17893576Y-10609029D02*
X17884053Y-10589981D01*
X17884053Y-10589981D02*
X17865005Y-10580457D01*
X17865005Y-10580457D02*
X17836433Y-10580457D01*
X17836433Y-10580457D02*
X17817386Y-10570933D01*
X17817386Y-10570933D02*
X17807862Y-10551886D01*
X17807862Y-10551886D02*
X17807862Y-10542362D01*
X17807862Y-10542362D02*
X17817386Y-10523314D01*
X17817386Y-10523314D02*
X17836433Y-10513790D01*
X17836433Y-10513790D02*
X17865005Y-10513790D01*
X17865005Y-10513790D02*
X17884053Y-10523314D01*
X17960243Y-10723314D02*
X17969767Y-10713790D01*
X17969767Y-10713790D02*
X17988814Y-10685219D01*
X17988814Y-10685219D02*
X17998338Y-10666171D01*
X17998338Y-10666171D02*
X18007862Y-10637600D01*
X18007862Y-10637600D02*
X18017386Y-10589981D01*
X18017386Y-10589981D02*
X18017386Y-10551886D01*
X18017386Y-10551886D02*
X18007862Y-10504267D01*
X18007862Y-10504267D02*
X17998338Y-10475695D01*
X17998338Y-10475695D02*
X17988814Y-10456648D01*
X17988814Y-10456648D02*
X17969767Y-10428076D01*
X17969767Y-10428076D02*
X17960243Y-10418552D01*
M02*
