%TF.GenerationSoftware,KiCad,Pcbnew,8.0.8*%
%TF.CreationDate,2025-02-14T22:47:41+08:00*%
%TF.ProjectId,5V24VBoostUp(USBC),35563234-5642-46f6-9f73-745570285553,rev?*%
%TF.SameCoordinates,Original*%
%TF.FileFunction,Copper,L1,Top*%
%TF.FilePolarity,Positive*%
%FSLAX46Y46*%
G04 Gerber Fmt 4.6, Leading zero omitted, Abs format (unit mm)*
G04 Created by KiCad (PCBNEW 8.0.8) date 2025-02-14 22:47:41*
%MOMM*%
%LPD*%
G01*
G04 APERTURE LIST*
G04 Aperture macros list*
%AMRoundRect*
0 Rectangle with rounded corners*
0 $1 Rounding radius*
0 $2 $3 $4 $5 $6 $7 $8 $9 X,Y pos of 4 corners*
0 Add a 4 corners polygon primitive as box body*
4,1,4,$2,$3,$4,$5,$6,$7,$8,$9,$2,$3,0*
0 Add four circle primitives for the rounded corners*
1,1,$1+$1,$2,$3*
1,1,$1+$1,$4,$5*
1,1,$1+$1,$6,$7*
1,1,$1+$1,$8,$9*
0 Add four rect primitives between the rounded corners*
20,1,$1+$1,$2,$3,$4,$5,0*
20,1,$1+$1,$4,$5,$6,$7,0*
20,1,$1+$1,$6,$7,$8,$9,0*
20,1,$1+$1,$8,$9,$2,$3,0*%
G04 Aperture macros list end*
%TA.AperFunction,SMDPad,CuDef*%
%ADD10RoundRect,0.250000X-0.412500X-0.650000X0.412500X-0.650000X0.412500X0.650000X-0.412500X0.650000X0*%
%TD*%
%TA.AperFunction,SMDPad,CuDef*%
%ADD11RoundRect,0.250000X1.500000X0.650000X-1.500000X0.650000X-1.500000X-0.650000X1.500000X-0.650000X0*%
%TD*%
%TA.AperFunction,SMDPad,CuDef*%
%ADD12RoundRect,0.175000X-0.625000X0.175000X-0.625000X-0.175000X0.625000X-0.175000X0.625000X0.175000X0*%
%TD*%
%TA.AperFunction,SMDPad,CuDef*%
%ADD13RoundRect,0.200000X-0.600000X0.200000X-0.600000X-0.200000X0.600000X-0.200000X0.600000X0.200000X0*%
%TD*%
%TA.AperFunction,SMDPad,CuDef*%
%ADD14RoundRect,0.225000X-0.575000X0.225000X-0.575000X-0.225000X0.575000X-0.225000X0.575000X0.225000X0*%
%TD*%
%TA.AperFunction,HeatsinkPad*%
%ADD15O,1.700000X1.000000*%
%TD*%
%TA.AperFunction,ComponentPad*%
%ADD16R,1.700000X1.700000*%
%TD*%
%TA.AperFunction,ComponentPad*%
%ADD17O,1.700000X1.700000*%
%TD*%
%TA.AperFunction,SMDPad,CuDef*%
%ADD18RoundRect,0.162500X0.617500X0.162500X-0.617500X0.162500X-0.617500X-0.162500X0.617500X-0.162500X0*%
%TD*%
%TA.AperFunction,SMDPad,CuDef*%
%ADD19R,1.500000X2.200000*%
%TD*%
%TA.AperFunction,SMDPad,CuDef*%
%ADD20RoundRect,0.250000X0.400000X0.625000X-0.400000X0.625000X-0.400000X-0.625000X0.400000X-0.625000X0*%
%TD*%
%TA.AperFunction,SMDPad,CuDef*%
%ADD21RoundRect,0.250000X-0.650000X0.412500X-0.650000X-0.412500X0.650000X-0.412500X0.650000X0.412500X0*%
%TD*%
%TA.AperFunction,ComponentPad*%
%ADD22C,1.440000*%
%TD*%
%TA.AperFunction,ViaPad*%
%ADD23C,0.600000*%
%TD*%
%TA.AperFunction,Conductor*%
%ADD24C,0.800000*%
%TD*%
%TA.AperFunction,Conductor*%
%ADD25C,0.650000*%
%TD*%
%TA.AperFunction,Conductor*%
%ADD26C,0.900000*%
%TD*%
%TA.AperFunction,Conductor*%
%ADD27C,1.016000*%
%TD*%
%TA.AperFunction,Conductor*%
%ADD28C,0.700000*%
%TD*%
G04 APERTURE END LIST*
D10*
%TO.P,C1,1*%
%TO.N,Net-(U1-EN)*%
X142125300Y-88747600D03*
%TO.P,C1,2*%
%TO.N,GND*%
X145250300Y-88747600D03*
%TD*%
D11*
%TO.P,D1,1,K*%
%TO.N,Net-(D1-K)*%
X160335600Y-80467200D03*
%TO.P,D1,2,A*%
%TO.N,Net-(D1-A)*%
X155335600Y-80467200D03*
%TD*%
D12*
%TO.P,J3,A5,CC1*%
%TO.N,Net-(J3-CC1)*%
X138191600Y-83345400D03*
D13*
%TO.P,J3,A9,VBUS*%
%TO.N,Net-(U1-EN)*%
X138191600Y-85365400D03*
D14*
%TO.P,J3,A12,GND*%
%TO.N,GND*%
X138191600Y-86595400D03*
D12*
%TO.P,J3,B5,CC2*%
%TO.N,Net-(J3-CC2)*%
X138191600Y-84345400D03*
D13*
%TO.P,J3,B9,VBUS*%
%TO.N,Net-(U1-EN)*%
X138191600Y-82325400D03*
D14*
%TO.P,J3,B12,GND*%
%TO.N,GND*%
X138191600Y-81095400D03*
D15*
%TO.P,J3,S1,SHIELD*%
X138011600Y-79525400D03*
X134211600Y-79525400D03*
X138011600Y-88165400D03*
X134211600Y-88165400D03*
%TD*%
D16*
%TO.P,J2,1,Pin_1*%
%TO.N,Net-(D1-K)*%
X171170600Y-81026000D03*
D17*
%TO.P,J2,2,Pin_2*%
%TO.N,GND*%
X171170600Y-83566000D03*
%TD*%
D18*
%TO.P,U1,1,SW*%
%TO.N,Net-(D1-A)*%
X150266400Y-87396400D03*
%TO.P,U1,2,GND*%
%TO.N,GND*%
X150266400Y-86446400D03*
%TO.P,U1,3,FB*%
%TO.N,Net-(U1-FB)*%
X150266400Y-85496400D03*
%TO.P,U1,4,EN*%
%TO.N,Net-(U1-EN)*%
X147566400Y-85496400D03*
%TO.P,U1,5,IN*%
X147566400Y-86446400D03*
%TO.P,U1,6,NC*%
%TO.N,unconnected-(U1-NC-Pad6)*%
X147566400Y-87396400D03*
%TD*%
D19*
%TO.P,L1,1,1*%
%TO.N,Net-(U1-EN)*%
X143993000Y-80467200D03*
%TO.P,L1,2,2*%
%TO.N,Net-(D1-A)*%
X150393000Y-80467200D03*
%TD*%
D20*
%TO.P,R2,1*%
%TO.N,GND*%
X171196600Y-87045800D03*
%TO.P,R2,2*%
%TO.N,Net-(R2-Pad2)*%
X168096600Y-87045800D03*
%TD*%
D21*
%TO.P,C3,1*%
%TO.N,Net-(D1-K)*%
X167767000Y-80428700D03*
%TO.P,C3,2*%
%TO.N,GND*%
X167767000Y-83553700D03*
%TD*%
D22*
%TO.P,RV1,1,1*%
%TO.N,Net-(D1-K)*%
X160350200Y-86207600D03*
%TO.P,RV1,2,2*%
%TO.N,Net-(U1-FB)*%
X157810200Y-86207600D03*
%TO.P,RV1,3,3*%
%TO.N,Net-(R2-Pad2)*%
X155270200Y-86207600D03*
%TD*%
D23*
%TO.N,GND*%
X167741600Y-83566000D03*
X171196600Y-87045800D03*
X145250300Y-88747600D03*
X151866600Y-86461600D03*
X138191600Y-81095400D03*
X138191600Y-86595400D03*
%TO.N,Net-(J3-CC1)*%
X142138400Y-82753200D03*
%TO.N,Net-(J3-CC2)*%
X142138400Y-85166200D03*
%TD*%
D24*
%TO.N,Net-(U1-EN)*%
X139825697Y-82325400D02*
X141683897Y-80467200D01*
X140385800Y-86233000D02*
X140385800Y-88011000D01*
D25*
X142125300Y-87312900D02*
X142125300Y-88747600D01*
D24*
X139518200Y-85365400D02*
X140385800Y-86233000D01*
X136550400Y-82804000D02*
X137029000Y-82325400D01*
X137029000Y-82325400D02*
X138191600Y-82325400D01*
X138191600Y-82325400D02*
X139825697Y-82325400D01*
D25*
X143941800Y-85496400D02*
X142125300Y-87312900D01*
D24*
X141122400Y-88747600D02*
X142125300Y-88747600D01*
X136550400Y-84886800D02*
X136550400Y-82804000D01*
X141683897Y-80467200D02*
X143993000Y-80467200D01*
D25*
X147566400Y-85496400D02*
X143941800Y-85496400D01*
D24*
X138191600Y-85365400D02*
X137029000Y-85365400D01*
D25*
X147566400Y-86446400D02*
X147566400Y-85496400D01*
D24*
X138191600Y-85365400D02*
X139518200Y-85365400D01*
X140385800Y-88011000D02*
X141122400Y-88747600D01*
X137029000Y-85365400D02*
X136550400Y-84886800D01*
D26*
%TO.N,GND*%
X135331200Y-85369400D02*
X136557200Y-86595400D01*
D25*
X151851400Y-86446400D02*
X151866600Y-86461600D01*
X150266400Y-86446400D02*
X151851400Y-86446400D01*
D26*
X135331200Y-82270600D02*
X135331200Y-85369400D01*
X136506400Y-81095400D02*
X135331200Y-82270600D01*
X136557200Y-86595400D02*
X138191600Y-86595400D01*
X138191600Y-81095400D02*
X136506400Y-81095400D01*
D27*
%TO.N,Net-(D1-K)*%
X169049300Y-80428700D02*
X167767000Y-80428700D01*
X160350200Y-86207600D02*
X160350200Y-80481800D01*
X169646600Y-81026000D02*
X169049300Y-80428700D01*
X171170600Y-81026000D02*
X169646600Y-81026000D01*
X160350200Y-80481800D02*
X160335600Y-80467200D01*
X160374100Y-80428700D02*
X160335600Y-80467200D01*
X167767000Y-80428700D02*
X160374100Y-80428700D01*
D25*
%TO.N,Net-(U1-FB)*%
X153390600Y-84455000D02*
X157099000Y-84455000D01*
X157810200Y-85166200D02*
X157810200Y-86207600D01*
X150266400Y-85496400D02*
X152349200Y-85496400D01*
X152349200Y-85496400D02*
X153390600Y-84455000D01*
X157099000Y-84455000D02*
X157810200Y-85166200D01*
%TO.N,Net-(D1-A)*%
X150393000Y-82906000D02*
X150393000Y-80467200D01*
X149321600Y-87396400D02*
X148920200Y-86995000D01*
X150266400Y-87396400D02*
X149321600Y-87396400D01*
D27*
X155335600Y-80467200D02*
X150393000Y-80467200D01*
D25*
X148920200Y-86995000D02*
X148920200Y-84378800D01*
X148920200Y-84378800D02*
X150393000Y-82906000D01*
D28*
%TO.N,Net-(J3-CC1)*%
X140741400Y-82753200D02*
X142138400Y-82753200D01*
X138191600Y-83345400D02*
X140149200Y-83345400D01*
X140149200Y-83345400D02*
X140741400Y-82753200D01*
%TO.N,Net-(J3-CC2)*%
X138191600Y-84345400D02*
X139971400Y-84345400D01*
X140792200Y-85166200D02*
X142138400Y-85166200D01*
X139971400Y-84345400D02*
X140792200Y-85166200D01*
D27*
%TO.N,Net-(R2-Pad2)*%
X165119800Y-87635600D02*
X156698200Y-87635600D01*
X168096600Y-87045800D02*
X165709600Y-87045800D01*
X165709600Y-87045800D02*
X165119800Y-87635600D01*
X156698200Y-87635600D02*
X155270200Y-86207600D01*
%TD*%
%TA.AperFunction,NonConductor*%
G36*
X174473939Y-76262985D02*
G01*
X174519694Y-76315789D01*
X174530900Y-76367300D01*
X174530900Y-90586900D01*
X174511215Y-90653939D01*
X174458411Y-90699694D01*
X174406900Y-90710900D01*
X132501300Y-90710900D01*
X132434261Y-90691215D01*
X132388506Y-90638411D01*
X132377300Y-90586900D01*
X132377300Y-88086553D01*
X133061100Y-88086553D01*
X133061100Y-88244246D01*
X133091861Y-88398889D01*
X133091864Y-88398901D01*
X133152202Y-88544572D01*
X133152209Y-88544585D01*
X133239810Y-88675688D01*
X133239813Y-88675692D01*
X133351307Y-88787186D01*
X133351311Y-88787189D01*
X133482414Y-88874790D01*
X133482427Y-88874797D01*
X133628098Y-88935135D01*
X133628103Y-88935137D01*
X133782753Y-88965899D01*
X133782756Y-88965900D01*
X133782758Y-88965900D01*
X134640444Y-88965900D01*
X134640445Y-88965899D01*
X134795097Y-88935137D01*
X134940779Y-88874794D01*
X135071889Y-88787189D01*
X135183389Y-88675689D01*
X135270994Y-88544579D01*
X135331337Y-88398897D01*
X135362100Y-88244242D01*
X135362100Y-88086558D01*
X135362100Y-88086555D01*
X135362099Y-88086553D01*
X135355723Y-88054498D01*
X135331337Y-87931903D01*
X135313976Y-87889989D01*
X135270997Y-87786227D01*
X135270990Y-87786214D01*
X135183389Y-87655111D01*
X135183386Y-87655107D01*
X135071892Y-87543613D01*
X135071888Y-87543610D01*
X134940785Y-87456009D01*
X134940772Y-87456002D01*
X134795101Y-87395664D01*
X134795089Y-87395661D01*
X134640445Y-87364900D01*
X134640442Y-87364900D01*
X133782758Y-87364900D01*
X133782755Y-87364900D01*
X133628110Y-87395661D01*
X133628098Y-87395664D01*
X133482427Y-87456002D01*
X133482414Y-87456009D01*
X133351311Y-87543610D01*
X133351307Y-87543613D01*
X133239813Y-87655107D01*
X133239810Y-87655111D01*
X133152209Y-87786214D01*
X133152202Y-87786227D01*
X133091864Y-87931898D01*
X133091861Y-87931910D01*
X133061100Y-88086553D01*
X132377300Y-88086553D01*
X132377300Y-85443320D01*
X134580699Y-85443320D01*
X134609540Y-85588307D01*
X134609543Y-85588317D01*
X134666113Y-85724890D01*
X134666118Y-85724899D01*
X134677990Y-85742666D01*
X134677992Y-85742668D01*
X134748248Y-85847816D01*
X136078784Y-87178352D01*
X136104416Y-87195478D01*
X136132055Y-87213946D01*
X136132057Y-87213947D01*
X136132060Y-87213949D01*
X136201705Y-87260484D01*
X136201706Y-87260484D01*
X136201707Y-87260485D01*
X136338282Y-87317056D01*
X136338287Y-87317058D01*
X136338291Y-87317058D01*
X136338292Y-87317059D01*
X136483279Y-87345900D01*
X137049659Y-87345900D01*
X137116698Y-87365585D01*
X137162453Y-87418389D01*
X137172397Y-87487547D01*
X137143372Y-87551103D01*
X137137340Y-87557581D01*
X137039813Y-87655107D01*
X137039810Y-87655111D01*
X136952209Y-87786214D01*
X136952202Y-87786227D01*
X136891864Y-87931898D01*
X136891861Y-87931910D01*
X136861100Y-88086553D01*
X136861100Y-88244246D01*
X136891861Y-88398889D01*
X136891864Y-88398901D01*
X136952202Y-88544572D01*
X136952209Y-88544585D01*
X137039810Y-88675688D01*
X137039813Y-88675692D01*
X137151307Y-88787186D01*
X137151311Y-88787189D01*
X137282414Y-88874790D01*
X137282427Y-88874797D01*
X137428098Y-88935135D01*
X137428103Y-88935137D01*
X137582753Y-88965899D01*
X137582756Y-88965900D01*
X137582758Y-88965900D01*
X138440444Y-88965900D01*
X138440445Y-88965899D01*
X138595097Y-88935137D01*
X138740779Y-88874794D01*
X138871889Y-88787189D01*
X138983389Y-88675689D01*
X139070994Y-88544579D01*
X139131337Y-88398897D01*
X139162100Y-88244242D01*
X139162100Y-88086558D01*
X139162100Y-88086555D01*
X139162099Y-88086553D01*
X139155723Y-88054498D01*
X139131337Y-87931903D01*
X139113976Y-87889989D01*
X139070997Y-87786227D01*
X139070990Y-87786214D01*
X138983389Y-87655111D01*
X138983386Y-87655107D01*
X138871892Y-87543613D01*
X138870477Y-87542452D01*
X138869934Y-87541655D01*
X138867582Y-87539303D01*
X138868027Y-87538857D01*
X138831140Y-87484708D01*
X138829266Y-87414864D01*
X138865450Y-87355093D01*
X138903643Y-87331242D01*
X139026575Y-87282764D01*
X139141678Y-87195478D01*
X139228964Y-87080375D01*
X139281959Y-86945990D01*
X139292100Y-86861544D01*
X139292100Y-86429319D01*
X139311785Y-86362280D01*
X139364589Y-86316525D01*
X139433747Y-86306581D01*
X139497303Y-86335606D01*
X139503781Y-86341638D01*
X139648981Y-86486838D01*
X139682466Y-86548161D01*
X139685300Y-86574519D01*
X139685300Y-87942006D01*
X139685300Y-88079994D01*
X139685300Y-88079996D01*
X139685299Y-88079996D01*
X139712218Y-88215322D01*
X139712221Y-88215332D01*
X139765022Y-88342807D01*
X139841687Y-88457545D01*
X140675854Y-89291712D01*
X140790592Y-89368377D01*
X140918067Y-89421178D01*
X140918072Y-89421180D01*
X140918076Y-89421180D01*
X140918077Y-89421181D01*
X141053403Y-89448100D01*
X141053406Y-89448100D01*
X141053407Y-89448100D01*
X141056561Y-89448100D01*
X141058154Y-89448567D01*
X141059466Y-89448697D01*
X141059441Y-89448945D01*
X141123600Y-89467785D01*
X141169355Y-89520589D01*
X141171915Y-89526610D01*
X141228437Y-89669939D01*
X141228438Y-89669941D01*
X141319877Y-89790522D01*
X141440456Y-89881960D01*
X141440457Y-89881960D01*
X141440458Y-89881961D01*
X141581236Y-89937477D01*
X141669698Y-89948100D01*
X141669703Y-89948100D01*
X142580897Y-89948100D01*
X142580902Y-89948100D01*
X142669364Y-89937477D01*
X142810142Y-89881961D01*
X142930722Y-89790522D01*
X143022161Y-89669942D01*
X143077677Y-89529164D01*
X143088300Y-89440702D01*
X143088300Y-88054498D01*
X144287300Y-88054498D01*
X144287300Y-89440702D01*
X144292926Y-89487554D01*
X144297922Y-89529161D01*
X144353439Y-89669943D01*
X144444877Y-89790522D01*
X144565456Y-89881960D01*
X144565457Y-89881960D01*
X144565458Y-89881961D01*
X144706236Y-89937477D01*
X144794698Y-89948100D01*
X144794703Y-89948100D01*
X145705897Y-89948100D01*
X145705902Y-89948100D01*
X145794364Y-89937477D01*
X145935142Y-89881961D01*
X146055722Y-89790522D01*
X146147161Y-89669942D01*
X146202677Y-89529164D01*
X146213300Y-89440702D01*
X146213300Y-88054498D01*
X146202677Y-87966036D01*
X146147161Y-87825258D01*
X146147160Y-87825257D01*
X146147160Y-87825256D01*
X146055722Y-87704677D01*
X145935143Y-87613239D01*
X145794361Y-87557722D01*
X145748726Y-87552242D01*
X145705902Y-87547100D01*
X144794698Y-87547100D01*
X144755653Y-87551788D01*
X144706238Y-87557722D01*
X144565456Y-87613239D01*
X144444877Y-87704677D01*
X144353439Y-87825256D01*
X144297922Y-87966038D01*
X144297102Y-87972869D01*
X144287300Y-88054498D01*
X143088300Y-88054498D01*
X143077677Y-87966036D01*
X143022161Y-87825258D01*
X143022160Y-87825257D01*
X143022160Y-87825256D01*
X142930722Y-87704677D01*
X142866246Y-87655784D01*
X142824723Y-87599592D01*
X142820171Y-87529870D01*
X142853488Y-87469301D01*
X144164571Y-86158219D01*
X144225894Y-86124734D01*
X144252252Y-86121900D01*
X146361900Y-86121900D01*
X146428939Y-86141585D01*
X146474694Y-86194389D01*
X146485900Y-86245900D01*
X146485900Y-86664676D01*
X146488832Y-86695948D01*
X146494817Y-86713051D01*
X146533733Y-86824266D01*
X146534932Y-86827691D01*
X146534932Y-86827692D01*
X146549749Y-86847768D01*
X146573719Y-86913397D01*
X146558403Y-86981567D01*
X146549749Y-86995032D01*
X146534932Y-87015107D01*
X146534932Y-87015108D01*
X146488832Y-87146851D01*
X146485900Y-87178123D01*
X146485900Y-87614676D01*
X146488832Y-87645949D01*
X146488832Y-87645951D01*
X146534929Y-87777685D01*
X146534934Y-87777694D01*
X146617810Y-87889988D01*
X146617811Y-87889989D01*
X146730105Y-87972865D01*
X146730107Y-87972866D01*
X146730111Y-87972869D01*
X146730114Y-87972870D01*
X146861849Y-88018967D01*
X146893124Y-88021900D01*
X146893128Y-88021900D01*
X148239676Y-88021900D01*
X148270949Y-88018967D01*
X148270951Y-88018967D01*
X148354799Y-87989626D01*
X148402689Y-87972869D01*
X148514989Y-87889989D01*
X148562762Y-87825258D01*
X148603388Y-87770212D01*
X148605535Y-87771796D01*
X148644281Y-87731963D01*
X148712342Y-87716167D01*
X148778138Y-87739675D01*
X148792890Y-87752281D01*
X148835741Y-87795132D01*
X148835742Y-87795133D01*
X148892921Y-87852312D01*
X148922868Y-87882259D01*
X149025307Y-87950707D01*
X149025313Y-87950710D01*
X149025314Y-87950711D01*
X149139148Y-87997863D01*
X149199571Y-88009881D01*
X149259993Y-88021900D01*
X150939676Y-88021900D01*
X150970949Y-88018967D01*
X150970951Y-88018967D01*
X151054799Y-87989626D01*
X151102689Y-87972869D01*
X151214989Y-87889989D01*
X151297869Y-87777689D01*
X151317760Y-87720843D01*
X151343967Y-87645951D01*
X151343967Y-87645949D01*
X151346900Y-87614676D01*
X151346900Y-87195900D01*
X151366585Y-87128861D01*
X151419389Y-87083106D01*
X151470900Y-87071900D01*
X151716365Y-87071900D01*
X151740555Y-87074282D01*
X151804991Y-87087099D01*
X151804992Y-87087100D01*
X151804993Y-87087100D01*
X151928208Y-87087100D01*
X151928209Y-87087099D01*
X152049051Y-87063063D01*
X152162885Y-87015912D01*
X152265333Y-86947457D01*
X152352457Y-86860333D01*
X152420912Y-86757885D01*
X152468063Y-86644051D01*
X152492100Y-86523207D01*
X152492100Y-86399993D01*
X152468063Y-86279149D01*
X152460733Y-86261454D01*
X152453265Y-86191987D01*
X152484539Y-86129507D01*
X152527840Y-86099442D01*
X152531652Y-86097863D01*
X152564992Y-86084052D01*
X152645486Y-86050712D01*
X152716483Y-86003272D01*
X152747933Y-85982258D01*
X152835058Y-85895133D01*
X152835059Y-85895131D01*
X152842125Y-85888065D01*
X152842127Y-85888061D01*
X153613371Y-85116819D01*
X153674694Y-85083334D01*
X153701052Y-85080500D01*
X154718976Y-85080500D01*
X154786015Y-85100185D01*
X154831770Y-85152989D01*
X154841714Y-85222147D01*
X154812689Y-85285703D01*
X154777429Y-85313858D01*
X154700498Y-85354977D01*
X154700495Y-85354979D01*
X154545105Y-85482505D01*
X154417581Y-85637893D01*
X154322819Y-85815182D01*
X154264465Y-86007548D01*
X154244762Y-86207600D01*
X154264465Y-86407651D01*
X154271038Y-86429319D01*
X154322819Y-86600018D01*
X154405450Y-86754611D01*
X154417581Y-86777306D01*
X154545105Y-86932694D01*
X154647362Y-87016614D01*
X154700497Y-87060221D01*
X154877782Y-87154981D01*
X155070147Y-87213334D01*
X155095200Y-87215801D01*
X155159988Y-87241960D01*
X155170731Y-87251523D01*
X156182807Y-88263600D01*
X156182810Y-88263603D01*
X156301348Y-88342807D01*
X156315232Y-88352084D01*
X156343961Y-88363983D01*
X156388802Y-88382557D01*
X156462369Y-88413030D01*
X156618565Y-88444099D01*
X156618569Y-88444100D01*
X156618570Y-88444100D01*
X165199431Y-88444100D01*
X165199432Y-88444099D01*
X165355631Y-88413030D01*
X165429199Y-88382556D01*
X165502768Y-88352084D01*
X165635189Y-88263603D01*
X166008173Y-87890619D01*
X166069496Y-87857134D01*
X166095854Y-87854300D01*
X167092810Y-87854300D01*
X167159849Y-87873985D01*
X167205604Y-87926789D01*
X167208165Y-87932811D01*
X167212239Y-87943142D01*
X167303677Y-88063722D01*
X167424256Y-88155160D01*
X167424257Y-88155160D01*
X167424258Y-88155161D01*
X167565036Y-88210677D01*
X167653498Y-88221300D01*
X167653503Y-88221300D01*
X168539697Y-88221300D01*
X168539702Y-88221300D01*
X168628164Y-88210677D01*
X168768942Y-88155161D01*
X168889522Y-88063722D01*
X168980961Y-87943142D01*
X169036477Y-87802364D01*
X169047100Y-87713902D01*
X169047100Y-86377698D01*
X170246100Y-86377698D01*
X170246100Y-87713902D01*
X170246934Y-87720843D01*
X170256722Y-87802361D01*
X170256722Y-87802363D01*
X170256723Y-87802364D01*
X170265751Y-87825258D01*
X170312239Y-87943143D01*
X170403677Y-88063722D01*
X170524256Y-88155160D01*
X170524257Y-88155160D01*
X170524258Y-88155161D01*
X170665036Y-88210677D01*
X170753498Y-88221300D01*
X170753503Y-88221300D01*
X171639697Y-88221300D01*
X171639702Y-88221300D01*
X171728164Y-88210677D01*
X171868942Y-88155161D01*
X171989522Y-88063722D01*
X172080961Y-87943142D01*
X172136477Y-87802364D01*
X172147100Y-87713902D01*
X172147100Y-86377698D01*
X172136477Y-86289236D01*
X172080961Y-86148458D01*
X172080960Y-86148457D01*
X172080960Y-86148456D01*
X171989522Y-86027877D01*
X171868943Y-85936439D01*
X171753532Y-85890927D01*
X171728164Y-85880923D01*
X171728163Y-85880922D01*
X171728161Y-85880922D01*
X171682526Y-85875442D01*
X171639702Y-85870300D01*
X170753498Y-85870300D01*
X170714453Y-85874988D01*
X170665038Y-85880922D01*
X170524256Y-85936439D01*
X170403677Y-86027877D01*
X170312239Y-86148456D01*
X170256722Y-86289238D01*
X170251155Y-86335606D01*
X170246100Y-86377698D01*
X169047100Y-86377698D01*
X169036477Y-86289236D01*
X168980961Y-86148458D01*
X168980960Y-86148457D01*
X168980960Y-86148456D01*
X168889522Y-86027877D01*
X168768943Y-85936439D01*
X168653532Y-85890927D01*
X168628164Y-85880923D01*
X168628163Y-85880922D01*
X168628161Y-85880922D01*
X168582526Y-85875442D01*
X168539702Y-85870300D01*
X167653498Y-85870300D01*
X167614453Y-85874988D01*
X167565038Y-85880922D01*
X167424256Y-85936439D01*
X167303677Y-86027877D01*
X167212239Y-86148457D01*
X167208165Y-86158789D01*
X167165260Y-86213933D01*
X167099352Y-86237127D01*
X167092810Y-86237300D01*
X165629965Y-86237300D01*
X165473776Y-86268367D01*
X165473776Y-86268368D01*
X165473773Y-86268369D01*
X165473769Y-86268370D01*
X165400200Y-86298843D01*
X165400198Y-86298843D01*
X165326634Y-86329314D01*
X165326625Y-86329319D01*
X165194211Y-86417796D01*
X165194207Y-86417799D01*
X164821227Y-86790781D01*
X164759904Y-86824266D01*
X164733546Y-86827100D01*
X161383085Y-86827100D01*
X161316046Y-86807415D01*
X161270291Y-86754611D01*
X161260347Y-86685453D01*
X161273726Y-86644648D01*
X161274187Y-86643784D01*
X161297581Y-86600018D01*
X161355934Y-86407653D01*
X161375638Y-86207600D01*
X161355934Y-86007547D01*
X161297581Y-85815182D01*
X161202821Y-85637897D01*
X161186845Y-85618430D01*
X161159533Y-85554119D01*
X161158700Y-85539767D01*
X161158700Y-83098098D01*
X166566500Y-83098098D01*
X166566500Y-84009302D01*
X166568023Y-84021981D01*
X166577122Y-84097761D01*
X166577122Y-84097763D01*
X166577123Y-84097764D01*
X166594722Y-84142392D01*
X166632639Y-84238543D01*
X166724077Y-84359122D01*
X166844656Y-84450560D01*
X166844657Y-84450560D01*
X166844658Y-84450561D01*
X166985436Y-84506077D01*
X167073898Y-84516700D01*
X167073903Y-84516700D01*
X168460097Y-84516700D01*
X168460102Y-84516700D01*
X168548564Y-84506077D01*
X168689342Y-84450561D01*
X168809922Y-84359122D01*
X168901361Y-84238542D01*
X168956877Y-84097764D01*
X168967500Y-84009302D01*
X168967500Y-83098098D01*
X168956877Y-83009636D01*
X168901361Y-82868858D01*
X168901360Y-82868857D01*
X168901360Y-82868856D01*
X168809922Y-82748277D01*
X168689343Y-82656839D01*
X168548561Y-82601322D01*
X168500465Y-82595547D01*
X168460102Y-82590700D01*
X167073898Y-82590700D01*
X167034853Y-82595388D01*
X166985438Y-82601322D01*
X166844656Y-82656839D01*
X166724077Y-82748277D01*
X166632639Y-82868856D01*
X166577122Y-83009638D01*
X166571188Y-83059053D01*
X166566500Y-83098098D01*
X161158700Y-83098098D01*
X161158700Y-81791700D01*
X161178385Y-81724661D01*
X161231189Y-81678906D01*
X161282700Y-81667700D01*
X161878697Y-81667700D01*
X161878702Y-81667700D01*
X161967164Y-81657077D01*
X162107942Y-81601561D01*
X162228522Y-81510122D01*
X162319961Y-81389542D01*
X162333894Y-81354210D01*
X162349078Y-81315709D01*
X162391984Y-81260566D01*
X162457892Y-81237373D01*
X162464432Y-81237200D01*
X166686438Y-81237200D01*
X166753477Y-81256885D01*
X166761364Y-81262397D01*
X166844656Y-81325560D01*
X166844657Y-81325560D01*
X166844658Y-81325561D01*
X166985436Y-81381077D01*
X167073898Y-81391700D01*
X167073903Y-81391700D01*
X168460097Y-81391700D01*
X168460102Y-81391700D01*
X168548564Y-81381077D01*
X168671338Y-81332661D01*
X168695028Y-81323319D01*
X168764614Y-81317037D01*
X168826551Y-81349374D01*
X168828199Y-81350992D01*
X169131210Y-81654003D01*
X169236958Y-81724661D01*
X169263632Y-81742484D01*
X169324882Y-81767854D01*
X169410769Y-81803430D01*
X169566965Y-81834499D01*
X169566969Y-81834500D01*
X169566970Y-81834500D01*
X169899634Y-81834500D01*
X169966673Y-81854185D01*
X170012428Y-81906989D01*
X170022808Y-81944210D01*
X170023014Y-81945989D01*
X170023015Y-81945991D01*
X170068393Y-82048764D01*
X170068394Y-82048765D01*
X170147835Y-82128206D01*
X170250609Y-82173585D01*
X170275735Y-82176500D01*
X171004358Y-82176499D01*
X171071395Y-82196183D01*
X171117150Y-82248987D01*
X171127094Y-82318146D01*
X171098069Y-82381702D01*
X171039291Y-82419476D01*
X171027142Y-82422388D01*
X170970716Y-82432935D01*
X170854402Y-82454679D01*
X170854400Y-82454679D01*
X170854398Y-82454680D01*
X170655582Y-82531701D01*
X170655580Y-82531702D01*
X170474299Y-82643947D01*
X170316727Y-82787593D01*
X170188232Y-82957746D01*
X170093196Y-83148605D01*
X170093196Y-83148607D01*
X170034844Y-83353689D01*
X170032527Y-83378700D01*
X170015171Y-83566000D01*
X170034844Y-83778310D01*
X170089140Y-83969139D01*
X170093196Y-83983392D01*
X170093196Y-83983394D01*
X170188232Y-84174253D01*
X170316727Y-84344406D01*
X170316728Y-84344407D01*
X170474298Y-84488052D01*
X170655581Y-84600298D01*
X170854402Y-84677321D01*
X171063990Y-84716500D01*
X171063992Y-84716500D01*
X171277208Y-84716500D01*
X171277210Y-84716500D01*
X171486798Y-84677321D01*
X171685619Y-84600298D01*
X171866902Y-84488052D01*
X172024472Y-84344407D01*
X172152966Y-84174255D01*
X172211715Y-84056270D01*
X172248003Y-83983394D01*
X172248003Y-83983393D01*
X172248005Y-83983389D01*
X172306356Y-83778310D01*
X172326029Y-83566000D01*
X172306356Y-83353690D01*
X172248005Y-83148611D01*
X172248003Y-83148606D01*
X172248003Y-83148605D01*
X172152967Y-82957746D01*
X172024472Y-82787593D01*
X171981346Y-82748278D01*
X171866902Y-82643948D01*
X171685619Y-82531702D01*
X171685617Y-82531701D01*
X171586208Y-82493190D01*
X171486798Y-82454679D01*
X171314056Y-82422387D01*
X171251776Y-82390719D01*
X171216503Y-82330407D01*
X171219437Y-82260599D01*
X171259646Y-82203459D01*
X171324364Y-82177128D01*
X171336833Y-82176499D01*
X172065464Y-82176499D01*
X172065479Y-82176497D01*
X172065482Y-82176497D01*
X172090587Y-82173586D01*
X172090588Y-82173585D01*
X172090591Y-82173585D01*
X172193365Y-82128206D01*
X172272806Y-82048765D01*
X172318185Y-81945991D01*
X172321100Y-81920865D01*
X172321099Y-80131136D01*
X172321097Y-80131117D01*
X172318186Y-80106012D01*
X172318185Y-80106010D01*
X172318185Y-80106009D01*
X172272806Y-80003235D01*
X172193365Y-79923794D01*
X172149847Y-79904579D01*
X172090592Y-79878415D01*
X172065465Y-79875500D01*
X170275743Y-79875500D01*
X170275717Y-79875502D01*
X170250612Y-79878413D01*
X170250608Y-79878415D01*
X170147835Y-79923793D01*
X170068394Y-80003234D01*
X170049263Y-80046562D01*
X170004176Y-80099938D01*
X169937390Y-80120465D01*
X169870108Y-80101626D01*
X169848148Y-80084156D01*
X169564692Y-79800699D01*
X169564688Y-79800696D01*
X169432271Y-79712217D01*
X169432268Y-79712216D01*
X169338316Y-79673300D01*
X169285131Y-79651270D01*
X169285123Y-79651268D01*
X169128934Y-79620200D01*
X169128930Y-79620200D01*
X168847562Y-79620200D01*
X168780523Y-79600515D01*
X168772636Y-79595003D01*
X168689343Y-79531839D01*
X168548561Y-79476322D01*
X168502926Y-79470842D01*
X168460102Y-79465700D01*
X167073898Y-79465700D01*
X167034853Y-79470388D01*
X166985438Y-79476322D01*
X166844656Y-79531839D01*
X166761364Y-79595003D01*
X166696052Y-79619827D01*
X166686438Y-79620200D01*
X162434066Y-79620200D01*
X162367027Y-79600515D01*
X162324848Y-79551838D01*
X162324117Y-79552250D01*
X162322106Y-79548673D01*
X162321272Y-79547711D01*
X162320363Y-79545574D01*
X162319959Y-79544855D01*
X162228522Y-79424277D01*
X162107943Y-79332839D01*
X161967161Y-79277322D01*
X161921526Y-79271842D01*
X161878702Y-79266700D01*
X158792498Y-79266700D01*
X158753453Y-79271388D01*
X158704038Y-79277322D01*
X158563256Y-79332839D01*
X158442677Y-79424277D01*
X158351239Y-79544856D01*
X158295722Y-79685638D01*
X158292531Y-79712216D01*
X158285100Y-79774098D01*
X158285100Y-81160302D01*
X158290350Y-81204019D01*
X158295722Y-81248761D01*
X158351239Y-81389543D01*
X158442677Y-81510122D01*
X158563256Y-81601560D01*
X158563257Y-81601560D01*
X158563258Y-81601561D01*
X158704036Y-81657077D01*
X158792498Y-81667700D01*
X159417700Y-81667700D01*
X159484739Y-81687385D01*
X159530494Y-81740189D01*
X159541700Y-81791700D01*
X159541700Y-85539767D01*
X159522015Y-85606806D01*
X159513555Y-85618430D01*
X159497579Y-85637896D01*
X159402819Y-85815182D01*
X159344465Y-86007548D01*
X159324762Y-86207600D01*
X159344465Y-86407651D01*
X159351038Y-86429319D01*
X159402819Y-86600018D01*
X159402820Y-86600019D01*
X159426674Y-86644648D01*
X159440915Y-86713051D01*
X159415914Y-86778294D01*
X159359609Y-86819664D01*
X159317315Y-86827100D01*
X158843085Y-86827100D01*
X158776046Y-86807415D01*
X158730291Y-86754611D01*
X158720347Y-86685453D01*
X158733726Y-86644648D01*
X158734187Y-86643784D01*
X158757581Y-86600018D01*
X158815934Y-86407653D01*
X158835638Y-86207600D01*
X158815934Y-86007547D01*
X158757581Y-85815182D01*
X158662821Y-85637897D01*
X158637305Y-85606806D01*
X158535298Y-85482510D01*
X158535295Y-85482508D01*
X158535294Y-85482506D01*
X158501398Y-85454687D01*
X158481033Y-85437974D01*
X158441700Y-85380227D01*
X158435700Y-85342122D01*
X158435700Y-85233941D01*
X158435701Y-85233920D01*
X158435701Y-85104591D01*
X158411664Y-84983753D01*
X158411662Y-84983746D01*
X158408643Y-84976458D01*
X158408641Y-84976453D01*
X158385229Y-84919931D01*
X158374875Y-84894935D01*
X158364512Y-84869915D01*
X158296058Y-84767467D01*
X158296055Y-84767463D01*
X157591928Y-84063338D01*
X157591925Y-84063334D01*
X157591925Y-84063335D01*
X157584859Y-84056269D01*
X157584858Y-84056267D01*
X157497733Y-83969142D01*
X157497729Y-83969139D01*
X157497728Y-83969138D01*
X157440248Y-83930731D01*
X157440246Y-83930730D01*
X157395286Y-83900688D01*
X157395287Y-83900688D01*
X157395285Y-83900687D01*
X157355039Y-83884017D01*
X157314792Y-83867347D01*
X157281452Y-83853537D01*
X157281448Y-83853536D01*
X157281444Y-83853535D01*
X157214012Y-83840122D01*
X157214011Y-83840122D01*
X157160611Y-83829500D01*
X157160607Y-83829500D01*
X157160606Y-83829500D01*
X153452207Y-83829500D01*
X153328993Y-83829500D01*
X153275587Y-83840123D01*
X153275586Y-83840122D01*
X153208154Y-83853535D01*
X153208145Y-83853537D01*
X153188143Y-83861823D01*
X153174807Y-83867347D01*
X153094318Y-83900685D01*
X153094314Y-83900687D01*
X153080427Y-83909967D01*
X153049353Y-83930730D01*
X153049352Y-83930731D01*
X152991871Y-83969138D01*
X152991869Y-83969139D01*
X152965115Y-83995894D01*
X152904742Y-84056267D01*
X152904739Y-84056270D01*
X152510449Y-84450561D01*
X152126429Y-84834581D01*
X152065106Y-84868066D01*
X152038748Y-84870900D01*
X149669700Y-84870900D01*
X149602661Y-84851215D01*
X149556906Y-84798411D01*
X149545700Y-84746900D01*
X149545700Y-84689251D01*
X149565385Y-84622212D01*
X149582014Y-84601575D01*
X150791729Y-83391860D01*
X150791733Y-83391858D01*
X150878858Y-83304733D01*
X150909767Y-83258473D01*
X150930254Y-83227813D01*
X150930256Y-83227810D01*
X150947310Y-83202288D01*
X150947310Y-83202287D01*
X150947312Y-83202285D01*
X150994463Y-83088451D01*
X151010140Y-83009638D01*
X151012261Y-82998978D01*
X151014605Y-82987186D01*
X151018500Y-82967606D01*
X151018500Y-81991699D01*
X151038185Y-81924660D01*
X151090989Y-81878905D01*
X151142500Y-81867699D01*
X151187856Y-81867699D01*
X151187864Y-81867699D01*
X151187879Y-81867697D01*
X151187882Y-81867697D01*
X151212987Y-81864786D01*
X151212988Y-81864785D01*
X151212991Y-81864785D01*
X151315765Y-81819406D01*
X151395206Y-81739965D01*
X151440585Y-81637191D01*
X151443500Y-81612065D01*
X151443500Y-81399700D01*
X151463185Y-81332661D01*
X151515989Y-81286906D01*
X151567500Y-81275700D01*
X153221951Y-81275700D01*
X153288990Y-81295385D01*
X153334745Y-81348189D01*
X153337305Y-81354210D01*
X153351237Y-81389539D01*
X153351238Y-81389541D01*
X153442677Y-81510122D01*
X153563256Y-81601560D01*
X153563257Y-81601560D01*
X153563258Y-81601561D01*
X153704036Y-81657077D01*
X153792498Y-81667700D01*
X153792503Y-81667700D01*
X156878697Y-81667700D01*
X156878702Y-81667700D01*
X156967164Y-81657077D01*
X157107942Y-81601561D01*
X157228522Y-81510122D01*
X157319961Y-81389542D01*
X157375477Y-81248764D01*
X157386100Y-81160302D01*
X157386100Y-79774098D01*
X157375477Y-79685636D01*
X157319961Y-79544858D01*
X157319960Y-79544857D01*
X157319960Y-79544856D01*
X157228522Y-79424277D01*
X157107943Y-79332839D01*
X156967161Y-79277322D01*
X156921526Y-79271842D01*
X156878702Y-79266700D01*
X153792498Y-79266700D01*
X153753453Y-79271388D01*
X153704038Y-79277322D01*
X153563256Y-79332839D01*
X153442677Y-79424277D01*
X153351238Y-79544858D01*
X153351237Y-79544860D01*
X153337305Y-79580190D01*
X153294400Y-79635334D01*
X153228492Y-79658527D01*
X153221951Y-79658700D01*
X151567499Y-79658700D01*
X151500460Y-79639015D01*
X151454705Y-79586211D01*
X151443499Y-79534700D01*
X151443499Y-79322343D01*
X151443499Y-79322336D01*
X151443497Y-79322317D01*
X151440586Y-79297212D01*
X151440585Y-79297210D01*
X151440585Y-79297209D01*
X151395206Y-79194435D01*
X151315765Y-79114994D01*
X151315763Y-79114993D01*
X151212992Y-79069615D01*
X151187865Y-79066700D01*
X149598143Y-79066700D01*
X149598117Y-79066702D01*
X149573012Y-79069613D01*
X149573008Y-79069615D01*
X149470235Y-79114993D01*
X149390794Y-79194434D01*
X149345415Y-79297206D01*
X149345415Y-79297208D01*
X149342500Y-79322331D01*
X149342500Y-81612056D01*
X149342502Y-81612082D01*
X149345413Y-81637187D01*
X149345415Y-81637191D01*
X149390793Y-81739964D01*
X149390794Y-81739965D01*
X149470235Y-81819406D01*
X149573009Y-81864785D01*
X149598135Y-81867700D01*
X149643499Y-81867699D01*
X149710537Y-81887382D01*
X149756293Y-81940185D01*
X149767500Y-81991699D01*
X149767500Y-82595547D01*
X149747815Y-82662586D01*
X149731181Y-82683228D01*
X148434341Y-83980067D01*
X148434338Y-83980071D01*
X148423767Y-83995894D01*
X148423763Y-83995900D01*
X148365888Y-84082514D01*
X148365886Y-84082517D01*
X148348324Y-84124914D01*
X148348325Y-84124915D01*
X148318737Y-84196349D01*
X148318735Y-84196356D01*
X148294700Y-84317189D01*
X148294700Y-84746900D01*
X148275015Y-84813939D01*
X148222211Y-84859694D01*
X148170700Y-84870900D01*
X143880193Y-84870900D01*
X143865447Y-84873833D01*
X143865446Y-84873832D01*
X143759354Y-84894935D01*
X143759341Y-84894939D01*
X143727062Y-84908309D01*
X143712197Y-84914467D01*
X143645519Y-84942085D01*
X143645515Y-84942088D01*
X143625003Y-84955794D01*
X143543068Y-85010540D01*
X143499505Y-85054103D01*
X143455942Y-85097667D01*
X143455939Y-85097670D01*
X142871292Y-85682316D01*
X142809969Y-85715801D01*
X142740277Y-85710817D01*
X142684344Y-85668945D01*
X142659927Y-85603481D01*
X142674779Y-85535208D01*
X142680510Y-85525743D01*
X142714860Y-85474335D01*
X142714861Y-85474332D01*
X142714865Y-85474327D01*
X142763901Y-85355944D01*
X142782012Y-85264896D01*
X142788900Y-85230271D01*
X142788900Y-85102128D01*
X142763902Y-84976461D01*
X142763900Y-84976453D01*
X142714866Y-84858075D01*
X142714861Y-84858066D01*
X142643676Y-84751531D01*
X142643673Y-84751527D01*
X142553072Y-84660926D01*
X142553068Y-84660923D01*
X142446533Y-84589738D01*
X142446524Y-84589733D01*
X142328144Y-84540699D01*
X142328138Y-84540697D01*
X142202471Y-84515700D01*
X142202469Y-84515700D01*
X141113008Y-84515700D01*
X141045969Y-84496015D01*
X141025327Y-84479381D01*
X140567927Y-84021981D01*
X140534442Y-83960658D01*
X140539426Y-83890966D01*
X140567927Y-83846619D01*
X140974527Y-83440019D01*
X141035850Y-83406534D01*
X141062208Y-83403700D01*
X142202471Y-83403700D01*
X142287015Y-83386882D01*
X142328144Y-83378701D01*
X142446527Y-83329665D01*
X142553069Y-83258476D01*
X142643676Y-83167869D01*
X142714865Y-83061327D01*
X142763901Y-82942944D01*
X142778638Y-82868858D01*
X142788900Y-82817271D01*
X142788900Y-82689128D01*
X142763902Y-82563461D01*
X142763901Y-82563460D01*
X142763901Y-82563456D01*
X142714865Y-82445073D01*
X142714864Y-82445072D01*
X142714861Y-82445066D01*
X142643676Y-82338531D01*
X142643673Y-82338527D01*
X142553072Y-82247926D01*
X142553068Y-82247923D01*
X142446533Y-82176738D01*
X142446524Y-82176733D01*
X142328144Y-82127699D01*
X142328138Y-82127697D01*
X142202471Y-82102700D01*
X142202469Y-82102700D01*
X141338416Y-82102700D01*
X141271377Y-82083015D01*
X141225622Y-82030211D01*
X141215678Y-81961053D01*
X141244703Y-81897497D01*
X141250735Y-81891019D01*
X141937735Y-81204019D01*
X141999058Y-81170534D01*
X142025416Y-81167700D01*
X142818501Y-81167700D01*
X142885540Y-81187385D01*
X142931295Y-81240189D01*
X142942501Y-81291700D01*
X142942501Y-81612056D01*
X142942502Y-81612082D01*
X142945413Y-81637187D01*
X142945415Y-81637191D01*
X142990793Y-81739964D01*
X142990794Y-81739965D01*
X143070235Y-81819406D01*
X143173009Y-81864785D01*
X143198135Y-81867700D01*
X144787864Y-81867699D01*
X144787879Y-81867697D01*
X144787882Y-81867697D01*
X144812987Y-81864786D01*
X144812988Y-81864785D01*
X144812991Y-81864785D01*
X144915765Y-81819406D01*
X144995206Y-81739965D01*
X145040585Y-81637191D01*
X145043500Y-81612065D01*
X145043499Y-79322336D01*
X145043497Y-79322317D01*
X145040586Y-79297212D01*
X145040585Y-79297210D01*
X145040585Y-79297209D01*
X144995206Y-79194435D01*
X144915765Y-79114994D01*
X144915763Y-79114993D01*
X144812992Y-79069615D01*
X144787865Y-79066700D01*
X143198143Y-79066700D01*
X143198117Y-79066702D01*
X143173012Y-79069613D01*
X143173008Y-79069615D01*
X143070235Y-79114993D01*
X142990794Y-79194434D01*
X142945415Y-79297206D01*
X142945415Y-79297208D01*
X142942500Y-79322331D01*
X142942500Y-79642700D01*
X142922815Y-79709739D01*
X142870011Y-79755494D01*
X142818500Y-79766700D01*
X141614901Y-79766700D01*
X141479574Y-79793618D01*
X141479564Y-79793621D01*
X141352089Y-79846422D01*
X141237351Y-79923087D01*
X141237350Y-79923088D01*
X139571859Y-81588581D01*
X139510536Y-81622066D01*
X139484178Y-81624900D01*
X139393599Y-81624900D01*
X139326560Y-81605215D01*
X139280805Y-81552411D01*
X139270861Y-81483253D01*
X139278244Y-81455412D01*
X139280068Y-81450783D01*
X139281959Y-81445990D01*
X139292100Y-81361544D01*
X139292100Y-80829256D01*
X139281959Y-80744810D01*
X139228964Y-80610425D01*
X139228963Y-80610424D01*
X139228963Y-80610423D01*
X139141678Y-80495321D01*
X139026573Y-80408034D01*
X138903647Y-80359558D01*
X138848503Y-80316652D01*
X138825310Y-80250744D01*
X138841431Y-80182760D01*
X138867711Y-80151626D01*
X138867582Y-80151497D01*
X138869110Y-80149968D01*
X138870486Y-80148339D01*
X138871876Y-80147197D01*
X138871889Y-80147189D01*
X138983389Y-80035689D01*
X139070994Y-79904579D01*
X139131337Y-79758897D01*
X139162100Y-79604242D01*
X139162100Y-79446558D01*
X139162100Y-79446555D01*
X139162099Y-79446553D01*
X139157668Y-79424277D01*
X139131337Y-79291903D01*
X139125298Y-79277323D01*
X139070997Y-79146227D01*
X139070990Y-79146214D01*
X138983389Y-79015111D01*
X138983386Y-79015107D01*
X138871892Y-78903613D01*
X138871888Y-78903610D01*
X138740785Y-78816009D01*
X138740772Y-78816002D01*
X138595101Y-78755664D01*
X138595089Y-78755661D01*
X138440445Y-78724900D01*
X138440442Y-78724900D01*
X137582758Y-78724900D01*
X137582755Y-78724900D01*
X137428110Y-78755661D01*
X137428098Y-78755664D01*
X137282427Y-78816002D01*
X137282414Y-78816009D01*
X137151311Y-78903610D01*
X137151307Y-78903613D01*
X137039813Y-79015107D01*
X137039810Y-79015111D01*
X136952209Y-79146214D01*
X136952202Y-79146227D01*
X136891864Y-79291898D01*
X136891861Y-79291910D01*
X136861100Y-79446553D01*
X136861100Y-79604246D01*
X136891861Y-79758889D01*
X136891864Y-79758901D01*
X136952202Y-79904572D01*
X136952209Y-79904585D01*
X137039810Y-80035688D01*
X137039813Y-80035692D01*
X137137340Y-80133219D01*
X137170825Y-80194542D01*
X137165841Y-80264234D01*
X137123969Y-80320167D01*
X137058505Y-80344584D01*
X137049659Y-80344900D01*
X136432480Y-80344900D01*
X136287492Y-80373740D01*
X136287486Y-80373742D01*
X136150908Y-80430314D01*
X136150896Y-80430321D01*
X136101669Y-80463213D01*
X136027988Y-80512444D01*
X136027980Y-80512450D01*
X134748249Y-81792181D01*
X134719973Y-81834499D01*
X134719974Y-81834500D01*
X134666114Y-81915108D01*
X134609543Y-82051682D01*
X134609540Y-82051692D01*
X134580700Y-82196679D01*
X134580700Y-82196682D01*
X134580700Y-85443318D01*
X134580700Y-85443320D01*
X134580699Y-85443320D01*
X132377300Y-85443320D01*
X132377300Y-79446553D01*
X133061100Y-79446553D01*
X133061100Y-79604246D01*
X133091861Y-79758889D01*
X133091864Y-79758901D01*
X133152202Y-79904572D01*
X133152209Y-79904585D01*
X133239810Y-80035688D01*
X133239813Y-80035692D01*
X133351307Y-80147186D01*
X133351311Y-80147189D01*
X133482414Y-80234790D01*
X133482427Y-80234797D01*
X133628098Y-80295135D01*
X133628103Y-80295137D01*
X133782753Y-80325899D01*
X133782756Y-80325900D01*
X133782758Y-80325900D01*
X134640444Y-80325900D01*
X134640445Y-80325899D01*
X134795097Y-80295137D01*
X134940779Y-80234794D01*
X135071889Y-80147189D01*
X135183389Y-80035689D01*
X135270994Y-79904579D01*
X135331337Y-79758897D01*
X135362100Y-79604242D01*
X135362100Y-79446558D01*
X135362100Y-79446555D01*
X135362099Y-79446553D01*
X135357668Y-79424277D01*
X135331337Y-79291903D01*
X135325298Y-79277323D01*
X135270997Y-79146227D01*
X135270990Y-79146214D01*
X135183389Y-79015111D01*
X135183386Y-79015107D01*
X135071892Y-78903613D01*
X135071888Y-78903610D01*
X134940785Y-78816009D01*
X134940772Y-78816002D01*
X134795101Y-78755664D01*
X134795089Y-78755661D01*
X134640445Y-78724900D01*
X134640442Y-78724900D01*
X133782758Y-78724900D01*
X133782755Y-78724900D01*
X133628110Y-78755661D01*
X133628098Y-78755664D01*
X133482427Y-78816002D01*
X133482414Y-78816009D01*
X133351311Y-78903610D01*
X133351307Y-78903613D01*
X133239813Y-79015107D01*
X133239810Y-79015111D01*
X133152209Y-79146214D01*
X133152202Y-79146227D01*
X133091864Y-79291898D01*
X133091861Y-79291910D01*
X133061100Y-79446553D01*
X132377300Y-79446553D01*
X132377300Y-76367300D01*
X132396985Y-76300261D01*
X132449789Y-76254506D01*
X132501300Y-76243300D01*
X174406900Y-76243300D01*
X174473939Y-76262985D01*
G37*
%TD.AperFunction*%
%TA.AperFunction,NonConductor*%
G36*
X156855587Y-85100185D02*
G01*
X156876229Y-85116819D01*
X157076318Y-85316909D01*
X157109803Y-85378232D01*
X157104819Y-85447924D01*
X157084490Y-85483255D01*
X156957581Y-85637893D01*
X156862819Y-85815182D01*
X156804465Y-86007548D01*
X156784762Y-86207600D01*
X156791344Y-86274434D01*
X156778325Y-86343080D01*
X156730259Y-86393790D01*
X156662408Y-86410464D01*
X156596314Y-86387807D01*
X156580260Y-86374268D01*
X156314123Y-86108131D01*
X156280638Y-86046808D01*
X156278401Y-86032600D01*
X156275934Y-86007550D01*
X156275934Y-86007547D01*
X156217581Y-85815182D01*
X156122821Y-85637897D01*
X156097305Y-85606806D01*
X155995294Y-85482505D01*
X155839904Y-85354979D01*
X155839901Y-85354977D01*
X155762971Y-85313858D01*
X155713127Y-85264896D01*
X155697666Y-85196759D01*
X155721497Y-85131079D01*
X155777055Y-85088710D01*
X155821424Y-85080500D01*
X156788548Y-85080500D01*
X156855587Y-85100185D01*
G37*
%TD.AperFunction*%
%TA.AperFunction,NonConductor*%
G36*
X142632001Y-85705915D02*
G01*
X142678691Y-85757893D01*
X142689868Y-85826863D01*
X142661983Y-85890927D01*
X142654516Y-85899092D01*
X142179341Y-86374268D01*
X141726570Y-86827039D01*
X141726567Y-86827042D01*
X141693276Y-86860333D01*
X141639442Y-86914166D01*
X141614901Y-86950895D01*
X141614900Y-86950894D01*
X141570989Y-87016612D01*
X141570985Y-87016619D01*
X141547295Y-87073815D01*
X141547295Y-87073816D01*
X141523838Y-87130445D01*
X141523835Y-87130455D01*
X141499800Y-87251289D01*
X141499800Y-87507336D01*
X141480115Y-87574375D01*
X141446014Y-87606529D01*
X141447216Y-87608114D01*
X141319877Y-87704677D01*
X141309104Y-87718885D01*
X141252911Y-87760409D01*
X141183190Y-87764960D01*
X141122076Y-87731095D01*
X141088972Y-87669565D01*
X141086300Y-87643960D01*
X141086300Y-86164005D01*
X141083538Y-86150123D01*
X141083537Y-86150120D01*
X141083536Y-86150114D01*
X141059380Y-86028672D01*
X141042595Y-85988151D01*
X141035127Y-85918684D01*
X141066402Y-85856205D01*
X141126490Y-85820552D01*
X141157157Y-85816700D01*
X142202471Y-85816700D01*
X142287015Y-85799882D01*
X142328144Y-85791701D01*
X142446527Y-85742665D01*
X142446532Y-85742661D01*
X142446535Y-85742660D01*
X142497943Y-85708310D01*
X142564620Y-85687431D01*
X142632001Y-85705915D01*
G37*
%TD.AperFunction*%
M02*
