%TF.GenerationSoftware,KiCad,Pcbnew,8.0.8*%
%TF.CreationDate,2025-02-14T22:47:41+08:00*%
%TF.ProjectId,5V24VBoostUp(USBC),35563234-5642-46f6-9f73-745570285553,rev?*%
%TF.SameCoordinates,Original*%
%TF.FileFunction,Legend,Bot*%
%TF.FilePolarity,Positive*%
%FSLAX46Y46*%
G04 Gerber Fmt 4.6, Leading zero omitted, Abs format (unit mm)*
G04 Created by KiCad (PCBNEW 8.0.8) date 2025-02-14 22:47:41*
%MOMM*%
%LPD*%
G01*
G04 APERTURE LIST*
%ADD10C,0.100000*%
%ADD11C,0.150000*%
%ADD12C,0.120000*%
%ADD13C,0.000000*%
G04 APERTURE END LIST*
D10*
X172882906Y-89610619D02*
X173454334Y-89610619D01*
X173168620Y-89610619D02*
X173168620Y-88610619D01*
X173168620Y-88610619D02*
X173263858Y-88753476D01*
X173263858Y-88753476D02*
X173359096Y-88848714D01*
X173359096Y-88848714D02*
X173454334Y-88896333D01*
X172501953Y-88705857D02*
X172454334Y-88658238D01*
X172454334Y-88658238D02*
X172359096Y-88610619D01*
X172359096Y-88610619D02*
X172121001Y-88610619D01*
X172121001Y-88610619D02*
X172025763Y-88658238D01*
X172025763Y-88658238D02*
X171978144Y-88705857D01*
X171978144Y-88705857D02*
X171930525Y-88801095D01*
X171930525Y-88801095D02*
X171930525Y-88896333D01*
X171930525Y-88896333D02*
X171978144Y-89039190D01*
X171978144Y-89039190D02*
X172549572Y-89610619D01*
X172549572Y-89610619D02*
X171930525Y-89610619D01*
X170787668Y-88563000D02*
X171644810Y-89848714D01*
X170501953Y-88705857D02*
X170454334Y-88658238D01*
X170454334Y-88658238D02*
X170359096Y-88610619D01*
X170359096Y-88610619D02*
X170121001Y-88610619D01*
X170121001Y-88610619D02*
X170025763Y-88658238D01*
X170025763Y-88658238D02*
X169978144Y-88705857D01*
X169978144Y-88705857D02*
X169930525Y-88801095D01*
X169930525Y-88801095D02*
X169930525Y-88896333D01*
X169930525Y-88896333D02*
X169978144Y-89039190D01*
X169978144Y-89039190D02*
X170549572Y-89610619D01*
X170549572Y-89610619D02*
X169930525Y-89610619D01*
X168787668Y-88563000D02*
X169644810Y-89848714D01*
X168501953Y-88705857D02*
X168454334Y-88658238D01*
X168454334Y-88658238D02*
X168359096Y-88610619D01*
X168359096Y-88610619D02*
X168121001Y-88610619D01*
X168121001Y-88610619D02*
X168025763Y-88658238D01*
X168025763Y-88658238D02*
X167978144Y-88705857D01*
X167978144Y-88705857D02*
X167930525Y-88801095D01*
X167930525Y-88801095D02*
X167930525Y-88896333D01*
X167930525Y-88896333D02*
X167978144Y-89039190D01*
X167978144Y-89039190D02*
X168549572Y-89610619D01*
X168549572Y-89610619D02*
X167930525Y-89610619D01*
X167311477Y-88610619D02*
X167216239Y-88610619D01*
X167216239Y-88610619D02*
X167121001Y-88658238D01*
X167121001Y-88658238D02*
X167073382Y-88705857D01*
X167073382Y-88705857D02*
X167025763Y-88801095D01*
X167025763Y-88801095D02*
X166978144Y-88991571D01*
X166978144Y-88991571D02*
X166978144Y-89229666D01*
X166978144Y-89229666D02*
X167025763Y-89420142D01*
X167025763Y-89420142D02*
X167073382Y-89515380D01*
X167073382Y-89515380D02*
X167121001Y-89563000D01*
X167121001Y-89563000D02*
X167216239Y-89610619D01*
X167216239Y-89610619D02*
X167311477Y-89610619D01*
X167311477Y-89610619D02*
X167406715Y-89563000D01*
X167406715Y-89563000D02*
X167454334Y-89515380D01*
X167454334Y-89515380D02*
X167501953Y-89420142D01*
X167501953Y-89420142D02*
X167549572Y-89229666D01*
X167549572Y-89229666D02*
X167549572Y-88991571D01*
X167549572Y-88991571D02*
X167501953Y-88801095D01*
X167501953Y-88801095D02*
X167454334Y-88705857D01*
X167454334Y-88705857D02*
X167406715Y-88658238D01*
X167406715Y-88658238D02*
X167311477Y-88610619D01*
X166597191Y-88705857D02*
X166549572Y-88658238D01*
X166549572Y-88658238D02*
X166454334Y-88610619D01*
X166454334Y-88610619D02*
X166216239Y-88610619D01*
X166216239Y-88610619D02*
X166121001Y-88658238D01*
X166121001Y-88658238D02*
X166073382Y-88705857D01*
X166073382Y-88705857D02*
X166025763Y-88801095D01*
X166025763Y-88801095D02*
X166025763Y-88896333D01*
X166025763Y-88896333D02*
X166073382Y-89039190D01*
X166073382Y-89039190D02*
X166644810Y-89610619D01*
X166644810Y-89610619D02*
X166025763Y-89610619D01*
X165121001Y-88610619D02*
X165597191Y-88610619D01*
X165597191Y-88610619D02*
X165644810Y-89086809D01*
X165644810Y-89086809D02*
X165597191Y-89039190D01*
X165597191Y-89039190D02*
X165501953Y-88991571D01*
X165501953Y-88991571D02*
X165263858Y-88991571D01*
X165263858Y-88991571D02*
X165168620Y-89039190D01*
X165168620Y-89039190D02*
X165121001Y-89086809D01*
X165121001Y-89086809D02*
X165073382Y-89182047D01*
X165073382Y-89182047D02*
X165073382Y-89420142D01*
X165073382Y-89420142D02*
X165121001Y-89515380D01*
X165121001Y-89515380D02*
X165168620Y-89563000D01*
X165168620Y-89563000D02*
X165263858Y-89610619D01*
X165263858Y-89610619D02*
X165501953Y-89610619D01*
X165501953Y-89610619D02*
X165597191Y-89563000D01*
X165597191Y-89563000D02*
X165644810Y-89515380D01*
X164025762Y-88610619D02*
X163692429Y-89610619D01*
X163692429Y-89610619D02*
X163359096Y-88610619D01*
X162501953Y-89610619D02*
X163073381Y-89610619D01*
X162787667Y-89610619D02*
X162787667Y-88610619D01*
X162787667Y-88610619D02*
X162882905Y-88753476D01*
X162882905Y-88753476D02*
X162978143Y-88848714D01*
X162978143Y-88848714D02*
X163073381Y-88896333D01*
X162073381Y-89515380D02*
X162025762Y-89563000D01*
X162025762Y-89563000D02*
X162073381Y-89610619D01*
X162073381Y-89610619D02*
X162121000Y-89563000D01*
X162121000Y-89563000D02*
X162073381Y-89515380D01*
X162073381Y-89515380D02*
X162073381Y-89610619D01*
X161073382Y-89610619D02*
X161644810Y-89610619D01*
X161359096Y-89610619D02*
X161359096Y-88610619D01*
X161359096Y-88610619D02*
X161454334Y-88753476D01*
X161454334Y-88753476D02*
X161549572Y-88848714D01*
X161549572Y-88848714D02*
X161644810Y-88896333D01*
X159549572Y-89086809D02*
X159406715Y-89134428D01*
X159406715Y-89134428D02*
X159359096Y-89182047D01*
X159359096Y-89182047D02*
X159311477Y-89277285D01*
X159311477Y-89277285D02*
X159311477Y-89420142D01*
X159311477Y-89420142D02*
X159359096Y-89515380D01*
X159359096Y-89515380D02*
X159406715Y-89563000D01*
X159406715Y-89563000D02*
X159501953Y-89610619D01*
X159501953Y-89610619D02*
X159882905Y-89610619D01*
X159882905Y-89610619D02*
X159882905Y-88610619D01*
X159882905Y-88610619D02*
X159549572Y-88610619D01*
X159549572Y-88610619D02*
X159454334Y-88658238D01*
X159454334Y-88658238D02*
X159406715Y-88705857D01*
X159406715Y-88705857D02*
X159359096Y-88801095D01*
X159359096Y-88801095D02*
X159359096Y-88896333D01*
X159359096Y-88896333D02*
X159406715Y-88991571D01*
X159406715Y-88991571D02*
X159454334Y-89039190D01*
X159454334Y-89039190D02*
X159549572Y-89086809D01*
X159549572Y-89086809D02*
X159882905Y-89086809D01*
X158978143Y-88943952D02*
X158740048Y-89610619D01*
X158501953Y-88943952D02*
X158740048Y-89610619D01*
X158740048Y-89610619D02*
X158835286Y-89848714D01*
X158835286Y-89848714D02*
X158882905Y-89896333D01*
X158882905Y-89896333D02*
X158978143Y-89943952D01*
X157025762Y-89086809D02*
X156882905Y-89134428D01*
X156882905Y-89134428D02*
X156835286Y-89182047D01*
X156835286Y-89182047D02*
X156787667Y-89277285D01*
X156787667Y-89277285D02*
X156787667Y-89420142D01*
X156787667Y-89420142D02*
X156835286Y-89515380D01*
X156835286Y-89515380D02*
X156882905Y-89563000D01*
X156882905Y-89563000D02*
X156978143Y-89610619D01*
X156978143Y-89610619D02*
X157359095Y-89610619D01*
X157359095Y-89610619D02*
X157359095Y-88610619D01*
X157359095Y-88610619D02*
X157025762Y-88610619D01*
X157025762Y-88610619D02*
X156930524Y-88658238D01*
X156930524Y-88658238D02*
X156882905Y-88705857D01*
X156882905Y-88705857D02*
X156835286Y-88801095D01*
X156835286Y-88801095D02*
X156835286Y-88896333D01*
X156835286Y-88896333D02*
X156882905Y-88991571D01*
X156882905Y-88991571D02*
X156930524Y-89039190D01*
X156930524Y-89039190D02*
X157025762Y-89086809D01*
X157025762Y-89086809D02*
X157359095Y-89086809D01*
X173108325Y-77942619D02*
X173584515Y-77942619D01*
X173584515Y-77942619D02*
X173632134Y-78418809D01*
X173632134Y-78418809D02*
X173584515Y-78371190D01*
X173584515Y-78371190D02*
X173489277Y-78323571D01*
X173489277Y-78323571D02*
X173251182Y-78323571D01*
X173251182Y-78323571D02*
X173155944Y-78371190D01*
X173155944Y-78371190D02*
X173108325Y-78418809D01*
X173108325Y-78418809D02*
X173060706Y-78514047D01*
X173060706Y-78514047D02*
X173060706Y-78752142D01*
X173060706Y-78752142D02*
X173108325Y-78847380D01*
X173108325Y-78847380D02*
X173155944Y-78895000D01*
X173155944Y-78895000D02*
X173251182Y-78942619D01*
X173251182Y-78942619D02*
X173489277Y-78942619D01*
X173489277Y-78942619D02*
X173584515Y-78895000D01*
X173584515Y-78895000D02*
X173632134Y-78847380D01*
X172774991Y-77942619D02*
X172441658Y-78942619D01*
X172441658Y-78942619D02*
X172108325Y-77942619D01*
X171155944Y-78466428D02*
X171203563Y-78418809D01*
X171203563Y-78418809D02*
X171298801Y-78371190D01*
X171298801Y-78371190D02*
X171394039Y-78371190D01*
X171394039Y-78371190D02*
X171489277Y-78418809D01*
X171489277Y-78418809D02*
X171536896Y-78466428D01*
X171536896Y-78466428D02*
X171584515Y-78561666D01*
X171584515Y-78561666D02*
X171584515Y-78656904D01*
X171584515Y-78656904D02*
X171536896Y-78752142D01*
X171536896Y-78752142D02*
X171489277Y-78799761D01*
X171489277Y-78799761D02*
X171394039Y-78847380D01*
X171394039Y-78847380D02*
X171298801Y-78847380D01*
X171298801Y-78847380D02*
X171203563Y-78799761D01*
X171203563Y-78799761D02*
X171155944Y-78752142D01*
X171155944Y-78371190D02*
X171155944Y-78752142D01*
X171155944Y-78752142D02*
X171108325Y-78799761D01*
X171108325Y-78799761D02*
X171060706Y-78799761D01*
X171060706Y-78799761D02*
X170965467Y-78752142D01*
X170965467Y-78752142D02*
X170917848Y-78656904D01*
X170917848Y-78656904D02*
X170917848Y-78418809D01*
X170917848Y-78418809D02*
X171013087Y-78275952D01*
X171013087Y-78275952D02*
X171155944Y-78180714D01*
X171155944Y-78180714D02*
X171346420Y-78133095D01*
X171346420Y-78133095D02*
X171536896Y-78180714D01*
X171536896Y-78180714D02*
X171679753Y-78275952D01*
X171679753Y-78275952D02*
X171774991Y-78418809D01*
X171774991Y-78418809D02*
X171822610Y-78609285D01*
X171822610Y-78609285D02*
X171774991Y-78799761D01*
X171774991Y-78799761D02*
X171679753Y-78942619D01*
X171679753Y-78942619D02*
X171536896Y-79037857D01*
X171536896Y-79037857D02*
X171346420Y-79085476D01*
X171346420Y-79085476D02*
X171155944Y-79037857D01*
X171155944Y-79037857D02*
X171013087Y-78942619D01*
X169965468Y-78942619D02*
X170536896Y-78942619D01*
X170251182Y-78942619D02*
X170251182Y-77942619D01*
X170251182Y-77942619D02*
X170346420Y-78085476D01*
X170346420Y-78085476D02*
X170441658Y-78180714D01*
X170441658Y-78180714D02*
X170536896Y-78228333D01*
X169536896Y-78847380D02*
X169489277Y-78895000D01*
X169489277Y-78895000D02*
X169536896Y-78942619D01*
X169536896Y-78942619D02*
X169584515Y-78895000D01*
X169584515Y-78895000D02*
X169536896Y-78847380D01*
X169536896Y-78847380D02*
X169536896Y-78942619D01*
X168584516Y-77942619D02*
X169060706Y-77942619D01*
X169060706Y-77942619D02*
X169108325Y-78418809D01*
X169108325Y-78418809D02*
X169060706Y-78371190D01*
X169060706Y-78371190D02*
X168965468Y-78323571D01*
X168965468Y-78323571D02*
X168727373Y-78323571D01*
X168727373Y-78323571D02*
X168632135Y-78371190D01*
X168632135Y-78371190D02*
X168584516Y-78418809D01*
X168584516Y-78418809D02*
X168536897Y-78514047D01*
X168536897Y-78514047D02*
X168536897Y-78752142D01*
X168536897Y-78752142D02*
X168584516Y-78847380D01*
X168584516Y-78847380D02*
X168632135Y-78895000D01*
X168632135Y-78895000D02*
X168727373Y-78942619D01*
X168727373Y-78942619D02*
X168965468Y-78942619D01*
X168965468Y-78942619D02*
X169060706Y-78895000D01*
X169060706Y-78895000D02*
X169108325Y-78847380D01*
X168155944Y-78656904D02*
X167679754Y-78656904D01*
X168251182Y-78942619D02*
X167917849Y-77942619D01*
X167917849Y-77942619D02*
X167584516Y-78942619D01*
X166489277Y-78561666D02*
X165727373Y-78561666D01*
X165251182Y-78275952D02*
X164489278Y-78561666D01*
X164489278Y-78561666D02*
X165251182Y-78847380D01*
X162774992Y-77942619D02*
X163251182Y-77942619D01*
X163251182Y-77942619D02*
X163298801Y-78418809D01*
X163298801Y-78418809D02*
X163251182Y-78371190D01*
X163251182Y-78371190D02*
X163155944Y-78323571D01*
X163155944Y-78323571D02*
X162917849Y-78323571D01*
X162917849Y-78323571D02*
X162822611Y-78371190D01*
X162822611Y-78371190D02*
X162774992Y-78418809D01*
X162774992Y-78418809D02*
X162727373Y-78514047D01*
X162727373Y-78514047D02*
X162727373Y-78752142D01*
X162727373Y-78752142D02*
X162774992Y-78847380D01*
X162774992Y-78847380D02*
X162822611Y-78895000D01*
X162822611Y-78895000D02*
X162917849Y-78942619D01*
X162917849Y-78942619D02*
X163155944Y-78942619D01*
X163155944Y-78942619D02*
X163251182Y-78895000D01*
X163251182Y-78895000D02*
X163298801Y-78847380D01*
X162441658Y-77942619D02*
X162108325Y-78942619D01*
X162108325Y-78942619D02*
X161774992Y-77942619D01*
X161441658Y-78561666D02*
X160679754Y-78561666D01*
X160251182Y-78037857D02*
X160203563Y-77990238D01*
X160203563Y-77990238D02*
X160108325Y-77942619D01*
X160108325Y-77942619D02*
X159870230Y-77942619D01*
X159870230Y-77942619D02*
X159774992Y-77990238D01*
X159774992Y-77990238D02*
X159727373Y-78037857D01*
X159727373Y-78037857D02*
X159679754Y-78133095D01*
X159679754Y-78133095D02*
X159679754Y-78228333D01*
X159679754Y-78228333D02*
X159727373Y-78371190D01*
X159727373Y-78371190D02*
X160298801Y-78942619D01*
X160298801Y-78942619D02*
X159679754Y-78942619D01*
X159108325Y-78371190D02*
X159203563Y-78323571D01*
X159203563Y-78323571D02*
X159251182Y-78275952D01*
X159251182Y-78275952D02*
X159298801Y-78180714D01*
X159298801Y-78180714D02*
X159298801Y-78133095D01*
X159298801Y-78133095D02*
X159251182Y-78037857D01*
X159251182Y-78037857D02*
X159203563Y-77990238D01*
X159203563Y-77990238D02*
X159108325Y-77942619D01*
X159108325Y-77942619D02*
X158917849Y-77942619D01*
X158917849Y-77942619D02*
X158822611Y-77990238D01*
X158822611Y-77990238D02*
X158774992Y-78037857D01*
X158774992Y-78037857D02*
X158727373Y-78133095D01*
X158727373Y-78133095D02*
X158727373Y-78180714D01*
X158727373Y-78180714D02*
X158774992Y-78275952D01*
X158774992Y-78275952D02*
X158822611Y-78323571D01*
X158822611Y-78323571D02*
X158917849Y-78371190D01*
X158917849Y-78371190D02*
X159108325Y-78371190D01*
X159108325Y-78371190D02*
X159203563Y-78418809D01*
X159203563Y-78418809D02*
X159251182Y-78466428D01*
X159251182Y-78466428D02*
X159298801Y-78561666D01*
X159298801Y-78561666D02*
X159298801Y-78752142D01*
X159298801Y-78752142D02*
X159251182Y-78847380D01*
X159251182Y-78847380D02*
X159203563Y-78895000D01*
X159203563Y-78895000D02*
X159108325Y-78942619D01*
X159108325Y-78942619D02*
X158917849Y-78942619D01*
X158917849Y-78942619D02*
X158822611Y-78895000D01*
X158822611Y-78895000D02*
X158774992Y-78847380D01*
X158774992Y-78847380D02*
X158727373Y-78752142D01*
X158727373Y-78752142D02*
X158727373Y-78561666D01*
X158727373Y-78561666D02*
X158774992Y-78466428D01*
X158774992Y-78466428D02*
X158822611Y-78418809D01*
X158822611Y-78418809D02*
X158917849Y-78371190D01*
X158441658Y-77942619D02*
X158108325Y-78942619D01*
X158108325Y-78942619D02*
X157774992Y-77942619D01*
X156346420Y-78418809D02*
X156203563Y-78466428D01*
X156203563Y-78466428D02*
X156155944Y-78514047D01*
X156155944Y-78514047D02*
X156108325Y-78609285D01*
X156108325Y-78609285D02*
X156108325Y-78752142D01*
X156108325Y-78752142D02*
X156155944Y-78847380D01*
X156155944Y-78847380D02*
X156203563Y-78895000D01*
X156203563Y-78895000D02*
X156298801Y-78942619D01*
X156298801Y-78942619D02*
X156679753Y-78942619D01*
X156679753Y-78942619D02*
X156679753Y-77942619D01*
X156679753Y-77942619D02*
X156346420Y-77942619D01*
X156346420Y-77942619D02*
X156251182Y-77990238D01*
X156251182Y-77990238D02*
X156203563Y-78037857D01*
X156203563Y-78037857D02*
X156155944Y-78133095D01*
X156155944Y-78133095D02*
X156155944Y-78228333D01*
X156155944Y-78228333D02*
X156203563Y-78323571D01*
X156203563Y-78323571D02*
X156251182Y-78371190D01*
X156251182Y-78371190D02*
X156346420Y-78418809D01*
X156346420Y-78418809D02*
X156679753Y-78418809D01*
X155536896Y-78942619D02*
X155632134Y-78895000D01*
X155632134Y-78895000D02*
X155679753Y-78847380D01*
X155679753Y-78847380D02*
X155727372Y-78752142D01*
X155727372Y-78752142D02*
X155727372Y-78466428D01*
X155727372Y-78466428D02*
X155679753Y-78371190D01*
X155679753Y-78371190D02*
X155632134Y-78323571D01*
X155632134Y-78323571D02*
X155536896Y-78275952D01*
X155536896Y-78275952D02*
X155394039Y-78275952D01*
X155394039Y-78275952D02*
X155298801Y-78323571D01*
X155298801Y-78323571D02*
X155251182Y-78371190D01*
X155251182Y-78371190D02*
X155203563Y-78466428D01*
X155203563Y-78466428D02*
X155203563Y-78752142D01*
X155203563Y-78752142D02*
X155251182Y-78847380D01*
X155251182Y-78847380D02*
X155298801Y-78895000D01*
X155298801Y-78895000D02*
X155394039Y-78942619D01*
X155394039Y-78942619D02*
X155536896Y-78942619D01*
X154632134Y-78942619D02*
X154727372Y-78895000D01*
X154727372Y-78895000D02*
X154774991Y-78847380D01*
X154774991Y-78847380D02*
X154822610Y-78752142D01*
X154822610Y-78752142D02*
X154822610Y-78466428D01*
X154822610Y-78466428D02*
X154774991Y-78371190D01*
X154774991Y-78371190D02*
X154727372Y-78323571D01*
X154727372Y-78323571D02*
X154632134Y-78275952D01*
X154632134Y-78275952D02*
X154489277Y-78275952D01*
X154489277Y-78275952D02*
X154394039Y-78323571D01*
X154394039Y-78323571D02*
X154346420Y-78371190D01*
X154346420Y-78371190D02*
X154298801Y-78466428D01*
X154298801Y-78466428D02*
X154298801Y-78752142D01*
X154298801Y-78752142D02*
X154346420Y-78847380D01*
X154346420Y-78847380D02*
X154394039Y-78895000D01*
X154394039Y-78895000D02*
X154489277Y-78942619D01*
X154489277Y-78942619D02*
X154632134Y-78942619D01*
X153917848Y-78895000D02*
X153822610Y-78942619D01*
X153822610Y-78942619D02*
X153632134Y-78942619D01*
X153632134Y-78942619D02*
X153536896Y-78895000D01*
X153536896Y-78895000D02*
X153489277Y-78799761D01*
X153489277Y-78799761D02*
X153489277Y-78752142D01*
X153489277Y-78752142D02*
X153536896Y-78656904D01*
X153536896Y-78656904D02*
X153632134Y-78609285D01*
X153632134Y-78609285D02*
X153774991Y-78609285D01*
X153774991Y-78609285D02*
X153870229Y-78561666D01*
X153870229Y-78561666D02*
X153917848Y-78466428D01*
X153917848Y-78466428D02*
X153917848Y-78418809D01*
X153917848Y-78418809D02*
X153870229Y-78323571D01*
X153870229Y-78323571D02*
X153774991Y-78275952D01*
X153774991Y-78275952D02*
X153632134Y-78275952D01*
X153632134Y-78275952D02*
X153536896Y-78323571D01*
X153203562Y-78275952D02*
X152822610Y-78275952D01*
X153060705Y-77942619D02*
X153060705Y-78799761D01*
X153060705Y-78799761D02*
X153013086Y-78895000D01*
X153013086Y-78895000D02*
X152917848Y-78942619D01*
X152917848Y-78942619D02*
X152822610Y-78942619D01*
D11*
X143854466Y-87475219D02*
X144187799Y-86999028D01*
X144425894Y-87475219D02*
X144425894Y-86475219D01*
X144425894Y-86475219D02*
X144044942Y-86475219D01*
X144044942Y-86475219D02*
X143949704Y-86522838D01*
X143949704Y-86522838D02*
X143902085Y-86570457D01*
X143902085Y-86570457D02*
X143854466Y-86665695D01*
X143854466Y-86665695D02*
X143854466Y-86808552D01*
X143854466Y-86808552D02*
X143902085Y-86903790D01*
X143902085Y-86903790D02*
X143949704Y-86951409D01*
X143949704Y-86951409D02*
X144044942Y-86999028D01*
X144044942Y-86999028D02*
X144425894Y-86999028D01*
X142997323Y-86808552D02*
X142997323Y-87475219D01*
X143235418Y-86427600D02*
X143473513Y-87141885D01*
X143473513Y-87141885D02*
X142854466Y-87141885D01*
X143855066Y-81455419D02*
X144188399Y-80979228D01*
X144426494Y-81455419D02*
X144426494Y-80455419D01*
X144426494Y-80455419D02*
X144045542Y-80455419D01*
X144045542Y-80455419D02*
X143950304Y-80503038D01*
X143950304Y-80503038D02*
X143902685Y-80550657D01*
X143902685Y-80550657D02*
X143855066Y-80645895D01*
X143855066Y-80645895D02*
X143855066Y-80788752D01*
X143855066Y-80788752D02*
X143902685Y-80883990D01*
X143902685Y-80883990D02*
X143950304Y-80931609D01*
X143950304Y-80931609D02*
X144045542Y-80979228D01*
X144045542Y-80979228D02*
X144426494Y-80979228D01*
X143521732Y-80455419D02*
X142902685Y-80455419D01*
X142902685Y-80455419D02*
X143236018Y-80836371D01*
X143236018Y-80836371D02*
X143093161Y-80836371D01*
X143093161Y-80836371D02*
X142997923Y-80883990D01*
X142997923Y-80883990D02*
X142950304Y-80931609D01*
X142950304Y-80931609D02*
X142902685Y-81026847D01*
X142902685Y-81026847D02*
X142902685Y-81264942D01*
X142902685Y-81264942D02*
X142950304Y-81360180D01*
X142950304Y-81360180D02*
X142997923Y-81407800D01*
X142997923Y-81407800D02*
X143093161Y-81455419D01*
X143093161Y-81455419D02*
X143378875Y-81455419D01*
X143378875Y-81455419D02*
X143474113Y-81407800D01*
X143474113Y-81407800D02*
X143521732Y-81360180D01*
D12*
%TO.C,R4*%
X144415464Y-84256200D02*
X142961336Y-84256200D01*
X144415464Y-86076200D02*
X142961336Y-86076200D01*
%TO.C,R3*%
X144415464Y-81843200D02*
X142961336Y-81843200D01*
X144415464Y-83663200D02*
X142961336Y-83663200D01*
D13*
%TO.C,G\u002A\u002A\u002A*%
G36*
X152418616Y-76988819D02*
G01*
X152418616Y-77178136D01*
X152276628Y-77178136D01*
X152134641Y-77178136D01*
X152134641Y-77351677D01*
X152134641Y-77525217D01*
X151945324Y-77525217D01*
X151756007Y-77525217D01*
X151756007Y-77698757D01*
X151756007Y-77872298D01*
X151598243Y-77872298D01*
X151440479Y-77872298D01*
X151440479Y-78030062D01*
X151440479Y-78187826D01*
X151251162Y-78187826D01*
X151061846Y-78187826D01*
X151061846Y-78724223D01*
X151061846Y-79260621D01*
X150714765Y-79260621D01*
X150602800Y-79260048D01*
X150502350Y-79258116D01*
X150428608Y-79254889D01*
X150383183Y-79250441D01*
X150367684Y-79244844D01*
X150362016Y-79240311D01*
X150329748Y-79234309D01*
X150272446Y-79230439D01*
X150194144Y-79229068D01*
X150020603Y-79229068D01*
X150020603Y-79418385D01*
X150020603Y-79607701D01*
X149831287Y-79607701D01*
X149767561Y-79606996D01*
X149700193Y-79603974D01*
X149657127Y-79598850D01*
X149641970Y-79591925D01*
X149638621Y-79588284D01*
X149610482Y-79581845D01*
X149557495Y-79577648D01*
X149484206Y-79576149D01*
X149326442Y-79576149D01*
X149326442Y-79765465D01*
X149326442Y-79954782D01*
X149137125Y-79954782D01*
X149073400Y-79954076D01*
X149006032Y-79951055D01*
X148962966Y-79945931D01*
X148947808Y-79939006D01*
X148944460Y-79935365D01*
X148916321Y-79928926D01*
X148863334Y-79924729D01*
X148790044Y-79923229D01*
X148632280Y-79923229D01*
X148632280Y-80096770D01*
X148632280Y-80270310D01*
X148458740Y-80270310D01*
X148285200Y-80270310D01*
X148285200Y-80459627D01*
X148285200Y-80648944D01*
X148095883Y-80648944D01*
X147906566Y-80648944D01*
X147906566Y-80475403D01*
X147906566Y-80301863D01*
X147764579Y-80301863D01*
X147622591Y-80301863D01*
X147622591Y-80065217D01*
X147622591Y-79828571D01*
X147464827Y-79828571D01*
X147307063Y-79828571D01*
X147307063Y-79907453D01*
X147307063Y-79986335D01*
X147117746Y-79986335D01*
X146928430Y-79986335D01*
X146928430Y-79812795D01*
X146928430Y-79639254D01*
X146581349Y-79639254D01*
X146234268Y-79639254D01*
X146234268Y-79434161D01*
X146234268Y-79229068D01*
X146139610Y-79229068D01*
X146044951Y-79229068D01*
X146044951Y-79165962D01*
X146044951Y-79102857D01*
X145981846Y-79102857D01*
X145918740Y-79102857D01*
X145918740Y-79165962D01*
X145918740Y-79229068D01*
X145555883Y-79229068D01*
X145193026Y-79229068D01*
X145193026Y-78724223D01*
X145193026Y-78219378D01*
X145003709Y-78219378D01*
X144814392Y-78219378D01*
X144814392Y-78045838D01*
X144814392Y-77872298D01*
X144672405Y-77872298D01*
X144530417Y-77872298D01*
X144530417Y-77698757D01*
X144530417Y-77525217D01*
X144325324Y-77525217D01*
X144120231Y-77525217D01*
X144120231Y-77367453D01*
X144120231Y-77209689D01*
X143946690Y-77209689D01*
X143773150Y-77209689D01*
X143773150Y-77020372D01*
X143773150Y-76831055D01*
X145366566Y-76831055D01*
X146959982Y-76831055D01*
X146959982Y-77209689D01*
X146959982Y-77588322D01*
X147101970Y-77588322D01*
X147243957Y-77588322D01*
X147243957Y-77840745D01*
X147244016Y-77867372D01*
X147245434Y-77962444D01*
X147248629Y-78033417D01*
X147253447Y-78077817D01*
X147259734Y-78093167D01*
X147259749Y-78093167D01*
X147267839Y-78078528D01*
X147273426Y-78039383D01*
X147275510Y-77982732D01*
X147275510Y-77872298D01*
X147433274Y-77872298D01*
X147591038Y-77872298D01*
X147591038Y-77714534D01*
X147590703Y-77678124D01*
X147587889Y-77613736D01*
X147582591Y-77571769D01*
X147575262Y-77556770D01*
X147569951Y-77548299D01*
X147564337Y-77512040D01*
X147560749Y-77450555D01*
X147559485Y-77367453D01*
X147559485Y-77178136D01*
X147748802Y-77178136D01*
X147938119Y-77178136D01*
X147938119Y-77344915D01*
X147938888Y-77411448D01*
X147942494Y-77473940D01*
X147949563Y-77513298D01*
X147960657Y-77534232D01*
X147968839Y-77540198D01*
X148000210Y-77549802D01*
X148053799Y-77555127D01*
X148134197Y-77556770D01*
X148285200Y-77556770D01*
X148285200Y-77367453D01*
X148285200Y-77178136D01*
X148490293Y-77178136D01*
X148695386Y-77178136D01*
X148695386Y-77525217D01*
X148695311Y-77625673D01*
X148694837Y-77714372D01*
X148693609Y-77778785D01*
X148691275Y-77822791D01*
X148687484Y-77850267D01*
X148681881Y-77865091D01*
X148674115Y-77871142D01*
X148663833Y-77872298D01*
X148645621Y-77875870D01*
X148634926Y-77894117D01*
X148632280Y-77935403D01*
X148632280Y-77998509D01*
X148774268Y-77998509D01*
X148916256Y-77998509D01*
X148916256Y-77777639D01*
X148916256Y-77556770D01*
X149010914Y-77556770D01*
X149053663Y-77555094D01*
X149091202Y-77549397D01*
X149105572Y-77540993D01*
X149105572Y-77540978D01*
X149120212Y-77532888D01*
X149159357Y-77527301D01*
X149216007Y-77525217D01*
X149326442Y-77525217D01*
X149326442Y-77162360D01*
X149326442Y-76799503D01*
X150872529Y-76799503D01*
X152418616Y-76799503D01*
X152418616Y-76988819D01*
G37*
%TD*%
M02*
