%TF.GenerationSoftware,KiCad,Pcbnew,8.0.8*%
%TF.CreationDate,2025-02-14T22:47:40+08:00*%
%TF.ProjectId,5V24VBoostUp(USBC),35563234-5642-46f6-9f73-745570285553,rev?*%
%TF.SameCoordinates,Original*%
%TF.FileFunction,Drillmap*%
%TF.FilePolarity,Positive*%
%FSLAX45Y45*%
G04 Gerber Fmt 4.5, Leading zero omitted, Abs format (unit mm)*
G04 Created by KiCad (PCBNEW 8.0.8) date 2025-02-14 22:47:40*
%MOMM*%
%LPD*%
G01*
G04 APERTURE LIST*
%ADD10C,0.050000*%
%ADD11C,0.200000*%
G04 APERTURE END LIST*
D10*
X13187680Y-7574280D02*
X17503140Y-7574280D01*
X17503140Y-9121140D01*
X13187680Y-9121140D01*
X13187680Y-7574280D01*
D11*
X13445957Y-9435124D02*
X13445957Y-9235124D01*
X13445957Y-9235124D02*
X13493576Y-9235124D01*
X13493576Y-9235124D02*
X13522147Y-9244648D01*
X13522147Y-9244648D02*
X13541195Y-9263695D01*
X13541195Y-9263695D02*
X13550719Y-9282743D01*
X13550719Y-9282743D02*
X13560242Y-9320838D01*
X13560242Y-9320838D02*
X13560242Y-9349410D01*
X13560242Y-9349410D02*
X13550719Y-9387505D01*
X13550719Y-9387505D02*
X13541195Y-9406552D01*
X13541195Y-9406552D02*
X13522147Y-9425600D01*
X13522147Y-9425600D02*
X13493576Y-9435124D01*
X13493576Y-9435124D02*
X13445957Y-9435124D01*
X13645957Y-9435124D02*
X13645957Y-9301790D01*
X13645957Y-9339886D02*
X13655481Y-9320838D01*
X13655481Y-9320838D02*
X13665004Y-9311314D01*
X13665004Y-9311314D02*
X13684052Y-9301790D01*
X13684052Y-9301790D02*
X13703100Y-9301790D01*
X13769766Y-9435124D02*
X13769766Y-9301790D01*
X13769766Y-9235124D02*
X13760242Y-9244648D01*
X13760242Y-9244648D02*
X13769766Y-9254171D01*
X13769766Y-9254171D02*
X13779290Y-9244648D01*
X13779290Y-9244648D02*
X13769766Y-9235124D01*
X13769766Y-9235124D02*
X13769766Y-9254171D01*
X13893576Y-9435124D02*
X13874528Y-9425600D01*
X13874528Y-9425600D02*
X13865004Y-9406552D01*
X13865004Y-9406552D02*
X13865004Y-9235124D01*
X13998338Y-9435124D02*
X13979290Y-9425600D01*
X13979290Y-9425600D02*
X13969766Y-9406552D01*
X13969766Y-9406552D02*
X13969766Y-9235124D01*
X14226909Y-9435124D02*
X14226909Y-9235124D01*
X14226909Y-9235124D02*
X14293576Y-9377981D01*
X14293576Y-9377981D02*
X14360242Y-9235124D01*
X14360242Y-9235124D02*
X14360242Y-9435124D01*
X14541195Y-9435124D02*
X14541195Y-9330362D01*
X14541195Y-9330362D02*
X14531671Y-9311314D01*
X14531671Y-9311314D02*
X14512623Y-9301790D01*
X14512623Y-9301790D02*
X14474528Y-9301790D01*
X14474528Y-9301790D02*
X14455481Y-9311314D01*
X14541195Y-9425600D02*
X14522147Y-9435124D01*
X14522147Y-9435124D02*
X14474528Y-9435124D01*
X14474528Y-9435124D02*
X14455481Y-9425600D01*
X14455481Y-9425600D02*
X14445957Y-9406552D01*
X14445957Y-9406552D02*
X14445957Y-9387505D01*
X14445957Y-9387505D02*
X14455481Y-9368457D01*
X14455481Y-9368457D02*
X14474528Y-9358933D01*
X14474528Y-9358933D02*
X14522147Y-9358933D01*
X14522147Y-9358933D02*
X14541195Y-9349410D01*
X14636433Y-9301790D02*
X14636433Y-9501790D01*
X14636433Y-9311314D02*
X14655481Y-9301790D01*
X14655481Y-9301790D02*
X14693576Y-9301790D01*
X14693576Y-9301790D02*
X14712623Y-9311314D01*
X14712623Y-9311314D02*
X14722147Y-9320838D01*
X14722147Y-9320838D02*
X14731671Y-9339886D01*
X14731671Y-9339886D02*
X14731671Y-9397029D01*
X14731671Y-9397029D02*
X14722147Y-9416076D01*
X14722147Y-9416076D02*
X14712623Y-9425600D01*
X14712623Y-9425600D02*
X14693576Y-9435124D01*
X14693576Y-9435124D02*
X14655481Y-9435124D01*
X14655481Y-9435124D02*
X14636433Y-9425600D01*
X14817385Y-9416076D02*
X14826909Y-9425600D01*
X14826909Y-9425600D02*
X14817385Y-9435124D01*
X14817385Y-9435124D02*
X14807862Y-9425600D01*
X14807862Y-9425600D02*
X14817385Y-9416076D01*
X14817385Y-9416076D02*
X14817385Y-9435124D01*
X14817385Y-9311314D02*
X14826909Y-9320838D01*
X14826909Y-9320838D02*
X14817385Y-9330362D01*
X14817385Y-9330362D02*
X14807862Y-9320838D01*
X14807862Y-9320838D02*
X14817385Y-9311314D01*
X14817385Y-9311314D02*
X14817385Y-9330362D01*
M02*
