%TF.GenerationSoftware,KiCad,Pcbnew,8.0.8*%
%TF.CreationDate,2025-02-05T16:41:29+08:00*%
%TF.ProjectId,5V24VBoostUp(USBC),35563234-5642-46f6-9f73-745570285553,rev?*%
%TF.SameCoordinates,Original*%
%TF.FileFunction,Legend,Bot*%
%TF.FilePolarity,Positive*%
%FSLAX46Y46*%
G04 Gerber Fmt 4.6, Leading zero omitted, Abs format (unit mm)*
G04 Created by KiCad (PCBNEW 8.0.8) date 2025-02-05 16:41:29*
%MOMM*%
%LPD*%
G01*
G04 APERTURE LIST*
%ADD10C,0.150000*%
%ADD11C,0.120000*%
G04 APERTURE END LIST*
D10*
X122772466Y-94460219D02*
X123105799Y-93984028D01*
X123343894Y-94460219D02*
X123343894Y-93460219D01*
X123343894Y-93460219D02*
X122962942Y-93460219D01*
X122962942Y-93460219D02*
X122867704Y-93507838D01*
X122867704Y-93507838D02*
X122820085Y-93555457D01*
X122820085Y-93555457D02*
X122772466Y-93650695D01*
X122772466Y-93650695D02*
X122772466Y-93793552D01*
X122772466Y-93793552D02*
X122820085Y-93888790D01*
X122820085Y-93888790D02*
X122867704Y-93936409D01*
X122867704Y-93936409D02*
X122962942Y-93984028D01*
X122962942Y-93984028D02*
X123343894Y-93984028D01*
X121915323Y-93793552D02*
X121915323Y-94460219D01*
X122153418Y-93412600D02*
X122391513Y-94126885D01*
X122391513Y-94126885D02*
X121772466Y-94126885D01*
X122797866Y-92961619D02*
X123131199Y-92485428D01*
X123369294Y-92961619D02*
X123369294Y-91961619D01*
X123369294Y-91961619D02*
X122988342Y-91961619D01*
X122988342Y-91961619D02*
X122893104Y-92009238D01*
X122893104Y-92009238D02*
X122845485Y-92056857D01*
X122845485Y-92056857D02*
X122797866Y-92152095D01*
X122797866Y-92152095D02*
X122797866Y-92294952D01*
X122797866Y-92294952D02*
X122845485Y-92390190D01*
X122845485Y-92390190D02*
X122893104Y-92437809D01*
X122893104Y-92437809D02*
X122988342Y-92485428D01*
X122988342Y-92485428D02*
X123369294Y-92485428D01*
X122464532Y-91961619D02*
X121845485Y-91961619D01*
X121845485Y-91961619D02*
X122178818Y-92342571D01*
X122178818Y-92342571D02*
X122035961Y-92342571D01*
X122035961Y-92342571D02*
X121940723Y-92390190D01*
X121940723Y-92390190D02*
X121893104Y-92437809D01*
X121893104Y-92437809D02*
X121845485Y-92533047D01*
X121845485Y-92533047D02*
X121845485Y-92771142D01*
X121845485Y-92771142D02*
X121893104Y-92866380D01*
X121893104Y-92866380D02*
X121940723Y-92914000D01*
X121940723Y-92914000D02*
X122035961Y-92961619D01*
X122035961Y-92961619D02*
X122321675Y-92961619D01*
X122321675Y-92961619D02*
X122416913Y-92914000D01*
X122416913Y-92914000D02*
X122464532Y-92866380D01*
D11*
%TO.C,R4*%
X120189724Y-93482900D02*
X119680276Y-93482900D01*
X120189724Y-94527900D02*
X119680276Y-94527900D01*
%TO.C,R3*%
X120191624Y-91984300D02*
X119682176Y-91984300D01*
X120191624Y-93029300D02*
X119682176Y-93029300D01*
%TD*%
M02*
