%TF.GenerationSoftware,KiCad,Pcbnew,8.0.8*%
%TF.CreationDate,2025-02-05T16:41:27+08:00*%
%TF.ProjectId,5V24VBoostUp(USBC),35563234-5642-46f6-9f73-745570285553,rev?*%
%TF.SameCoordinates,Original*%
%TF.FileFunction,Drillmap*%
%TF.FilePolarity,Positive*%
%FSLAX45Y45*%
G04 Gerber Fmt 4.5, Leading zero omitted, Abs format (unit mm)*
G04 Created by KiCad (PCBNEW 8.0.8) date 2025-02-05 16:41:27*
%MOMM*%
%LPD*%
G01*
G04 APERTURE LIST*
%ADD10C,0.050000*%
%ADD11C,0.200000*%
G04 APERTURE END LIST*
D10*
X11064240Y-8666480D02*
X13827760Y-8666480D01*
X13827760Y-9951720D01*
X11064240Y-9951720D01*
X11064240Y-8666480D01*
D11*
X11322517Y-10265704D02*
X11322517Y-10065704D01*
X11322517Y-10065704D02*
X11370136Y-10065704D01*
X11370136Y-10065704D02*
X11398707Y-10075228D01*
X11398707Y-10075228D02*
X11417755Y-10094275D01*
X11417755Y-10094275D02*
X11427279Y-10113323D01*
X11427279Y-10113323D02*
X11436802Y-10151418D01*
X11436802Y-10151418D02*
X11436802Y-10179990D01*
X11436802Y-10179990D02*
X11427279Y-10218085D01*
X11427279Y-10218085D02*
X11417755Y-10237132D01*
X11417755Y-10237132D02*
X11398707Y-10256180D01*
X11398707Y-10256180D02*
X11370136Y-10265704D01*
X11370136Y-10265704D02*
X11322517Y-10265704D01*
X11522517Y-10265704D02*
X11522517Y-10132370D01*
X11522517Y-10170466D02*
X11532041Y-10151418D01*
X11532041Y-10151418D02*
X11541564Y-10141894D01*
X11541564Y-10141894D02*
X11560612Y-10132370D01*
X11560612Y-10132370D02*
X11579660Y-10132370D01*
X11646326Y-10265704D02*
X11646326Y-10132370D01*
X11646326Y-10065704D02*
X11636802Y-10075228D01*
X11636802Y-10075228D02*
X11646326Y-10084751D01*
X11646326Y-10084751D02*
X11655850Y-10075228D01*
X11655850Y-10075228D02*
X11646326Y-10065704D01*
X11646326Y-10065704D02*
X11646326Y-10084751D01*
X11770136Y-10265704D02*
X11751088Y-10256180D01*
X11751088Y-10256180D02*
X11741564Y-10237132D01*
X11741564Y-10237132D02*
X11741564Y-10065704D01*
X11874898Y-10265704D02*
X11855850Y-10256180D01*
X11855850Y-10256180D02*
X11846326Y-10237132D01*
X11846326Y-10237132D02*
X11846326Y-10065704D01*
X12103469Y-10265704D02*
X12103469Y-10065704D01*
X12103469Y-10065704D02*
X12170136Y-10208561D01*
X12170136Y-10208561D02*
X12236802Y-10065704D01*
X12236802Y-10065704D02*
X12236802Y-10265704D01*
X12417755Y-10265704D02*
X12417755Y-10160942D01*
X12417755Y-10160942D02*
X12408231Y-10141894D01*
X12408231Y-10141894D02*
X12389183Y-10132370D01*
X12389183Y-10132370D02*
X12351088Y-10132370D01*
X12351088Y-10132370D02*
X12332041Y-10141894D01*
X12417755Y-10256180D02*
X12398707Y-10265704D01*
X12398707Y-10265704D02*
X12351088Y-10265704D01*
X12351088Y-10265704D02*
X12332041Y-10256180D01*
X12332041Y-10256180D02*
X12322517Y-10237132D01*
X12322517Y-10237132D02*
X12322517Y-10218085D01*
X12322517Y-10218085D02*
X12332041Y-10199037D01*
X12332041Y-10199037D02*
X12351088Y-10189513D01*
X12351088Y-10189513D02*
X12398707Y-10189513D01*
X12398707Y-10189513D02*
X12417755Y-10179990D01*
X12512993Y-10132370D02*
X12512993Y-10332370D01*
X12512993Y-10141894D02*
X12532041Y-10132370D01*
X12532041Y-10132370D02*
X12570136Y-10132370D01*
X12570136Y-10132370D02*
X12589183Y-10141894D01*
X12589183Y-10141894D02*
X12598707Y-10151418D01*
X12598707Y-10151418D02*
X12608231Y-10170466D01*
X12608231Y-10170466D02*
X12608231Y-10227609D01*
X12608231Y-10227609D02*
X12598707Y-10246656D01*
X12598707Y-10246656D02*
X12589183Y-10256180D01*
X12589183Y-10256180D02*
X12570136Y-10265704D01*
X12570136Y-10265704D02*
X12532041Y-10265704D01*
X12532041Y-10265704D02*
X12512993Y-10256180D01*
X12693945Y-10246656D02*
X12703469Y-10256180D01*
X12703469Y-10256180D02*
X12693945Y-10265704D01*
X12693945Y-10265704D02*
X12684422Y-10256180D01*
X12684422Y-10256180D02*
X12693945Y-10246656D01*
X12693945Y-10246656D02*
X12693945Y-10265704D01*
X12693945Y-10141894D02*
X12703469Y-10151418D01*
X12703469Y-10151418D02*
X12693945Y-10160942D01*
X12693945Y-10160942D02*
X12684422Y-10151418D01*
X12684422Y-10151418D02*
X12693945Y-10141894D01*
X12693945Y-10141894D02*
X12693945Y-10160942D01*
M02*
