%TF.GenerationSoftware,KiCad,Pcbnew,8.0.8*%
%TF.CreationDate,2025-02-05T16:41:29+08:00*%
%TF.ProjectId,5V24VBoostUp(USBC),35563234-5642-46f6-9f73-745570285553,rev?*%
%TF.SameCoordinates,Original*%
%TF.FileFunction,Copper,L1,Top*%
%TF.FilePolarity,Positive*%
%FSLAX46Y46*%
G04 Gerber Fmt 4.6, Leading zero omitted, Abs format (unit mm)*
G04 Created by KiCad (PCBNEW 8.0.8) date 2025-02-05 16:41:29*
%MOMM*%
%LPD*%
G01*
G04 APERTURE LIST*
G04 Aperture macros list*
%AMRoundRect*
0 Rectangle with rounded corners*
0 $1 Rounding radius*
0 $2 $3 $4 $5 $6 $7 $8 $9 X,Y pos of 4 corners*
0 Add a 4 corners polygon primitive as box body*
4,1,4,$2,$3,$4,$5,$6,$7,$8,$9,$2,$3,0*
0 Add four circle primitives for the rounded corners*
1,1,$1+$1,$2,$3*
1,1,$1+$1,$4,$5*
1,1,$1+$1,$6,$7*
1,1,$1+$1,$8,$9*
0 Add four rect primitives between the rounded corners*
20,1,$1+$1,$2,$3,$4,$5,0*
20,1,$1+$1,$4,$5,$6,$7,0*
20,1,$1+$1,$6,$7,$8,$9,0*
20,1,$1+$1,$8,$9,$2,$3,0*%
G04 Aperture macros list end*
%TA.AperFunction,SMDPad,CuDef*%
%ADD10RoundRect,0.162500X0.617500X0.162500X-0.617500X0.162500X-0.617500X-0.162500X0.617500X-0.162500X0*%
%TD*%
%TA.AperFunction,SMDPad,CuDef*%
%ADD11RoundRect,0.237500X-0.250000X-0.237500X0.250000X-0.237500X0.250000X0.237500X-0.250000X0.237500X0*%
%TD*%
%TA.AperFunction,SMDPad,CuDef*%
%ADD12RoundRect,0.237500X-0.237500X0.300000X-0.237500X-0.300000X0.237500X-0.300000X0.237500X0.300000X0*%
%TD*%
%TA.AperFunction,SMDPad,CuDef*%
%ADD13RoundRect,0.175000X-0.625000X0.175000X-0.625000X-0.175000X0.625000X-0.175000X0.625000X0.175000X0*%
%TD*%
%TA.AperFunction,SMDPad,CuDef*%
%ADD14RoundRect,0.200000X-0.600000X0.200000X-0.600000X-0.200000X0.600000X-0.200000X0.600000X0.200000X0*%
%TD*%
%TA.AperFunction,SMDPad,CuDef*%
%ADD15RoundRect,0.225000X-0.575000X0.225000X-0.575000X-0.225000X0.575000X-0.225000X0.575000X0.225000X0*%
%TD*%
%TA.AperFunction,HeatsinkPad*%
%ADD16O,1.700000X1.000000*%
%TD*%
%TA.AperFunction,ComponentPad*%
%ADD17R,1.350000X1.350000*%
%TD*%
%TA.AperFunction,ComponentPad*%
%ADD18O,1.350000X1.350000*%
%TD*%
%TA.AperFunction,SMDPad,CuDef*%
%ADD19RoundRect,0.237500X0.237500X-0.300000X0.237500X0.300000X-0.237500X0.300000X-0.237500X-0.300000X0*%
%TD*%
%TA.AperFunction,SMDPad,CuDef*%
%ADD20RoundRect,0.250000X1.500000X0.650000X-1.500000X0.650000X-1.500000X-0.650000X1.500000X-0.650000X0*%
%TD*%
%TA.AperFunction,SMDPad,CuDef*%
%ADD21RoundRect,0.237500X0.237500X-0.287500X0.237500X0.287500X-0.237500X0.287500X-0.237500X-0.287500X0*%
%TD*%
%TA.AperFunction,SMDPad,CuDef*%
%ADD22RoundRect,0.237500X0.250000X0.237500X-0.250000X0.237500X-0.250000X-0.237500X0.250000X-0.237500X0*%
%TD*%
%TA.AperFunction,ViaPad*%
%ADD23C,0.600000*%
%TD*%
%TA.AperFunction,Conductor*%
%ADD24C,0.650000*%
%TD*%
G04 APERTURE END LIST*
D10*
%TO.P,U1,1,SW*%
%TO.N,Net-(D1-A)*%
X121970800Y-96057800D03*
%TO.P,U1,2,GND*%
%TO.N,GND*%
X121970800Y-95107800D03*
%TO.P,U1,3,FB*%
%TO.N,Net-(U1-FB)*%
X121970800Y-94157800D03*
%TO.P,U1,4,EN*%
%TO.N,Net-(U1-EN)*%
X119270800Y-94157800D03*
%TO.P,U1,5,IN*%
X119270800Y-95107800D03*
%TO.P,U1,6,NC*%
%TO.N,unconnected-(U1-NC-Pad6)*%
X119270800Y-96057800D03*
%TD*%
D11*
%TO.P,R1,1*%
%TO.N,Net-(U1-FB)*%
X124588900Y-93345000D03*
%TO.P,R1,2*%
%TO.N,Net-(D1-K)*%
X126413900Y-93345000D03*
%TD*%
D12*
%TO.P,C2,1*%
%TO.N,Net-(D1-K)*%
X131470400Y-90322400D03*
%TO.P,C2,2*%
%TO.N,Net-(U1-FB)*%
X131470400Y-92047400D03*
%TD*%
D13*
%TO.P,J3,A5,CC1*%
%TO.N,Net-(J3-CC1)*%
X116078000Y-92663200D03*
D14*
%TO.P,J3,A9,VBUS*%
%TO.N,Net-(U1-EN)*%
X116078000Y-94683200D03*
D15*
%TO.P,J3,A12,GND*%
%TO.N,GND*%
X116078000Y-95913200D03*
D13*
%TO.P,J3,B5,CC2*%
%TO.N,Net-(J3-CC2)*%
X116078000Y-93663200D03*
D14*
%TO.P,J3,B9,VBUS*%
%TO.N,Net-(U1-EN)*%
X116078000Y-91643200D03*
D15*
%TO.P,J3,B12,GND*%
%TO.N,GND*%
X116078000Y-90413200D03*
D16*
%TO.P,J3,S1,SHIELD*%
X115898000Y-88843200D03*
X112098000Y-88843200D03*
X115898000Y-97483200D03*
X112098000Y-97483200D03*
%TD*%
D17*
%TO.P,J2,1,Pin_1*%
%TO.N,Net-(D1-K)*%
X136169400Y-92151200D03*
D18*
%TO.P,J2,2,Pin_2*%
%TO.N,GND*%
X136169400Y-94151200D03*
%TD*%
D12*
%TO.P,C3,1*%
%TO.N,Net-(D1-K)*%
X133629400Y-92279300D03*
%TO.P,C3,2*%
%TO.N,GND*%
X133629400Y-94004300D03*
%TD*%
D19*
%TO.P,C1,1*%
%TO.N,Net-(U1-EN)*%
X118440200Y-91641000D03*
%TO.P,C1,2*%
%TO.N,GND*%
X118440200Y-89916000D03*
%TD*%
D20*
%TO.P,D1,1,K*%
%TO.N,Net-(D1-K)*%
X128331600Y-90322400D03*
%TO.P,D1,2,A*%
%TO.N,Net-(D1-A)*%
X123331600Y-90322400D03*
%TD*%
D21*
%TO.P,L1,1,1*%
%TO.N,Net-(U1-EN)*%
X120269000Y-91654600D03*
%TO.P,L1,2,2*%
%TO.N,Net-(D1-A)*%
X120269000Y-89904600D03*
%TD*%
D22*
%TO.P,R2,1*%
%TO.N,GND*%
X126413900Y-95123000D03*
%TO.P,R2,2*%
%TO.N,Net-(U1-FB)*%
X124588900Y-95123000D03*
%TD*%
D23*
%TO.N,GND*%
X126415800Y-96291400D03*
X123418600Y-95123000D03*
X117729000Y-95957801D03*
X117322600Y-89966800D03*
%TO.N,Net-(J3-CC1)*%
X117729000Y-92659200D03*
%TO.N,Net-(J3-CC2)*%
X117703600Y-93675200D03*
%TD*%
D24*
%TO.N,Net-(U1-EN)*%
X114753000Y-92028400D02*
X115138200Y-91643200D01*
X116078000Y-94683200D02*
X115278000Y-94683200D01*
X117441600Y-94683200D02*
X116078000Y-94683200D01*
X114753000Y-94158200D02*
X114753000Y-92028400D01*
X118440200Y-91641000D02*
X120255400Y-91641000D01*
X118438000Y-91643200D02*
X118440200Y-91641000D01*
X119270800Y-95107800D02*
X117866200Y-95107800D01*
X119270800Y-94157800D02*
X119270800Y-95107800D01*
X117866200Y-95107800D02*
X117441600Y-94683200D01*
X115278000Y-94683200D02*
X114753000Y-94158200D01*
X115138200Y-91643200D02*
X116078000Y-91643200D01*
X116078000Y-91643200D02*
X118438000Y-91643200D01*
X120255400Y-91641000D02*
X120269000Y-91654600D01*
%TO.N,GND*%
X113902999Y-91676319D02*
X115166118Y-90413200D01*
X116078000Y-95913200D02*
X115278000Y-95913200D01*
X116876200Y-90413200D02*
X117322600Y-89966800D01*
X136169400Y-94151200D02*
X133776300Y-94151200D01*
X115166118Y-90413200D02*
X116078000Y-90413200D01*
X121970800Y-95107800D02*
X123403400Y-95107800D01*
X113902999Y-94538199D02*
X113902999Y-91676319D01*
X115278000Y-95913200D02*
X113902999Y-94538199D01*
X117322600Y-89966800D02*
X118389400Y-89966800D01*
X123403400Y-95107800D02*
X123418600Y-95123000D01*
X118389400Y-89966800D02*
X118440200Y-89916000D01*
X116122601Y-95957801D02*
X117729000Y-95957801D01*
X116078000Y-90413200D02*
X116876200Y-90413200D01*
X133776300Y-94151200D02*
X133629400Y-94004300D01*
X116078000Y-95913200D02*
X116122601Y-95957801D01*
X126413900Y-96289500D02*
X126415800Y-96291400D01*
X126413900Y-95123000D02*
X126413900Y-96289500D01*
%TO.N,Net-(D1-K)*%
X126415800Y-93319600D02*
X127533400Y-93319600D01*
X131470400Y-90322400D02*
X132791200Y-90322400D01*
X128331600Y-92521400D02*
X128331600Y-90322400D01*
X133629400Y-91160600D02*
X133629400Y-92279300D01*
X133757500Y-92151200D02*
X133629400Y-92279300D01*
X131470400Y-90322400D02*
X128331600Y-90322400D01*
X127533400Y-93319600D02*
X128331600Y-92521400D01*
X136169400Y-92151200D02*
X133757500Y-92151200D01*
X132791200Y-90322400D02*
X133629400Y-91160600D01*
%TO.N,Net-(U1-FB)*%
X131470400Y-92047400D02*
X131470400Y-96113600D01*
X121970800Y-94157800D02*
X122809000Y-93319600D01*
X124590800Y-93319600D02*
X124590800Y-95121100D01*
X130442599Y-97141401D02*
X125589401Y-97141401D01*
X125589401Y-97141401D02*
X124588900Y-96140900D01*
X124590800Y-95121100D02*
X124588900Y-95123000D01*
X124588900Y-96140900D02*
X124588900Y-95123000D01*
X122809000Y-93319600D02*
X124590800Y-93319600D01*
X131470400Y-96113600D02*
X130442599Y-97141401D01*
%TO.N,Net-(D1-A)*%
X123331600Y-91552400D02*
X123331600Y-90322400D01*
X121147200Y-92506800D02*
X122377200Y-92506800D01*
X121208800Y-90322400D02*
X123331600Y-90322400D01*
X120665800Y-92988200D02*
X121147200Y-92506800D01*
X121970800Y-96057800D02*
X121164026Y-96057800D01*
X120269000Y-89904600D02*
X120791000Y-89904600D01*
X120665800Y-95559574D02*
X120665800Y-92988200D01*
X121164026Y-96057800D02*
X120665800Y-95559574D01*
X120791000Y-89904600D02*
X121208800Y-90322400D01*
X122377200Y-92506800D02*
X123331600Y-91552400D01*
%TO.N,Net-(J3-CC1)*%
X116078000Y-92663200D02*
X117725000Y-92663200D01*
X117725000Y-92663200D02*
X117729000Y-92659200D01*
%TO.N,Net-(J3-CC2)*%
X117691600Y-93663200D02*
X117703600Y-93675200D01*
X116078000Y-93663200D02*
X117691600Y-93663200D01*
%TD*%
%TA.AperFunction,NonConductor*%
G36*
X137720139Y-87184985D02*
G01*
X137765894Y-87237789D01*
X137777100Y-87289300D01*
X137777100Y-98892700D01*
X137757415Y-98959739D01*
X137704611Y-99005494D01*
X137653100Y-99016700D01*
X111266900Y-99016700D01*
X111199861Y-98997015D01*
X111154106Y-98944211D01*
X111142900Y-98892700D01*
X111142900Y-98273626D01*
X111162585Y-98206587D01*
X111215389Y-98160832D01*
X111284547Y-98150888D01*
X111335792Y-98170525D01*
X111368812Y-98192589D01*
X111368827Y-98192597D01*
X111514498Y-98252935D01*
X111514503Y-98252937D01*
X111669153Y-98283699D01*
X111669156Y-98283700D01*
X111669158Y-98283700D01*
X112526844Y-98283700D01*
X112526845Y-98283699D01*
X112681497Y-98252937D01*
X112827179Y-98192594D01*
X112958289Y-98104989D01*
X113069789Y-97993489D01*
X113157394Y-97862379D01*
X113217737Y-97716697D01*
X113248500Y-97562042D01*
X113248500Y-97404358D01*
X113248500Y-97404355D01*
X113248499Y-97404353D01*
X113217738Y-97249710D01*
X113217737Y-97249703D01*
X113217735Y-97249698D01*
X113157397Y-97104027D01*
X113157390Y-97104014D01*
X113069789Y-96972911D01*
X113069786Y-96972907D01*
X112958292Y-96861413D01*
X112958288Y-96861410D01*
X112827185Y-96773809D01*
X112827172Y-96773802D01*
X112681501Y-96713464D01*
X112681489Y-96713461D01*
X112526845Y-96682700D01*
X112526842Y-96682700D01*
X111669158Y-96682700D01*
X111669155Y-96682700D01*
X111514510Y-96713461D01*
X111514498Y-96713464D01*
X111368827Y-96773802D01*
X111368816Y-96773808D01*
X111335790Y-96795876D01*
X111269113Y-96816753D01*
X111201733Y-96798268D01*
X111155043Y-96746289D01*
X111142900Y-96692773D01*
X111142900Y-91614707D01*
X113277499Y-91614707D01*
X113277499Y-91614713D01*
X113277499Y-94476592D01*
X113277499Y-94599806D01*
X113279664Y-94610692D01*
X113286220Y-94643655D01*
X113301534Y-94720646D01*
X113301537Y-94720654D01*
X113311542Y-94744808D01*
X113348684Y-94834479D01*
X113348689Y-94834488D01*
X113382913Y-94885706D01*
X113382914Y-94885708D01*
X113417140Y-94936932D01*
X113508585Y-95028377D01*
X113508607Y-95028397D01*
X114789016Y-96308806D01*
X114789045Y-96308837D01*
X114879264Y-96399056D01*
X114879267Y-96399058D01*
X114930490Y-96433284D01*
X114981714Y-96467512D01*
X114981715Y-96467512D01*
X114981716Y-96467513D01*
X114992431Y-96471951D01*
X115062207Y-96500852D01*
X115095548Y-96514663D01*
X115113914Y-96518316D01*
X115164646Y-96541128D01*
X115192295Y-96562094D01*
X115233820Y-96618285D01*
X115238373Y-96688006D01*
X115204509Y-96749121D01*
X115173527Y-96769695D01*
X115174191Y-96770936D01*
X115168814Y-96773809D01*
X115037711Y-96861410D01*
X115037707Y-96861413D01*
X114926213Y-96972907D01*
X114926210Y-96972911D01*
X114838609Y-97104014D01*
X114838602Y-97104027D01*
X114778264Y-97249698D01*
X114778261Y-97249710D01*
X114747500Y-97404353D01*
X114747500Y-97562046D01*
X114778261Y-97716689D01*
X114778264Y-97716701D01*
X114838602Y-97862372D01*
X114838609Y-97862385D01*
X114926210Y-97993488D01*
X114926213Y-97993492D01*
X115037707Y-98104986D01*
X115037711Y-98104989D01*
X115168814Y-98192590D01*
X115168827Y-98192597D01*
X115314498Y-98252935D01*
X115314503Y-98252937D01*
X115469153Y-98283699D01*
X115469156Y-98283700D01*
X115469158Y-98283700D01*
X116326844Y-98283700D01*
X116326845Y-98283699D01*
X116481497Y-98252937D01*
X116627179Y-98192594D01*
X116758289Y-98104989D01*
X116869789Y-97993489D01*
X116957394Y-97862379D01*
X117017737Y-97716697D01*
X117048500Y-97562042D01*
X117048500Y-97404358D01*
X117048500Y-97404355D01*
X117048499Y-97404353D01*
X117017738Y-97249710D01*
X117017737Y-97249703D01*
X117017735Y-97249698D01*
X116957397Y-97104027D01*
X116957390Y-97104014D01*
X116869789Y-96972911D01*
X116869786Y-96972907D01*
X116758292Y-96861413D01*
X116756877Y-96860252D01*
X116756334Y-96859455D01*
X116753982Y-96857103D01*
X116754427Y-96856657D01*
X116717540Y-96802508D01*
X116715666Y-96732664D01*
X116751850Y-96672893D01*
X116790043Y-96649042D01*
X116912975Y-96600564D01*
X116912982Y-96600557D01*
X116915371Y-96599216D01*
X116918409Y-96598420D01*
X116920865Y-96597452D01*
X116920981Y-96597746D01*
X116976147Y-96583301D01*
X117790607Y-96583301D01*
X117790608Y-96583300D01*
X117911452Y-96559264D01*
X118025286Y-96512112D01*
X118106341Y-96457952D01*
X118173017Y-96437075D01*
X118240397Y-96455559D01*
X118275001Y-96487421D01*
X118284915Y-96500854D01*
X118322210Y-96551388D01*
X118322212Y-96551390D01*
X118434505Y-96634265D01*
X118434507Y-96634266D01*
X118434511Y-96634269D01*
X118434514Y-96634270D01*
X118566249Y-96680367D01*
X118597524Y-96683300D01*
X118597528Y-96683300D01*
X119944076Y-96683300D01*
X119975349Y-96680367D01*
X119975351Y-96680367D01*
X120064876Y-96649040D01*
X120107089Y-96634269D01*
X120219389Y-96551389D01*
X120302269Y-96439089D01*
X120330007Y-96359819D01*
X120370728Y-96303043D01*
X120435681Y-96277296D01*
X120504243Y-96290752D01*
X120534729Y-96313093D01*
X120675042Y-96453406D01*
X120675071Y-96453437D01*
X120765289Y-96543655D01*
X120765297Y-96543661D01*
X120840995Y-96594241D01*
X120840996Y-96594241D01*
X120867741Y-96612112D01*
X120923884Y-96635367D01*
X120923885Y-96635367D01*
X120923886Y-96635368D01*
X120960260Y-96650434D01*
X120981574Y-96659263D01*
X121025052Y-96667911D01*
X121102417Y-96683299D01*
X121102418Y-96683300D01*
X121102419Y-96683300D01*
X122644076Y-96683300D01*
X122675349Y-96680367D01*
X122675351Y-96680367D01*
X122764876Y-96649040D01*
X122807089Y-96634269D01*
X122919389Y-96551389D01*
X123002269Y-96439089D01*
X123032391Y-96353007D01*
X123048367Y-96307351D01*
X123048367Y-96307349D01*
X123051300Y-96276076D01*
X123051300Y-95857300D01*
X123070985Y-95790261D01*
X123123789Y-95744506D01*
X123175300Y-95733300D01*
X123268365Y-95733300D01*
X123292555Y-95735682D01*
X123356991Y-95748499D01*
X123356992Y-95748500D01*
X123356993Y-95748500D01*
X123480208Y-95748500D01*
X123480209Y-95748499D01*
X123601051Y-95724463D01*
X123714885Y-95677312D01*
X123743249Y-95658358D01*
X123809923Y-95637480D01*
X123877304Y-95655963D01*
X123910944Y-95686535D01*
X123938204Y-95722483D01*
X123963027Y-95787795D01*
X123963400Y-95797408D01*
X123963400Y-96202511D01*
X123987435Y-96323344D01*
X123987440Y-96323361D01*
X124034585Y-96437181D01*
X124034590Y-96437190D01*
X124054852Y-96467513D01*
X124054853Y-96467514D01*
X124103041Y-96539632D01*
X124103044Y-96539636D01*
X124194486Y-96631078D01*
X124194508Y-96631098D01*
X125100417Y-97537007D01*
X125100446Y-97537038D01*
X125190665Y-97627257D01*
X125190668Y-97627259D01*
X125241891Y-97661485D01*
X125293115Y-97695713D01*
X125373608Y-97729053D01*
X125406949Y-97742864D01*
X125467372Y-97754882D01*
X125527794Y-97766901D01*
X130504206Y-97766901D01*
X130564628Y-97754882D01*
X130625051Y-97742864D01*
X130625054Y-97742862D01*
X130625057Y-97742862D01*
X130658386Y-97729055D01*
X130658385Y-97729055D01*
X130658391Y-97729053D01*
X130738885Y-97695713D01*
X130790108Y-97661485D01*
X130790110Y-97661484D01*
X130802870Y-97652957D01*
X130841332Y-97627259D01*
X130928457Y-97540134D01*
X130928458Y-97540132D01*
X130935524Y-97533066D01*
X130935527Y-97533062D01*
X131869129Y-96599460D01*
X131869133Y-96599458D01*
X131956258Y-96512333D01*
X131990484Y-96461109D01*
X132024712Y-96409886D01*
X132065285Y-96311933D01*
X132071863Y-96296052D01*
X132095900Y-96175206D01*
X132095900Y-92767824D01*
X132115585Y-92700785D01*
X132121096Y-92692899D01*
X132165655Y-92634139D01*
X132181262Y-92613558D01*
X132235517Y-92475977D01*
X132245900Y-92389518D01*
X132245900Y-91705282D01*
X132235517Y-91618823D01*
X132181262Y-91481242D01*
X132158846Y-91451682D01*
X132091900Y-91363399D01*
X132012824Y-91303435D01*
X131986803Y-91283702D01*
X131945281Y-91227512D01*
X131940729Y-91157791D01*
X131974593Y-91096677D01*
X131986799Y-91086099D01*
X132091900Y-91006400D01*
X132091901Y-91006399D01*
X132099049Y-90996974D01*
X132155242Y-90955451D01*
X132197852Y-90947900D01*
X132480748Y-90947900D01*
X132547787Y-90967585D01*
X132568429Y-90984219D01*
X132967581Y-91383371D01*
X133001066Y-91444694D01*
X133003900Y-91471052D01*
X133003900Y-91558875D01*
X132984215Y-91625914D01*
X132978704Y-91633800D01*
X132918539Y-91713139D01*
X132864282Y-91850724D01*
X132864282Y-91850725D01*
X132853900Y-91937181D01*
X132853900Y-92621418D01*
X132864282Y-92707874D01*
X132864282Y-92707875D01*
X132870444Y-92723500D01*
X132917034Y-92841645D01*
X132918539Y-92845460D01*
X133007899Y-92963300D01*
X133112995Y-93042996D01*
X133154518Y-93099188D01*
X133159070Y-93168909D01*
X133125205Y-93230024D01*
X133112995Y-93240604D01*
X133007899Y-93320299D01*
X132918539Y-93438139D01*
X132864282Y-93575724D01*
X132864282Y-93575725D01*
X132853900Y-93662181D01*
X132853900Y-94346418D01*
X132864282Y-94432874D01*
X132864282Y-94432875D01*
X132918539Y-94570460D01*
X133007899Y-94688300D01*
X133098396Y-94756925D01*
X133125742Y-94777662D01*
X133263323Y-94831917D01*
X133320962Y-94838839D01*
X133349781Y-94842300D01*
X133349782Y-94842300D01*
X133909019Y-94842300D01*
X133930632Y-94839704D01*
X133995477Y-94831917D01*
X134113575Y-94785344D01*
X134159065Y-94776700D01*
X135362138Y-94776700D01*
X135429177Y-94796385D01*
X135457992Y-94822036D01*
X135476280Y-94844320D01*
X135624817Y-94966222D01*
X135624824Y-94966226D01*
X135794281Y-95056803D01*
X135794283Y-95056803D01*
X135794286Y-95056805D01*
X135978169Y-95112585D01*
X135978168Y-95112585D01*
X135995314Y-95114273D01*
X136169400Y-95131420D01*
X136360631Y-95112585D01*
X136544514Y-95056805D01*
X136713981Y-94966223D01*
X136862520Y-94844320D01*
X136984423Y-94695781D01*
X137044015Y-94584293D01*
X137075003Y-94526318D01*
X137075003Y-94526317D01*
X137075005Y-94526314D01*
X137130785Y-94342431D01*
X137149620Y-94151200D01*
X137130785Y-93959969D01*
X137075005Y-93776086D01*
X137075003Y-93776083D01*
X137075003Y-93776081D01*
X136984426Y-93606624D01*
X136984422Y-93606617D01*
X136862520Y-93458079D01*
X136726623Y-93346552D01*
X136687289Y-93288807D01*
X136685418Y-93218962D01*
X136721605Y-93159194D01*
X136784361Y-93128478D01*
X136805287Y-93126699D01*
X136889264Y-93126699D01*
X136889279Y-93126697D01*
X136889282Y-93126697D01*
X136914387Y-93123786D01*
X136914388Y-93123785D01*
X136914391Y-93123785D01*
X137017165Y-93078406D01*
X137096606Y-92998965D01*
X137141985Y-92896191D01*
X137144900Y-92871065D01*
X137144899Y-91431336D01*
X137144897Y-91431317D01*
X137141986Y-91406212D01*
X137141985Y-91406210D01*
X137141985Y-91406209D01*
X137096606Y-91303435D01*
X137017165Y-91223994D01*
X137007628Y-91219783D01*
X136914392Y-91178615D01*
X136889265Y-91175700D01*
X135449543Y-91175700D01*
X135449517Y-91175702D01*
X135424412Y-91178613D01*
X135424408Y-91178615D01*
X135321635Y-91223993D01*
X135242194Y-91303434D01*
X135196815Y-91406206D01*
X135196815Y-91406208D01*
X135195680Y-91415992D01*
X135168399Y-91480316D01*
X135110673Y-91519680D01*
X135072506Y-91525700D01*
X134378900Y-91525700D01*
X134311861Y-91506015D01*
X134266106Y-91453211D01*
X134254900Y-91401700D01*
X134254900Y-91098996D01*
X134252451Y-91086684D01*
X134238293Y-91015502D01*
X134238293Y-91015501D01*
X134230864Y-90978153D01*
X134230863Y-90978152D01*
X134230863Y-90978148D01*
X134195899Y-90893738D01*
X134195474Y-90892713D01*
X134184709Y-90866723D01*
X134183712Y-90864315D01*
X134158662Y-90826826D01*
X134148712Y-90811934D01*
X134148710Y-90811932D01*
X134115256Y-90761864D01*
X134025037Y-90671645D01*
X134025006Y-90671616D01*
X133281398Y-89928008D01*
X133281378Y-89927986D01*
X133189933Y-89836541D01*
X133138709Y-89802315D01*
X133134822Y-89799718D01*
X133087486Y-89768088D01*
X133004100Y-89733549D01*
X133004098Y-89733547D01*
X132973655Y-89720938D01*
X132973653Y-89720937D01*
X132973652Y-89720937D01*
X132913229Y-89708918D01*
X132852810Y-89696900D01*
X132852807Y-89696900D01*
X132852806Y-89696900D01*
X132197852Y-89696900D01*
X132130813Y-89677215D01*
X132099049Y-89647826D01*
X132091901Y-89638400D01*
X131974060Y-89549039D01*
X131974058Y-89549038D01*
X131836477Y-89494783D01*
X131836476Y-89494782D01*
X131836474Y-89494782D01*
X131750019Y-89484400D01*
X131750018Y-89484400D01*
X131190782Y-89484400D01*
X131190781Y-89484400D01*
X131104325Y-89494782D01*
X131104324Y-89494782D01*
X130966739Y-89549039D01*
X130848898Y-89638400D01*
X130841751Y-89647826D01*
X130785558Y-89689349D01*
X130742948Y-89696900D01*
X130500218Y-89696900D01*
X130433179Y-89677215D01*
X130387424Y-89624411D01*
X130377103Y-89587686D01*
X130371477Y-89540836D01*
X130315961Y-89400058D01*
X130315960Y-89400057D01*
X130315960Y-89400056D01*
X130224522Y-89279477D01*
X130103943Y-89188039D01*
X130007792Y-89150122D01*
X129963164Y-89132523D01*
X129963163Y-89132522D01*
X129963161Y-89132522D01*
X129917526Y-89127042D01*
X129874702Y-89121900D01*
X126788498Y-89121900D01*
X126749453Y-89126588D01*
X126700038Y-89132522D01*
X126559256Y-89188039D01*
X126438677Y-89279477D01*
X126347239Y-89400056D01*
X126291722Y-89540838D01*
X126286097Y-89587683D01*
X126281100Y-89629298D01*
X126281100Y-91015502D01*
X126286097Y-91057117D01*
X126291722Y-91103961D01*
X126347239Y-91244743D01*
X126438677Y-91365322D01*
X126559256Y-91456760D01*
X126559257Y-91456760D01*
X126559258Y-91456761D01*
X126700036Y-91512277D01*
X126788498Y-91522900D01*
X127582100Y-91522900D01*
X127649139Y-91542585D01*
X127694894Y-91595389D01*
X127706100Y-91646900D01*
X127706100Y-92210948D01*
X127686415Y-92277987D01*
X127669781Y-92298629D01*
X127310629Y-92657781D01*
X127249306Y-92691266D01*
X127222948Y-92694100D01*
X127050829Y-92694100D01*
X126983790Y-92674415D01*
X126975904Y-92668904D01*
X126930059Y-92634139D01*
X126930060Y-92634139D01*
X126930058Y-92634138D01*
X126792477Y-92579883D01*
X126792476Y-92579882D01*
X126792474Y-92579882D01*
X126706019Y-92569500D01*
X126706018Y-92569500D01*
X126121782Y-92569500D01*
X126121781Y-92569500D01*
X126035325Y-92579882D01*
X126035324Y-92579882D01*
X125897739Y-92634139D01*
X125779899Y-92723499D01*
X125690539Y-92841339D01*
X125636282Y-92978924D01*
X125636282Y-92978925D01*
X125625900Y-93065381D01*
X125625900Y-93624618D01*
X125636282Y-93711074D01*
X125636282Y-93711075D01*
X125690539Y-93848660D01*
X125779899Y-93966500D01*
X125826794Y-94002061D01*
X125897742Y-94055862D01*
X126035323Y-94110117D01*
X126041361Y-94110842D01*
X126041718Y-94110885D01*
X126105932Y-94138422D01*
X126145065Y-94196305D01*
X126146691Y-94266156D01*
X126110295Y-94325797D01*
X126047432Y-94356294D01*
X126041718Y-94357115D01*
X126035325Y-94357882D01*
X126035324Y-94357882D01*
X125897739Y-94412139D01*
X125779899Y-94501499D01*
X125690539Y-94619339D01*
X125636282Y-94756924D01*
X125636282Y-94756925D01*
X125625900Y-94843381D01*
X125625900Y-95402618D01*
X125636282Y-95489074D01*
X125636282Y-95489075D01*
X125690539Y-95626660D01*
X125763204Y-95722483D01*
X125788027Y-95787794D01*
X125788400Y-95797408D01*
X125788400Y-96156448D01*
X125768715Y-96223487D01*
X125715911Y-96269242D01*
X125646753Y-96279186D01*
X125583197Y-96250161D01*
X125576719Y-96244129D01*
X125250719Y-95918129D01*
X125217234Y-95856806D01*
X125214400Y-95830448D01*
X125214400Y-95797408D01*
X125234085Y-95730369D01*
X125239596Y-95722483D01*
X125273851Y-95677311D01*
X125312262Y-95626658D01*
X125366517Y-95489077D01*
X125376900Y-95402618D01*
X125376900Y-94843382D01*
X125366517Y-94756923D01*
X125312262Y-94619342D01*
X125299256Y-94602191D01*
X125241496Y-94526022D01*
X125216673Y-94460710D01*
X125216300Y-94451097D01*
X125216300Y-94016902D01*
X125235985Y-93949863D01*
X125241496Y-93941977D01*
X125248242Y-93933081D01*
X125312262Y-93848658D01*
X125366517Y-93711077D01*
X125376900Y-93624618D01*
X125376900Y-93065382D01*
X125376005Y-93057933D01*
X125366517Y-92978925D01*
X125366517Y-92978924D01*
X125333892Y-92896193D01*
X125312262Y-92841342D01*
X125294328Y-92817692D01*
X125222900Y-92723499D01*
X125105060Y-92634139D01*
X125105058Y-92634138D01*
X124967477Y-92579883D01*
X124967476Y-92579882D01*
X124967474Y-92579882D01*
X124881019Y-92569500D01*
X124881018Y-92569500D01*
X124296782Y-92569500D01*
X124296781Y-92569500D01*
X124210325Y-92579882D01*
X124210324Y-92579882D01*
X124072739Y-92634139D01*
X124026896Y-92668904D01*
X123961585Y-92693727D01*
X123951971Y-92694100D01*
X123373853Y-92694100D01*
X123306814Y-92674415D01*
X123261059Y-92621611D01*
X123251115Y-92552453D01*
X123280140Y-92488897D01*
X123286172Y-92482419D01*
X123817457Y-91951134D01*
X123817683Y-91950798D01*
X123885907Y-91848692D01*
X123885907Y-91848691D01*
X123885911Y-91848686D01*
X123933063Y-91734852D01*
X123955369Y-91622707D01*
X123987753Y-91560799D01*
X124048468Y-91526224D01*
X124076986Y-91522900D01*
X124874697Y-91522900D01*
X124874702Y-91522900D01*
X124963164Y-91512277D01*
X125103942Y-91456761D01*
X125224522Y-91365322D01*
X125315961Y-91244742D01*
X125371477Y-91103964D01*
X125382100Y-91015502D01*
X125382100Y-89629298D01*
X125371477Y-89540836D01*
X125315961Y-89400058D01*
X125315960Y-89400057D01*
X125315960Y-89400056D01*
X125224522Y-89279477D01*
X125103943Y-89188039D01*
X125007792Y-89150122D01*
X124963164Y-89132523D01*
X124963163Y-89132522D01*
X124963161Y-89132522D01*
X124917526Y-89127042D01*
X124874702Y-89121900D01*
X121788498Y-89121900D01*
X121749453Y-89126588D01*
X121700038Y-89132522D01*
X121559256Y-89188039D01*
X121438677Y-89279478D01*
X121355442Y-89389239D01*
X121299250Y-89430762D01*
X121229529Y-89435313D01*
X121187749Y-89417416D01*
X121145579Y-89389239D01*
X121134380Y-89381756D01*
X121087286Y-89350288D01*
X121086209Y-89349842D01*
X121047354Y-89333748D01*
X121000974Y-89314537D01*
X120973452Y-89303137D01*
X120973448Y-89303136D01*
X120973184Y-89303056D01*
X120973062Y-89302976D01*
X120967825Y-89300807D01*
X120968236Y-89299813D01*
X120914749Y-89264754D01*
X120910385Y-89259323D01*
X120890500Y-89233100D01*
X120890495Y-89233096D01*
X120772660Y-89143739D01*
X120772658Y-89143738D01*
X120635077Y-89089483D01*
X120635076Y-89089482D01*
X120635074Y-89089482D01*
X120548619Y-89079100D01*
X120548618Y-89079100D01*
X119989382Y-89079100D01*
X119989381Y-89079100D01*
X119902925Y-89089482D01*
X119902924Y-89089482D01*
X119765339Y-89143739D01*
X119647499Y-89233099D01*
X119558139Y-89350939D01*
X119503882Y-89488524D01*
X119503882Y-89488525D01*
X119493500Y-89574981D01*
X119493500Y-90234218D01*
X119503882Y-90320674D01*
X119503882Y-90320675D01*
X119558139Y-90458260D01*
X119647499Y-90576100D01*
X119765339Y-90665460D01*
X119765342Y-90665462D01*
X119765343Y-90665462D01*
X119772734Y-90669618D01*
X119771647Y-90671551D01*
X119817403Y-90707154D01*
X119840595Y-90773063D01*
X119824472Y-90841047D01*
X119774154Y-90889522D01*
X119767163Y-90892713D01*
X119765342Y-90893738D01*
X119653324Y-90978684D01*
X119640742Y-90988225D01*
X119639018Y-90985952D01*
X119590096Y-91012666D01*
X119563738Y-91015500D01*
X119167652Y-91015500D01*
X119100613Y-90995815D01*
X119068849Y-90966426D01*
X119061701Y-90957000D01*
X118976924Y-90892713D01*
X118956603Y-90877302D01*
X118915081Y-90821112D01*
X118910529Y-90751391D01*
X118944393Y-90690277D01*
X118956599Y-90679699D01*
X119061700Y-90600000D01*
X119151062Y-90482158D01*
X119205317Y-90344577D01*
X119215700Y-90258118D01*
X119215700Y-89573882D01*
X119213143Y-89552594D01*
X119205317Y-89487425D01*
X119205317Y-89487424D01*
X119205317Y-89487423D01*
X119151062Y-89349842D01*
X119151060Y-89349839D01*
X119061700Y-89231999D01*
X118943860Y-89142639D01*
X118943858Y-89142638D01*
X118806277Y-89088383D01*
X118806276Y-89088382D01*
X118806274Y-89088382D01*
X118719819Y-89078000D01*
X118719818Y-89078000D01*
X118160582Y-89078000D01*
X118160581Y-89078000D01*
X118074125Y-89088382D01*
X118074124Y-89088382D01*
X117936539Y-89142639D01*
X117818704Y-89231996D01*
X117818699Y-89232000D01*
X117793862Y-89264754D01*
X117773029Y-89292226D01*
X117716839Y-89333748D01*
X117674227Y-89341300D01*
X117384207Y-89341300D01*
X117260993Y-89341300D01*
X117218049Y-89349842D01*
X117218048Y-89349841D01*
X117140154Y-89365335D01*
X117140134Y-89365341D01*
X117124634Y-89371761D01*
X117055164Y-89379227D01*
X116992687Y-89347949D01*
X116957037Y-89287858D01*
X116959535Y-89218033D01*
X116962615Y-89209772D01*
X117017737Y-89076697D01*
X117048500Y-88922042D01*
X117048500Y-88764358D01*
X117048500Y-88764355D01*
X117048499Y-88764353D01*
X117017738Y-88609710D01*
X117017737Y-88609703D01*
X117017735Y-88609698D01*
X116957397Y-88464027D01*
X116957390Y-88464014D01*
X116869789Y-88332911D01*
X116869786Y-88332907D01*
X116758292Y-88221413D01*
X116758288Y-88221410D01*
X116627185Y-88133809D01*
X116627172Y-88133802D01*
X116481501Y-88073464D01*
X116481489Y-88073461D01*
X116326845Y-88042700D01*
X116326842Y-88042700D01*
X115469158Y-88042700D01*
X115469155Y-88042700D01*
X115314510Y-88073461D01*
X115314498Y-88073464D01*
X115168827Y-88133802D01*
X115168814Y-88133809D01*
X115037711Y-88221410D01*
X115037707Y-88221413D01*
X114926213Y-88332907D01*
X114926210Y-88332911D01*
X114838609Y-88464014D01*
X114838602Y-88464027D01*
X114778264Y-88609698D01*
X114778261Y-88609710D01*
X114747500Y-88764353D01*
X114747500Y-88922046D01*
X114778261Y-89076689D01*
X114778264Y-89076701D01*
X114838602Y-89222372D01*
X114838609Y-89222385D01*
X114926210Y-89353488D01*
X114926213Y-89353492D01*
X115037707Y-89464986D01*
X115037711Y-89464989D01*
X115168814Y-89552590D01*
X115172088Y-89554340D01*
X115173481Y-89555708D01*
X115173886Y-89555979D01*
X115173834Y-89556055D01*
X115221933Y-89603302D01*
X115237395Y-89671439D01*
X115213565Y-89737119D01*
X115158008Y-89779489D01*
X115113637Y-89787700D01*
X115104507Y-89787700D01*
X115044089Y-89799718D01*
X115006377Y-89807219D01*
X114983668Y-89811736D01*
X114983666Y-89811737D01*
X114950325Y-89825547D01*
X114869837Y-89858884D01*
X114869823Y-89858892D01*
X114767390Y-89927338D01*
X114767382Y-89927344D01*
X114118627Y-90576100D01*
X113504269Y-91190458D01*
X113504266Y-91190461D01*
X113474944Y-91219783D01*
X113417141Y-91277585D01*
X113413053Y-91283704D01*
X113385472Y-91324982D01*
X113360891Y-91361768D01*
X113348686Y-91380034D01*
X113348684Y-91380037D01*
X113319008Y-91451681D01*
X113319009Y-91451682D01*
X113301877Y-91493045D01*
X113301857Y-91493093D01*
X113301535Y-91493868D01*
X113277639Y-91614007D01*
X113277499Y-91614707D01*
X111142900Y-91614707D01*
X111142900Y-89633626D01*
X111162585Y-89566587D01*
X111215389Y-89520832D01*
X111284547Y-89510888D01*
X111335792Y-89530525D01*
X111368812Y-89552589D01*
X111368827Y-89552597D01*
X111491242Y-89603302D01*
X111514503Y-89612937D01*
X111669153Y-89643699D01*
X111669156Y-89643700D01*
X111669158Y-89643700D01*
X112526844Y-89643700D01*
X112526845Y-89643699D01*
X112681497Y-89612937D01*
X112794166Y-89566267D01*
X112827172Y-89552597D01*
X112827172Y-89552596D01*
X112827179Y-89552594D01*
X112958289Y-89464989D01*
X113069789Y-89353489D01*
X113157394Y-89222379D01*
X113217737Y-89076697D01*
X113248500Y-88922042D01*
X113248500Y-88764358D01*
X113248500Y-88764355D01*
X113248499Y-88764353D01*
X113217738Y-88609710D01*
X113217737Y-88609703D01*
X113217735Y-88609698D01*
X113157397Y-88464027D01*
X113157390Y-88464014D01*
X113069789Y-88332911D01*
X113069786Y-88332907D01*
X112958292Y-88221413D01*
X112958288Y-88221410D01*
X112827185Y-88133809D01*
X112827172Y-88133802D01*
X112681501Y-88073464D01*
X112681489Y-88073461D01*
X112526845Y-88042700D01*
X112526842Y-88042700D01*
X111669158Y-88042700D01*
X111669155Y-88042700D01*
X111514510Y-88073461D01*
X111514498Y-88073464D01*
X111368827Y-88133802D01*
X111368816Y-88133808D01*
X111335790Y-88155876D01*
X111269113Y-88176753D01*
X111201733Y-88158268D01*
X111155043Y-88106289D01*
X111142900Y-88052773D01*
X111142900Y-87289300D01*
X111162585Y-87222261D01*
X111215389Y-87176506D01*
X111266900Y-87165300D01*
X137653100Y-87165300D01*
X137720139Y-87184985D01*
G37*
%TD.AperFunction*%
%TA.AperFunction,NonConductor*%
G36*
X117833885Y-90611985D02*
G01*
X117841771Y-90617496D01*
X117923795Y-90679696D01*
X117965318Y-90735888D01*
X117969870Y-90805609D01*
X117936006Y-90866723D01*
X117923795Y-90877304D01*
X117818699Y-90956999D01*
X117809884Y-90968625D01*
X117753692Y-91010149D01*
X117711080Y-91017700D01*
X117455653Y-91017700D01*
X117388614Y-90998015D01*
X117342859Y-90945211D01*
X117332915Y-90876053D01*
X117354565Y-90828645D01*
X117351655Y-90826826D01*
X117351660Y-90826818D01*
X117360440Y-90815780D01*
X117361940Y-90812497D01*
X117367972Y-90806019D01*
X117369115Y-90804875D01*
X117369120Y-90804868D01*
X117545372Y-90628616D01*
X117606695Y-90595134D01*
X117633052Y-90592300D01*
X117766846Y-90592300D01*
X117833885Y-90611985D01*
G37*
%TD.AperFunction*%
%TA.AperFunction,NonConductor*%
G36*
X121147193Y-90947900D02*
G01*
X121147194Y-90947900D01*
X121162982Y-90947900D01*
X121230021Y-90967585D01*
X121275776Y-91020389D01*
X121286096Y-91057113D01*
X121288918Y-91080608D01*
X121291722Y-91103961D01*
X121347239Y-91244743D01*
X121438677Y-91365322D01*
X121559256Y-91456760D01*
X121559257Y-91456760D01*
X121559258Y-91456761D01*
X121700036Y-91512277D01*
X121788498Y-91522900D01*
X122177148Y-91522900D01*
X122244187Y-91542585D01*
X122289942Y-91595389D01*
X122299886Y-91664547D01*
X122270861Y-91728103D01*
X122264829Y-91734581D01*
X122154429Y-91844981D01*
X122093106Y-91878466D01*
X122066748Y-91881300D01*
X121168500Y-91881300D01*
X121101461Y-91861615D01*
X121055706Y-91808811D01*
X121044500Y-91757300D01*
X121044500Y-91324980D01*
X121034117Y-91238525D01*
X121034115Y-91238517D01*
X120983516Y-91110207D01*
X120977234Y-91040620D01*
X121009571Y-90978684D01*
X121070260Y-90944063D01*
X121123061Y-90943100D01*
X121147193Y-90947900D01*
G37*
%TD.AperFunction*%
%TA.AperFunction,NonConductor*%
G36*
X135139546Y-92796385D02*
G01*
X135185301Y-92849189D01*
X135195682Y-92886417D01*
X135196815Y-92896192D01*
X135242193Y-92998964D01*
X135242194Y-92998965D01*
X135321635Y-93078406D01*
X135424409Y-93123785D01*
X135449535Y-93126700D01*
X135533512Y-93126699D01*
X135600548Y-93146383D01*
X135646304Y-93199186D01*
X135656248Y-93268345D01*
X135627224Y-93331901D01*
X135612175Y-93346552D01*
X135476280Y-93458078D01*
X135457992Y-93480364D01*
X135400247Y-93519699D01*
X135362138Y-93525700D01*
X134459184Y-93525700D01*
X134392145Y-93506015D01*
X134346390Y-93453211D01*
X134343839Y-93447214D01*
X134340262Y-93438142D01*
X134340260Y-93438139D01*
X134250900Y-93320299D01*
X134152386Y-93245595D01*
X134145803Y-93240602D01*
X134104281Y-93184412D01*
X134099729Y-93114691D01*
X134133593Y-93053577D01*
X134145799Y-93042999D01*
X134250900Y-92963300D01*
X134340262Y-92845458D01*
X134340263Y-92845455D01*
X134343375Y-92839922D01*
X134393392Y-92791136D01*
X134451459Y-92776700D01*
X135072507Y-92776700D01*
X135139546Y-92796385D01*
G37*
%TD.AperFunction*%
%TA.AperFunction,NonConductor*%
G36*
X121879387Y-93151985D02*
G01*
X121925142Y-93204789D01*
X121935086Y-93273947D01*
X121906061Y-93337503D01*
X121900029Y-93343981D01*
X121748029Y-93495981D01*
X121686706Y-93529466D01*
X121660348Y-93532300D01*
X121415300Y-93532300D01*
X121348261Y-93512615D01*
X121302506Y-93459811D01*
X121291300Y-93408300D01*
X121291300Y-93298653D01*
X121310985Y-93231614D01*
X121327620Y-93210971D01*
X121369974Y-93168618D01*
X121431297Y-93135133D01*
X121457654Y-93132300D01*
X121812348Y-93132300D01*
X121879387Y-93151985D01*
G37*
%TD.AperFunction*%
%TA.AperFunction,NonConductor*%
G36*
X119607753Y-92286185D02*
G01*
X119639517Y-92315574D01*
X119647498Y-92326099D01*
X119763891Y-92414362D01*
X119765342Y-92415462D01*
X119902923Y-92469717D01*
X119955025Y-92475974D01*
X119989381Y-92480100D01*
X119989382Y-92480100D01*
X120021030Y-92480100D01*
X120088069Y-92499785D01*
X120133824Y-92552589D01*
X120143768Y-92621747D01*
X120124133Y-92672990D01*
X120111485Y-92691918D01*
X120081150Y-92765157D01*
X120068215Y-92796385D01*
X120064338Y-92805745D01*
X120064335Y-92805753D01*
X120040300Y-92926589D01*
X120040300Y-93408300D01*
X120020615Y-93475339D01*
X119967811Y-93521094D01*
X119916300Y-93532300D01*
X118597524Y-93532300D01*
X118566250Y-93535232D01*
X118566248Y-93535233D01*
X118463850Y-93571064D01*
X118394071Y-93574626D01*
X118333444Y-93539898D01*
X118308789Y-93497799D01*
X118307394Y-93498377D01*
X118299933Y-93480364D01*
X118257912Y-93378915D01*
X118189458Y-93276467D01*
X118189455Y-93276463D01*
X118180572Y-93267580D01*
X118147087Y-93206257D01*
X118152071Y-93136565D01*
X118180571Y-93092219D01*
X118210858Y-93061933D01*
X118210859Y-93061931D01*
X118214857Y-93057933D01*
X118224838Y-93042996D01*
X118283312Y-92955485D01*
X118330463Y-92841651D01*
X118354500Y-92720807D01*
X118354500Y-92603000D01*
X118374185Y-92535961D01*
X118426989Y-92490206D01*
X118478500Y-92479000D01*
X118719819Y-92479000D01*
X118745015Y-92475974D01*
X118806277Y-92468617D01*
X118943858Y-92414362D01*
X119061700Y-92325000D01*
X119061701Y-92324999D01*
X119068849Y-92315574D01*
X119125042Y-92274051D01*
X119167652Y-92266500D01*
X119540714Y-92266500D01*
X119607753Y-92286185D01*
G37*
%TD.AperFunction*%
%TA.AperFunction,NonConductor*%
G36*
X123908339Y-93964785D02*
G01*
X123954094Y-94017589D01*
X123965300Y-94069100D01*
X123965300Y-94446086D01*
X123945615Y-94513125D01*
X123940104Y-94521011D01*
X123913483Y-94556116D01*
X123857290Y-94597640D01*
X123787569Y-94602191D01*
X123745788Y-94584293D01*
X123699687Y-94553489D01*
X123699686Y-94553488D01*
X123699683Y-94553486D01*
X123699680Y-94553485D01*
X123612362Y-94517318D01*
X123585852Y-94506337D01*
X123585844Y-94506335D01*
X123468581Y-94483010D01*
X123468581Y-94483009D01*
X123468575Y-94483009D01*
X123465011Y-94482300D01*
X123465007Y-94482300D01*
X123465006Y-94482300D01*
X123175300Y-94482300D01*
X123108261Y-94462615D01*
X123062506Y-94409811D01*
X123051300Y-94358300D01*
X123051300Y-94069100D01*
X123070985Y-94002061D01*
X123123789Y-93956306D01*
X123175300Y-93945100D01*
X123841300Y-93945100D01*
X123908339Y-93964785D01*
G37*
%TD.AperFunction*%
%TA.AperFunction,NonConductor*%
G36*
X130809987Y-90967585D02*
G01*
X130841751Y-90996974D01*
X130848898Y-91006399D01*
X130953995Y-91086096D01*
X130995518Y-91142288D01*
X131000070Y-91212009D01*
X130966205Y-91273124D01*
X130953995Y-91283704D01*
X130848899Y-91363399D01*
X130759539Y-91481239D01*
X130705282Y-91618824D01*
X130705282Y-91618825D01*
X130694900Y-91705281D01*
X130694900Y-92389518D01*
X130705282Y-92475974D01*
X130705282Y-92475975D01*
X130705283Y-92475977D01*
X130755374Y-92603000D01*
X130759539Y-92613560D01*
X130819704Y-92692899D01*
X130844527Y-92758210D01*
X130844900Y-92767824D01*
X130844900Y-95803148D01*
X130825215Y-95870187D01*
X130808581Y-95890829D01*
X130219828Y-96479582D01*
X130158505Y-96513067D01*
X130132147Y-96515901D01*
X127159993Y-96515901D01*
X127092954Y-96496216D01*
X127047199Y-96443412D01*
X127037255Y-96374254D01*
X127038376Y-96367710D01*
X127041299Y-96353011D01*
X127041300Y-96353008D01*
X127041300Y-96229793D01*
X127040703Y-96223731D01*
X127040944Y-96223707D01*
X127039400Y-96208028D01*
X127039400Y-95797408D01*
X127059085Y-95730369D01*
X127064596Y-95722483D01*
X127098851Y-95677311D01*
X127137262Y-95626658D01*
X127191517Y-95489077D01*
X127201900Y-95402618D01*
X127201900Y-94843382D01*
X127191517Y-94756923D01*
X127137262Y-94619342D01*
X127124256Y-94602191D01*
X127047900Y-94501499D01*
X126930060Y-94412139D01*
X126930058Y-94412138D01*
X126792477Y-94357883D01*
X126786078Y-94357114D01*
X126721867Y-94329578D01*
X126682735Y-94271696D01*
X126681108Y-94201845D01*
X126717503Y-94142203D01*
X126780366Y-94111706D01*
X126786040Y-94110889D01*
X126792477Y-94110117D01*
X126930058Y-94055862D01*
X127037501Y-93974386D01*
X127042895Y-93970296D01*
X127108207Y-93945473D01*
X127117820Y-93945100D01*
X127595007Y-93945100D01*
X127655429Y-93933081D01*
X127715852Y-93921063D01*
X127715855Y-93921061D01*
X127715858Y-93921061D01*
X127749187Y-93907254D01*
X127749186Y-93907254D01*
X127749192Y-93907252D01*
X127829686Y-93873912D01*
X127892467Y-93831962D01*
X127932133Y-93805458D01*
X128019258Y-93718333D01*
X128019259Y-93718330D01*
X128026325Y-93711265D01*
X128026328Y-93711261D01*
X128730329Y-93007260D01*
X128730333Y-93007258D01*
X128817458Y-92920133D01*
X128885911Y-92817686D01*
X128933063Y-92703852D01*
X128957100Y-92583006D01*
X128957100Y-91646900D01*
X128976785Y-91579861D01*
X129029589Y-91534106D01*
X129081100Y-91522900D01*
X129874697Y-91522900D01*
X129874702Y-91522900D01*
X129963164Y-91512277D01*
X130103942Y-91456761D01*
X130224522Y-91365322D01*
X130315961Y-91244742D01*
X130371477Y-91103964D01*
X130377102Y-91057114D01*
X130404639Y-90992903D01*
X130462521Y-90953769D01*
X130500218Y-90947900D01*
X130742948Y-90947900D01*
X130809987Y-90967585D01*
G37*
%TD.AperFunction*%
M02*
