%TF.GenerationSoftware,KiCad,Pcbnew,8.0.8*%
%TF.CreationDate,2025-02-05T16:41:29+08:00*%
%TF.ProjectId,5V24VBoostUp(USBC),35563234-5642-46f6-9f73-745570285553,rev?*%
%TF.SameCoordinates,Original*%
%TF.FileFunction,Legend,Top*%
%TF.FilePolarity,Positive*%
%FSLAX46Y46*%
G04 Gerber Fmt 4.6, Leading zero omitted, Abs format (unit mm)*
G04 Created by KiCad (PCBNEW 8.0.8) date 2025-02-05 16:41:29*
%MOMM*%
%LPD*%
G01*
G04 APERTURE LIST*
%ADD10C,0.100000*%
%ADD11C,0.150000*%
%ADD12C,0.120000*%
G04 APERTURE END LIST*
D10*
X127381000Y-88290400D02*
X128244600Y-87909400D01*
X127381000Y-87477600D02*
X127381000Y-88290400D01*
X137080625Y-89547700D02*
X137080625Y-90487500D01*
X136652000Y-90017600D02*
X137509250Y-90017600D01*
X128244600Y-87452200D02*
X128244600Y-87909400D01*
X128244600Y-88315800D02*
X128244600Y-87909400D01*
X128244600Y-87909400D02*
X127381000Y-87477600D01*
X127381000Y-87884000D02*
X126923800Y-87884000D01*
X128244600Y-87909400D02*
X128600200Y-87909400D01*
D11*
X119888095Y-97194019D02*
X119888095Y-98003542D01*
X119888095Y-98003542D02*
X119935714Y-98098780D01*
X119935714Y-98098780D02*
X119983333Y-98146400D01*
X119983333Y-98146400D02*
X120078571Y-98194019D01*
X120078571Y-98194019D02*
X120269047Y-98194019D01*
X120269047Y-98194019D02*
X120364285Y-98146400D01*
X120364285Y-98146400D02*
X120411904Y-98098780D01*
X120411904Y-98098780D02*
X120459523Y-98003542D01*
X120459523Y-98003542D02*
X120459523Y-97194019D01*
X121459523Y-98194019D02*
X120888095Y-98194019D01*
X121173809Y-98194019D02*
X121173809Y-97194019D01*
X121173809Y-97194019D02*
X121078571Y-97336876D01*
X121078571Y-97336876D02*
X120983333Y-97432114D01*
X120983333Y-97432114D02*
X120888095Y-97479733D01*
X128027133Y-93825219D02*
X127693800Y-93349028D01*
X127455705Y-93825219D02*
X127455705Y-92825219D01*
X127455705Y-92825219D02*
X127836657Y-92825219D01*
X127836657Y-92825219D02*
X127931895Y-92872838D01*
X127931895Y-92872838D02*
X127979514Y-92920457D01*
X127979514Y-92920457D02*
X128027133Y-93015695D01*
X128027133Y-93015695D02*
X128027133Y-93158552D01*
X128027133Y-93158552D02*
X127979514Y-93253790D01*
X127979514Y-93253790D02*
X127931895Y-93301409D01*
X127931895Y-93301409D02*
X127836657Y-93349028D01*
X127836657Y-93349028D02*
X127455705Y-93349028D01*
X128979514Y-93825219D02*
X128408086Y-93825219D01*
X128693800Y-93825219D02*
X128693800Y-92825219D01*
X128693800Y-92825219D02*
X128598562Y-92968076D01*
X128598562Y-92968076D02*
X128503324Y-93063314D01*
X128503324Y-93063314D02*
X128408086Y-93110933D01*
X131252933Y-89131480D02*
X131205314Y-89179100D01*
X131205314Y-89179100D02*
X131062457Y-89226719D01*
X131062457Y-89226719D02*
X130967219Y-89226719D01*
X130967219Y-89226719D02*
X130824362Y-89179100D01*
X130824362Y-89179100D02*
X130729124Y-89083861D01*
X130729124Y-89083861D02*
X130681505Y-88988623D01*
X130681505Y-88988623D02*
X130633886Y-88798147D01*
X130633886Y-88798147D02*
X130633886Y-88655290D01*
X130633886Y-88655290D02*
X130681505Y-88464814D01*
X130681505Y-88464814D02*
X130729124Y-88369576D01*
X130729124Y-88369576D02*
X130824362Y-88274338D01*
X130824362Y-88274338D02*
X130967219Y-88226719D01*
X130967219Y-88226719D02*
X131062457Y-88226719D01*
X131062457Y-88226719D02*
X131205314Y-88274338D01*
X131205314Y-88274338D02*
X131252933Y-88321957D01*
X131633886Y-88321957D02*
X131681505Y-88274338D01*
X131681505Y-88274338D02*
X131776743Y-88226719D01*
X131776743Y-88226719D02*
X132014838Y-88226719D01*
X132014838Y-88226719D02*
X132110076Y-88274338D01*
X132110076Y-88274338D02*
X132157695Y-88321957D01*
X132157695Y-88321957D02*
X132205314Y-88417195D01*
X132205314Y-88417195D02*
X132205314Y-88512433D01*
X132205314Y-88512433D02*
X132157695Y-88655290D01*
X132157695Y-88655290D02*
X131586267Y-89226719D01*
X131586267Y-89226719D02*
X132205314Y-89226719D01*
X112352819Y-93496533D02*
X113067104Y-93496533D01*
X113067104Y-93496533D02*
X113209961Y-93544152D01*
X113209961Y-93544152D02*
X113305200Y-93639390D01*
X113305200Y-93639390D02*
X113352819Y-93782247D01*
X113352819Y-93782247D02*
X113352819Y-93877485D01*
X112352819Y-93115580D02*
X112352819Y-92496533D01*
X112352819Y-92496533D02*
X112733771Y-92829866D01*
X112733771Y-92829866D02*
X112733771Y-92687009D01*
X112733771Y-92687009D02*
X112781390Y-92591771D01*
X112781390Y-92591771D02*
X112829009Y-92544152D01*
X112829009Y-92544152D02*
X112924247Y-92496533D01*
X112924247Y-92496533D02*
X113162342Y-92496533D01*
X113162342Y-92496533D02*
X113257580Y-92544152D01*
X113257580Y-92544152D02*
X113305200Y-92591771D01*
X113305200Y-92591771D02*
X113352819Y-92687009D01*
X113352819Y-92687009D02*
X113352819Y-92972723D01*
X113352819Y-92972723D02*
X113305200Y-93067961D01*
X113305200Y-93067961D02*
X113257580Y-93115580D01*
X135277266Y-89497819D02*
X135277266Y-90212104D01*
X135277266Y-90212104D02*
X135229647Y-90354961D01*
X135229647Y-90354961D02*
X135134409Y-90450200D01*
X135134409Y-90450200D02*
X134991552Y-90497819D01*
X134991552Y-90497819D02*
X134896314Y-90497819D01*
X135705838Y-89593057D02*
X135753457Y-89545438D01*
X135753457Y-89545438D02*
X135848695Y-89497819D01*
X135848695Y-89497819D02*
X136086790Y-89497819D01*
X136086790Y-89497819D02*
X136182028Y-89545438D01*
X136182028Y-89545438D02*
X136229647Y-89593057D01*
X136229647Y-89593057D02*
X136277266Y-89688295D01*
X136277266Y-89688295D02*
X136277266Y-89783533D01*
X136277266Y-89783533D02*
X136229647Y-89926390D01*
X136229647Y-89926390D02*
X135658219Y-90497819D01*
X135658219Y-90497819D02*
X136277266Y-90497819D01*
X133411933Y-91088380D02*
X133364314Y-91136000D01*
X133364314Y-91136000D02*
X133221457Y-91183619D01*
X133221457Y-91183619D02*
X133126219Y-91183619D01*
X133126219Y-91183619D02*
X132983362Y-91136000D01*
X132983362Y-91136000D02*
X132888124Y-91040761D01*
X132888124Y-91040761D02*
X132840505Y-90945523D01*
X132840505Y-90945523D02*
X132792886Y-90755047D01*
X132792886Y-90755047D02*
X132792886Y-90612190D01*
X132792886Y-90612190D02*
X132840505Y-90421714D01*
X132840505Y-90421714D02*
X132888124Y-90326476D01*
X132888124Y-90326476D02*
X132983362Y-90231238D01*
X132983362Y-90231238D02*
X133126219Y-90183619D01*
X133126219Y-90183619D02*
X133221457Y-90183619D01*
X133221457Y-90183619D02*
X133364314Y-90231238D01*
X133364314Y-90231238D02*
X133411933Y-90278857D01*
X133745267Y-90183619D02*
X134364314Y-90183619D01*
X134364314Y-90183619D02*
X134030981Y-90564571D01*
X134030981Y-90564571D02*
X134173838Y-90564571D01*
X134173838Y-90564571D02*
X134269076Y-90612190D01*
X134269076Y-90612190D02*
X134316695Y-90659809D01*
X134316695Y-90659809D02*
X134364314Y-90755047D01*
X134364314Y-90755047D02*
X134364314Y-90993142D01*
X134364314Y-90993142D02*
X134316695Y-91088380D01*
X134316695Y-91088380D02*
X134269076Y-91136000D01*
X134269076Y-91136000D02*
X134173838Y-91183619D01*
X134173838Y-91183619D02*
X133888124Y-91183619D01*
X133888124Y-91183619D02*
X133792886Y-91136000D01*
X133792886Y-91136000D02*
X133745267Y-91088380D01*
X118273533Y-88802380D02*
X118225914Y-88850000D01*
X118225914Y-88850000D02*
X118083057Y-88897619D01*
X118083057Y-88897619D02*
X117987819Y-88897619D01*
X117987819Y-88897619D02*
X117844962Y-88850000D01*
X117844962Y-88850000D02*
X117749724Y-88754761D01*
X117749724Y-88754761D02*
X117702105Y-88659523D01*
X117702105Y-88659523D02*
X117654486Y-88469047D01*
X117654486Y-88469047D02*
X117654486Y-88326190D01*
X117654486Y-88326190D02*
X117702105Y-88135714D01*
X117702105Y-88135714D02*
X117749724Y-88040476D01*
X117749724Y-88040476D02*
X117844962Y-87945238D01*
X117844962Y-87945238D02*
X117987819Y-87897619D01*
X117987819Y-87897619D02*
X118083057Y-87897619D01*
X118083057Y-87897619D02*
X118225914Y-87945238D01*
X118225914Y-87945238D02*
X118273533Y-87992857D01*
X119225914Y-88897619D02*
X118654486Y-88897619D01*
X118940200Y-88897619D02*
X118940200Y-87897619D01*
X118940200Y-87897619D02*
X118844962Y-88040476D01*
X118844962Y-88040476D02*
X118749724Y-88135714D01*
X118749724Y-88135714D02*
X118654486Y-88183333D01*
X125093505Y-88415019D02*
X125093505Y-87415019D01*
X125093505Y-87415019D02*
X125331600Y-87415019D01*
X125331600Y-87415019D02*
X125474457Y-87462638D01*
X125474457Y-87462638D02*
X125569695Y-87557876D01*
X125569695Y-87557876D02*
X125617314Y-87653114D01*
X125617314Y-87653114D02*
X125664933Y-87843590D01*
X125664933Y-87843590D02*
X125664933Y-87986447D01*
X125664933Y-87986447D02*
X125617314Y-88176923D01*
X125617314Y-88176923D02*
X125569695Y-88272161D01*
X125569695Y-88272161D02*
X125474457Y-88367400D01*
X125474457Y-88367400D02*
X125331600Y-88415019D01*
X125331600Y-88415019D02*
X125093505Y-88415019D01*
X126617314Y-88415019D02*
X126045886Y-88415019D01*
X126331600Y-88415019D02*
X126331600Y-87415019D01*
X126331600Y-87415019D02*
X126236362Y-87557876D01*
X126236362Y-87557876D02*
X126141124Y-87653114D01*
X126141124Y-87653114D02*
X126045886Y-87700733D01*
X120153133Y-88923019D02*
X119676943Y-88923019D01*
X119676943Y-88923019D02*
X119676943Y-87923019D01*
X121010276Y-88923019D02*
X120438848Y-88923019D01*
X120724562Y-88923019D02*
X120724562Y-87923019D01*
X120724562Y-87923019D02*
X120629324Y-88065876D01*
X120629324Y-88065876D02*
X120534086Y-88161114D01*
X120534086Y-88161114D02*
X120438848Y-88208733D01*
X128077933Y-95577819D02*
X127744600Y-95101628D01*
X127506505Y-95577819D02*
X127506505Y-94577819D01*
X127506505Y-94577819D02*
X127887457Y-94577819D01*
X127887457Y-94577819D02*
X127982695Y-94625438D01*
X127982695Y-94625438D02*
X128030314Y-94673057D01*
X128030314Y-94673057D02*
X128077933Y-94768295D01*
X128077933Y-94768295D02*
X128077933Y-94911152D01*
X128077933Y-94911152D02*
X128030314Y-95006390D01*
X128030314Y-95006390D02*
X127982695Y-95054009D01*
X127982695Y-95054009D02*
X127887457Y-95101628D01*
X127887457Y-95101628D02*
X127506505Y-95101628D01*
X128458886Y-94673057D02*
X128506505Y-94625438D01*
X128506505Y-94625438D02*
X128601743Y-94577819D01*
X128601743Y-94577819D02*
X128839838Y-94577819D01*
X128839838Y-94577819D02*
X128935076Y-94625438D01*
X128935076Y-94625438D02*
X128982695Y-94673057D01*
X128982695Y-94673057D02*
X129030314Y-94768295D01*
X129030314Y-94768295D02*
X129030314Y-94863533D01*
X129030314Y-94863533D02*
X128982695Y-95006390D01*
X128982695Y-95006390D02*
X128411267Y-95577819D01*
X128411267Y-95577819D02*
X129030314Y-95577819D01*
D12*
%TO.C,U1*%
X120520800Y-96717800D02*
X119720800Y-96717800D01*
X120520800Y-96717800D02*
X121320800Y-96717800D01*
X121520800Y-93497800D02*
X119720800Y-93497800D01*
X122060800Y-96997800D02*
X121580800Y-96997800D01*
X121820800Y-96667800D01*
X122060800Y-96997800D01*
G36*
X122060800Y-96997800D02*
G01*
X121580800Y-96997800D01*
X121820800Y-96667800D01*
X122060800Y-96997800D01*
G37*
%TO.C,R1*%
X125246676Y-92822500D02*
X125756124Y-92822500D01*
X125246676Y-93867500D02*
X125756124Y-93867500D01*
%TO.C,C2*%
X130960400Y-91038633D02*
X130960400Y-91331167D01*
X131980400Y-91038633D02*
X131980400Y-91331167D01*
%TO.C,J3*%
X109388000Y-88583200D02*
X109388000Y-97743200D01*
X110898000Y-88583200D02*
X109388000Y-88583200D01*
X110898000Y-97743200D02*
X109388000Y-97743200D01*
X114798000Y-88583200D02*
X112798000Y-88583200D01*
X114798000Y-97743200D02*
X112798000Y-97743200D01*
%TO.C,J2*%
X135109400Y-91091200D02*
X136169400Y-91091200D01*
X135109400Y-92151200D02*
X135109400Y-91091200D01*
X135109400Y-93151200D02*
X135109400Y-95211200D01*
X135109400Y-93151200D02*
X137229400Y-93151200D01*
X135109400Y-95211200D02*
X137229400Y-95211200D01*
X137229400Y-93151200D02*
X137229400Y-95211200D01*
%TO.C,C3*%
X133119400Y-92995533D02*
X133119400Y-93288067D01*
X134139400Y-92995533D02*
X134139400Y-93288067D01*
%TO.C,C1*%
X117930200Y-90924767D02*
X117930200Y-90632233D01*
X118950200Y-90924767D02*
X118950200Y-90632233D01*
%TO.C,D1*%
X130341600Y-88672400D02*
X123331600Y-88672400D01*
X130341600Y-91972400D02*
X123331600Y-91972400D01*
X130341600Y-91972400D02*
X130341600Y-88672400D01*
%TO.C,L1*%
X119759000Y-90950867D02*
X119759000Y-90608333D01*
X120779000Y-90950867D02*
X120779000Y-90608333D01*
%TO.C,R2*%
X125756124Y-94600500D02*
X125246676Y-94600500D01*
X125756124Y-95645500D02*
X125246676Y-95645500D01*
%TD*%
M02*
