%TF.GenerationSoftware,KiCad,Pcbnew,8.0.8*%
%TF.CreationDate,2025-02-05T16:43:23+08:00*%
%TF.ProjectId,5V24VBoostUp(USBC),35563234-5642-46f6-9f73-745570285553,rev?*%
%TF.SameCoordinates,Original*%
%TF.FileFunction,Copper,L1,Top*%
%TF.FilePolarity,Positive*%
%FSLAX46Y46*%
G04 Gerber Fmt 4.6, Leading zero omitted, Abs format (unit mm)*
G04 Created by KiCad (PCBNEW 8.0.8) date 2025-02-05 16:43:23*
%MOMM*%
%LPD*%
G01*
G04 APERTURE LIST*
G04 Aperture macros list*
%AMRoundRect*
0 Rectangle with rounded corners*
0 $1 Rounding radius*
0 $2 $3 $4 $5 $6 $7 $8 $9 X,Y pos of 4 corners*
0 Add a 4 corners polygon primitive as box body*
4,1,4,$2,$3,$4,$5,$6,$7,$8,$9,$2,$3,0*
0 Add four circle primitives for the rounded corners*
1,1,$1+$1,$2,$3*
1,1,$1+$1,$4,$5*
1,1,$1+$1,$6,$7*
1,1,$1+$1,$8,$9*
0 Add four rect primitives between the rounded corners*
20,1,$1+$1,$2,$3,$4,$5,0*
20,1,$1+$1,$4,$5,$6,$7,0*
20,1,$1+$1,$6,$7,$8,$9,0*
20,1,$1+$1,$8,$9,$2,$3,0*%
G04 Aperture macros list end*
%TA.AperFunction,ComponentPad*%
%ADD10C,1.440000*%
%TD*%
%TA.AperFunction,SMDPad,CuDef*%
%ADD11RoundRect,0.162500X0.617500X0.162500X-0.617500X0.162500X-0.617500X-0.162500X0.617500X-0.162500X0*%
%TD*%
%TA.AperFunction,SMDPad,CuDef*%
%ADD12RoundRect,0.237500X-0.237500X0.300000X-0.237500X-0.300000X0.237500X-0.300000X0.237500X0.300000X0*%
%TD*%
%TA.AperFunction,SMDPad,CuDef*%
%ADD13RoundRect,0.175000X-0.625000X0.175000X-0.625000X-0.175000X0.625000X-0.175000X0.625000X0.175000X0*%
%TD*%
%TA.AperFunction,SMDPad,CuDef*%
%ADD14RoundRect,0.200000X-0.600000X0.200000X-0.600000X-0.200000X0.600000X-0.200000X0.600000X0.200000X0*%
%TD*%
%TA.AperFunction,SMDPad,CuDef*%
%ADD15RoundRect,0.225000X-0.575000X0.225000X-0.575000X-0.225000X0.575000X-0.225000X0.575000X0.225000X0*%
%TD*%
%TA.AperFunction,HeatsinkPad*%
%ADD16O,1.700000X1.000000*%
%TD*%
%TA.AperFunction,ComponentPad*%
%ADD17R,1.350000X1.350000*%
%TD*%
%TA.AperFunction,ComponentPad*%
%ADD18O,1.350000X1.350000*%
%TD*%
%TA.AperFunction,SMDPad,CuDef*%
%ADD19RoundRect,0.237500X0.237500X-0.300000X0.237500X0.300000X-0.237500X0.300000X-0.237500X-0.300000X0*%
%TD*%
%TA.AperFunction,SMDPad,CuDef*%
%ADD20RoundRect,0.250000X1.500000X0.650000X-1.500000X0.650000X-1.500000X-0.650000X1.500000X-0.650000X0*%
%TD*%
%TA.AperFunction,SMDPad,CuDef*%
%ADD21RoundRect,0.237500X0.237500X-0.287500X0.237500X0.287500X-0.237500X0.287500X-0.237500X-0.287500X0*%
%TD*%
%TA.AperFunction,SMDPad,CuDef*%
%ADD22RoundRect,0.237500X0.250000X0.237500X-0.250000X0.237500X-0.250000X-0.237500X0.250000X-0.237500X0*%
%TD*%
%TA.AperFunction,ViaPad*%
%ADD23C,0.600000*%
%TD*%
%TA.AperFunction,Conductor*%
%ADD24C,0.650000*%
%TD*%
G04 APERTURE END LIST*
D10*
%TO.P,R1,1*%
%TO.N,Net-(D1-K)*%
X126390400Y-96240600D03*
%TO.P,R1,2*%
%TO.N,Net-(U1-FB)*%
X128930400Y-96240600D03*
%TO.P,R1,3*%
%TO.N,N/C*%
X131470400Y-96240600D03*
%TD*%
D11*
%TO.P,U1,1,SW*%
%TO.N,Net-(D1-A)*%
X121970800Y-96057800D03*
%TO.P,U1,2,GND*%
%TO.N,GND*%
X121970800Y-95107800D03*
%TO.P,U1,3,FB*%
%TO.N,Net-(U1-FB)*%
X121970800Y-94157800D03*
%TO.P,U1,4,EN*%
%TO.N,Net-(U1-EN)*%
X119270800Y-94157800D03*
%TO.P,U1,5,IN*%
X119270800Y-95107800D03*
%TO.P,U1,6,NC*%
%TO.N,unconnected-(U1-NC-Pad6)*%
X119270800Y-96057800D03*
%TD*%
D12*
%TO.P,C2,1*%
%TO.N,Net-(D1-K)*%
X131470400Y-90322400D03*
%TO.P,C2,2*%
%TO.N,Net-(U1-FB)*%
X131470400Y-92047400D03*
%TD*%
D13*
%TO.P,J3,A5,CC1*%
%TO.N,Net-(J3-CC1)*%
X116078000Y-92663200D03*
D14*
%TO.P,J3,A9,VBUS*%
%TO.N,Net-(U1-EN)*%
X116078000Y-94683200D03*
D15*
%TO.P,J3,A12,GND*%
%TO.N,GND*%
X116078000Y-95913200D03*
D13*
%TO.P,J3,B5,CC2*%
%TO.N,Net-(J3-CC2)*%
X116078000Y-93663200D03*
D14*
%TO.P,J3,B9,VBUS*%
%TO.N,Net-(U1-EN)*%
X116078000Y-91643200D03*
D15*
%TO.P,J3,B12,GND*%
%TO.N,GND*%
X116078000Y-90413200D03*
D16*
%TO.P,J3,S1,SHIELD*%
X115898000Y-88843200D03*
X112098000Y-88843200D03*
X115898000Y-97483200D03*
X112098000Y-97483200D03*
%TD*%
D17*
%TO.P,J2,1,Pin_1*%
%TO.N,Net-(D1-K)*%
X136321800Y-90195400D03*
D18*
%TO.P,J2,2,Pin_2*%
%TO.N,GND*%
X136321800Y-92195400D03*
%TD*%
D12*
%TO.P,C3,1*%
%TO.N,Net-(D1-K)*%
X133781800Y-90323500D03*
%TO.P,C3,2*%
%TO.N,GND*%
X133781800Y-92048500D03*
%TD*%
D19*
%TO.P,C1,1*%
%TO.N,Net-(U1-EN)*%
X118440200Y-91641000D03*
%TO.P,C1,2*%
%TO.N,GND*%
X118440200Y-89916000D03*
%TD*%
D20*
%TO.P,D1,1,K*%
%TO.N,Net-(D1-K)*%
X128331600Y-90322400D03*
%TO.P,D1,2,A*%
%TO.N,Net-(D1-A)*%
X123331600Y-90322400D03*
%TD*%
D21*
%TO.P,L1,1,1*%
%TO.N,Net-(U1-EN)*%
X120269000Y-91654600D03*
%TO.P,L1,2,2*%
%TO.N,Net-(D1-A)*%
X120269000Y-89904600D03*
%TD*%
D22*
%TO.P,R2,1*%
%TO.N,GND*%
X136700900Y-94945200D03*
%TO.P,R2,2*%
%TO.N,Net-(U1-FB)*%
X134875900Y-94945200D03*
%TD*%
D23*
%TO.N,GND*%
X123418600Y-95123000D03*
X117729000Y-95957801D03*
X117322600Y-89966800D03*
%TO.N,Net-(J3-CC1)*%
X117729000Y-92659200D03*
%TO.N,Net-(J3-CC2)*%
X117703600Y-93675200D03*
%TD*%
D24*
%TO.N,Net-(U1-EN)*%
X114753000Y-92028400D02*
X115138200Y-91643200D01*
X116078000Y-94683200D02*
X115278000Y-94683200D01*
X117441600Y-94683200D02*
X116078000Y-94683200D01*
X114753000Y-94158200D02*
X114753000Y-92028400D01*
X118440200Y-91641000D02*
X120255400Y-91641000D01*
X118438000Y-91643200D02*
X118440200Y-91641000D01*
X119270800Y-95107800D02*
X117866200Y-95107800D01*
X119270800Y-94157800D02*
X119270800Y-95107800D01*
X117866200Y-95107800D02*
X117441600Y-94683200D01*
X115278000Y-94683200D02*
X114753000Y-94158200D01*
X115138200Y-91643200D02*
X116078000Y-91643200D01*
X116078000Y-91643200D02*
X118438000Y-91643200D01*
X120255400Y-91641000D02*
X120269000Y-91654600D01*
%TO.N,GND*%
X136174900Y-92048500D02*
X136321800Y-92195400D01*
X113902999Y-91676319D02*
X115166118Y-90413200D01*
X116078000Y-95913200D02*
X115278000Y-95913200D01*
X116876200Y-90413200D02*
X117322600Y-89966800D01*
X133781800Y-92048500D02*
X136174900Y-92048500D01*
X115166118Y-90413200D02*
X116078000Y-90413200D01*
X121970800Y-95107800D02*
X123403400Y-95107800D01*
X113902999Y-94538199D02*
X113902999Y-91676319D01*
X115278000Y-95913200D02*
X113902999Y-94538199D01*
X117322600Y-89966800D02*
X118389400Y-89966800D01*
X136700900Y-94945200D02*
X136700900Y-93952700D01*
X136321800Y-93573600D02*
X136321800Y-92195400D01*
X136700900Y-93952700D02*
X136321800Y-93573600D01*
X123403400Y-95107800D02*
X123418600Y-95123000D01*
X118389400Y-89966800D02*
X118440200Y-89916000D01*
X116122601Y-95957801D02*
X117729000Y-95957801D01*
X116078000Y-90413200D02*
X116876200Y-90413200D01*
X116078000Y-95913200D02*
X116122601Y-95957801D01*
%TO.N,Net-(D1-K)*%
X126390400Y-94284800D02*
X128331600Y-92343600D01*
X131470400Y-90322400D02*
X132791200Y-90322400D01*
X128331600Y-92343600D02*
X128331600Y-90322400D01*
X136193700Y-90323500D02*
X136321800Y-90195400D01*
X131470400Y-90322400D02*
X128331600Y-90322400D01*
X126390400Y-96240600D02*
X126390400Y-94284800D01*
X132792300Y-90323500D02*
X133781800Y-90323500D01*
X133781800Y-90323500D02*
X136193700Y-90323500D01*
X132791200Y-90322400D02*
X132792300Y-90323500D01*
%TO.N,Net-(U1-FB)*%
X129717800Y-93929200D02*
X130962400Y-93929200D01*
X128930400Y-97256600D02*
X128930400Y-96240600D01*
X132179400Y-92047400D02*
X132613400Y-92481400D01*
X124358400Y-94860718D02*
X124358400Y-96977200D01*
X131470400Y-93421200D02*
X131470400Y-92047400D01*
X128930400Y-96240600D02*
X128930400Y-94716600D01*
X128295400Y-97891600D02*
X128930400Y-97256600D01*
X132613400Y-92481400D02*
X132613400Y-94056200D01*
X128930400Y-94716600D02*
X129717800Y-93929200D01*
X132613400Y-94056200D02*
X133502400Y-94945200D01*
X124358400Y-96977200D02*
X125272800Y-97891600D01*
X131470400Y-92047400D02*
X132179400Y-92047400D01*
X125272800Y-97891600D02*
X128295400Y-97891600D01*
X123655482Y-94157800D02*
X124358400Y-94860718D01*
X133502400Y-94945200D02*
X134875900Y-94945200D01*
X121970800Y-94157800D02*
X123655482Y-94157800D01*
X130962400Y-93929200D02*
X131470400Y-93421200D01*
%TO.N,Net-(D1-A)*%
X123331600Y-91552400D02*
X123331600Y-90322400D01*
X121147200Y-92506800D02*
X122377200Y-92506800D01*
X121208800Y-90322400D02*
X123331600Y-90322400D01*
X120665800Y-92988200D02*
X121147200Y-92506800D01*
X121970800Y-96057800D02*
X121164026Y-96057800D01*
X120269000Y-89904600D02*
X120791000Y-89904600D01*
X120665800Y-95559574D02*
X120665800Y-92988200D01*
X121164026Y-96057800D02*
X120665800Y-95559574D01*
X120791000Y-89904600D02*
X121208800Y-90322400D01*
X122377200Y-92506800D02*
X123331600Y-91552400D01*
%TO.N,Net-(J3-CC1)*%
X116078000Y-92663200D02*
X117725000Y-92663200D01*
X117725000Y-92663200D02*
X117729000Y-92659200D01*
%TO.N,Net-(J3-CC2)*%
X117691600Y-93663200D02*
X117703600Y-93675200D01*
X116078000Y-93663200D02*
X117691600Y-93663200D01*
%TD*%
%TA.AperFunction,NonConductor*%
G36*
X137720139Y-87184985D02*
G01*
X137765894Y-87237789D01*
X137777100Y-87289300D01*
X137777100Y-98892700D01*
X137757415Y-98959739D01*
X137704611Y-99005494D01*
X137653100Y-99016700D01*
X111266900Y-99016700D01*
X111199861Y-98997015D01*
X111154106Y-98944211D01*
X111142900Y-98892700D01*
X111142900Y-98273626D01*
X111162585Y-98206587D01*
X111215389Y-98160832D01*
X111284547Y-98150888D01*
X111335792Y-98170525D01*
X111368812Y-98192589D01*
X111368827Y-98192597D01*
X111514498Y-98252935D01*
X111514503Y-98252937D01*
X111669153Y-98283699D01*
X111669156Y-98283700D01*
X111669158Y-98283700D01*
X112526844Y-98283700D01*
X112526845Y-98283699D01*
X112681497Y-98252937D01*
X112827179Y-98192594D01*
X112958289Y-98104989D01*
X113069789Y-97993489D01*
X113157394Y-97862379D01*
X113217737Y-97716697D01*
X113248500Y-97562042D01*
X113248500Y-97404358D01*
X113248500Y-97404355D01*
X113248499Y-97404353D01*
X113222468Y-97273488D01*
X113217737Y-97249703D01*
X113216342Y-97246334D01*
X113157397Y-97104027D01*
X113157390Y-97104014D01*
X113069789Y-96972911D01*
X113069786Y-96972907D01*
X112958292Y-96861413D01*
X112958288Y-96861410D01*
X112827185Y-96773809D01*
X112827172Y-96773802D01*
X112681501Y-96713464D01*
X112681489Y-96713461D01*
X112526845Y-96682700D01*
X112526842Y-96682700D01*
X111669158Y-96682700D01*
X111669155Y-96682700D01*
X111514510Y-96713461D01*
X111514498Y-96713464D01*
X111368827Y-96773802D01*
X111368816Y-96773808D01*
X111335790Y-96795876D01*
X111269113Y-96816753D01*
X111201733Y-96798268D01*
X111155043Y-96746289D01*
X111142900Y-96692773D01*
X111142900Y-91614707D01*
X113277499Y-91614707D01*
X113277499Y-91614713D01*
X113277499Y-94599805D01*
X113301536Y-94720651D01*
X113311542Y-94744807D01*
X113348687Y-94834485D01*
X113348688Y-94834487D01*
X113348689Y-94834488D01*
X113348690Y-94834491D01*
X113381499Y-94883590D01*
X113381500Y-94883594D01*
X113381501Y-94883594D01*
X113417137Y-94936927D01*
X113417143Y-94936935D01*
X113508585Y-95028377D01*
X113508607Y-95028397D01*
X114789016Y-96308806D01*
X114789045Y-96308837D01*
X114879264Y-96399056D01*
X114915176Y-96423052D01*
X114915177Y-96423052D01*
X114981714Y-96467512D01*
X115062207Y-96500852D01*
X115095548Y-96514663D01*
X115113914Y-96518316D01*
X115164646Y-96541128D01*
X115192295Y-96562094D01*
X115233820Y-96618285D01*
X115238373Y-96688006D01*
X115204509Y-96749121D01*
X115173527Y-96769695D01*
X115174191Y-96770936D01*
X115168814Y-96773809D01*
X115037711Y-96861410D01*
X115037707Y-96861413D01*
X114926213Y-96972907D01*
X114926210Y-96972911D01*
X114838609Y-97104014D01*
X114838602Y-97104027D01*
X114778264Y-97249698D01*
X114778261Y-97249710D01*
X114747500Y-97404353D01*
X114747500Y-97562046D01*
X114778261Y-97716689D01*
X114778264Y-97716701D01*
X114838602Y-97862372D01*
X114838609Y-97862385D01*
X114926210Y-97993488D01*
X114926213Y-97993492D01*
X115037707Y-98104986D01*
X115037711Y-98104989D01*
X115168814Y-98192590D01*
X115168827Y-98192597D01*
X115314498Y-98252935D01*
X115314503Y-98252937D01*
X115469153Y-98283699D01*
X115469156Y-98283700D01*
X115469158Y-98283700D01*
X116326844Y-98283700D01*
X116326845Y-98283699D01*
X116481497Y-98252937D01*
X116627179Y-98192594D01*
X116758289Y-98104989D01*
X116869789Y-97993489D01*
X116957394Y-97862379D01*
X117017737Y-97716697D01*
X117048500Y-97562042D01*
X117048500Y-97404358D01*
X117048500Y-97404355D01*
X117048499Y-97404353D01*
X117022468Y-97273488D01*
X117017737Y-97249703D01*
X117016342Y-97246334D01*
X116957397Y-97104027D01*
X116957390Y-97104014D01*
X116869789Y-96972911D01*
X116869786Y-96972907D01*
X116758292Y-96861413D01*
X116756877Y-96860252D01*
X116756334Y-96859455D01*
X116753982Y-96857103D01*
X116754427Y-96856657D01*
X116717540Y-96802508D01*
X116715666Y-96732664D01*
X116751850Y-96672893D01*
X116790043Y-96649042D01*
X116912975Y-96600564D01*
X116912982Y-96600557D01*
X116915371Y-96599216D01*
X116918409Y-96598420D01*
X116920865Y-96597452D01*
X116920981Y-96597746D01*
X116976147Y-96583301D01*
X117790607Y-96583301D01*
X117790608Y-96583300D01*
X117911452Y-96559264D01*
X118025286Y-96512112D01*
X118106341Y-96457952D01*
X118173017Y-96437075D01*
X118240397Y-96455559D01*
X118275001Y-96487421D01*
X118284915Y-96500854D01*
X118322210Y-96551388D01*
X118322212Y-96551390D01*
X118434505Y-96634265D01*
X118434507Y-96634266D01*
X118434511Y-96634269D01*
X118434514Y-96634270D01*
X118566249Y-96680367D01*
X118597524Y-96683300D01*
X118597528Y-96683300D01*
X119944076Y-96683300D01*
X119975349Y-96680367D01*
X119975351Y-96680367D01*
X120064876Y-96649040D01*
X120107089Y-96634269D01*
X120219389Y-96551389D01*
X120302269Y-96439089D01*
X120330007Y-96359819D01*
X120370728Y-96303043D01*
X120435681Y-96277296D01*
X120504243Y-96290752D01*
X120534729Y-96313093D01*
X120675042Y-96453406D01*
X120675071Y-96453437D01*
X120765290Y-96543656D01*
X120765293Y-96543658D01*
X120824623Y-96583301D01*
X120867741Y-96612112D01*
X120933459Y-96639333D01*
X120981574Y-96659263D01*
X121041997Y-96671281D01*
X121102419Y-96683300D01*
X122644076Y-96683300D01*
X122675349Y-96680367D01*
X122675351Y-96680367D01*
X122764876Y-96649040D01*
X122807089Y-96634269D01*
X122919389Y-96551389D01*
X123002269Y-96439089D01*
X123030012Y-96359804D01*
X123048367Y-96307351D01*
X123048367Y-96307349D01*
X123051300Y-96276076D01*
X123051300Y-95857300D01*
X123070985Y-95790261D01*
X123123789Y-95744506D01*
X123175300Y-95733300D01*
X123268365Y-95733300D01*
X123292555Y-95735682D01*
X123356991Y-95748499D01*
X123356992Y-95748500D01*
X123356993Y-95748500D01*
X123480208Y-95748500D01*
X123480208Y-95748499D01*
X123584710Y-95727713D01*
X123654300Y-95733940D01*
X123709477Y-95776803D01*
X123732722Y-95842692D01*
X123732900Y-95849330D01*
X123732900Y-97038806D01*
X123754059Y-97145185D01*
X123754060Y-97145188D01*
X123754059Y-97145188D01*
X123756935Y-97159646D01*
X123756936Y-97159650D01*
X123756937Y-97159651D01*
X123804088Y-97273486D01*
X123833969Y-97318204D01*
X123833970Y-97318207D01*
X123872538Y-97375928D01*
X123872544Y-97375936D01*
X123963986Y-97467378D01*
X123964008Y-97467398D01*
X124783816Y-98287206D01*
X124783845Y-98287237D01*
X124874064Y-98377456D01*
X124874067Y-98377458D01*
X124950990Y-98428856D01*
X124976510Y-98445909D01*
X124976512Y-98445910D01*
X124976515Y-98445912D01*
X125043196Y-98473531D01*
X125043198Y-98473533D01*
X125083440Y-98490201D01*
X125090348Y-98493063D01*
X125150771Y-98505081D01*
X125211193Y-98517100D01*
X128357007Y-98517100D01*
X128417429Y-98505081D01*
X128477852Y-98493063D01*
X128477855Y-98493061D01*
X128477858Y-98493061D01*
X128511187Y-98479254D01*
X128511186Y-98479254D01*
X128511192Y-98479252D01*
X128591686Y-98445912D01*
X128642909Y-98411684D01*
X128694133Y-98377458D01*
X128781258Y-98290333D01*
X128781259Y-98290330D01*
X129416258Y-97655333D01*
X129484712Y-97552885D01*
X129531863Y-97439051D01*
X129555901Y-97318206D01*
X129555901Y-97194993D01*
X129555901Y-97189883D01*
X129555900Y-97189857D01*
X129555900Y-97106076D01*
X129575585Y-97039037D01*
X129601234Y-97010224D01*
X129655494Y-96965694D01*
X129783021Y-96810303D01*
X129877781Y-96633018D01*
X129936134Y-96440653D01*
X129955838Y-96240600D01*
X130444962Y-96240600D01*
X130464665Y-96440651D01*
X130488224Y-96518315D01*
X130523019Y-96633018D01*
X130613613Y-96802508D01*
X130617781Y-96810306D01*
X130745305Y-96965694D01*
X130900693Y-97093218D01*
X130900697Y-97093221D01*
X131077982Y-97187981D01*
X131270347Y-97246334D01*
X131270346Y-97246334D01*
X131288283Y-97248100D01*
X131470400Y-97266038D01*
X131670453Y-97246334D01*
X131862818Y-97187981D01*
X132040103Y-97093221D01*
X132195494Y-96965694D01*
X132323021Y-96810303D01*
X132417781Y-96633018D01*
X132476134Y-96440653D01*
X132495838Y-96240600D01*
X132476134Y-96040547D01*
X132417781Y-95848182D01*
X132323021Y-95670897D01*
X132323018Y-95670893D01*
X132195494Y-95515505D01*
X132040106Y-95387981D01*
X132040104Y-95387980D01*
X132040103Y-95387979D01*
X131862818Y-95293219D01*
X131670453Y-95234866D01*
X131670450Y-95234865D01*
X131670453Y-95234865D01*
X131470400Y-95215162D01*
X131270348Y-95234865D01*
X131077982Y-95293219D01*
X130900693Y-95387981D01*
X130745305Y-95515505D01*
X130617781Y-95670893D01*
X130523019Y-95848182D01*
X130464665Y-96040548D01*
X130444962Y-96240600D01*
X129955838Y-96240600D01*
X129936134Y-96040547D01*
X129877781Y-95848182D01*
X129783021Y-95670897D01*
X129783018Y-95670893D01*
X129655498Y-95515510D01*
X129655495Y-95515508D01*
X129655494Y-95515506D01*
X129621598Y-95487687D01*
X129601233Y-95470974D01*
X129561900Y-95413227D01*
X129555900Y-95375122D01*
X129555900Y-95027052D01*
X129575585Y-94960013D01*
X129592219Y-94939371D01*
X129940571Y-94591019D01*
X130001894Y-94557534D01*
X130028252Y-94554700D01*
X131024008Y-94554700D01*
X131024008Y-94554699D01*
X131108186Y-94537956D01*
X131108187Y-94537956D01*
X131120519Y-94535502D01*
X131144852Y-94530663D01*
X131144857Y-94530660D01*
X131144860Y-94530660D01*
X131178187Y-94516854D01*
X131178186Y-94516854D01*
X131178192Y-94516852D01*
X131258686Y-94483512D01*
X131325964Y-94438557D01*
X131361133Y-94415058D01*
X131448258Y-94327933D01*
X131448259Y-94327930D01*
X131776221Y-93999968D01*
X131837542Y-93966486D01*
X131907234Y-93971470D01*
X131963167Y-94013342D01*
X131987584Y-94078806D01*
X131987900Y-94087652D01*
X131987900Y-94117806D01*
X132011937Y-94238652D01*
X132020879Y-94260240D01*
X132020880Y-94260245D01*
X132020881Y-94260245D01*
X132045508Y-94319700D01*
X132059088Y-94352486D01*
X132059090Y-94352490D01*
X132082093Y-94386915D01*
X132082094Y-94386916D01*
X132127541Y-94454932D01*
X132127544Y-94454936D01*
X132218986Y-94546378D01*
X132219008Y-94546398D01*
X133013416Y-95340806D01*
X133013445Y-95340837D01*
X133103665Y-95431057D01*
X133107726Y-95433770D01*
X133141500Y-95456337D01*
X133206115Y-95499512D01*
X133206117Y-95499513D01*
X133206116Y-95499513D01*
X133229511Y-95509202D01*
X133259760Y-95521732D01*
X133259761Y-95521733D01*
X133292676Y-95535366D01*
X133319948Y-95546663D01*
X133380371Y-95558681D01*
X133440793Y-95570700D01*
X133440794Y-95570700D01*
X134205476Y-95570700D01*
X134272515Y-95590385D01*
X134280401Y-95595896D01*
X134359742Y-95656062D01*
X134497323Y-95710317D01*
X134554962Y-95717239D01*
X134583781Y-95720700D01*
X134583782Y-95720700D01*
X135168019Y-95720700D01*
X135189632Y-95718104D01*
X135254477Y-95710317D01*
X135392058Y-95656062D01*
X135509900Y-95566700D01*
X135599262Y-95448858D01*
X135653517Y-95311277D01*
X135663900Y-95224818D01*
X135663900Y-94665582D01*
X135662628Y-94654994D01*
X135655454Y-94595252D01*
X135653517Y-94579123D01*
X135599262Y-94441542D01*
X135597017Y-94438581D01*
X135509900Y-94323699D01*
X135392060Y-94234339D01*
X135392058Y-94234338D01*
X135254477Y-94180083D01*
X135254476Y-94180082D01*
X135254474Y-94180082D01*
X135168019Y-94169700D01*
X135168018Y-94169700D01*
X134583782Y-94169700D01*
X134583781Y-94169700D01*
X134497325Y-94180082D01*
X134497324Y-94180082D01*
X134359739Y-94234339D01*
X134280401Y-94294504D01*
X134215090Y-94319327D01*
X134205476Y-94319700D01*
X133812852Y-94319700D01*
X133745813Y-94300015D01*
X133725171Y-94283381D01*
X133275219Y-93833429D01*
X133241734Y-93772106D01*
X133238900Y-93745748D01*
X133238900Y-92988579D01*
X133258585Y-92921540D01*
X133311389Y-92875785D01*
X133380547Y-92865841D01*
X133408387Y-92873224D01*
X133415723Y-92876117D01*
X133473362Y-92883039D01*
X133502181Y-92886500D01*
X133502182Y-92886500D01*
X134061419Y-92886500D01*
X134083032Y-92883904D01*
X134147877Y-92876117D01*
X134285458Y-92821862D01*
X134403300Y-92732500D01*
X134403301Y-92732499D01*
X134410449Y-92723074D01*
X134466642Y-92681551D01*
X134509252Y-92674000D01*
X135397187Y-92674000D01*
X135464226Y-92693685D01*
X135502704Y-92735383D01*
X135503396Y-92734921D01*
X135506328Y-92739310D01*
X135506542Y-92739542D01*
X135506777Y-92739981D01*
X135506780Y-92739986D01*
X135618500Y-92876116D01*
X135628680Y-92888520D01*
X135636971Y-92895324D01*
X135650964Y-92906808D01*
X135690299Y-92964553D01*
X135696300Y-93002662D01*
X135696300Y-93635210D01*
X135720335Y-93756044D01*
X135720338Y-93756054D01*
X135734147Y-93789392D01*
X135734147Y-93789393D01*
X135767485Y-93869881D01*
X135767487Y-93869885D01*
X135796096Y-93912699D01*
X135796097Y-93912701D01*
X135835940Y-93972331D01*
X135835941Y-93972332D01*
X135835942Y-93972333D01*
X135923067Y-94059458D01*
X135923068Y-94059458D01*
X135930135Y-94066525D01*
X135930134Y-94066525D01*
X135930138Y-94066528D01*
X136039081Y-94175471D01*
X136072566Y-94236794D01*
X136075400Y-94263152D01*
X136075400Y-94270792D01*
X136055715Y-94337831D01*
X136050204Y-94345717D01*
X135977539Y-94441539D01*
X135923282Y-94579124D01*
X135923282Y-94579125D01*
X135912900Y-94665581D01*
X135912900Y-95224818D01*
X135923282Y-95311274D01*
X135923282Y-95311275D01*
X135977539Y-95448860D01*
X136066899Y-95566700D01*
X136184739Y-95656060D01*
X136184742Y-95656062D01*
X136322323Y-95710317D01*
X136379962Y-95717239D01*
X136408781Y-95720700D01*
X136408782Y-95720700D01*
X136993019Y-95720700D01*
X137014632Y-95718104D01*
X137079477Y-95710317D01*
X137217058Y-95656062D01*
X137334900Y-95566700D01*
X137424262Y-95448858D01*
X137478517Y-95311277D01*
X137488900Y-95224818D01*
X137488900Y-94665582D01*
X137487628Y-94654994D01*
X137480454Y-94595252D01*
X137478517Y-94579123D01*
X137424262Y-94441542D01*
X137421998Y-94438557D01*
X137351596Y-94345717D01*
X137326773Y-94280406D01*
X137326400Y-94270792D01*
X137326400Y-93891093D01*
X137326399Y-93891089D01*
X137325400Y-93886067D01*
X137302363Y-93770248D01*
X137261643Y-93671941D01*
X137255212Y-93656416D01*
X137255207Y-93656407D01*
X137186759Y-93553968D01*
X137145406Y-93512615D01*
X137099633Y-93466842D01*
X137099632Y-93466841D01*
X136983619Y-93350828D01*
X136950134Y-93289505D01*
X136947300Y-93263147D01*
X136947300Y-93002662D01*
X136966985Y-92935623D01*
X136992636Y-92906808D01*
X137006629Y-92895324D01*
X137014920Y-92888520D01*
X137136823Y-92739981D01*
X137212931Y-92597593D01*
X137227403Y-92570518D01*
X137227403Y-92570517D01*
X137227405Y-92570514D01*
X137283185Y-92386631D01*
X137302020Y-92195400D01*
X137283185Y-92004169D01*
X137227405Y-91820286D01*
X137227403Y-91820283D01*
X137227403Y-91820281D01*
X137136826Y-91650824D01*
X137136822Y-91650817D01*
X137014920Y-91502279D01*
X136879023Y-91390752D01*
X136839689Y-91333007D01*
X136837818Y-91263162D01*
X136874005Y-91203394D01*
X136936761Y-91172678D01*
X136957687Y-91170899D01*
X137041664Y-91170899D01*
X137041679Y-91170897D01*
X137041682Y-91170897D01*
X137066787Y-91167986D01*
X137066788Y-91167985D01*
X137066791Y-91167985D01*
X137169565Y-91122606D01*
X137249006Y-91043165D01*
X137294385Y-90940391D01*
X137297300Y-90915265D01*
X137297299Y-89475536D01*
X137296076Y-89464986D01*
X137294386Y-89450412D01*
X137294385Y-89450410D01*
X137294385Y-89450409D01*
X137249006Y-89347635D01*
X137169565Y-89268194D01*
X137149474Y-89259323D01*
X137066792Y-89222815D01*
X137041665Y-89219900D01*
X135601943Y-89219900D01*
X135601917Y-89219902D01*
X135576812Y-89222813D01*
X135576808Y-89222815D01*
X135474035Y-89268193D01*
X135394594Y-89347634D01*
X135349215Y-89450406D01*
X135349215Y-89450408D01*
X135346300Y-89475531D01*
X135346300Y-89574000D01*
X135326615Y-89641039D01*
X135273811Y-89686794D01*
X135222300Y-89698000D01*
X134509252Y-89698000D01*
X134442213Y-89678315D01*
X134410449Y-89648926D01*
X134403301Y-89639500D01*
X134285460Y-89550139D01*
X134285458Y-89550138D01*
X134147877Y-89495883D01*
X134147876Y-89495882D01*
X134147874Y-89495882D01*
X134061419Y-89485500D01*
X134061418Y-89485500D01*
X133502182Y-89485500D01*
X133502181Y-89485500D01*
X133415725Y-89495882D01*
X133415724Y-89495882D01*
X133278139Y-89550139D01*
X133160298Y-89639500D01*
X133153151Y-89648926D01*
X133096958Y-89690449D01*
X133054348Y-89698000D01*
X132870069Y-89698000D01*
X132857917Y-89697403D01*
X132852809Y-89696900D01*
X132852807Y-89696900D01*
X132852806Y-89696900D01*
X132197852Y-89696900D01*
X132130813Y-89677215D01*
X132099049Y-89647826D01*
X132091901Y-89638400D01*
X131974060Y-89549039D01*
X131974058Y-89549038D01*
X131836477Y-89494783D01*
X131836476Y-89494782D01*
X131836474Y-89494782D01*
X131750019Y-89484400D01*
X131750018Y-89484400D01*
X131190782Y-89484400D01*
X131190781Y-89484400D01*
X131104325Y-89494782D01*
X131104324Y-89494782D01*
X130966739Y-89549039D01*
X130848898Y-89638400D01*
X130841751Y-89647826D01*
X130785558Y-89689349D01*
X130742948Y-89696900D01*
X130500218Y-89696900D01*
X130433179Y-89677215D01*
X130387424Y-89624411D01*
X130377103Y-89587686D01*
X130371477Y-89540836D01*
X130315961Y-89400058D01*
X130315960Y-89400057D01*
X130315960Y-89400056D01*
X130224522Y-89279477D01*
X130103943Y-89188039D01*
X130007792Y-89150122D01*
X129963164Y-89132523D01*
X129963163Y-89132522D01*
X129963161Y-89132522D01*
X129917526Y-89127042D01*
X129874702Y-89121900D01*
X126788498Y-89121900D01*
X126749453Y-89126588D01*
X126700038Y-89132522D01*
X126559256Y-89188039D01*
X126438677Y-89279477D01*
X126347239Y-89400056D01*
X126291722Y-89540838D01*
X126286097Y-89587683D01*
X126281100Y-89629298D01*
X126281100Y-91015502D01*
X126284422Y-91043163D01*
X126291722Y-91103961D01*
X126291722Y-91103963D01*
X126291723Y-91103964D01*
X126306836Y-91142288D01*
X126347239Y-91244743D01*
X126438677Y-91365322D01*
X126559256Y-91456760D01*
X126559257Y-91456760D01*
X126559258Y-91456761D01*
X126700036Y-91512277D01*
X126788498Y-91522900D01*
X127582100Y-91522900D01*
X127649139Y-91542585D01*
X127694894Y-91595389D01*
X127706100Y-91646900D01*
X127706100Y-92033147D01*
X127686415Y-92100186D01*
X127669781Y-92120828D01*
X125991669Y-93798940D01*
X125991667Y-93798942D01*
X125957180Y-93833429D01*
X125904544Y-93886064D01*
X125881024Y-93921265D01*
X125881023Y-93921265D01*
X125836090Y-93988509D01*
X125836085Y-93988518D01*
X125802988Y-94068425D01*
X125788939Y-94102341D01*
X125788935Y-94102355D01*
X125764900Y-94223189D01*
X125764900Y-95375122D01*
X125745215Y-95442161D01*
X125719567Y-95470974D01*
X125665301Y-95515510D01*
X125537781Y-95670893D01*
X125443019Y-95848182D01*
X125384665Y-96040548D01*
X125364962Y-96240600D01*
X125384665Y-96440651D01*
X125408224Y-96518315D01*
X125443019Y-96633018D01*
X125533613Y-96802508D01*
X125537781Y-96810306D01*
X125665305Y-96965694D01*
X125763459Y-97046247D01*
X125802793Y-97103993D01*
X125804664Y-97173837D01*
X125768476Y-97233606D01*
X125705720Y-97264321D01*
X125684794Y-97266100D01*
X125583252Y-97266100D01*
X125516213Y-97246415D01*
X125495571Y-97229781D01*
X125020219Y-96754429D01*
X124986734Y-96693106D01*
X124983900Y-96666748D01*
X124983900Y-94799107D01*
X124980835Y-94783702D01*
X124980833Y-94783696D01*
X124968293Y-94720650D01*
X124968293Y-94720649D01*
X124959864Y-94678273D01*
X124959863Y-94678266D01*
X124912711Y-94564432D01*
X124912710Y-94564431D01*
X124912707Y-94564425D01*
X124844258Y-94461985D01*
X124844255Y-94461981D01*
X124754037Y-94371763D01*
X124754006Y-94371734D01*
X124145680Y-93763408D01*
X124145660Y-93763386D01*
X124054218Y-93671944D01*
X124054214Y-93671941D01*
X123995806Y-93632914D01*
X123951769Y-93603489D01*
X123951768Y-93603488D01*
X123951765Y-93603486D01*
X123951762Y-93603485D01*
X123871274Y-93570147D01*
X123837936Y-93556338D01*
X123837937Y-93556338D01*
X123837934Y-93556337D01*
X123837930Y-93556336D01*
X123837926Y-93556335D01*
X123731834Y-93535232D01*
X123731833Y-93535232D01*
X123717093Y-93532300D01*
X123717089Y-93532300D01*
X123717088Y-93532300D01*
X122644072Y-93532300D01*
X121415300Y-93532300D01*
X121348261Y-93512615D01*
X121302506Y-93459811D01*
X121291300Y-93408300D01*
X121291300Y-93298653D01*
X121310985Y-93231614D01*
X121327620Y-93210971D01*
X121369974Y-93168618D01*
X121431297Y-93135133D01*
X121457654Y-93132300D01*
X122438808Y-93132300D01*
X122438808Y-93132299D01*
X122552427Y-93109700D01*
X122559652Y-93108263D01*
X122603366Y-93090156D01*
X122673486Y-93061112D01*
X122736078Y-93019288D01*
X122775933Y-92992658D01*
X122863058Y-92905533D01*
X122863058Y-92905531D01*
X122873266Y-92895324D01*
X122873267Y-92895321D01*
X123817457Y-91951134D01*
X123817624Y-91950885D01*
X123817683Y-91950798D01*
X123885907Y-91848692D01*
X123885907Y-91848691D01*
X123885911Y-91848686D01*
X123933063Y-91734852D01*
X123955369Y-91622707D01*
X123987753Y-91560799D01*
X124048468Y-91526224D01*
X124076986Y-91522900D01*
X124874697Y-91522900D01*
X124874702Y-91522900D01*
X124963164Y-91512277D01*
X125103942Y-91456761D01*
X125224522Y-91365322D01*
X125315961Y-91244742D01*
X125371477Y-91103964D01*
X125382100Y-91015502D01*
X125382100Y-89629298D01*
X125371477Y-89540836D01*
X125315961Y-89400058D01*
X125315960Y-89400057D01*
X125315960Y-89400056D01*
X125224522Y-89279477D01*
X125103943Y-89188039D01*
X125007792Y-89150122D01*
X124963164Y-89132523D01*
X124963163Y-89132522D01*
X124963161Y-89132522D01*
X124917526Y-89127042D01*
X124874702Y-89121900D01*
X121788498Y-89121900D01*
X121749453Y-89126588D01*
X121700038Y-89132522D01*
X121559256Y-89188039D01*
X121438677Y-89279478D01*
X121355442Y-89389239D01*
X121299250Y-89430762D01*
X121229529Y-89435313D01*
X121187749Y-89417416D01*
X121145579Y-89389239D01*
X121134380Y-89381756D01*
X121087286Y-89350288D01*
X121086209Y-89349842D01*
X121047354Y-89333748D01*
X121000974Y-89314537D01*
X120973452Y-89303137D01*
X120973448Y-89303136D01*
X120973184Y-89303056D01*
X120973062Y-89302976D01*
X120967825Y-89300807D01*
X120968236Y-89299813D01*
X120914749Y-89264754D01*
X120910385Y-89259323D01*
X120890500Y-89233100D01*
X120890495Y-89233096D01*
X120772660Y-89143739D01*
X120772658Y-89143738D01*
X120635077Y-89089483D01*
X120635076Y-89089482D01*
X120635074Y-89089482D01*
X120548619Y-89079100D01*
X120548618Y-89079100D01*
X119989382Y-89079100D01*
X119989381Y-89079100D01*
X119902925Y-89089482D01*
X119902924Y-89089482D01*
X119765339Y-89143739D01*
X119647499Y-89233099D01*
X119558139Y-89350939D01*
X119503882Y-89488524D01*
X119503882Y-89488525D01*
X119493500Y-89574981D01*
X119493500Y-90234218D01*
X119503882Y-90320674D01*
X119503882Y-90320675D01*
X119558139Y-90458260D01*
X119647499Y-90576100D01*
X119765339Y-90665460D01*
X119765342Y-90665462D01*
X119765343Y-90665462D01*
X119772734Y-90669618D01*
X119771647Y-90671551D01*
X119817403Y-90707154D01*
X119840595Y-90773063D01*
X119824472Y-90841047D01*
X119774154Y-90889522D01*
X119767163Y-90892713D01*
X119765339Y-90893739D01*
X119682510Y-90956551D01*
X119653324Y-90978684D01*
X119640742Y-90988225D01*
X119639018Y-90985952D01*
X119590096Y-91012666D01*
X119563738Y-91015500D01*
X119167652Y-91015500D01*
X119100613Y-90995815D01*
X119068849Y-90966426D01*
X119061701Y-90957000D01*
X118976924Y-90892713D01*
X118956603Y-90877302D01*
X118915081Y-90821112D01*
X118910529Y-90751391D01*
X118944393Y-90690277D01*
X118956599Y-90679699D01*
X119061700Y-90600000D01*
X119151062Y-90482158D01*
X119205317Y-90344577D01*
X119215700Y-90258118D01*
X119215700Y-89573882D01*
X119213143Y-89552594D01*
X119205317Y-89487425D01*
X119205317Y-89487424D01*
X119205317Y-89487423D01*
X119151062Y-89349842D01*
X119151060Y-89349839D01*
X119061700Y-89231999D01*
X118943860Y-89142639D01*
X118943858Y-89142638D01*
X118806277Y-89088383D01*
X118806276Y-89088382D01*
X118806274Y-89088382D01*
X118719819Y-89078000D01*
X118719818Y-89078000D01*
X118160582Y-89078000D01*
X118160581Y-89078000D01*
X118074125Y-89088382D01*
X118074124Y-89088382D01*
X117936539Y-89142639D01*
X117818704Y-89231996D01*
X117818699Y-89232000D01*
X117793862Y-89264754D01*
X117773029Y-89292226D01*
X117716839Y-89333748D01*
X117674227Y-89341300D01*
X117384207Y-89341300D01*
X117260993Y-89341300D01*
X117218049Y-89349842D01*
X117218048Y-89349841D01*
X117140154Y-89365335D01*
X117140134Y-89365341D01*
X117124634Y-89371761D01*
X117055164Y-89379227D01*
X116992687Y-89347949D01*
X116957037Y-89287858D01*
X116959535Y-89218033D01*
X116962615Y-89209772D01*
X117017737Y-89076697D01*
X117048500Y-88922042D01*
X117048500Y-88764358D01*
X117048500Y-88764355D01*
X117048499Y-88764353D01*
X117017738Y-88609710D01*
X117017737Y-88609703D01*
X117017735Y-88609698D01*
X116957397Y-88464027D01*
X116957390Y-88464014D01*
X116869789Y-88332911D01*
X116869786Y-88332907D01*
X116758292Y-88221413D01*
X116758288Y-88221410D01*
X116627185Y-88133809D01*
X116627172Y-88133802D01*
X116481501Y-88073464D01*
X116481489Y-88073461D01*
X116326845Y-88042700D01*
X116326842Y-88042700D01*
X115469158Y-88042700D01*
X115469155Y-88042700D01*
X115314510Y-88073461D01*
X115314498Y-88073464D01*
X115168827Y-88133802D01*
X115168814Y-88133809D01*
X115037711Y-88221410D01*
X115037707Y-88221413D01*
X114926213Y-88332907D01*
X114926210Y-88332911D01*
X114838609Y-88464014D01*
X114838602Y-88464027D01*
X114778264Y-88609698D01*
X114778261Y-88609710D01*
X114747500Y-88764353D01*
X114747500Y-88922046D01*
X114778261Y-89076689D01*
X114778264Y-89076701D01*
X114838602Y-89222372D01*
X114838609Y-89222385D01*
X114926210Y-89353488D01*
X114926213Y-89353492D01*
X115037707Y-89464986D01*
X115037711Y-89464989D01*
X115168814Y-89552590D01*
X115172088Y-89554340D01*
X115173481Y-89555708D01*
X115173886Y-89555979D01*
X115173834Y-89556055D01*
X115221933Y-89603302D01*
X115237395Y-89671439D01*
X115213565Y-89737119D01*
X115158008Y-89779489D01*
X115113637Y-89787700D01*
X115104510Y-89787700D01*
X115081970Y-89792183D01*
X115059430Y-89796667D01*
X115016007Y-89805304D01*
X114983663Y-89811737D01*
X114963661Y-89820023D01*
X114950325Y-89825547D01*
X114869837Y-89858884D01*
X114869823Y-89858892D01*
X114767390Y-89927338D01*
X114767382Y-89927344D01*
X114118627Y-90576100D01*
X113504269Y-91190458D01*
X113504266Y-91190461D01*
X113481618Y-91213109D01*
X113417141Y-91277585D01*
X113413053Y-91283704D01*
X113385472Y-91324982D01*
X113380110Y-91333007D01*
X113348686Y-91380034D01*
X113348684Y-91380037D01*
X113321388Y-91445935D01*
X113321389Y-91445936D01*
X113301877Y-91493045D01*
X113301857Y-91493093D01*
X113301535Y-91493868D01*
X113277639Y-91614007D01*
X113277499Y-91614707D01*
X111142900Y-91614707D01*
X111142900Y-89633626D01*
X111162585Y-89566587D01*
X111215389Y-89520832D01*
X111284547Y-89510888D01*
X111335792Y-89530525D01*
X111368812Y-89552589D01*
X111368827Y-89552597D01*
X111491242Y-89603302D01*
X111514503Y-89612937D01*
X111669153Y-89643699D01*
X111669156Y-89643700D01*
X111669158Y-89643700D01*
X112526844Y-89643700D01*
X112526845Y-89643699D01*
X112681497Y-89612937D01*
X112794166Y-89566267D01*
X112827172Y-89552597D01*
X112827172Y-89552596D01*
X112827179Y-89552594D01*
X112958289Y-89464989D01*
X113069789Y-89353489D01*
X113157394Y-89222379D01*
X113158421Y-89219901D01*
X113171618Y-89188039D01*
X113217737Y-89076697D01*
X113248500Y-88922042D01*
X113248500Y-88764358D01*
X113248500Y-88764355D01*
X113248499Y-88764353D01*
X113217738Y-88609710D01*
X113217737Y-88609703D01*
X113217735Y-88609698D01*
X113157397Y-88464027D01*
X113157390Y-88464014D01*
X113069789Y-88332911D01*
X113069786Y-88332907D01*
X112958292Y-88221413D01*
X112958288Y-88221410D01*
X112827185Y-88133809D01*
X112827172Y-88133802D01*
X112681501Y-88073464D01*
X112681489Y-88073461D01*
X112526845Y-88042700D01*
X112526842Y-88042700D01*
X111669158Y-88042700D01*
X111669155Y-88042700D01*
X111514510Y-88073461D01*
X111514498Y-88073464D01*
X111368827Y-88133802D01*
X111368816Y-88133808D01*
X111335790Y-88155876D01*
X111269113Y-88176753D01*
X111201733Y-88158268D01*
X111155043Y-88106289D01*
X111142900Y-88052773D01*
X111142900Y-87289300D01*
X111162585Y-87222261D01*
X111215389Y-87176506D01*
X111266900Y-87165300D01*
X137653100Y-87165300D01*
X137720139Y-87184985D01*
G37*
%TD.AperFunction*%
%TA.AperFunction,NonConductor*%
G36*
X117833885Y-90611985D02*
G01*
X117841771Y-90617496D01*
X117923795Y-90679696D01*
X117965318Y-90735888D01*
X117969870Y-90805609D01*
X117936006Y-90866723D01*
X117923795Y-90877304D01*
X117818699Y-90956999D01*
X117809884Y-90968625D01*
X117753692Y-91010149D01*
X117711080Y-91017700D01*
X117455653Y-91017700D01*
X117388614Y-90998015D01*
X117342859Y-90945211D01*
X117332915Y-90876053D01*
X117354565Y-90828645D01*
X117351655Y-90826826D01*
X117351660Y-90826818D01*
X117360440Y-90815780D01*
X117361940Y-90812497D01*
X117367972Y-90806019D01*
X117369115Y-90804875D01*
X117369120Y-90804868D01*
X117545372Y-90628616D01*
X117606695Y-90595134D01*
X117633052Y-90592300D01*
X117766846Y-90592300D01*
X117833885Y-90611985D01*
G37*
%TD.AperFunction*%
%TA.AperFunction,NonConductor*%
G36*
X135339257Y-90968685D02*
G01*
X135385012Y-91021489D01*
X135385614Y-91022828D01*
X135394594Y-91043165D01*
X135474035Y-91122606D01*
X135576809Y-91167985D01*
X135601935Y-91170900D01*
X135685912Y-91170899D01*
X135752948Y-91190583D01*
X135798704Y-91243386D01*
X135808648Y-91312545D01*
X135779624Y-91376101D01*
X135764594Y-91390736D01*
X135759599Y-91394837D01*
X135695295Y-91422163D01*
X135680915Y-91423000D01*
X134509252Y-91423000D01*
X134442213Y-91403315D01*
X134410449Y-91373926D01*
X134403301Y-91364500D01*
X134304786Y-91289795D01*
X134298203Y-91284802D01*
X134256681Y-91228612D01*
X134252129Y-91158891D01*
X134285993Y-91097777D01*
X134298199Y-91087199D01*
X134403300Y-91007500D01*
X134404135Y-91006399D01*
X134410449Y-90998074D01*
X134466642Y-90956551D01*
X134509252Y-90949000D01*
X135272218Y-90949000D01*
X135339257Y-90968685D01*
G37*
%TD.AperFunction*%
%TA.AperFunction,NonConductor*%
G36*
X132725573Y-90948497D02*
G01*
X132730691Y-90949001D01*
X132730694Y-90949001D01*
X132860021Y-90949001D01*
X132860041Y-90949000D01*
X133054348Y-90949000D01*
X133121387Y-90968685D01*
X133153151Y-90998074D01*
X133160298Y-91007499D01*
X133265395Y-91087196D01*
X133306918Y-91143388D01*
X133311470Y-91213109D01*
X133277605Y-91274224D01*
X133265395Y-91284804D01*
X133160299Y-91364499D01*
X133070939Y-91482339D01*
X133016682Y-91619924D01*
X133016682Y-91619925D01*
X133006339Y-91706056D01*
X132978802Y-91770270D01*
X132920919Y-91809403D01*
X132851068Y-91811029D01*
X132795543Y-91778953D01*
X132744693Y-91728103D01*
X132665259Y-91648669D01*
X132665258Y-91648667D01*
X132578133Y-91561542D01*
X132504403Y-91512277D01*
X132489441Y-91502279D01*
X132475685Y-91493087D01*
X132431834Y-91474924D01*
X132387983Y-91456761D01*
X132361852Y-91445937D01*
X132266330Y-91426937D01*
X132241007Y-91421900D01*
X132197852Y-91421900D01*
X132130813Y-91402215D01*
X132099049Y-91372826D01*
X132091901Y-91363400D01*
X132024837Y-91312545D01*
X131986803Y-91283702D01*
X131945281Y-91227512D01*
X131940729Y-91157791D01*
X131974593Y-91096677D01*
X131986799Y-91086099D01*
X132091900Y-91006400D01*
X132091901Y-91006399D01*
X132099049Y-90996974D01*
X132155242Y-90955451D01*
X132197852Y-90947900D01*
X132713421Y-90947900D01*
X132725573Y-90948497D01*
G37*
%TD.AperFunction*%
%TA.AperFunction,NonConductor*%
G36*
X121147193Y-90947900D02*
G01*
X121147194Y-90947900D01*
X121162982Y-90947900D01*
X121230021Y-90967585D01*
X121275776Y-91020389D01*
X121286096Y-91057113D01*
X121288918Y-91080608D01*
X121291722Y-91103961D01*
X121291722Y-91103963D01*
X121291723Y-91103964D01*
X121306836Y-91142288D01*
X121347239Y-91244743D01*
X121438677Y-91365322D01*
X121559256Y-91456760D01*
X121559257Y-91456760D01*
X121559258Y-91456761D01*
X121700036Y-91512277D01*
X121788498Y-91522900D01*
X122177148Y-91522900D01*
X122244187Y-91542585D01*
X122289942Y-91595389D01*
X122299886Y-91664547D01*
X122270861Y-91728103D01*
X122264829Y-91734581D01*
X122154429Y-91844981D01*
X122093106Y-91878466D01*
X122066748Y-91881300D01*
X121168500Y-91881300D01*
X121101461Y-91861615D01*
X121055706Y-91808811D01*
X121044500Y-91757300D01*
X121044500Y-91324980D01*
X121034117Y-91238525D01*
X121034115Y-91238517D01*
X120983516Y-91110207D01*
X120977234Y-91040620D01*
X121009571Y-90978684D01*
X121070260Y-90944063D01*
X121123061Y-90943100D01*
X121147193Y-90947900D01*
G37*
%TD.AperFunction*%
%TA.AperFunction,NonConductor*%
G36*
X119607753Y-92286185D02*
G01*
X119639517Y-92315574D01*
X119647498Y-92326099D01*
X119763891Y-92414362D01*
X119765342Y-92415462D01*
X119902923Y-92469717D01*
X119955025Y-92475974D01*
X119989381Y-92480100D01*
X119989382Y-92480100D01*
X120021030Y-92480100D01*
X120088069Y-92499785D01*
X120133824Y-92552589D01*
X120143768Y-92621747D01*
X120124133Y-92672989D01*
X120111488Y-92691914D01*
X120111485Y-92691919D01*
X120090604Y-92742333D01*
X120090604Y-92742334D01*
X120064338Y-92805745D01*
X120064335Y-92805755D01*
X120040300Y-92926589D01*
X120040300Y-93408300D01*
X120020615Y-93475339D01*
X119967811Y-93521094D01*
X119916300Y-93532300D01*
X118597524Y-93532300D01*
X118566250Y-93535232D01*
X118566248Y-93535233D01*
X118463850Y-93571064D01*
X118394071Y-93574626D01*
X118333444Y-93539898D01*
X118308789Y-93497799D01*
X118307394Y-93498377D01*
X118305063Y-93492749D01*
X118257912Y-93378915D01*
X118189458Y-93276467D01*
X118189455Y-93276463D01*
X118180572Y-93267580D01*
X118147087Y-93206257D01*
X118152071Y-93136565D01*
X118180570Y-93092220D01*
X118210858Y-93061933D01*
X118210860Y-93061929D01*
X118214857Y-93057933D01*
X118283312Y-92955485D01*
X118330463Y-92841651D01*
X118354500Y-92720807D01*
X118354500Y-92603000D01*
X118374185Y-92535961D01*
X118426989Y-92490206D01*
X118478500Y-92479000D01*
X118719819Y-92479000D01*
X118745015Y-92475974D01*
X118806277Y-92468617D01*
X118943858Y-92414362D01*
X119061700Y-92325000D01*
X119061701Y-92324999D01*
X119068849Y-92315574D01*
X119125042Y-92274051D01*
X119167652Y-92266500D01*
X119540714Y-92266500D01*
X119607753Y-92286185D01*
G37*
%TD.AperFunction*%
%TA.AperFunction,NonConductor*%
G36*
X130809987Y-90967585D02*
G01*
X130841751Y-90996974D01*
X130848898Y-91006399D01*
X130953995Y-91086096D01*
X130995518Y-91142288D01*
X131000070Y-91212009D01*
X130966205Y-91273124D01*
X130953995Y-91283704D01*
X130848899Y-91363399D01*
X130759539Y-91481239D01*
X130705282Y-91618824D01*
X130705282Y-91618825D01*
X130694900Y-91705281D01*
X130694900Y-92389518D01*
X130705282Y-92475974D01*
X130705282Y-92475975D01*
X130705283Y-92475977D01*
X130755374Y-92603000D01*
X130759539Y-92613560D01*
X130819704Y-92692899D01*
X130844527Y-92758210D01*
X130844900Y-92767824D01*
X130844900Y-93110746D01*
X130825215Y-93177785D01*
X130808582Y-93198427D01*
X130739629Y-93267381D01*
X130678306Y-93300866D01*
X130651947Y-93303700D01*
X129656193Y-93303700D01*
X129636524Y-93307612D01*
X129636523Y-93307611D01*
X129535354Y-93327735D01*
X129535341Y-93327739D01*
X129503062Y-93341109D01*
X129488197Y-93347267D01*
X129441046Y-93366797D01*
X129421517Y-93374887D01*
X129421511Y-93374890D01*
X129415488Y-93378915D01*
X129403489Y-93386932D01*
X129403488Y-93386933D01*
X129319071Y-93443338D01*
X129319069Y-93443339D01*
X129295568Y-93466841D01*
X129231942Y-93530467D01*
X129231939Y-93530470D01*
X128531670Y-94230739D01*
X128531667Y-94230742D01*
X128502172Y-94260237D01*
X128444542Y-94317866D01*
X128419230Y-94355749D01*
X128419229Y-94355750D01*
X128376090Y-94420309D01*
X128376088Y-94420313D01*
X128376088Y-94420314D01*
X128350413Y-94482300D01*
X128328938Y-94534144D01*
X128328935Y-94534156D01*
X128304900Y-94654989D01*
X128304900Y-95375122D01*
X128285215Y-95442161D01*
X128259567Y-95470974D01*
X128205301Y-95515510D01*
X128077781Y-95670893D01*
X127983019Y-95848182D01*
X127924665Y-96040548D01*
X127904962Y-96240600D01*
X127924665Y-96440651D01*
X127948224Y-96518315D01*
X127983019Y-96633018D01*
X128073613Y-96802508D01*
X128077781Y-96810306D01*
X128193240Y-96950993D01*
X128220553Y-97015303D01*
X128208762Y-97084171D01*
X128185069Y-97117338D01*
X128072629Y-97229780D01*
X128011306Y-97263266D01*
X127984947Y-97266100D01*
X127096006Y-97266100D01*
X127028967Y-97246415D01*
X126983212Y-97193611D01*
X126973268Y-97124453D01*
X127002293Y-97060897D01*
X127017341Y-97046247D01*
X127115494Y-96965694D01*
X127115495Y-96965693D01*
X127243021Y-96810303D01*
X127337781Y-96633018D01*
X127396134Y-96440653D01*
X127415838Y-96240600D01*
X127396134Y-96040547D01*
X127337781Y-95848182D01*
X127243021Y-95670897D01*
X127243018Y-95670893D01*
X127115498Y-95515510D01*
X127115495Y-95515508D01*
X127115494Y-95515506D01*
X127081598Y-95487687D01*
X127061233Y-95470974D01*
X127021900Y-95413227D01*
X127015900Y-95375122D01*
X127015900Y-94595252D01*
X127035585Y-94528213D01*
X127052219Y-94507571D01*
X127924581Y-93635210D01*
X128817457Y-92742334D01*
X128819030Y-92739981D01*
X128885911Y-92639886D01*
X128933063Y-92526052D01*
X128942422Y-92479000D01*
X128952740Y-92427132D01*
X128955279Y-92414362D01*
X128957100Y-92405207D01*
X128957100Y-92281994D01*
X128957100Y-91646900D01*
X128976785Y-91579861D01*
X129029589Y-91534106D01*
X129081100Y-91522900D01*
X129874697Y-91522900D01*
X129874702Y-91522900D01*
X129963164Y-91512277D01*
X130103942Y-91456761D01*
X130224522Y-91365322D01*
X130315961Y-91244742D01*
X130371477Y-91103964D01*
X130377102Y-91057114D01*
X130404639Y-90992903D01*
X130462521Y-90953769D01*
X130500218Y-90947900D01*
X130742948Y-90947900D01*
X130809987Y-90967585D01*
G37*
%TD.AperFunction*%
M02*
