%TF.GenerationSoftware,KiCad,Pcbnew,8.0.8*%
%TF.CreationDate,2025-02-05T16:43:23+08:00*%
%TF.ProjectId,5V24VBoostUp(USBC),35563234-5642-46f6-9f73-745570285553,rev?*%
%TF.SameCoordinates,Original*%
%TF.FileFunction,Copper,L2,Bot*%
%TF.FilePolarity,Positive*%
%FSLAX46Y46*%
G04 Gerber Fmt 4.6, Leading zero omitted, Abs format (unit mm)*
G04 Created by KiCad (PCBNEW 8.0.8) date 2025-02-05 16:43:23*
%MOMM*%
%LPD*%
G01*
G04 APERTURE LIST*
G04 Aperture macros list*
%AMRoundRect*
0 Rectangle with rounded corners*
0 $1 Rounding radius*
0 $2 $3 $4 $5 $6 $7 $8 $9 X,Y pos of 4 corners*
0 Add a 4 corners polygon primitive as box body*
4,1,4,$2,$3,$4,$5,$6,$7,$8,$9,$2,$3,0*
0 Add four circle primitives for the rounded corners*
1,1,$1+$1,$2,$3*
1,1,$1+$1,$4,$5*
1,1,$1+$1,$6,$7*
1,1,$1+$1,$8,$9*
0 Add four rect primitives between the rounded corners*
20,1,$1+$1,$2,$3,$4,$5,0*
20,1,$1+$1,$4,$5,$6,$7,0*
20,1,$1+$1,$6,$7,$8,$9,0*
20,1,$1+$1,$8,$9,$2,$3,0*%
G04 Aperture macros list end*
%TA.AperFunction,ComponentPad*%
%ADD10C,1.440000*%
%TD*%
%TA.AperFunction,HeatsinkPad*%
%ADD11O,1.700000X1.000000*%
%TD*%
%TA.AperFunction,ComponentPad*%
%ADD12R,1.350000X1.350000*%
%TD*%
%TA.AperFunction,ComponentPad*%
%ADD13O,1.350000X1.350000*%
%TD*%
%TA.AperFunction,SMDPad,CuDef*%
%ADD14RoundRect,0.237500X-0.250000X-0.237500X0.250000X-0.237500X0.250000X0.237500X-0.250000X0.237500X0*%
%TD*%
%TA.AperFunction,ViaPad*%
%ADD15C,0.600000*%
%TD*%
%TA.AperFunction,Conductor*%
%ADD16C,0.650000*%
%TD*%
G04 APERTURE END LIST*
D10*
%TO.P,R1,1*%
%TO.N,Net-(D1-K)*%
X126390400Y-96240600D03*
%TO.P,R1,2*%
%TO.N,Net-(U1-FB)*%
X128930400Y-96240600D03*
%TO.P,R1,3*%
%TO.N,N/C*%
X131470400Y-96240600D03*
%TD*%
D11*
%TO.P,J3,S1,SHIELD*%
%TO.N,GND*%
X115898000Y-88843200D03*
X112098000Y-88843200D03*
X115898000Y-97483200D03*
X112098000Y-97483200D03*
%TD*%
D12*
%TO.P,J2,1,Pin_1*%
%TO.N,Net-(D1-K)*%
X136321800Y-90195400D03*
D13*
%TO.P,J2,2,Pin_2*%
%TO.N,GND*%
X136321800Y-92195400D03*
%TD*%
D14*
%TO.P,R4,1*%
%TO.N,Net-(J3-CC2)*%
X119022500Y-94005400D03*
%TO.P,R4,2*%
%TO.N,GND*%
X120847500Y-94005400D03*
%TD*%
%TO.P,R3,1*%
%TO.N,Net-(J3-CC1)*%
X119024400Y-92506800D03*
%TO.P,R3,2*%
%TO.N,GND*%
X120849400Y-92506800D03*
%TD*%
D15*
%TO.N,GND*%
X123418600Y-95123000D03*
X117729000Y-95957801D03*
X117322600Y-89966800D03*
%TO.N,Net-(J3-CC1)*%
X117729000Y-92659200D03*
%TO.N,Net-(J3-CC2)*%
X117703600Y-93675200D03*
%TD*%
D16*
%TO.N,GND*%
X115898000Y-88843200D02*
X115898000Y-89507400D01*
X122834400Y-94005400D02*
X128092200Y-94005400D01*
X117729000Y-95957801D02*
X119916799Y-95957801D01*
X112098000Y-88843200D02*
X115898000Y-88843200D01*
X117729000Y-95957801D02*
X117732399Y-95961200D01*
X120849400Y-92506800D02*
X120849400Y-94003500D01*
X112098000Y-97483200D02*
X115898000Y-97483200D01*
X120849400Y-91156800D02*
X120849400Y-92506800D01*
X115898000Y-97483200D02*
X115898000Y-96674600D01*
X129902200Y-92195400D02*
X136321800Y-92195400D01*
X123418600Y-94589600D02*
X123418600Y-95123000D01*
X122834400Y-94005400D02*
X123418600Y-94589600D01*
X115898000Y-96674600D02*
X116614799Y-95957801D01*
X128092200Y-94005400D02*
X129902200Y-92195400D01*
X120847500Y-94005400D02*
X122834400Y-94005400D01*
X116357400Y-89966800D02*
X117322600Y-89966800D01*
X116614799Y-95957801D02*
X117729000Y-95957801D01*
X120847500Y-95027100D02*
X120847500Y-94005400D01*
X115898000Y-89507400D02*
X116357400Y-89966800D01*
X119916799Y-95957801D02*
X120847500Y-95027100D01*
X119659400Y-89966800D02*
X120849400Y-91156800D01*
X117322600Y-89966800D02*
X119659400Y-89966800D01*
X120849400Y-94003500D02*
X120847500Y-94005400D01*
%TO.N,Net-(J3-CC1)*%
X117881400Y-92506800D02*
X117729000Y-92659200D01*
X119024400Y-92506800D02*
X117881400Y-92506800D01*
%TO.N,Net-(J3-CC2)*%
X119022500Y-94005400D02*
X118033800Y-94005400D01*
X118033800Y-94005400D02*
X117703600Y-93675200D01*
%TD*%
%TA.AperFunction,NonConductor*%
G36*
X115072689Y-89488385D02*
G01*
X115074541Y-89489598D01*
X115168821Y-89552594D01*
X115217018Y-89572557D01*
X115271419Y-89616397D01*
X115291181Y-89662927D01*
X115296534Y-89689843D01*
X115296536Y-89689849D01*
X115296537Y-89689851D01*
X115343688Y-89803686D01*
X115343690Y-89803688D01*
X115343690Y-89803689D01*
X115366999Y-89838572D01*
X115367000Y-89838574D01*
X115412140Y-89906131D01*
X115412141Y-89906132D01*
X115412142Y-89906133D01*
X115499267Y-89993258D01*
X115499268Y-89993258D01*
X115506335Y-90000325D01*
X115506334Y-90000325D01*
X115506338Y-90000328D01*
X115958663Y-90452655D01*
X115958667Y-90452658D01*
X116061110Y-90521109D01*
X116061111Y-90521109D01*
X116061115Y-90521112D01*
X116127796Y-90548731D01*
X116127798Y-90548733D01*
X116157529Y-90561047D01*
X116174948Y-90568263D01*
X116295794Y-90592300D01*
X116419007Y-90592300D01*
X117260994Y-90592300D01*
X119348948Y-90592300D01*
X119415987Y-90611985D01*
X119436629Y-90628619D01*
X120187581Y-91379571D01*
X120221066Y-91440894D01*
X120223900Y-91467252D01*
X120223900Y-91832392D01*
X120204215Y-91899431D01*
X120198704Y-91907317D01*
X120126039Y-92003139D01*
X120071782Y-92140724D01*
X120071782Y-92140725D01*
X120061400Y-92227181D01*
X120061400Y-92786418D01*
X120071782Y-92872874D01*
X120071782Y-92872875D01*
X120071783Y-92872877D01*
X120126025Y-93010426D01*
X120126039Y-93010460D01*
X120198704Y-93106283D01*
X120223527Y-93171594D01*
X120223900Y-93181208D01*
X120223900Y-93328486D01*
X120204215Y-93395525D01*
X120198704Y-93403411D01*
X120124139Y-93501739D01*
X120069882Y-93639324D01*
X120069882Y-93639325D01*
X120059500Y-93725781D01*
X120059500Y-94285018D01*
X120069882Y-94371474D01*
X120069882Y-94371475D01*
X120078735Y-94393924D01*
X120117117Y-94491255D01*
X120124139Y-94509060D01*
X120196804Y-94604883D01*
X120221627Y-94670194D01*
X120222000Y-94679808D01*
X120222000Y-94716648D01*
X120202315Y-94783687D01*
X120185681Y-94804329D01*
X119694028Y-95295982D01*
X119632705Y-95329467D01*
X119606347Y-95332301D01*
X116553188Y-95332301D01*
X116492770Y-95344319D01*
X116432347Y-95356338D01*
X116432342Y-95356339D01*
X116401630Y-95369061D01*
X116385196Y-95375868D01*
X116362968Y-95385075D01*
X116318512Y-95403489D01*
X116308356Y-95410276D01*
X116308248Y-95410348D01*
X116216067Y-95471941D01*
X116175051Y-95512958D01*
X116128941Y-95559068D01*
X116128938Y-95559071D01*
X115499270Y-96188739D01*
X115499267Y-96188742D01*
X115455704Y-96232304D01*
X115412142Y-96275866D01*
X115400837Y-96292785D01*
X115389607Y-96309593D01*
X115343688Y-96378314D01*
X115343686Y-96378317D01*
X115343685Y-96378319D01*
X115317867Y-96440652D01*
X115317867Y-96440653D01*
X115296538Y-96492145D01*
X115296535Y-96492155D01*
X115272500Y-96612989D01*
X115272500Y-96648006D01*
X115252815Y-96715045D01*
X115200011Y-96760800D01*
X115195954Y-96762567D01*
X115168821Y-96773806D01*
X115168815Y-96773809D01*
X115074541Y-96836802D01*
X115007864Y-96857680D01*
X115005650Y-96857700D01*
X112990350Y-96857700D01*
X112923311Y-96838015D01*
X112921459Y-96836802D01*
X112827184Y-96773809D01*
X112827172Y-96773802D01*
X112681501Y-96713464D01*
X112681489Y-96713461D01*
X112526845Y-96682700D01*
X112526842Y-96682700D01*
X111669158Y-96682700D01*
X111669155Y-96682700D01*
X111514510Y-96713461D01*
X111514498Y-96713464D01*
X111368827Y-96773802D01*
X111368816Y-96773808D01*
X111335790Y-96795876D01*
X111269113Y-96816753D01*
X111201733Y-96798268D01*
X111155043Y-96746289D01*
X111142900Y-96692773D01*
X111142900Y-93613588D01*
X117078100Y-93613588D01*
X117078100Y-93736811D01*
X117102135Y-93857644D01*
X117102140Y-93857661D01*
X117149285Y-93971481D01*
X117149290Y-93971490D01*
X117217739Y-94073927D01*
X117217745Y-94073935D01*
X117544816Y-94401006D01*
X117544845Y-94401037D01*
X117635063Y-94491255D01*
X117635067Y-94491258D01*
X117737507Y-94559707D01*
X117737511Y-94559709D01*
X117737514Y-94559711D01*
X117851348Y-94606863D01*
X117911771Y-94618881D01*
X117972193Y-94630900D01*
X117972194Y-94630900D01*
X118352076Y-94630900D01*
X118419115Y-94650585D01*
X118427001Y-94656096D01*
X118468889Y-94687861D01*
X118506342Y-94716262D01*
X118643923Y-94770517D01*
X118701562Y-94777439D01*
X118730381Y-94780900D01*
X118730382Y-94780900D01*
X119314619Y-94780900D01*
X119336232Y-94778304D01*
X119401077Y-94770517D01*
X119538658Y-94716262D01*
X119656500Y-94626900D01*
X119745862Y-94509058D01*
X119800117Y-94371477D01*
X119810500Y-94285018D01*
X119810500Y-93725782D01*
X119800117Y-93639323D01*
X119745862Y-93501742D01*
X119739047Y-93492755D01*
X119656500Y-93383899D01*
X119619213Y-93355624D01*
X119577690Y-93299432D01*
X119573138Y-93229710D01*
X119607003Y-93168596D01*
X119619208Y-93158019D01*
X119658400Y-93128300D01*
X119747762Y-93010458D01*
X119802017Y-92872877D01*
X119812400Y-92786418D01*
X119812400Y-92227182D01*
X119802017Y-92140723D01*
X119747762Y-92003142D01*
X119735305Y-91986715D01*
X119658400Y-91885299D01*
X119540560Y-91795939D01*
X119540558Y-91795938D01*
X119402977Y-91741683D01*
X119402976Y-91741682D01*
X119402974Y-91741682D01*
X119316519Y-91731300D01*
X119316518Y-91731300D01*
X118732282Y-91731300D01*
X118732281Y-91731300D01*
X118645825Y-91741682D01*
X118645824Y-91741682D01*
X118508239Y-91795939D01*
X118428901Y-91856104D01*
X118363590Y-91880927D01*
X118353976Y-91881300D01*
X117819789Y-91881300D01*
X117759371Y-91893318D01*
X117721659Y-91900819D01*
X117698950Y-91905336D01*
X117698948Y-91905337D01*
X117665607Y-91919147D01*
X117585119Y-91952484D01*
X117585105Y-91952492D01*
X117482672Y-92020938D01*
X117482664Y-92020944D01*
X117243147Y-92260461D01*
X117243140Y-92260469D01*
X117174690Y-92362909D01*
X117174685Y-92362918D01*
X117127540Y-92476738D01*
X117127535Y-92476755D01*
X117103500Y-92597588D01*
X117103500Y-92720811D01*
X117127535Y-92841644D01*
X117127540Y-92841661D01*
X117174685Y-92955481D01*
X117174690Y-92955490D01*
X117243139Y-93057927D01*
X117243141Y-93057931D01*
X117252032Y-93066822D01*
X117285514Y-93128146D01*
X117280527Y-93197838D01*
X117252029Y-93242180D01*
X117217745Y-93276464D01*
X117217739Y-93276472D01*
X117149290Y-93378909D01*
X117149285Y-93378918D01*
X117102140Y-93492738D01*
X117102135Y-93492755D01*
X117078100Y-93613588D01*
X111142900Y-93613588D01*
X111142900Y-89633626D01*
X111162585Y-89566587D01*
X111215389Y-89520832D01*
X111284547Y-89510888D01*
X111335792Y-89530525D01*
X111368812Y-89552589D01*
X111368827Y-89552597D01*
X111514498Y-89612935D01*
X111514503Y-89612937D01*
X111669153Y-89643699D01*
X111669156Y-89643700D01*
X111669158Y-89643700D01*
X112526844Y-89643700D01*
X112526845Y-89643699D01*
X112681497Y-89612937D01*
X112827179Y-89552594D01*
X112921459Y-89489598D01*
X112988136Y-89468720D01*
X112990350Y-89468700D01*
X115005650Y-89468700D01*
X115072689Y-89488385D01*
G37*
%TD.AperFunction*%
%TA.AperFunction,NonConductor*%
G36*
X137720139Y-87184985D02*
G01*
X137765894Y-87237789D01*
X137777100Y-87289300D01*
X137777100Y-98892700D01*
X137757415Y-98959739D01*
X137704611Y-99005494D01*
X137653100Y-99016700D01*
X111266900Y-99016700D01*
X111199861Y-98997015D01*
X111154106Y-98944211D01*
X111142900Y-98892700D01*
X111142900Y-98273626D01*
X111162585Y-98206587D01*
X111215389Y-98160832D01*
X111284547Y-98150888D01*
X111335792Y-98170525D01*
X111368812Y-98192589D01*
X111368827Y-98192597D01*
X111514498Y-98252935D01*
X111514503Y-98252937D01*
X111669153Y-98283699D01*
X111669156Y-98283700D01*
X111669158Y-98283700D01*
X112526844Y-98283700D01*
X112526845Y-98283699D01*
X112681497Y-98252937D01*
X112827179Y-98192594D01*
X112921459Y-98129598D01*
X112988136Y-98108720D01*
X112990350Y-98108700D01*
X115005650Y-98108700D01*
X115072689Y-98128385D01*
X115074541Y-98129598D01*
X115168821Y-98192594D01*
X115168823Y-98192595D01*
X115168827Y-98192597D01*
X115314498Y-98252935D01*
X115314503Y-98252937D01*
X115469153Y-98283699D01*
X115469156Y-98283700D01*
X115469158Y-98283700D01*
X116326844Y-98283700D01*
X116326845Y-98283699D01*
X116481497Y-98252937D01*
X116627179Y-98192594D01*
X116758289Y-98104989D01*
X116869789Y-97993489D01*
X116957394Y-97862379D01*
X117017737Y-97716697D01*
X117048500Y-97562042D01*
X117048500Y-97404358D01*
X117048500Y-97404355D01*
X117048499Y-97404353D01*
X117017738Y-97249710D01*
X117017737Y-97249703D01*
X116992171Y-97187980D01*
X116957397Y-97104027D01*
X116957390Y-97104014D01*
X116869789Y-96972911D01*
X116869786Y-96972907D01*
X116764715Y-96867836D01*
X116731230Y-96806513D01*
X116736214Y-96736821D01*
X116764712Y-96692477D01*
X116837571Y-96619618D01*
X116898894Y-96586135D01*
X116925251Y-96583301D01*
X117641492Y-96583301D01*
X117665682Y-96585683D01*
X117670792Y-96586700D01*
X117670793Y-96586700D01*
X117794005Y-96586700D01*
X117794006Y-96586700D01*
X117799115Y-96585683D01*
X117823306Y-96583301D01*
X119978406Y-96583301D01*
X120038828Y-96571282D01*
X120099251Y-96559264D01*
X120138890Y-96542845D01*
X120213085Y-96512113D01*
X120264308Y-96477885D01*
X120315532Y-96443659D01*
X120402657Y-96356534D01*
X120402658Y-96356532D01*
X120409724Y-96349466D01*
X120409727Y-96349462D01*
X120518589Y-96240600D01*
X125364962Y-96240600D01*
X125384665Y-96440651D01*
X125395960Y-96477885D01*
X125443019Y-96633018D01*
X125537779Y-96810303D01*
X125537781Y-96810306D01*
X125665305Y-96965694D01*
X125820693Y-97093218D01*
X125820697Y-97093221D01*
X125997982Y-97187981D01*
X126190347Y-97246334D01*
X126190346Y-97246334D01*
X126208283Y-97248100D01*
X126390400Y-97266038D01*
X126590453Y-97246334D01*
X126782818Y-97187981D01*
X126960103Y-97093221D01*
X127115494Y-96965694D01*
X127243021Y-96810303D01*
X127337781Y-96633018D01*
X127396134Y-96440653D01*
X127415838Y-96240600D01*
X127904962Y-96240600D01*
X127924665Y-96440651D01*
X127935960Y-96477885D01*
X127983019Y-96633018D01*
X128077779Y-96810303D01*
X128077781Y-96810306D01*
X128205305Y-96965694D01*
X128360693Y-97093218D01*
X128360697Y-97093221D01*
X128537982Y-97187981D01*
X128730347Y-97246334D01*
X128730346Y-97246334D01*
X128748283Y-97248100D01*
X128930400Y-97266038D01*
X129130453Y-97246334D01*
X129322818Y-97187981D01*
X129500103Y-97093221D01*
X129655494Y-96965694D01*
X129783021Y-96810303D01*
X129877781Y-96633018D01*
X129936134Y-96440653D01*
X129955838Y-96240600D01*
X130444962Y-96240600D01*
X130464665Y-96440651D01*
X130475960Y-96477885D01*
X130523019Y-96633018D01*
X130617779Y-96810303D01*
X130617781Y-96810306D01*
X130745305Y-96965694D01*
X130900693Y-97093218D01*
X130900697Y-97093221D01*
X131077982Y-97187981D01*
X131270347Y-97246334D01*
X131270346Y-97246334D01*
X131288283Y-97248100D01*
X131470400Y-97266038D01*
X131670453Y-97246334D01*
X131862818Y-97187981D01*
X132040103Y-97093221D01*
X132195494Y-96965694D01*
X132323021Y-96810303D01*
X132417781Y-96633018D01*
X132476134Y-96440653D01*
X132495838Y-96240600D01*
X132476134Y-96040547D01*
X132417781Y-95848182D01*
X132323021Y-95670897D01*
X132272107Y-95608858D01*
X132195494Y-95515505D01*
X132040106Y-95387981D01*
X132040104Y-95387980D01*
X132040103Y-95387979D01*
X131862818Y-95293219D01*
X131670453Y-95234866D01*
X131670450Y-95234865D01*
X131670453Y-95234865D01*
X131470400Y-95215162D01*
X131270348Y-95234865D01*
X131077982Y-95293219D01*
X130900693Y-95387981D01*
X130745305Y-95515505D01*
X130617781Y-95670893D01*
X130523019Y-95848182D01*
X130464665Y-96040548D01*
X130444962Y-96240600D01*
X129955838Y-96240600D01*
X129936134Y-96040547D01*
X129877781Y-95848182D01*
X129783021Y-95670897D01*
X129732107Y-95608858D01*
X129655494Y-95515505D01*
X129500106Y-95387981D01*
X129500104Y-95387980D01*
X129500103Y-95387979D01*
X129322818Y-95293219D01*
X129130453Y-95234866D01*
X129130450Y-95234865D01*
X129130453Y-95234865D01*
X128930400Y-95215162D01*
X128730348Y-95234865D01*
X128537982Y-95293219D01*
X128360693Y-95387981D01*
X128205305Y-95515505D01*
X128077781Y-95670893D01*
X127983019Y-95848182D01*
X127924665Y-96040548D01*
X127904962Y-96240600D01*
X127415838Y-96240600D01*
X127396134Y-96040547D01*
X127337781Y-95848182D01*
X127243021Y-95670897D01*
X127192107Y-95608858D01*
X127115494Y-95515505D01*
X126960106Y-95387981D01*
X126960104Y-95387980D01*
X126960103Y-95387979D01*
X126782818Y-95293219D01*
X126590453Y-95234866D01*
X126590450Y-95234865D01*
X126590453Y-95234865D01*
X126390400Y-95215162D01*
X126190348Y-95234865D01*
X125997982Y-95293219D01*
X125820693Y-95387981D01*
X125665305Y-95515505D01*
X125537781Y-95670893D01*
X125443019Y-95848182D01*
X125384665Y-96040548D01*
X125364962Y-96240600D01*
X120518589Y-96240600D01*
X121246229Y-95512960D01*
X121246233Y-95512958D01*
X121333358Y-95425833D01*
X121371291Y-95369063D01*
X121401812Y-95323386D01*
X121435152Y-95242892D01*
X121448963Y-95209552D01*
X121473000Y-95088706D01*
X121473000Y-94754900D01*
X121492685Y-94687861D01*
X121545489Y-94642106D01*
X121597000Y-94630900D01*
X122523948Y-94630900D01*
X122590987Y-94650585D01*
X122611629Y-94667219D01*
X122756781Y-94812371D01*
X122790266Y-94873694D01*
X122793100Y-94900052D01*
X122793100Y-95184610D01*
X122817135Y-95305444D01*
X122817138Y-95305454D01*
X122864287Y-95419283D01*
X122864292Y-95419292D01*
X122932741Y-95521732D01*
X122932744Y-95521736D01*
X123019863Y-95608855D01*
X123019867Y-95608858D01*
X123122307Y-95677307D01*
X123122313Y-95677310D01*
X123122314Y-95677311D01*
X123236148Y-95724463D01*
X123356989Y-95748499D01*
X123356993Y-95748500D01*
X123356994Y-95748500D01*
X123480207Y-95748500D01*
X123480208Y-95748499D01*
X123601052Y-95724463D01*
X123714886Y-95677311D01*
X123817333Y-95608858D01*
X123904458Y-95521733D01*
X123972911Y-95419286D01*
X124020063Y-95305452D01*
X124044100Y-95184606D01*
X124044100Y-94754900D01*
X124063785Y-94687861D01*
X124116589Y-94642106D01*
X124168100Y-94630900D01*
X128153807Y-94630900D01*
X128214229Y-94618881D01*
X128274652Y-94606863D01*
X128274655Y-94606861D01*
X128274658Y-94606861D01*
X128307987Y-94593054D01*
X128307986Y-94593054D01*
X128307992Y-94593052D01*
X128388486Y-94559712D01*
X128439709Y-94525484D01*
X128490933Y-94491258D01*
X128578058Y-94404133D01*
X128578058Y-94404131D01*
X128588266Y-94393924D01*
X128588267Y-94393921D01*
X130124972Y-92857219D01*
X130186295Y-92823734D01*
X130212653Y-92820900D01*
X135514538Y-92820900D01*
X135581577Y-92840585D01*
X135610392Y-92866236D01*
X135628680Y-92888520D01*
X135777217Y-93010422D01*
X135777224Y-93010426D01*
X135946681Y-93101003D01*
X135946683Y-93101003D01*
X135946686Y-93101005D01*
X136130569Y-93156785D01*
X136130568Y-93156785D01*
X136143057Y-93158015D01*
X136321800Y-93175620D01*
X136513031Y-93156785D01*
X136696914Y-93101005D01*
X136866381Y-93010423D01*
X137014920Y-92888520D01*
X137136823Y-92739981D01*
X137227405Y-92570514D01*
X137283185Y-92386631D01*
X137302020Y-92195400D01*
X137283185Y-92004169D01*
X137227405Y-91820286D01*
X137227403Y-91820283D01*
X137227403Y-91820281D01*
X137136826Y-91650824D01*
X137136822Y-91650817D01*
X137014920Y-91502279D01*
X136879023Y-91390752D01*
X136839689Y-91333007D01*
X136837818Y-91263162D01*
X136874005Y-91203394D01*
X136936761Y-91172678D01*
X136957687Y-91170899D01*
X137041664Y-91170899D01*
X137041679Y-91170897D01*
X137041682Y-91170897D01*
X137066787Y-91167986D01*
X137066788Y-91167985D01*
X137066791Y-91167985D01*
X137169565Y-91122606D01*
X137249006Y-91043165D01*
X137294385Y-90940391D01*
X137297300Y-90915265D01*
X137297299Y-89475536D01*
X137296509Y-89468720D01*
X137294386Y-89450412D01*
X137294385Y-89450410D01*
X137294385Y-89450409D01*
X137249006Y-89347635D01*
X137169565Y-89268194D01*
X137169563Y-89268193D01*
X137066792Y-89222815D01*
X137041665Y-89219900D01*
X135601943Y-89219900D01*
X135601917Y-89219902D01*
X135576812Y-89222813D01*
X135576808Y-89222815D01*
X135474035Y-89268193D01*
X135394594Y-89347634D01*
X135349215Y-89450406D01*
X135349215Y-89450408D01*
X135346300Y-89475531D01*
X135346300Y-90915256D01*
X135346302Y-90915282D01*
X135349213Y-90940387D01*
X135349215Y-90940391D01*
X135394593Y-91043164D01*
X135394594Y-91043165D01*
X135474035Y-91122606D01*
X135576809Y-91167985D01*
X135601935Y-91170900D01*
X135685912Y-91170899D01*
X135752948Y-91190583D01*
X135798704Y-91243386D01*
X135808648Y-91312545D01*
X135779624Y-91376101D01*
X135764575Y-91390752D01*
X135628680Y-91502278D01*
X135610392Y-91524564D01*
X135552647Y-91563899D01*
X135514538Y-91569900D01*
X129969941Y-91569900D01*
X129969921Y-91569899D01*
X129963807Y-91569899D01*
X129840594Y-91569899D01*
X129739797Y-91589948D01*
X129739792Y-91589948D01*
X129719749Y-91593936D01*
X129719747Y-91593936D01*
X129672597Y-91613467D01*
X129605919Y-91641085D01*
X129605917Y-91641086D01*
X129503466Y-91709541D01*
X129503463Y-91709544D01*
X127869429Y-93343581D01*
X127808106Y-93377066D01*
X127781748Y-93379900D01*
X121598900Y-93379900D01*
X121531861Y-93360215D01*
X121486106Y-93307411D01*
X121474900Y-93255900D01*
X121474900Y-93181208D01*
X121494585Y-93114169D01*
X121500096Y-93106283D01*
X121572760Y-93010460D01*
X121572762Y-93010458D01*
X121627017Y-92872877D01*
X121637400Y-92786418D01*
X121637400Y-92227182D01*
X121627017Y-92140723D01*
X121572762Y-92003142D01*
X121500096Y-91907317D01*
X121475273Y-91842006D01*
X121474900Y-91832392D01*
X121474900Y-91095193D01*
X121474899Y-91095189D01*
X121450864Y-90974355D01*
X121450863Y-90974348D01*
X121426390Y-90915265D01*
X121426386Y-90915256D01*
X121419747Y-90899228D01*
X121403712Y-90860514D01*
X121369484Y-90809290D01*
X121335258Y-90758067D01*
X121335256Y-90758064D01*
X121245037Y-90667845D01*
X121245006Y-90667816D01*
X120149598Y-89572408D01*
X120149578Y-89572386D01*
X120058133Y-89480941D01*
X120003838Y-89444663D01*
X119955687Y-89412489D01*
X119955686Y-89412488D01*
X119955683Y-89412486D01*
X119955680Y-89412485D01*
X119875192Y-89379147D01*
X119841853Y-89365337D01*
X119831827Y-89363343D01*
X119781429Y-89353318D01*
X119721010Y-89341300D01*
X119721007Y-89341300D01*
X119721006Y-89341300D01*
X117384206Y-89341300D01*
X117093714Y-89341300D01*
X117026675Y-89321615D01*
X116980920Y-89268811D01*
X116970976Y-89199653D01*
X116979153Y-89169847D01*
X117017737Y-89076697D01*
X117048500Y-88922042D01*
X117048500Y-88764358D01*
X117048500Y-88764355D01*
X117048499Y-88764353D01*
X117017738Y-88609710D01*
X117017737Y-88609703D01*
X117017735Y-88609698D01*
X116957397Y-88464027D01*
X116957390Y-88464014D01*
X116869789Y-88332911D01*
X116869786Y-88332907D01*
X116758292Y-88221413D01*
X116758288Y-88221410D01*
X116627185Y-88133809D01*
X116627172Y-88133802D01*
X116481501Y-88073464D01*
X116481489Y-88073461D01*
X116326845Y-88042700D01*
X116326842Y-88042700D01*
X115469158Y-88042700D01*
X115469155Y-88042700D01*
X115314510Y-88073461D01*
X115314498Y-88073464D01*
X115168827Y-88133802D01*
X115168815Y-88133809D01*
X115074541Y-88196802D01*
X115007864Y-88217680D01*
X115005650Y-88217700D01*
X112990350Y-88217700D01*
X112923311Y-88198015D01*
X112921459Y-88196802D01*
X112827184Y-88133809D01*
X112827172Y-88133802D01*
X112681501Y-88073464D01*
X112681489Y-88073461D01*
X112526845Y-88042700D01*
X112526842Y-88042700D01*
X111669158Y-88042700D01*
X111669155Y-88042700D01*
X111514510Y-88073461D01*
X111514498Y-88073464D01*
X111368827Y-88133802D01*
X111368816Y-88133808D01*
X111335790Y-88155876D01*
X111269113Y-88176753D01*
X111201733Y-88158268D01*
X111155043Y-88106289D01*
X111142900Y-88052773D01*
X111142900Y-87289300D01*
X111162585Y-87222261D01*
X111215389Y-87176506D01*
X111266900Y-87165300D01*
X137653100Y-87165300D01*
X137720139Y-87184985D01*
G37*
%TD.AperFunction*%
M02*
