%TF.GenerationSoftware,KiCad,Pcbnew,8.0.8*%
%TF.CreationDate,2025-02-05T16:43:23+08:00*%
%TF.ProjectId,5V24VBoostUp(USBC),35563234-5642-46f6-9f73-745570285553,rev?*%
%TF.SameCoordinates,Original*%
%TF.FileFunction,Legend,Top*%
%TF.FilePolarity,Positive*%
%FSLAX46Y46*%
G04 Gerber Fmt 4.6, Leading zero omitted, Abs format (unit mm)*
G04 Created by KiCad (PCBNEW 8.0.8) date 2025-02-05 16:43:23*
%MOMM*%
%LPD*%
G01*
G04 APERTURE LIST*
%ADD10C,0.100000*%
%ADD11C,0.150000*%
%ADD12C,0.120000*%
G04 APERTURE END LIST*
D10*
X127381000Y-88290400D02*
X128244600Y-87909400D01*
X127381000Y-87477600D02*
X127381000Y-88290400D01*
X137134600Y-87617300D02*
X137134600Y-88557100D01*
X136705975Y-88087200D02*
X137563225Y-88087200D01*
X128244600Y-87452200D02*
X128244600Y-87909400D01*
X128244600Y-88315800D02*
X128244600Y-87909400D01*
X128244600Y-87909400D02*
X127381000Y-87477600D01*
X127381000Y-87884000D02*
X126923800Y-87884000D01*
X128244600Y-87909400D02*
X128600200Y-87909400D01*
D11*
X124674333Y-93317219D02*
X124341000Y-92841028D01*
X124102905Y-93317219D02*
X124102905Y-92317219D01*
X124102905Y-92317219D02*
X124483857Y-92317219D01*
X124483857Y-92317219D02*
X124579095Y-92364838D01*
X124579095Y-92364838D02*
X124626714Y-92412457D01*
X124626714Y-92412457D02*
X124674333Y-92507695D01*
X124674333Y-92507695D02*
X124674333Y-92650552D01*
X124674333Y-92650552D02*
X124626714Y-92745790D01*
X124626714Y-92745790D02*
X124579095Y-92793409D01*
X124579095Y-92793409D02*
X124483857Y-92841028D01*
X124483857Y-92841028D02*
X124102905Y-92841028D01*
X125626714Y-93317219D02*
X125055286Y-93317219D01*
X125341000Y-93317219D02*
X125341000Y-92317219D01*
X125341000Y-92317219D02*
X125245762Y-92460076D01*
X125245762Y-92460076D02*
X125150524Y-92555314D01*
X125150524Y-92555314D02*
X125055286Y-92602933D01*
X119888095Y-97194019D02*
X119888095Y-98003542D01*
X119888095Y-98003542D02*
X119935714Y-98098780D01*
X119935714Y-98098780D02*
X119983333Y-98146400D01*
X119983333Y-98146400D02*
X120078571Y-98194019D01*
X120078571Y-98194019D02*
X120269047Y-98194019D01*
X120269047Y-98194019D02*
X120364285Y-98146400D01*
X120364285Y-98146400D02*
X120411904Y-98098780D01*
X120411904Y-98098780D02*
X120459523Y-98003542D01*
X120459523Y-98003542D02*
X120459523Y-97194019D01*
X121459523Y-98194019D02*
X120888095Y-98194019D01*
X121173809Y-98194019D02*
X121173809Y-97194019D01*
X121173809Y-97194019D02*
X121078571Y-97336876D01*
X121078571Y-97336876D02*
X120983333Y-97432114D01*
X120983333Y-97432114D02*
X120888095Y-97479733D01*
X131252933Y-89131480D02*
X131205314Y-89179100D01*
X131205314Y-89179100D02*
X131062457Y-89226719D01*
X131062457Y-89226719D02*
X130967219Y-89226719D01*
X130967219Y-89226719D02*
X130824362Y-89179100D01*
X130824362Y-89179100D02*
X130729124Y-89083861D01*
X130729124Y-89083861D02*
X130681505Y-88988623D01*
X130681505Y-88988623D02*
X130633886Y-88798147D01*
X130633886Y-88798147D02*
X130633886Y-88655290D01*
X130633886Y-88655290D02*
X130681505Y-88464814D01*
X130681505Y-88464814D02*
X130729124Y-88369576D01*
X130729124Y-88369576D02*
X130824362Y-88274338D01*
X130824362Y-88274338D02*
X130967219Y-88226719D01*
X130967219Y-88226719D02*
X131062457Y-88226719D01*
X131062457Y-88226719D02*
X131205314Y-88274338D01*
X131205314Y-88274338D02*
X131252933Y-88321957D01*
X131633886Y-88321957D02*
X131681505Y-88274338D01*
X131681505Y-88274338D02*
X131776743Y-88226719D01*
X131776743Y-88226719D02*
X132014838Y-88226719D01*
X132014838Y-88226719D02*
X132110076Y-88274338D01*
X132110076Y-88274338D02*
X132157695Y-88321957D01*
X132157695Y-88321957D02*
X132205314Y-88417195D01*
X132205314Y-88417195D02*
X132205314Y-88512433D01*
X132205314Y-88512433D02*
X132157695Y-88655290D01*
X132157695Y-88655290D02*
X131586267Y-89226719D01*
X131586267Y-89226719D02*
X132205314Y-89226719D01*
X112352819Y-93496533D02*
X113067104Y-93496533D01*
X113067104Y-93496533D02*
X113209961Y-93544152D01*
X113209961Y-93544152D02*
X113305200Y-93639390D01*
X113305200Y-93639390D02*
X113352819Y-93782247D01*
X113352819Y-93782247D02*
X113352819Y-93877485D01*
X112352819Y-93115580D02*
X112352819Y-92496533D01*
X112352819Y-92496533D02*
X112733771Y-92829866D01*
X112733771Y-92829866D02*
X112733771Y-92687009D01*
X112733771Y-92687009D02*
X112781390Y-92591771D01*
X112781390Y-92591771D02*
X112829009Y-92544152D01*
X112829009Y-92544152D02*
X112924247Y-92496533D01*
X112924247Y-92496533D02*
X113162342Y-92496533D01*
X113162342Y-92496533D02*
X113257580Y-92544152D01*
X113257580Y-92544152D02*
X113305200Y-92591771D01*
X113305200Y-92591771D02*
X113352819Y-92687009D01*
X113352819Y-92687009D02*
X113352819Y-92972723D01*
X113352819Y-92972723D02*
X113305200Y-93067961D01*
X113305200Y-93067961D02*
X113257580Y-93115580D01*
X135429666Y-87542019D02*
X135429666Y-88256304D01*
X135429666Y-88256304D02*
X135382047Y-88399161D01*
X135382047Y-88399161D02*
X135286809Y-88494400D01*
X135286809Y-88494400D02*
X135143952Y-88542019D01*
X135143952Y-88542019D02*
X135048714Y-88542019D01*
X135858238Y-87637257D02*
X135905857Y-87589638D01*
X135905857Y-87589638D02*
X136001095Y-87542019D01*
X136001095Y-87542019D02*
X136239190Y-87542019D01*
X136239190Y-87542019D02*
X136334428Y-87589638D01*
X136334428Y-87589638D02*
X136382047Y-87637257D01*
X136382047Y-87637257D02*
X136429666Y-87732495D01*
X136429666Y-87732495D02*
X136429666Y-87827733D01*
X136429666Y-87827733D02*
X136382047Y-87970590D01*
X136382047Y-87970590D02*
X135810619Y-88542019D01*
X135810619Y-88542019D02*
X136429666Y-88542019D01*
X133564333Y-89132580D02*
X133516714Y-89180200D01*
X133516714Y-89180200D02*
X133373857Y-89227819D01*
X133373857Y-89227819D02*
X133278619Y-89227819D01*
X133278619Y-89227819D02*
X133135762Y-89180200D01*
X133135762Y-89180200D02*
X133040524Y-89084961D01*
X133040524Y-89084961D02*
X132992905Y-88989723D01*
X132992905Y-88989723D02*
X132945286Y-88799247D01*
X132945286Y-88799247D02*
X132945286Y-88656390D01*
X132945286Y-88656390D02*
X132992905Y-88465914D01*
X132992905Y-88465914D02*
X133040524Y-88370676D01*
X133040524Y-88370676D02*
X133135762Y-88275438D01*
X133135762Y-88275438D02*
X133278619Y-88227819D01*
X133278619Y-88227819D02*
X133373857Y-88227819D01*
X133373857Y-88227819D02*
X133516714Y-88275438D01*
X133516714Y-88275438D02*
X133564333Y-88323057D01*
X133897667Y-88227819D02*
X134516714Y-88227819D01*
X134516714Y-88227819D02*
X134183381Y-88608771D01*
X134183381Y-88608771D02*
X134326238Y-88608771D01*
X134326238Y-88608771D02*
X134421476Y-88656390D01*
X134421476Y-88656390D02*
X134469095Y-88704009D01*
X134469095Y-88704009D02*
X134516714Y-88799247D01*
X134516714Y-88799247D02*
X134516714Y-89037342D01*
X134516714Y-89037342D02*
X134469095Y-89132580D01*
X134469095Y-89132580D02*
X134421476Y-89180200D01*
X134421476Y-89180200D02*
X134326238Y-89227819D01*
X134326238Y-89227819D02*
X134040524Y-89227819D01*
X134040524Y-89227819D02*
X133945286Y-89180200D01*
X133945286Y-89180200D02*
X133897667Y-89132580D01*
X118273533Y-88802380D02*
X118225914Y-88850000D01*
X118225914Y-88850000D02*
X118083057Y-88897619D01*
X118083057Y-88897619D02*
X117987819Y-88897619D01*
X117987819Y-88897619D02*
X117844962Y-88850000D01*
X117844962Y-88850000D02*
X117749724Y-88754761D01*
X117749724Y-88754761D02*
X117702105Y-88659523D01*
X117702105Y-88659523D02*
X117654486Y-88469047D01*
X117654486Y-88469047D02*
X117654486Y-88326190D01*
X117654486Y-88326190D02*
X117702105Y-88135714D01*
X117702105Y-88135714D02*
X117749724Y-88040476D01*
X117749724Y-88040476D02*
X117844962Y-87945238D01*
X117844962Y-87945238D02*
X117987819Y-87897619D01*
X117987819Y-87897619D02*
X118083057Y-87897619D01*
X118083057Y-87897619D02*
X118225914Y-87945238D01*
X118225914Y-87945238D02*
X118273533Y-87992857D01*
X119225914Y-88897619D02*
X118654486Y-88897619D01*
X118940200Y-88897619D02*
X118940200Y-87897619D01*
X118940200Y-87897619D02*
X118844962Y-88040476D01*
X118844962Y-88040476D02*
X118749724Y-88135714D01*
X118749724Y-88135714D02*
X118654486Y-88183333D01*
X125093505Y-88415019D02*
X125093505Y-87415019D01*
X125093505Y-87415019D02*
X125331600Y-87415019D01*
X125331600Y-87415019D02*
X125474457Y-87462638D01*
X125474457Y-87462638D02*
X125569695Y-87557876D01*
X125569695Y-87557876D02*
X125617314Y-87653114D01*
X125617314Y-87653114D02*
X125664933Y-87843590D01*
X125664933Y-87843590D02*
X125664933Y-87986447D01*
X125664933Y-87986447D02*
X125617314Y-88176923D01*
X125617314Y-88176923D02*
X125569695Y-88272161D01*
X125569695Y-88272161D02*
X125474457Y-88367400D01*
X125474457Y-88367400D02*
X125331600Y-88415019D01*
X125331600Y-88415019D02*
X125093505Y-88415019D01*
X126617314Y-88415019D02*
X126045886Y-88415019D01*
X126331600Y-88415019D02*
X126331600Y-87415019D01*
X126331600Y-87415019D02*
X126236362Y-87557876D01*
X126236362Y-87557876D02*
X126141124Y-87653114D01*
X126141124Y-87653114D02*
X126045886Y-87700733D01*
X120153133Y-88923019D02*
X119676943Y-88923019D01*
X119676943Y-88923019D02*
X119676943Y-87923019D01*
X121010276Y-88923019D02*
X120438848Y-88923019D01*
X120724562Y-88923019D02*
X120724562Y-87923019D01*
X120724562Y-87923019D02*
X120629324Y-88065876D01*
X120629324Y-88065876D02*
X120534086Y-88161114D01*
X120534086Y-88161114D02*
X120438848Y-88208733D01*
X135621733Y-97025619D02*
X135288400Y-96549428D01*
X135050305Y-97025619D02*
X135050305Y-96025619D01*
X135050305Y-96025619D02*
X135431257Y-96025619D01*
X135431257Y-96025619D02*
X135526495Y-96073238D01*
X135526495Y-96073238D02*
X135574114Y-96120857D01*
X135574114Y-96120857D02*
X135621733Y-96216095D01*
X135621733Y-96216095D02*
X135621733Y-96358952D01*
X135621733Y-96358952D02*
X135574114Y-96454190D01*
X135574114Y-96454190D02*
X135526495Y-96501809D01*
X135526495Y-96501809D02*
X135431257Y-96549428D01*
X135431257Y-96549428D02*
X135050305Y-96549428D01*
X136002686Y-96120857D02*
X136050305Y-96073238D01*
X136050305Y-96073238D02*
X136145543Y-96025619D01*
X136145543Y-96025619D02*
X136383638Y-96025619D01*
X136383638Y-96025619D02*
X136478876Y-96073238D01*
X136478876Y-96073238D02*
X136526495Y-96120857D01*
X136526495Y-96120857D02*
X136574114Y-96216095D01*
X136574114Y-96216095D02*
X136574114Y-96311333D01*
X136574114Y-96311333D02*
X136526495Y-96454190D01*
X136526495Y-96454190D02*
X135955067Y-97025619D01*
X135955067Y-97025619D02*
X136574114Y-97025619D01*
D12*
%TO.C,R1*%
X124045400Y-98770600D02*
X124045400Y-93700600D01*
X133815400Y-93700600D02*
X124045400Y-93700600D01*
X133815400Y-98770600D02*
X124045400Y-98770600D01*
X133815400Y-98770600D02*
X133815400Y-93700600D01*
%TO.C,U1*%
X120520800Y-96717800D02*
X119720800Y-96717800D01*
X120520800Y-96717800D02*
X121320800Y-96717800D01*
X121520800Y-93497800D02*
X119720800Y-93497800D01*
X122060800Y-96997800D02*
X121580800Y-96997800D01*
X121820800Y-96667800D01*
X122060800Y-96997800D01*
G36*
X122060800Y-96997800D02*
G01*
X121580800Y-96997800D01*
X121820800Y-96667800D01*
X122060800Y-96997800D01*
G37*
%TO.C,C2*%
X130960400Y-91038633D02*
X130960400Y-91331167D01*
X131980400Y-91038633D02*
X131980400Y-91331167D01*
%TO.C,J3*%
X109388000Y-88583200D02*
X109388000Y-97743200D01*
X110898000Y-88583200D02*
X109388000Y-88583200D01*
X110898000Y-97743200D02*
X109388000Y-97743200D01*
X114798000Y-88583200D02*
X112798000Y-88583200D01*
X114798000Y-97743200D02*
X112798000Y-97743200D01*
%TO.C,J2*%
X135261800Y-89135400D02*
X136321800Y-89135400D01*
X135261800Y-90195400D02*
X135261800Y-89135400D01*
X135261800Y-91195400D02*
X135261800Y-93255400D01*
X135261800Y-91195400D02*
X137381800Y-91195400D01*
X135261800Y-93255400D02*
X137381800Y-93255400D01*
X137381800Y-91195400D02*
X137381800Y-93255400D01*
%TO.C,C3*%
X133271800Y-91039733D02*
X133271800Y-91332267D01*
X134291800Y-91039733D02*
X134291800Y-91332267D01*
%TO.C,C1*%
X117930200Y-90924767D02*
X117930200Y-90632233D01*
X118950200Y-90924767D02*
X118950200Y-90632233D01*
%TO.C,D1*%
X130341600Y-88672400D02*
X123331600Y-88672400D01*
X130341600Y-91972400D02*
X123331600Y-91972400D01*
X130341600Y-91972400D02*
X130341600Y-88672400D01*
%TO.C,L1*%
X119759000Y-90950867D02*
X119759000Y-90608333D01*
X120779000Y-90950867D02*
X120779000Y-90608333D01*
%TO.C,R2*%
X136043124Y-94422700D02*
X135533676Y-94422700D01*
X136043124Y-95467700D02*
X135533676Y-95467700D01*
%TD*%
M02*
