%TF.GenerationSoftware,KiCad,Pcbnew,8.0.8*%
%TF.CreationDate,2025-01-23T18:16:18+08:00*%
%TF.ProjectId,5V24VBoostUp,35563234-5642-46f6-9f73-7455702e6b69,rev?*%
%TF.SameCoordinates,Original*%
%TF.FileFunction,Copper,L1,Top*%
%TF.FilePolarity,Positive*%
%FSLAX46Y46*%
G04 Gerber Fmt 4.6, Leading zero omitted, Abs format (unit mm)*
G04 Created by KiCad (PCBNEW 8.0.8) date 2025-01-23 18:16:18*
%MOMM*%
%LPD*%
G01*
G04 APERTURE LIST*
G04 Aperture macros list*
%AMRoundRect*
0 Rectangle with rounded corners*
0 $1 Rounding radius*
0 $2 $3 $4 $5 $6 $7 $8 $9 X,Y pos of 4 corners*
0 Add a 4 corners polygon primitive as box body*
4,1,4,$2,$3,$4,$5,$6,$7,$8,$9,$2,$3,0*
0 Add four circle primitives for the rounded corners*
1,1,$1+$1,$2,$3*
1,1,$1+$1,$4,$5*
1,1,$1+$1,$6,$7*
1,1,$1+$1,$8,$9*
0 Add four rect primitives between the rounded corners*
20,1,$1+$1,$2,$3,$4,$5,0*
20,1,$1+$1,$4,$5,$6,$7,0*
20,1,$1+$1,$6,$7,$8,$9,0*
20,1,$1+$1,$8,$9,$2,$3,0*%
G04 Aperture macros list end*
%TA.AperFunction,ComponentPad*%
%ADD10R,1.350000X1.350000*%
%TD*%
%TA.AperFunction,ComponentPad*%
%ADD11O,1.350000X1.350000*%
%TD*%
%TA.AperFunction,SMDPad,CuDef*%
%ADD12RoundRect,0.162500X0.617500X0.162500X-0.617500X0.162500X-0.617500X-0.162500X0.617500X-0.162500X0*%
%TD*%
%TA.AperFunction,SMDPad,CuDef*%
%ADD13RoundRect,0.237500X0.237500X-0.300000X0.237500X0.300000X-0.237500X0.300000X-0.237500X-0.300000X0*%
%TD*%
%TA.AperFunction,SMDPad,CuDef*%
%ADD14RoundRect,0.237500X-0.237500X0.250000X-0.237500X-0.250000X0.237500X-0.250000X0.237500X0.250000X0*%
%TD*%
%TA.AperFunction,SMDPad,CuDef*%
%ADD15RoundRect,0.237500X-0.287500X-0.237500X0.287500X-0.237500X0.287500X0.237500X-0.287500X0.237500X0*%
%TD*%
%TA.AperFunction,SMDPad,CuDef*%
%ADD16RoundRect,0.237500X0.237500X-0.250000X0.237500X0.250000X-0.237500X0.250000X-0.237500X-0.250000X0*%
%TD*%
%TA.AperFunction,SMDPad,CuDef*%
%ADD17RoundRect,0.250000X1.500000X0.650000X-1.500000X0.650000X-1.500000X-0.650000X1.500000X-0.650000X0*%
%TD*%
%TA.AperFunction,Conductor*%
%ADD18C,0.500000*%
%TD*%
G04 APERTURE END LIST*
D10*
%TO.P,J2,1,Pin_1*%
%TO.N,Net-(D1-K)*%
X158648400Y-67614800D03*
D11*
%TO.P,J2,2,Pin_2*%
%TO.N,Net-(J1-Pin_1)*%
X158648400Y-65614800D03*
%TD*%
D10*
%TO.P,J1,1,Pin_1*%
%TO.N,Net-(J1-Pin_1)*%
X136296400Y-67368800D03*
D11*
%TO.P,J1,2,Pin_2*%
%TO.N,Net-(J1-Pin_2)*%
X136296400Y-69368800D03*
%TD*%
D12*
%TO.P,U1,1,SW*%
%TO.N,Net-(D1-A)*%
X144754600Y-68844200D03*
%TO.P,U1,2,GND*%
%TO.N,Net-(J1-Pin_1)*%
X144754600Y-67894200D03*
%TO.P,U1,3,FB*%
%TO.N,Net-(U1-FB)*%
X144754600Y-66944200D03*
%TO.P,U1,4,EN*%
%TO.N,Net-(J1-Pin_2)*%
X142054600Y-66944200D03*
%TO.P,U1,5,IN*%
X142054600Y-67894200D03*
%TO.P,U1,6,NC*%
%TO.N,unconnected-(U1-NC-Pad6)*%
X142054600Y-68844200D03*
%TD*%
D13*
%TO.P,C3,1*%
%TO.N,Net-(D1-K)*%
X156337000Y-68053500D03*
%TO.P,C3,2*%
%TO.N,Net-(J1-Pin_1)*%
X156337000Y-66328500D03*
%TD*%
D14*
%TO.P,R1,1*%
%TO.N,Net-(U1-FB)*%
X150926800Y-66319400D03*
%TO.P,R1,2*%
%TO.N,Net-(D1-K)*%
X150926800Y-68144400D03*
%TD*%
D15*
%TO.P,L1,1,1*%
%TO.N,Net-(J1-Pin_2)*%
X142519400Y-70510400D03*
%TO.P,L1,2,2*%
%TO.N,Net-(D1-A)*%
X144269400Y-70510400D03*
%TD*%
D13*
%TO.P,C1,1*%
%TO.N,Net-(J1-Pin_2)*%
X139293600Y-68732400D03*
%TO.P,C1,2*%
%TO.N,Net-(J1-Pin_1)*%
X139293600Y-67007400D03*
%TD*%
%TO.P,C2,1*%
%TO.N,Net-(D1-K)*%
X153365200Y-68069000D03*
%TO.P,C2,2*%
%TO.N,Net-(U1-FB)*%
X153365200Y-66344000D03*
%TD*%
D16*
%TO.P,R2,1*%
%TO.N,Net-(J1-Pin_1)*%
X148386800Y-68146300D03*
%TO.P,R2,2*%
%TO.N,Net-(U1-FB)*%
X148386800Y-66321300D03*
%TD*%
D17*
%TO.P,D1,1,K*%
%TO.N,Net-(D1-K)*%
X153361400Y-70967600D03*
%TO.P,D1,2,A*%
%TO.N,Net-(D1-A)*%
X148361400Y-70967600D03*
%TD*%
D18*
%TO.N,Net-(J1-Pin_1)*%
X157676600Y-65614800D02*
X158648400Y-65614800D01*
X156337000Y-66328500D02*
X156962900Y-66328500D01*
X156962900Y-66328500D02*
X157676600Y-65614800D01*
X137736200Y-67368800D02*
X136296400Y-67368800D01*
X138097600Y-67007400D02*
X137736200Y-67368800D01*
%TO.N,Net-(J1-Pin_2)*%
X137438000Y-69368800D02*
X136296400Y-69368800D01*
X138074400Y-68732400D02*
X137438000Y-69368800D01*
%TO.N,Net-(J1-Pin_1)*%
X146507200Y-67894200D02*
X146759300Y-68146300D01*
X146759300Y-68146300D02*
X148386800Y-68146300D01*
X156337000Y-66328500D02*
X155108700Y-65100200D01*
X139876250Y-67007400D02*
X141250050Y-65633600D01*
X143383000Y-66065400D02*
X143383000Y-67462400D01*
X143484600Y-65100200D02*
X142951200Y-65633600D01*
X143814800Y-67894200D02*
X144754600Y-67894200D01*
X144754600Y-67894200D02*
X146507200Y-67894200D01*
X142951200Y-65633600D02*
X143383000Y-66065400D01*
X143383000Y-67462400D02*
X143814800Y-67894200D01*
X141250050Y-65633600D02*
X142951200Y-65633600D01*
X138097600Y-67007400D02*
X139293600Y-67007400D01*
X139293600Y-67007400D02*
X139876250Y-67007400D01*
X155108700Y-65100200D02*
X143484600Y-65100200D01*
%TO.N,Net-(J1-Pin_2)*%
X139293600Y-68732400D02*
X139852400Y-68732400D01*
X141300200Y-70510400D02*
X142519400Y-70510400D01*
X140929400Y-66944200D02*
X140500100Y-67373500D01*
X140690600Y-67894200D02*
X142054600Y-67894200D01*
X138074400Y-68732400D02*
X139293600Y-68732400D01*
X139852400Y-68732400D02*
X140690600Y-67894200D01*
X140500100Y-69710300D02*
X141300200Y-70510400D01*
X140500100Y-67373500D02*
X140500100Y-69710300D01*
X142054600Y-66944200D02*
X140929400Y-66944200D01*
%TO.N,Net-(D1-K)*%
X156337000Y-68053500D02*
X156947700Y-68053500D01*
X153365200Y-68069000D02*
X156321500Y-68069000D01*
X156321500Y-68069000D02*
X156337000Y-68053500D01*
X153361400Y-68072800D02*
X153365200Y-68069000D01*
X150926800Y-68144400D02*
X153289800Y-68144400D01*
X156947700Y-68053500D02*
X157386400Y-67614800D01*
X157386400Y-67614800D02*
X158648400Y-67614800D01*
X153361400Y-70967600D02*
X153361400Y-68072800D01*
X153289800Y-68144400D02*
X153365200Y-68069000D01*
%TO.N,Net-(U1-FB)*%
X150926800Y-66319400D02*
X148388700Y-66319400D01*
X150951400Y-66344000D02*
X150926800Y-66319400D01*
X146339600Y-66944200D02*
X144754600Y-66944200D01*
X146962500Y-66321300D02*
X146339600Y-66944200D01*
X148386800Y-66321300D02*
X146962500Y-66321300D01*
X153365200Y-66344000D02*
X150951400Y-66344000D01*
X148388700Y-66319400D02*
X148386800Y-66321300D01*
%TO.N,Net-(D1-A)*%
X143992600Y-69646800D02*
X143560800Y-69646800D01*
X143677600Y-68844200D02*
X144754600Y-68844200D01*
X144269400Y-70510400D02*
X144269400Y-69923600D01*
X143383000Y-69469000D02*
X143383000Y-69138800D01*
X144269400Y-69923600D02*
X143992600Y-69646800D01*
X143560800Y-69646800D02*
X143383000Y-69469000D01*
X143383000Y-69138800D02*
X143677600Y-68844200D01*
X144269400Y-70510400D02*
X145288000Y-70510400D01*
X145745200Y-70967600D02*
X148361400Y-70967600D01*
X145288000Y-70510400D02*
X145745200Y-70967600D01*
%TD*%
M02*
