%TF.GenerationSoftware,KiCad,Pcbnew,8.0.8*%
%TF.CreationDate,2025-01-23T18:16:18+08:00*%
%TF.ProjectId,5V24VBoostUp,35563234-5642-46f6-9f73-7455702e6b69,rev?*%
%TF.SameCoordinates,Original*%
%TF.FileFunction,Legend,Top*%
%TF.FilePolarity,Positive*%
%FSLAX46Y46*%
G04 Gerber Fmt 4.6, Leading zero omitted, Abs format (unit mm)*
G04 Created by KiCad (PCBNEW 8.0.8) date 2025-01-23 18:16:18*
%MOMM*%
%LPD*%
G01*
G04 APERTURE LIST*
%ADD10C,0.150000*%
%ADD11C,0.120000*%
G04 APERTURE END LIST*
D10*
X158315066Y-69129619D02*
X158315066Y-69843904D01*
X158315066Y-69843904D02*
X158267447Y-69986761D01*
X158267447Y-69986761D02*
X158172209Y-70082000D01*
X158172209Y-70082000D02*
X158029352Y-70129619D01*
X158029352Y-70129619D02*
X157934114Y-70129619D01*
X158743638Y-69224857D02*
X158791257Y-69177238D01*
X158791257Y-69177238D02*
X158886495Y-69129619D01*
X158886495Y-69129619D02*
X159124590Y-69129619D01*
X159124590Y-69129619D02*
X159219828Y-69177238D01*
X159219828Y-69177238D02*
X159267447Y-69224857D01*
X159267447Y-69224857D02*
X159315066Y-69320095D01*
X159315066Y-69320095D02*
X159315066Y-69415333D01*
X159315066Y-69415333D02*
X159267447Y-69558190D01*
X159267447Y-69558190D02*
X158696019Y-70129619D01*
X158696019Y-70129619D02*
X159315066Y-70129619D01*
X135963066Y-64763619D02*
X135963066Y-65477904D01*
X135963066Y-65477904D02*
X135915447Y-65620761D01*
X135915447Y-65620761D02*
X135820209Y-65716000D01*
X135820209Y-65716000D02*
X135677352Y-65763619D01*
X135677352Y-65763619D02*
X135582114Y-65763619D01*
X136963066Y-65763619D02*
X136391638Y-65763619D01*
X136677352Y-65763619D02*
X136677352Y-64763619D01*
X136677352Y-64763619D02*
X136582114Y-64906476D01*
X136582114Y-64906476D02*
X136486876Y-65001714D01*
X136486876Y-65001714D02*
X136391638Y-65049333D01*
X142621095Y-64859819D02*
X142621095Y-65669342D01*
X142621095Y-65669342D02*
X142668714Y-65764580D01*
X142668714Y-65764580D02*
X142716333Y-65812200D01*
X142716333Y-65812200D02*
X142811571Y-65859819D01*
X142811571Y-65859819D02*
X143002047Y-65859819D01*
X143002047Y-65859819D02*
X143097285Y-65812200D01*
X143097285Y-65812200D02*
X143144904Y-65764580D01*
X143144904Y-65764580D02*
X143192523Y-65669342D01*
X143192523Y-65669342D02*
X143192523Y-64859819D01*
X144192523Y-65859819D02*
X143621095Y-65859819D01*
X143906809Y-65859819D02*
X143906809Y-64859819D01*
X143906809Y-64859819D02*
X143811571Y-65002676D01*
X143811571Y-65002676D02*
X143716333Y-65097914D01*
X143716333Y-65097914D02*
X143621095Y-65145533D01*
X156195733Y-65189480D02*
X156148114Y-65237100D01*
X156148114Y-65237100D02*
X156005257Y-65284719D01*
X156005257Y-65284719D02*
X155910019Y-65284719D01*
X155910019Y-65284719D02*
X155767162Y-65237100D01*
X155767162Y-65237100D02*
X155671924Y-65141861D01*
X155671924Y-65141861D02*
X155624305Y-65046623D01*
X155624305Y-65046623D02*
X155576686Y-64856147D01*
X155576686Y-64856147D02*
X155576686Y-64713290D01*
X155576686Y-64713290D02*
X155624305Y-64522814D01*
X155624305Y-64522814D02*
X155671924Y-64427576D01*
X155671924Y-64427576D02*
X155767162Y-64332338D01*
X155767162Y-64332338D02*
X155910019Y-64284719D01*
X155910019Y-64284719D02*
X156005257Y-64284719D01*
X156005257Y-64284719D02*
X156148114Y-64332338D01*
X156148114Y-64332338D02*
X156195733Y-64379957D01*
X156529067Y-64284719D02*
X157148114Y-64284719D01*
X157148114Y-64284719D02*
X156814781Y-64665671D01*
X156814781Y-64665671D02*
X156957638Y-64665671D01*
X156957638Y-64665671D02*
X157052876Y-64713290D01*
X157052876Y-64713290D02*
X157100495Y-64760909D01*
X157100495Y-64760909D02*
X157148114Y-64856147D01*
X157148114Y-64856147D02*
X157148114Y-65094242D01*
X157148114Y-65094242D02*
X157100495Y-65189480D01*
X157100495Y-65189480D02*
X157052876Y-65237100D01*
X157052876Y-65237100D02*
X156957638Y-65284719D01*
X156957638Y-65284719D02*
X156671924Y-65284719D01*
X156671924Y-65284719D02*
X156576686Y-65237100D01*
X156576686Y-65237100D02*
X156529067Y-65189480D01*
X150760133Y-65273719D02*
X150426800Y-64797528D01*
X150188705Y-65273719D02*
X150188705Y-64273719D01*
X150188705Y-64273719D02*
X150569657Y-64273719D01*
X150569657Y-64273719D02*
X150664895Y-64321338D01*
X150664895Y-64321338D02*
X150712514Y-64368957D01*
X150712514Y-64368957D02*
X150760133Y-64464195D01*
X150760133Y-64464195D02*
X150760133Y-64607052D01*
X150760133Y-64607052D02*
X150712514Y-64702290D01*
X150712514Y-64702290D02*
X150664895Y-64749909D01*
X150664895Y-64749909D02*
X150569657Y-64797528D01*
X150569657Y-64797528D02*
X150188705Y-64797528D01*
X151712514Y-65273719D02*
X151141086Y-65273719D01*
X151426800Y-65273719D02*
X151426800Y-64273719D01*
X151426800Y-64273719D02*
X151331562Y-64416576D01*
X151331562Y-64416576D02*
X151236324Y-64511814D01*
X151236324Y-64511814D02*
X151141086Y-64559433D01*
X140701733Y-70965219D02*
X140225543Y-70965219D01*
X140225543Y-70965219D02*
X140225543Y-69965219D01*
X141558876Y-70965219D02*
X140987448Y-70965219D01*
X141273162Y-70965219D02*
X141273162Y-69965219D01*
X141273162Y-69965219D02*
X141177924Y-70108076D01*
X141177924Y-70108076D02*
X141082686Y-70203314D01*
X141082686Y-70203314D02*
X140987448Y-70250933D01*
X139126933Y-65840780D02*
X139079314Y-65888400D01*
X139079314Y-65888400D02*
X138936457Y-65936019D01*
X138936457Y-65936019D02*
X138841219Y-65936019D01*
X138841219Y-65936019D02*
X138698362Y-65888400D01*
X138698362Y-65888400D02*
X138603124Y-65793161D01*
X138603124Y-65793161D02*
X138555505Y-65697923D01*
X138555505Y-65697923D02*
X138507886Y-65507447D01*
X138507886Y-65507447D02*
X138507886Y-65364590D01*
X138507886Y-65364590D02*
X138555505Y-65174114D01*
X138555505Y-65174114D02*
X138603124Y-65078876D01*
X138603124Y-65078876D02*
X138698362Y-64983638D01*
X138698362Y-64983638D02*
X138841219Y-64936019D01*
X138841219Y-64936019D02*
X138936457Y-64936019D01*
X138936457Y-64936019D02*
X139079314Y-64983638D01*
X139079314Y-64983638D02*
X139126933Y-65031257D01*
X140079314Y-65936019D02*
X139507886Y-65936019D01*
X139793600Y-65936019D02*
X139793600Y-64936019D01*
X139793600Y-64936019D02*
X139698362Y-65078876D01*
X139698362Y-65078876D02*
X139603124Y-65174114D01*
X139603124Y-65174114D02*
X139507886Y-65221733D01*
X153198533Y-65178480D02*
X153150914Y-65226100D01*
X153150914Y-65226100D02*
X153008057Y-65273719D01*
X153008057Y-65273719D02*
X152912819Y-65273719D01*
X152912819Y-65273719D02*
X152769962Y-65226100D01*
X152769962Y-65226100D02*
X152674724Y-65130861D01*
X152674724Y-65130861D02*
X152627105Y-65035623D01*
X152627105Y-65035623D02*
X152579486Y-64845147D01*
X152579486Y-64845147D02*
X152579486Y-64702290D01*
X152579486Y-64702290D02*
X152627105Y-64511814D01*
X152627105Y-64511814D02*
X152674724Y-64416576D01*
X152674724Y-64416576D02*
X152769962Y-64321338D01*
X152769962Y-64321338D02*
X152912819Y-64273719D01*
X152912819Y-64273719D02*
X153008057Y-64273719D01*
X153008057Y-64273719D02*
X153150914Y-64321338D01*
X153150914Y-64321338D02*
X153198533Y-64368957D01*
X153579486Y-64368957D02*
X153627105Y-64321338D01*
X153627105Y-64321338D02*
X153722343Y-64273719D01*
X153722343Y-64273719D02*
X153960438Y-64273719D01*
X153960438Y-64273719D02*
X154055676Y-64321338D01*
X154055676Y-64321338D02*
X154103295Y-64368957D01*
X154103295Y-64368957D02*
X154150914Y-64464195D01*
X154150914Y-64464195D02*
X154150914Y-64559433D01*
X154150914Y-64559433D02*
X154103295Y-64702290D01*
X154103295Y-64702290D02*
X153531867Y-65273719D01*
X153531867Y-65273719D02*
X154150914Y-65273719D01*
X148270933Y-65250219D02*
X147937600Y-64774028D01*
X147699505Y-65250219D02*
X147699505Y-64250219D01*
X147699505Y-64250219D02*
X148080457Y-64250219D01*
X148080457Y-64250219D02*
X148175695Y-64297838D01*
X148175695Y-64297838D02*
X148223314Y-64345457D01*
X148223314Y-64345457D02*
X148270933Y-64440695D01*
X148270933Y-64440695D02*
X148270933Y-64583552D01*
X148270933Y-64583552D02*
X148223314Y-64678790D01*
X148223314Y-64678790D02*
X148175695Y-64726409D01*
X148175695Y-64726409D02*
X148080457Y-64774028D01*
X148080457Y-64774028D02*
X147699505Y-64774028D01*
X148651886Y-64345457D02*
X148699505Y-64297838D01*
X148699505Y-64297838D02*
X148794743Y-64250219D01*
X148794743Y-64250219D02*
X149032838Y-64250219D01*
X149032838Y-64250219D02*
X149128076Y-64297838D01*
X149128076Y-64297838D02*
X149175695Y-64345457D01*
X149175695Y-64345457D02*
X149223314Y-64440695D01*
X149223314Y-64440695D02*
X149223314Y-64535933D01*
X149223314Y-64535933D02*
X149175695Y-64678790D01*
X149175695Y-64678790D02*
X148604267Y-65250219D01*
X148604267Y-65250219D02*
X149223314Y-65250219D01*
X150123305Y-73911619D02*
X150123305Y-72911619D01*
X150123305Y-72911619D02*
X150361400Y-72911619D01*
X150361400Y-72911619D02*
X150504257Y-72959238D01*
X150504257Y-72959238D02*
X150599495Y-73054476D01*
X150599495Y-73054476D02*
X150647114Y-73149714D01*
X150647114Y-73149714D02*
X150694733Y-73340190D01*
X150694733Y-73340190D02*
X150694733Y-73483047D01*
X150694733Y-73483047D02*
X150647114Y-73673523D01*
X150647114Y-73673523D02*
X150599495Y-73768761D01*
X150599495Y-73768761D02*
X150504257Y-73864000D01*
X150504257Y-73864000D02*
X150361400Y-73911619D01*
X150361400Y-73911619D02*
X150123305Y-73911619D01*
X151647114Y-73911619D02*
X151075686Y-73911619D01*
X151361400Y-73911619D02*
X151361400Y-72911619D01*
X151361400Y-72911619D02*
X151266162Y-73054476D01*
X151266162Y-73054476D02*
X151170924Y-73149714D01*
X151170924Y-73149714D02*
X151075686Y-73197333D01*
D11*
%TO.C,J2*%
X159708400Y-68674800D02*
X158648400Y-68674800D01*
X159708400Y-67614800D02*
X159708400Y-68674800D01*
X159708400Y-66614800D02*
X159708400Y-64554800D01*
X159708400Y-66614800D02*
X157588400Y-66614800D01*
X159708400Y-64554800D02*
X157588400Y-64554800D01*
X157588400Y-66614800D02*
X157588400Y-64554800D01*
%TO.C,J1*%
X135236400Y-66308800D02*
X136296400Y-66308800D01*
X135236400Y-67368800D02*
X135236400Y-66308800D01*
X135236400Y-68368800D02*
X135236400Y-70428800D01*
X135236400Y-68368800D02*
X137356400Y-68368800D01*
X135236400Y-70428800D02*
X137356400Y-70428800D01*
X137356400Y-68368800D02*
X137356400Y-70428800D01*
%TO.C,U1*%
X143304600Y-69504200D02*
X142504600Y-69504200D01*
X143304600Y-69504200D02*
X144104600Y-69504200D01*
X144304600Y-66284200D02*
X142504600Y-66284200D01*
X144844600Y-69784200D02*
X144364600Y-69784200D01*
X144604600Y-69454200D01*
X144844600Y-69784200D01*
G36*
X144844600Y-69784200D02*
G01*
X144364600Y-69784200D01*
X144604600Y-69454200D01*
X144844600Y-69784200D01*
G37*
%TO.C,C3*%
X155827000Y-67337267D02*
X155827000Y-67044733D01*
X156847000Y-67337267D02*
X156847000Y-67044733D01*
%TO.C,R1*%
X150404300Y-66977176D02*
X150404300Y-67486624D01*
X151449300Y-66977176D02*
X151449300Y-67486624D01*
%TO.C,L1*%
X143223133Y-70000400D02*
X143565667Y-70000400D01*
X143223133Y-71020400D02*
X143565667Y-71020400D01*
%TO.C,C1*%
X138783600Y-68016167D02*
X138783600Y-67723633D01*
X139803600Y-68016167D02*
X139803600Y-67723633D01*
%TO.C,C2*%
X152855200Y-67352767D02*
X152855200Y-67060233D01*
X153875200Y-67352767D02*
X153875200Y-67060233D01*
%TO.C,R2*%
X147864300Y-67488524D02*
X147864300Y-66979076D01*
X148909300Y-67488524D02*
X148909300Y-66979076D01*
%TO.C,D1*%
X155371400Y-69317600D02*
X148361400Y-69317600D01*
X155371400Y-72617600D02*
X148361400Y-72617600D01*
X155371400Y-72617600D02*
X155371400Y-69317600D01*
%TD*%
M02*
