%TF.GenerationSoftware,KiCad,Pcbnew,8.0.8*%
%TF.CreationDate,2025-01-23T18:16:16+08:00*%
%TF.ProjectId,5V24VBoostUp,35563234-5642-46f6-9f73-7455702e6b69,rev?*%
%TF.SameCoordinates,Original*%
%TF.FileFunction,Drillmap*%
%TF.FilePolarity,Positive*%
%FSLAX45Y45*%
G04 Gerber Fmt 4.5, Leading zero omitted, Abs format (unit mm)*
G04 Created by KiCad (PCBNEW 8.0.8) date 2025-01-23 18:16:16*
%MOMM*%
%LPD*%
G01*
G04 APERTURE LIST*
%ADD10C,0.050000*%
%ADD11C,0.200000*%
%ADD12C,0.100000*%
G04 APERTURE END LIST*
D10*
X13401040Y-6324600D02*
X16250920Y-6324600D01*
X16250920Y-7467600D01*
X13401040Y-7467600D01*
X13401040Y-6324600D01*
D11*
D12*
X13589640Y-6696880D02*
X13669640Y-6776880D01*
X13669640Y-6696880D02*
X13589640Y-6776880D01*
X13589640Y-6896880D02*
X13669640Y-6976880D01*
X13669640Y-6896880D02*
X13589640Y-6976880D01*
X15824840Y-6521480D02*
X15904840Y-6601480D01*
X15904840Y-6521480D02*
X15824840Y-6601480D01*
X15824840Y-6721480D02*
X15904840Y-6801480D01*
X15904840Y-6721480D02*
X15824840Y-6801480D01*
D11*
X13659317Y-7781584D02*
X13659317Y-7581584D01*
X13659317Y-7581584D02*
X13706936Y-7581584D01*
X13706936Y-7581584D02*
X13735507Y-7591108D01*
X13735507Y-7591108D02*
X13754555Y-7610155D01*
X13754555Y-7610155D02*
X13764079Y-7629203D01*
X13764079Y-7629203D02*
X13773602Y-7667298D01*
X13773602Y-7667298D02*
X13773602Y-7695869D01*
X13773602Y-7695869D02*
X13764079Y-7733965D01*
X13764079Y-7733965D02*
X13754555Y-7753012D01*
X13754555Y-7753012D02*
X13735507Y-7772060D01*
X13735507Y-7772060D02*
X13706936Y-7781584D01*
X13706936Y-7781584D02*
X13659317Y-7781584D01*
X13859317Y-7781584D02*
X13859317Y-7648250D01*
X13859317Y-7686346D02*
X13868841Y-7667298D01*
X13868841Y-7667298D02*
X13878364Y-7657774D01*
X13878364Y-7657774D02*
X13897412Y-7648250D01*
X13897412Y-7648250D02*
X13916460Y-7648250D01*
X13983126Y-7781584D02*
X13983126Y-7648250D01*
X13983126Y-7581584D02*
X13973602Y-7591108D01*
X13973602Y-7591108D02*
X13983126Y-7600631D01*
X13983126Y-7600631D02*
X13992650Y-7591108D01*
X13992650Y-7591108D02*
X13983126Y-7581584D01*
X13983126Y-7581584D02*
X13983126Y-7600631D01*
X14106936Y-7781584D02*
X14087888Y-7772060D01*
X14087888Y-7772060D02*
X14078364Y-7753012D01*
X14078364Y-7753012D02*
X14078364Y-7581584D01*
X14211698Y-7781584D02*
X14192650Y-7772060D01*
X14192650Y-7772060D02*
X14183126Y-7753012D01*
X14183126Y-7753012D02*
X14183126Y-7581584D01*
X14440269Y-7781584D02*
X14440269Y-7581584D01*
X14440269Y-7581584D02*
X14506936Y-7724441D01*
X14506936Y-7724441D02*
X14573602Y-7581584D01*
X14573602Y-7581584D02*
X14573602Y-7781584D01*
X14754555Y-7781584D02*
X14754555Y-7676822D01*
X14754555Y-7676822D02*
X14745031Y-7657774D01*
X14745031Y-7657774D02*
X14725983Y-7648250D01*
X14725983Y-7648250D02*
X14687888Y-7648250D01*
X14687888Y-7648250D02*
X14668841Y-7657774D01*
X14754555Y-7772060D02*
X14735507Y-7781584D01*
X14735507Y-7781584D02*
X14687888Y-7781584D01*
X14687888Y-7781584D02*
X14668841Y-7772060D01*
X14668841Y-7772060D02*
X14659317Y-7753012D01*
X14659317Y-7753012D02*
X14659317Y-7733965D01*
X14659317Y-7733965D02*
X14668841Y-7714917D01*
X14668841Y-7714917D02*
X14687888Y-7705393D01*
X14687888Y-7705393D02*
X14735507Y-7705393D01*
X14735507Y-7705393D02*
X14754555Y-7695869D01*
X14849793Y-7648250D02*
X14849793Y-7848250D01*
X14849793Y-7657774D02*
X14868841Y-7648250D01*
X14868841Y-7648250D02*
X14906936Y-7648250D01*
X14906936Y-7648250D02*
X14925983Y-7657774D01*
X14925983Y-7657774D02*
X14935507Y-7667298D01*
X14935507Y-7667298D02*
X14945031Y-7686346D01*
X14945031Y-7686346D02*
X14945031Y-7743488D01*
X14945031Y-7743488D02*
X14935507Y-7762536D01*
X14935507Y-7762536D02*
X14925983Y-7772060D01*
X14925983Y-7772060D02*
X14906936Y-7781584D01*
X14906936Y-7781584D02*
X14868841Y-7781584D01*
X14868841Y-7781584D02*
X14849793Y-7772060D01*
X15030745Y-7762536D02*
X15040269Y-7772060D01*
X15040269Y-7772060D02*
X15030745Y-7781584D01*
X15030745Y-7781584D02*
X15021222Y-7772060D01*
X15021222Y-7772060D02*
X15030745Y-7762536D01*
X15030745Y-7762536D02*
X15030745Y-7781584D01*
X15030745Y-7657774D02*
X15040269Y-7667298D01*
X15040269Y-7667298D02*
X15030745Y-7676822D01*
X15030745Y-7676822D02*
X15021222Y-7667298D01*
X15021222Y-7667298D02*
X15030745Y-7657774D01*
X15030745Y-7657774D02*
X15030745Y-7676822D01*
D12*
X13318540Y-8070100D02*
X13398540Y-8150100D01*
X13398540Y-8070100D02*
X13318540Y-8150100D01*
D11*
X13697412Y-8001584D02*
X13716460Y-8001584D01*
X13716460Y-8001584D02*
X13735507Y-8011108D01*
X13735507Y-8011108D02*
X13745031Y-8020631D01*
X13745031Y-8020631D02*
X13754555Y-8039679D01*
X13754555Y-8039679D02*
X13764079Y-8077774D01*
X13764079Y-8077774D02*
X13764079Y-8125393D01*
X13764079Y-8125393D02*
X13754555Y-8163488D01*
X13754555Y-8163488D02*
X13745031Y-8182536D01*
X13745031Y-8182536D02*
X13735507Y-8192060D01*
X13735507Y-8192060D02*
X13716460Y-8201584D01*
X13716460Y-8201584D02*
X13697412Y-8201584D01*
X13697412Y-8201584D02*
X13678364Y-8192060D01*
X13678364Y-8192060D02*
X13668841Y-8182536D01*
X13668841Y-8182536D02*
X13659317Y-8163488D01*
X13659317Y-8163488D02*
X13649793Y-8125393D01*
X13649793Y-8125393D02*
X13649793Y-8077774D01*
X13649793Y-8077774D02*
X13659317Y-8039679D01*
X13659317Y-8039679D02*
X13668841Y-8020631D01*
X13668841Y-8020631D02*
X13678364Y-8011108D01*
X13678364Y-8011108D02*
X13697412Y-8001584D01*
X13849793Y-8182536D02*
X13859317Y-8192060D01*
X13859317Y-8192060D02*
X13849793Y-8201584D01*
X13849793Y-8201584D02*
X13840269Y-8192060D01*
X13840269Y-8192060D02*
X13849793Y-8182536D01*
X13849793Y-8182536D02*
X13849793Y-8201584D01*
X13973602Y-8087298D02*
X13954555Y-8077774D01*
X13954555Y-8077774D02*
X13945031Y-8068250D01*
X13945031Y-8068250D02*
X13935507Y-8049203D01*
X13935507Y-8049203D02*
X13935507Y-8039679D01*
X13935507Y-8039679D02*
X13945031Y-8020631D01*
X13945031Y-8020631D02*
X13954555Y-8011108D01*
X13954555Y-8011108D02*
X13973602Y-8001584D01*
X13973602Y-8001584D02*
X14011698Y-8001584D01*
X14011698Y-8001584D02*
X14030745Y-8011108D01*
X14030745Y-8011108D02*
X14040269Y-8020631D01*
X14040269Y-8020631D02*
X14049793Y-8039679D01*
X14049793Y-8039679D02*
X14049793Y-8049203D01*
X14049793Y-8049203D02*
X14040269Y-8068250D01*
X14040269Y-8068250D02*
X14030745Y-8077774D01*
X14030745Y-8077774D02*
X14011698Y-8087298D01*
X14011698Y-8087298D02*
X13973602Y-8087298D01*
X13973602Y-8087298D02*
X13954555Y-8096822D01*
X13954555Y-8096822D02*
X13945031Y-8106346D01*
X13945031Y-8106346D02*
X13935507Y-8125393D01*
X13935507Y-8125393D02*
X13935507Y-8163488D01*
X13935507Y-8163488D02*
X13945031Y-8182536D01*
X13945031Y-8182536D02*
X13954555Y-8192060D01*
X13954555Y-8192060D02*
X13973602Y-8201584D01*
X13973602Y-8201584D02*
X14011698Y-8201584D01*
X14011698Y-8201584D02*
X14030745Y-8192060D01*
X14030745Y-8192060D02*
X14040269Y-8182536D01*
X14040269Y-8182536D02*
X14049793Y-8163488D01*
X14049793Y-8163488D02*
X14049793Y-8125393D01*
X14049793Y-8125393D02*
X14040269Y-8106346D01*
X14040269Y-8106346D02*
X14030745Y-8096822D01*
X14030745Y-8096822D02*
X14011698Y-8087298D01*
X14173602Y-8001584D02*
X14192650Y-8001584D01*
X14192650Y-8001584D02*
X14211698Y-8011108D01*
X14211698Y-8011108D02*
X14221222Y-8020631D01*
X14221222Y-8020631D02*
X14230745Y-8039679D01*
X14230745Y-8039679D02*
X14240269Y-8077774D01*
X14240269Y-8077774D02*
X14240269Y-8125393D01*
X14240269Y-8125393D02*
X14230745Y-8163488D01*
X14230745Y-8163488D02*
X14221222Y-8182536D01*
X14221222Y-8182536D02*
X14211698Y-8192060D01*
X14211698Y-8192060D02*
X14192650Y-8201584D01*
X14192650Y-8201584D02*
X14173602Y-8201584D01*
X14173602Y-8201584D02*
X14154555Y-8192060D01*
X14154555Y-8192060D02*
X14145031Y-8182536D01*
X14145031Y-8182536D02*
X14135507Y-8163488D01*
X14135507Y-8163488D02*
X14125983Y-8125393D01*
X14125983Y-8125393D02*
X14125983Y-8077774D01*
X14125983Y-8077774D02*
X14135507Y-8039679D01*
X14135507Y-8039679D02*
X14145031Y-8020631D01*
X14145031Y-8020631D02*
X14154555Y-8011108D01*
X14154555Y-8011108D02*
X14173602Y-8001584D01*
X14364079Y-8001584D02*
X14383126Y-8001584D01*
X14383126Y-8001584D02*
X14402174Y-8011108D01*
X14402174Y-8011108D02*
X14411698Y-8020631D01*
X14411698Y-8020631D02*
X14421222Y-8039679D01*
X14421222Y-8039679D02*
X14430745Y-8077774D01*
X14430745Y-8077774D02*
X14430745Y-8125393D01*
X14430745Y-8125393D02*
X14421222Y-8163488D01*
X14421222Y-8163488D02*
X14411698Y-8182536D01*
X14411698Y-8182536D02*
X14402174Y-8192060D01*
X14402174Y-8192060D02*
X14383126Y-8201584D01*
X14383126Y-8201584D02*
X14364079Y-8201584D01*
X14364079Y-8201584D02*
X14345031Y-8192060D01*
X14345031Y-8192060D02*
X14335507Y-8182536D01*
X14335507Y-8182536D02*
X14325983Y-8163488D01*
X14325983Y-8163488D02*
X14316460Y-8125393D01*
X14316460Y-8125393D02*
X14316460Y-8077774D01*
X14316460Y-8077774D02*
X14325983Y-8039679D01*
X14325983Y-8039679D02*
X14335507Y-8020631D01*
X14335507Y-8020631D02*
X14345031Y-8011108D01*
X14345031Y-8011108D02*
X14364079Y-8001584D01*
X14516460Y-8201584D02*
X14516460Y-8068250D01*
X14516460Y-8087298D02*
X14525983Y-8077774D01*
X14525983Y-8077774D02*
X14545031Y-8068250D01*
X14545031Y-8068250D02*
X14573603Y-8068250D01*
X14573603Y-8068250D02*
X14592650Y-8077774D01*
X14592650Y-8077774D02*
X14602174Y-8096822D01*
X14602174Y-8096822D02*
X14602174Y-8201584D01*
X14602174Y-8096822D02*
X14611698Y-8077774D01*
X14611698Y-8077774D02*
X14630745Y-8068250D01*
X14630745Y-8068250D02*
X14659317Y-8068250D01*
X14659317Y-8068250D02*
X14678364Y-8077774D01*
X14678364Y-8077774D02*
X14687888Y-8096822D01*
X14687888Y-8096822D02*
X14687888Y-8201584D01*
X14783126Y-8201584D02*
X14783126Y-8068250D01*
X14783126Y-8087298D02*
X14792650Y-8077774D01*
X14792650Y-8077774D02*
X14811698Y-8068250D01*
X14811698Y-8068250D02*
X14840269Y-8068250D01*
X14840269Y-8068250D02*
X14859317Y-8077774D01*
X14859317Y-8077774D02*
X14868841Y-8096822D01*
X14868841Y-8096822D02*
X14868841Y-8201584D01*
X14868841Y-8096822D02*
X14878364Y-8077774D01*
X14878364Y-8077774D02*
X14897412Y-8068250D01*
X14897412Y-8068250D02*
X14925983Y-8068250D01*
X14925983Y-8068250D02*
X14945031Y-8077774D01*
X14945031Y-8077774D02*
X14954555Y-8096822D01*
X14954555Y-8096822D02*
X14954555Y-8201584D01*
X15345031Y-7992060D02*
X15173603Y-8249203D01*
X15602174Y-8001584D02*
X15621222Y-8001584D01*
X15621222Y-8001584D02*
X15640269Y-8011108D01*
X15640269Y-8011108D02*
X15649793Y-8020631D01*
X15649793Y-8020631D02*
X15659317Y-8039679D01*
X15659317Y-8039679D02*
X15668841Y-8077774D01*
X15668841Y-8077774D02*
X15668841Y-8125393D01*
X15668841Y-8125393D02*
X15659317Y-8163488D01*
X15659317Y-8163488D02*
X15649793Y-8182536D01*
X15649793Y-8182536D02*
X15640269Y-8192060D01*
X15640269Y-8192060D02*
X15621222Y-8201584D01*
X15621222Y-8201584D02*
X15602174Y-8201584D01*
X15602174Y-8201584D02*
X15583126Y-8192060D01*
X15583126Y-8192060D02*
X15573603Y-8182536D01*
X15573603Y-8182536D02*
X15564079Y-8163488D01*
X15564079Y-8163488D02*
X15554555Y-8125393D01*
X15554555Y-8125393D02*
X15554555Y-8077774D01*
X15554555Y-8077774D02*
X15564079Y-8039679D01*
X15564079Y-8039679D02*
X15573603Y-8020631D01*
X15573603Y-8020631D02*
X15583126Y-8011108D01*
X15583126Y-8011108D02*
X15602174Y-8001584D01*
X15754555Y-8182536D02*
X15764079Y-8192060D01*
X15764079Y-8192060D02*
X15754555Y-8201584D01*
X15754555Y-8201584D02*
X15745031Y-8192060D01*
X15745031Y-8192060D02*
X15754555Y-8182536D01*
X15754555Y-8182536D02*
X15754555Y-8201584D01*
X15887888Y-8001584D02*
X15906936Y-8001584D01*
X15906936Y-8001584D02*
X15925984Y-8011108D01*
X15925984Y-8011108D02*
X15935507Y-8020631D01*
X15935507Y-8020631D02*
X15945031Y-8039679D01*
X15945031Y-8039679D02*
X15954555Y-8077774D01*
X15954555Y-8077774D02*
X15954555Y-8125393D01*
X15954555Y-8125393D02*
X15945031Y-8163488D01*
X15945031Y-8163488D02*
X15935507Y-8182536D01*
X15935507Y-8182536D02*
X15925984Y-8192060D01*
X15925984Y-8192060D02*
X15906936Y-8201584D01*
X15906936Y-8201584D02*
X15887888Y-8201584D01*
X15887888Y-8201584D02*
X15868841Y-8192060D01*
X15868841Y-8192060D02*
X15859317Y-8182536D01*
X15859317Y-8182536D02*
X15849793Y-8163488D01*
X15849793Y-8163488D02*
X15840269Y-8125393D01*
X15840269Y-8125393D02*
X15840269Y-8077774D01*
X15840269Y-8077774D02*
X15849793Y-8039679D01*
X15849793Y-8039679D02*
X15859317Y-8020631D01*
X15859317Y-8020631D02*
X15868841Y-8011108D01*
X15868841Y-8011108D02*
X15887888Y-8001584D01*
X16021222Y-8001584D02*
X16145031Y-8001584D01*
X16145031Y-8001584D02*
X16078365Y-8077774D01*
X16078365Y-8077774D02*
X16106936Y-8077774D01*
X16106936Y-8077774D02*
X16125984Y-8087298D01*
X16125984Y-8087298D02*
X16135507Y-8096822D01*
X16135507Y-8096822D02*
X16145031Y-8115869D01*
X16145031Y-8115869D02*
X16145031Y-8163488D01*
X16145031Y-8163488D02*
X16135507Y-8182536D01*
X16135507Y-8182536D02*
X16125984Y-8192060D01*
X16125984Y-8192060D02*
X16106936Y-8201584D01*
X16106936Y-8201584D02*
X16049793Y-8201584D01*
X16049793Y-8201584D02*
X16030746Y-8192060D01*
X16030746Y-8192060D02*
X16021222Y-8182536D01*
X16335507Y-8201584D02*
X16221222Y-8201584D01*
X16278365Y-8201584D02*
X16278365Y-8001584D01*
X16278365Y-8001584D02*
X16259317Y-8030155D01*
X16259317Y-8030155D02*
X16240269Y-8049203D01*
X16240269Y-8049203D02*
X16221222Y-8058727D01*
X16516460Y-8001584D02*
X16421222Y-8001584D01*
X16421222Y-8001584D02*
X16411698Y-8096822D01*
X16411698Y-8096822D02*
X16421222Y-8087298D01*
X16421222Y-8087298D02*
X16440269Y-8077774D01*
X16440269Y-8077774D02*
X16487888Y-8077774D01*
X16487888Y-8077774D02*
X16506936Y-8087298D01*
X16506936Y-8087298D02*
X16516460Y-8096822D01*
X16516460Y-8096822D02*
X16525984Y-8115869D01*
X16525984Y-8115869D02*
X16525984Y-8163488D01*
X16525984Y-8163488D02*
X16516460Y-8182536D01*
X16516460Y-8182536D02*
X16506936Y-8192060D01*
X16506936Y-8192060D02*
X16487888Y-8201584D01*
X16487888Y-8201584D02*
X16440269Y-8201584D01*
X16440269Y-8201584D02*
X16421222Y-8192060D01*
X16421222Y-8192060D02*
X16411698Y-8182536D01*
X16602174Y-8001584D02*
X16602174Y-8039679D01*
X16678365Y-8001584D02*
X16678365Y-8039679D01*
X16973603Y-8277774D02*
X16964079Y-8268250D01*
X16964079Y-8268250D02*
X16945031Y-8239679D01*
X16945031Y-8239679D02*
X16935508Y-8220631D01*
X16935508Y-8220631D02*
X16925984Y-8192060D01*
X16925984Y-8192060D02*
X16916460Y-8144441D01*
X16916460Y-8144441D02*
X16916460Y-8106346D01*
X16916460Y-8106346D02*
X16925984Y-8058727D01*
X16925984Y-8058727D02*
X16935508Y-8030155D01*
X16935508Y-8030155D02*
X16945031Y-8011108D01*
X16945031Y-8011108D02*
X16964079Y-7982536D01*
X16964079Y-7982536D02*
X16973603Y-7973012D01*
X17135508Y-8068250D02*
X17135508Y-8201584D01*
X17087889Y-7992060D02*
X17040270Y-8134917D01*
X17040270Y-8134917D02*
X17164079Y-8134917D01*
X17392651Y-8201584D02*
X17392651Y-8001584D01*
X17478365Y-8201584D02*
X17478365Y-8096822D01*
X17478365Y-8096822D02*
X17468841Y-8077774D01*
X17468841Y-8077774D02*
X17449793Y-8068250D01*
X17449793Y-8068250D02*
X17421222Y-8068250D01*
X17421222Y-8068250D02*
X17402174Y-8077774D01*
X17402174Y-8077774D02*
X17392651Y-8087298D01*
X17602174Y-8201584D02*
X17583127Y-8192060D01*
X17583127Y-8192060D02*
X17573603Y-8182536D01*
X17573603Y-8182536D02*
X17564079Y-8163488D01*
X17564079Y-8163488D02*
X17564079Y-8106346D01*
X17564079Y-8106346D02*
X17573603Y-8087298D01*
X17573603Y-8087298D02*
X17583127Y-8077774D01*
X17583127Y-8077774D02*
X17602174Y-8068250D01*
X17602174Y-8068250D02*
X17630746Y-8068250D01*
X17630746Y-8068250D02*
X17649793Y-8077774D01*
X17649793Y-8077774D02*
X17659317Y-8087298D01*
X17659317Y-8087298D02*
X17668841Y-8106346D01*
X17668841Y-8106346D02*
X17668841Y-8163488D01*
X17668841Y-8163488D02*
X17659317Y-8182536D01*
X17659317Y-8182536D02*
X17649793Y-8192060D01*
X17649793Y-8192060D02*
X17630746Y-8201584D01*
X17630746Y-8201584D02*
X17602174Y-8201584D01*
X17783127Y-8201584D02*
X17764079Y-8192060D01*
X17764079Y-8192060D02*
X17754555Y-8173012D01*
X17754555Y-8173012D02*
X17754555Y-8001584D01*
X17935508Y-8192060D02*
X17916460Y-8201584D01*
X17916460Y-8201584D02*
X17878365Y-8201584D01*
X17878365Y-8201584D02*
X17859317Y-8192060D01*
X17859317Y-8192060D02*
X17849793Y-8173012D01*
X17849793Y-8173012D02*
X17849793Y-8096822D01*
X17849793Y-8096822D02*
X17859317Y-8077774D01*
X17859317Y-8077774D02*
X17878365Y-8068250D01*
X17878365Y-8068250D02*
X17916460Y-8068250D01*
X17916460Y-8068250D02*
X17935508Y-8077774D01*
X17935508Y-8077774D02*
X17945032Y-8096822D01*
X17945032Y-8096822D02*
X17945032Y-8115869D01*
X17945032Y-8115869D02*
X17849793Y-8134917D01*
X18021222Y-8192060D02*
X18040270Y-8201584D01*
X18040270Y-8201584D02*
X18078365Y-8201584D01*
X18078365Y-8201584D02*
X18097413Y-8192060D01*
X18097413Y-8192060D02*
X18106936Y-8173012D01*
X18106936Y-8173012D02*
X18106936Y-8163488D01*
X18106936Y-8163488D02*
X18097413Y-8144441D01*
X18097413Y-8144441D02*
X18078365Y-8134917D01*
X18078365Y-8134917D02*
X18049793Y-8134917D01*
X18049793Y-8134917D02*
X18030746Y-8125393D01*
X18030746Y-8125393D02*
X18021222Y-8106346D01*
X18021222Y-8106346D02*
X18021222Y-8096822D01*
X18021222Y-8096822D02*
X18030746Y-8077774D01*
X18030746Y-8077774D02*
X18049793Y-8068250D01*
X18049793Y-8068250D02*
X18078365Y-8068250D01*
X18078365Y-8068250D02*
X18097413Y-8077774D01*
X18173603Y-8277774D02*
X18183127Y-8268250D01*
X18183127Y-8268250D02*
X18202174Y-8239679D01*
X18202174Y-8239679D02*
X18211698Y-8220631D01*
X18211698Y-8220631D02*
X18221222Y-8192060D01*
X18221222Y-8192060D02*
X18230746Y-8144441D01*
X18230746Y-8144441D02*
X18230746Y-8106346D01*
X18230746Y-8106346D02*
X18221222Y-8058727D01*
X18221222Y-8058727D02*
X18211698Y-8030155D01*
X18211698Y-8030155D02*
X18202174Y-8011108D01*
X18202174Y-8011108D02*
X18183127Y-7982536D01*
X18183127Y-7982536D02*
X18173603Y-7973012D01*
M02*
